<svg xmlns="http://www.w3.org/2000/svg" width="633" height="521" viewBox="0 0 633 521">
    <defs>
        <linearGradient id="a" x1="-32.5%" x2="-2.027%" y1="1.873%" y2="19.632%">
            <stop offset="0%" stop-color="#223762"/>
            <stop offset="100%" stop-color="#041B48"/>
        </linearGradient>
        <linearGradient id="b" x1="54.783%" x2="42.93%" y1="29.512%" y2="80.31%">
            <stop offset="0%" stop-color="#3769A5"/>
            <stop offset="100%" stop-color="#08448B"/>
        </linearGradient>
        <linearGradient id="c" x1="56.201%" x2="42.859%" y1="30.637%" y2="82.447%">
            <stop offset="0%" stop-color="#223762"/>
            <stop offset="100%" stop-color="#041B48"/>
        </linearGradient>
        <linearGradient id="d" x1="276.299%" x2="-40.246%" y1="305.845%" y2="-52.027%">
            <stop offset="0%" stop-color="#223762"/>
            <stop offset="100%" stop-color="#041B48"/>
        </linearGradient>
        <linearGradient id="e" x1="61.253%" x2="56.268%" y1="52.386%" y2="51.425%">
            <stop offset="0%" stop-color="#FFC063"/>
            <stop offset="95%" stop-color="#E44D0B"/>
        </linearGradient>
        <linearGradient id="f" x1="57.752%" x2="33.185%" y1="32.75%" y2="104.142%">
            <stop offset="0%" stop-color="#FFC063"/>
            <stop offset="95%" stop-color="#E44D0B"/>
        </linearGradient>
        <linearGradient id="g" x1="50.486%" x2="43.387%" y1="67.15%" y2="32.017%">
            <stop offset="0%" stop-color="#F8A695"/>
            <stop offset="100%" stop-color="#E56045"/>
        </linearGradient>
        <linearGradient id="h" x1="66.358%" x2="45.923%" y1="63.76%" y2="52.574%">
            <stop offset="0%" stop-color="#223762"/>
            <stop offset="100%" stop-color="#041B48"/>
        </linearGradient>
        <linearGradient id="i" x1="28.709%" x2="53.114%" y1="50%" y2="50%">
            <stop offset="0%" stop-color="#223762"/>
            <stop offset="100%" stop-color="#041B48"/>
        </linearGradient>
        <linearGradient id="j" x1="41.226%" x2="45.532%" y1="45.54%" y2="47.728%">
            <stop offset="0%" stop-color="#223762"/>
            <stop offset="100%" stop-color="#041B48"/>
        </linearGradient>
        <linearGradient id="k" x1="52.401%" x2="49.083%" y1="57.876%" y2="30.595%">
            <stop offset="0%" stop-color="#F8A695"/>
            <stop offset="100%" stop-color="#E56045"/>
        </linearGradient>
        <linearGradient id="l" x1="45.504%" x2="56.506%" y1="86.675%" y2="-6.284%">
            <stop offset="0%" stop-color="#223762"/>
            <stop offset="100%" stop-color="#041B48"/>
        </linearGradient>
        <linearGradient id="m" x1="66.964%" x2="44.885%" y1="41.223%" y2="53.052%">
            <stop offset="0%" stop-color="#223762"/>
            <stop offset="100%" stop-color="#041B48"/>
        </linearGradient>
        <linearGradient id="n" x1="48.643%" x2="50.285%" y1="48.553%" y2="50.303%">
            <stop offset="0%" stop-color="#223762"/>
            <stop offset="100%" stop-color="#041B48"/>
        </linearGradient>
        <linearGradient id="o" x1="51.089%" x2="38.893%" y1="77.611%" y2="-53.692%">
            <stop offset="0%" stop-color="#F8A695"/>
            <stop offset="100%" stop-color="#E56045"/>
        </linearGradient>
        <linearGradient id="p" x1="55.857%" x2="48.11%" y1="6.234%" y2="91.315%">
            <stop offset="0%" stop-color="#FFC063"/>
            <stop offset="95%" stop-color="#E44D0B"/>
        </linearGradient>
        <linearGradient id="q" x1="8.048%" x2="86.315%" y1="41.541%" y2="57.341%">
            <stop offset="0%" stop-color="#223762"/>
            <stop offset="100%" stop-color="#041B48"/>
        </linearGradient>
        <linearGradient id="r" x1="45.168%" x2="54.65%" y1="44.336%" y2="50.676%">
            <stop offset="0%" stop-color="#3769A5"/>
            <stop offset="100%" stop-color="#08448B"/>
        </linearGradient>
        <linearGradient id="s" x1="18.883%" x2="77.14%" y1="46.012%" y2="55.787%">
            <stop offset="0%" stop-color="#4C93F4"/>
            <stop offset="100%" stop-color="#0B63DA"/>
        </linearGradient>
        <linearGradient id="t" x1="154.653%" x2="-20.353%" y1="185.648%" y2="-25.051%">
            <stop offset="0%" stop-color="#FFC063"/>
            <stop offset="95%" stop-color="#E44D0B"/>
        </linearGradient>
        <linearGradient id="u" x1="19.298%" x2="76.148%" y1="45.089%" y2="54.131%">
            <stop offset="0%" stop-color="#3769A5"/>
            <stop offset="100%" stop-color="#08448B"/>
        </linearGradient>
        <linearGradient id="v" x1="54.483%" x2="43.042%" y1="30.022%" y2="81.008%">
            <stop offset="0%" stop-color="#3769A5"/>
            <stop offset="100%" stop-color="#08448B"/>
        </linearGradient>
        <linearGradient id="w" x1="51.287%" x2="48.341%" y1="32.786%" y2="77.16%">
            <stop offset="0%" stop-color="#4C93F4"/>
            <stop offset="100%" stop-color="#0B63DA"/>
        </linearGradient>
        <linearGradient id="x" x1="100%" x2="0%" y1="49.967%" y2="49.967%">
            <stop offset="0%" stop-color="#223762"/>
            <stop offset="100%" stop-color="#041B48"/>
        </linearGradient>
        <linearGradient id="y" x1="63.349%" x2="79.588%" y1="49.286%" y2="46.461%">
            <stop offset="0%" stop-color="#F8A695"/>
            <stop offset="100%" stop-color="#E56045"/>
        </linearGradient>
        <linearGradient id="z" x1="61.781%" x2="30.643%" y1="33.867%" y2="119.332%">
            <stop offset="0%" stop-color="#FFC063"/>
            <stop offset="95%" stop-color="#E44D0B"/>
        </linearGradient>
        <linearGradient id="A" x1="65.658%" x2="26.839%" y1="24.477%" y2="93.046%">
            <stop offset="0%" stop-color="#4C93F4"/>
            <stop offset="100%" stop-color="#0B63DA"/>
        </linearGradient>
        <linearGradient id="B" x1="64.552%" x2="80.672%" y1="49.366%" y2="48.663%">
            <stop offset="0%" stop-color="#4C93F4"/>
            <stop offset="100%" stop-color="#0B63DA"/>
        </linearGradient>
        <linearGradient id="C" x1="50.67%" x2="51.412%" y1="44.623%" y2="38.665%">
            <stop offset="0%" stop-color="#3769A5"/>
            <stop offset="100%" stop-color="#08448B"/>
        </linearGradient>
        <linearGradient id="D" x1="64.804%" x2="81.212%" y1="49.085%" y2="48.07%">
            <stop offset="0%" stop-color="#4C93F4"/>
            <stop offset="100%" stop-color="#0B63DA"/>
        </linearGradient>
        <linearGradient id="E" x1="51.277%" x2="32.634%" y1="28.43%" y2="127.246%">
            <stop offset="0%" stop-color="#223762"/>
            <stop offset="100%" stop-color="#041B48"/>
        </linearGradient>
        <linearGradient id="F" x1="57.171%" x2="38.529%" y1="26.88%" y2="125.696%">
            <stop offset="0%" stop-color="#223762"/>
            <stop offset="100%" stop-color="#041B48"/>
        </linearGradient>
        <linearGradient id="G" x1="57.093%" x2="49.981%" y1="10.094%" y2="66.209%">
            <stop offset="0%" stop-color="#223762"/>
            <stop offset="100%" stop-color="#041B48"/>
        </linearGradient>
        <linearGradient id="H" x1="52.44%" x2="45.267%" y1="15.057%" y2="71.172%">
            <stop offset="0%" stop-color="#223762"/>
            <stop offset="100%" stop-color="#041B48"/>
        </linearGradient>
        <linearGradient id="I" x1="53.156%" x2="29.715%" y1="27.314%" y2="129.459%">
            <stop offset="0%" stop-color="#4C93F4"/>
            <stop offset="100%" stop-color="#0B63DA"/>
        </linearGradient>
        <linearGradient id="J" x1="67.588%" x2="21.995%" y1="9.157%" y2="113.406%">
            <stop offset="0%" stop-color="#3769A5"/>
            <stop offset="100%" stop-color="#08448B"/>
        </linearGradient>
        <linearGradient id="K" x1="65.485%" x2="46.076%" y1="-10.552%" y2="84.231%">
            <stop offset="0%" stop-color="#4C93F4"/>
            <stop offset="100%" stop-color="#0B63DA"/>
        </linearGradient>
        <linearGradient id="L" x1="75.267%" x2="37.53%" y1="-24.941%" y2="71.78%">
            <stop offset="0%" stop-color="#3769A5"/>
            <stop offset="100%" stop-color="#08448B"/>
        </linearGradient>
        <linearGradient id="M" x1="92.182%" x2="18.922%" y1="6.482%" y2="73.03%">
            <stop offset="0%" stop-color="#FF9F5B"/>
            <stop offset="100%" stop-color="#E5670E"/>
        </linearGradient>
        <linearGradient id="N" x1="74.995%" x2="44.949%" y1="-5.447%" y2="61.214%">
            <stop offset="0%" stop-color="#FF9F5B"/>
            <stop offset="100%" stop-color="#E5670E"/>
        </linearGradient>
        <linearGradient id="O" x1="43.945%" x2="46.915%" y1="46.138%" y2="48.039%">
            <stop offset="0%" stop-color="#4C93F4"/>
            <stop offset="100%" stop-color="#0B63DA"/>
        </linearGradient>
        <linearGradient id="P" x1="43.941%" x2="46.915%" y1="46.138%" y2="48.039%">
            <stop offset="0%" stop-color="#3769A5"/>
            <stop offset="100%" stop-color="#08448B"/>
        </linearGradient>
        <linearGradient id="Q" x1="-8.328%" x2="10.534%" y1="50%" y2="50%">
            <stop offset="0%" stop-color="#3769A5"/>
            <stop offset="100%" stop-color="#08448B"/>
        </linearGradient>
        <linearGradient id="R" x1="46.685%" x2="48.312%" y1="46.879%" y2="48.419%">
            <stop offset="0%" stop-color="#4C93F4"/>
            <stop offset="100%" stop-color="#0B63DA"/>
        </linearGradient>
        <linearGradient id="S" x1="46.685%" x2="48.312%" y1="46.879%" y2="48.419%">
            <stop offset="0%" stop-color="#3769A5"/>
            <stop offset="100%" stop-color="#08448B"/>
        </linearGradient>
        <linearGradient id="T" x1="-8.358%" x2="10.533%" y1="50%" y2="50%">
            <stop offset="0%" stop-color="#3769A5"/>
            <stop offset="100%" stop-color="#08448B"/>
        </linearGradient>
        <linearGradient id="U" x1="0%" y1="49.99%" y2="49.99%">
            <stop offset="0%" stop-color="#4C93F4"/>
            <stop offset="100%" stop-color="#0B63DA"/>
        </linearGradient>
        <linearGradient id="V" x1="0%" y1="49.785%" y2="49.785%">
            <stop offset="0%" stop-color="#223762"/>
            <stop offset="100%" stop-color="#041B48"/>
        </linearGradient>
        <linearGradient id="W" x1="71.612%" x2="7.293%" y1="17.011%" y2="78.233%">
            <stop offset="0%" stop-color="#223762"/>
            <stop offset="100%" stop-color="#041B48"/>
        </linearGradient>
        <linearGradient id="X" x1="3.581%" x2="40.574%" y1="60.013%" y2="45.508%">
            <stop offset="0%" stop-color="#FFC063"/>
            <stop offset="95%" stop-color="#E44D0B"/>
        </linearGradient>
        <linearGradient id="Y" x1="61.532%" x2="26.251%" y1="-12.439%" y2="146.656%">
            <stop offset="0%" stop-color="#FFC063"/>
            <stop offset="95%" stop-color="#E44D0B"/>
        </linearGradient>
        <linearGradient id="Z" x1="158.936%" x2="135.592%" y1="-359.397%" y2="-273.487%">
            <stop offset="0%" stop-color="#223762"/>
            <stop offset="100%" stop-color="#041B48"/>
        </linearGradient>
        <linearGradient id="aa" x1="41.48%" x2="58.295%" y1="47.47%" y2="52.973%">
            <stop offset="0%" stop-color="#223762"/>
            <stop offset="100%" stop-color="#041B48"/>
        </linearGradient>
        <linearGradient id="ab" x1="54.795%" x2="45.131%" y1="1.791%" y2="88.793%">
            <stop offset="0%" stop-color="#223762"/>
            <stop offset="100%" stop-color="#041B48"/>
        </linearGradient>
        <linearGradient id="ac" x1="0%" y1="50%" y2="50%">
            <stop offset="0%" stop-color="#3769A5"/>
            <stop offset="100%" stop-color="#08448B"/>
        </linearGradient>
        <linearGradient id="ad" x1="51.35%" x2="46.169%" y1="2.062%" y2="129.902%">
            <stop offset="0%" stop-color="#4C93F4"/>
            <stop offset="100%" stop-color="#0B63DA"/>
        </linearGradient>
        <linearGradient id="ae" x1="59.631%" x2="43.184%" y1="-8.294%" y2="91.289%">
            <stop offset="0%" stop-color="#3769A5"/>
            <stop offset="100%" stop-color="#08448B"/>
        </linearGradient>
        <linearGradient id="af" x1="137.777%" x2="3.306%" y1="8.326%" y2="68.262%">
            <stop offset="0%" stop-color="#FF9F5B"/>
            <stop offset="100%" stop-color="#E5670E"/>
        </linearGradient>
        <linearGradient id="ag" x1="312.575%" x2="259.466%" y1="49.995%" y2="49.995%">
            <stop offset="0%" stop-color="#FF9F5B"/>
            <stop offset="100%" stop-color="#E5670E"/>
        </linearGradient>
        <linearGradient id="ah" x1="113.526%" x2="91.346%" y1="-249.664%" y2="-144.899%">
            <stop offset="0%" stop-color="#4C93F4"/>
            <stop offset="100%" stop-color="#0B63DA"/>
        </linearGradient>
        <linearGradient id="ai" x1="376.577%" x2="271.812%" y1="119.249%" y2="97.032%">
            <stop offset="0%" stop-color="#4C93F4"/>
            <stop offset="100%" stop-color="#0B63DA"/>
        </linearGradient>
        <linearGradient id="aj" x1="368.035%" x2="291.691%" y1="117.291%" y2="101.139%">
            <stop offset="0%" stop-color="#4C93F4"/>
            <stop offset="100%" stop-color="#0B63DA"/>
        </linearGradient>
        <linearGradient id="ak" x1="413.832%" x2="337.537%" y1="126.982%" y2="110.83%">
            <stop offset="0%" stop-color="#4C93F4"/>
            <stop offset="100%" stop-color="#0B63DA"/>
        </linearGradient>
        <linearGradient id="al" x1="42.044%" x2="52.335%" y1="-5.153%" y2="87.033%">
            <stop offset="0%" stop-color="#3769A5"/>
            <stop offset="100%" stop-color="#08448B"/>
        </linearGradient>
        <linearGradient id="am" x1="45.327%" x2="55.624%" y1="-7.975%" y2="84.211%">
            <stop offset="0%" stop-color="#4C93F4"/>
            <stop offset="100%" stop-color="#0B63DA"/>
        </linearGradient>
        <linearGradient id="an" x1="43.88%" x2="58.638%" y1="-20.942%" y2="111.202%">
            <stop offset="0%" stop-color="#4C93F4"/>
            <stop offset="100%" stop-color="#0B63DA"/>
        </linearGradient>
        <linearGradient id="ao" x1="113.353%" x2="91.197%" y1="-249.565%" y2="-144.87%">
            <stop offset="0%" stop-color="#4C93F4"/>
            <stop offset="100%" stop-color="#0B63DA"/>
        </linearGradient>
        <linearGradient id="ap" x1="113.304%" x2="91.197%" y1="-249.478%" y2="-144.783%">
            <stop offset="0%" stop-color="#4C93F4"/>
            <stop offset="100%" stop-color="#0B63DA"/>
        </linearGradient>
        <linearGradient id="aq" x1="376.435%" x2="271.739%" y1="119.099%" y2="96.943%">
            <stop offset="0%" stop-color="#4C93F4"/>
            <stop offset="100%" stop-color="#0B63DA"/>
        </linearGradient>
        <linearGradient id="ar" x1="376.435%" x2="271.739%" y1="119.05%" y2="96.894%">
            <stop offset="0%" stop-color="#4C93F4"/>
            <stop offset="100%" stop-color="#0B63DA"/>
        </linearGradient>
        <linearGradient id="as" x1="368.061%" x2="291.698%" y1="117.31%" y2="101.157%">
            <stop offset="0%" stop-color="#4C93F4"/>
            <stop offset="100%" stop-color="#0B63DA"/>
        </linearGradient>
        <linearGradient id="at" x1="413.878%" x2="337.579%" y1="127.001%" y2="110.848%">
            <stop offset="0%" stop-color="#4C93F4"/>
            <stop offset="100%" stop-color="#0B63DA"/>
        </linearGradient>
        <linearGradient id="au" x1="41.729%" x2="45.368%" y1="146.44%" y2="104.397%">
            <stop offset="0%" stop-color="#FFC063"/>
            <stop offset="95%" stop-color="#E44D0B"/>
        </linearGradient>
        <linearGradient id="av" x1="53.885%" x2="47.415%" y1="87.345%" y2="37.853%">
            <stop offset="0%" stop-color="#4C93F4"/>
            <stop offset="100%" stop-color="#0B63DA"/>
        </linearGradient>
    </defs>
    <g fill="none" fillRule="evenodd" transform="translate(-1)">
        <g fillRule="nonzero">
            <path fill="#FFF3D7" d="M199 341.072c.007 7.032-5.668 12.74-12.68 12.754L19.15 354a12.674 12.674 0 0 1-8.982-3.71 12.749 12.749 0 0 1-3.735-8.995l-.111-108.383-.223-122.504L6 18.916v-1.988A12.761 12.761 0 0 1 9.717 7.91a12.686 12.686 0 0 1 8.988-3.736L185.875 4a12.696 12.696 0 0 1 12.085 8.768c.408 1.277.616 2.609.619 3.95v60.68l.223 195.678.198 67.996zM415 341.073a12.742 12.742 0 0 1-3.707 9.012 12.688 12.688 0 0 1-8.982 3.741L235.024 354c-7.017.014-12.718-5.672-12.739-12.704l-.074-68.298L222 75.552V16.927a12.742 12.742 0 0 1 3.711-9.016 12.688 12.688 0 0 1 8.99-3.737L401.99 4a12.692 12.692 0 0 1 12.094 8.767c.412 1.276.625 2.608.632 3.949v97.605l.161 159.149.124 67.603zM630 341.072c.007 7.032-5.674 12.74-12.692 12.754l-167.33.174a12.693 12.693 0 0 1-8.991-3.71 12.741 12.741 0 0 1-3.74-8.994l-.098-90.021L437 111.99V16.928a12.754 12.754 0 0 1 3.72-9.018 12.705 12.705 0 0 1 8.997-3.736L617.047 4a12.707 12.707 0 0 1 12.098 8.767 13.05 13.05 0 0 1 .62 3.95l.16 148.287.075 176.068z"/>
            <g fill="#FCE3B1">
                <path d="M199.043 273.11l.074 68.064a12.755 12.755 0 0 1-3.719 9.016 12.72 12.72 0 0 1-8.996 3.742l-167.475.174a12.707 12.707 0 0 1-8.999-3.712 12.742 12.742 0 0 1-3.742-8.997l-.112-108.413h20.507v60.027h37.576v-99.568l22.48-22.51v-56.188l13.087 13.094v105.083l37.862 37.914v39.877l37.601-37.653h23.844l.012.05zM414.218 273.532l.074 67.642a12.742 12.742 0 0 1-3.711 9.015 12.707 12.707 0 0 1-8.992 3.743l-167.475.174c-7.025.013-12.733-5.674-12.753-12.709l-.075-68.325h35.344v-36.398l16.387-16.398v42.001h27.169v-90.685h17.454v-47.368h17.567v88.536l13.546 13.566v62.871l24.936 24.957 40.529-40.622zM629.479 341.174c.007 7.034-5.679 12.744-12.703 12.758l-167.475.174a12.707 12.707 0 0 1-9-3.712 12.742 12.742 0 0 1-3.741-8.997l-.1-90.052 11.898-11.913v-60.374l24.96-24.995v87.766h80.636v39.815h17.368v-20.882l19.253-19.268v-37.628l38.78-38.834.124 176.142z"/>
            </g>
            <g fill="#FFF">
                <path d="M198.987 46.253v31.858c-21.21 3.32-38.004 10.28-57.898 12.671-31.43 3.778-42.42-3.778-76.789 14.17-18.741 9.798-41.452 8.906-58.209 6.07l-.099-91.25c35.97-5.054 52.18 25.44 75.66 36.006 29.334 13.229 59.635 0 90.866-7.555a92.477 92.477 0 0 1 26.469-1.97zM331.417 68.09c-23.815 8.51-44.342 15.137-89.775 9.451a158.9 158.9 0 0 0-20.404-1.238V48.867c20.354 3.369 42.171 9.091 63.976 12.634 40.67 6.59 70.017-1.908 46.203 6.59zM414.159 73.417v41.531c-5.287.532-10.606.669-15.914.409-20.527-1.425-21.767-19.818-21.767-19.818-4.701-11.544 2.828-17.49 26.046-21.738a44.836 44.836 0 0 1 11.635-.384zM586.676 119.147c-23.194 2.353-34.196-11.148-67.201 1.883-33.005 13.03-24.62-2.366-44.032-8.089-9.922-2.923-24.447-1.87-39.033-.322V77.492c19.052 4.707 38.71 11.234 49.018 8.088 17.054-5.19 24.62.483 44.503 13.229 19.882 12.745 39.28 0 68.64-3.308 29.358-3.307 11.299 21.28-11.895 23.646z"/>
            </g>
            <path fill="#4667AC" d="M14.71 348.712a8.09 8.09 0 0 1-4.065-7.012l-.087-75.258-4.623.497v17.548l-1.38-.062c.497 1.353.982 2.693 1.38 4.058v3.488c-.063.149-.137.335-.212.496a63.098 63.098 0 0 1-1.243 2.718 332.155 332.155 0 0 1-3.194 6.875V333.236c.03.058.052.12.062.186.425 1.462.605 2.984.535 4.505v.459c0 .149 0 .397-.063.596l-.1.695c0 .335-.111.645-.186.955-.077.348-.173.692-.285 1.03v1.241a7.638 7.638 0 0 0 2.548-1.017c.149-.348.286-.695.41-1.055a.496.496 0 0 1 .062-.161c.072-.033.147-.058.224-.075a.124.124 0 0 1 0-.062h.186l1.243-.1v2.409c.021.35.067.698.137 1.042 0 .298.112.596.186.881.075.286.137.509.212.757.049.192.115.379.198.559 0 .111.087.235.137.347.05.112.1.236.15.348.132.318.281.628.447.93a.235.235 0 0 0 0 .062c.149.261.31.534.485.795.156.257.326.505.51.744a.285.285 0 0 1 .061.087c.149.21.31.408.485.596.162.198.336.385.51.558l2.399-.248a.1.1 0 0 0 .062 0c1.243-.36 2.349-.744 3.468-1.13-.112-.16-.398-.31-.66-.458zm0 0a8.09 8.09 0 0 1-4.065-7.012l-.087-75.258-4.623.497v17.548l-1.38-.062c.497 1.353.982 2.693 1.38 4.058v3.488c-.063.149-.137.335-.212.496a63.098 63.098 0 0 1-1.243 2.718 332.155 332.155 0 0 1-3.194 6.875V333.236c.03.058.052.12.062.186.425 1.462.605 2.984.535 4.505v.459c0 .149 0 .397-.063.596-.017.233-.05.466-.1.695 0 .335-.111.645-.186.955-.077.348-.173.692-.285 1.03v1.241a7.638 7.638 0 0 0 2.548-1.017c.149-.348.286-.695.41-1.055 0-.112.087-.236.137-.36a.124.124 0 0 1 0-.062h.186l1.243-.1v2.409c.02.35.067.698.137 1.042 0 .298.112.596.186.881.075.285.137.509.211.757.05.192.116.379.2.558 0 .112.086.236.136.348.05.112.1.236.15.347.131.319.28.63.447.931a.235.235 0 0 0 0 .062c.149.26.31.534.484.795.157.257.327.505.51.744a.285.285 0 0 1 .062.087c.148.21.31.408.485.596.162.198.336.385.51.558l2.398-.248a.1.1 0 0 0 .063 0c1.243-.36 2.349-.745 3.467-1.13.038-.037-.248-.185-.51-.334zM199.426 6.056a5.711 5.711 0 0 0-.41-.484l-.1-.111A17.34 17.34 0 0 0 186.276 0L18.4.186C8.791.186 1 7.966 1 17.561l.348 324.114v1.24c.064.891.197 1.775.398 2.644.111.491.248.976.41 1.452.298.921.676 1.814 1.131 2.669.215.413.448.827.696 1.24.236.385.485.745.733 1.093A17.41 17.41 0 0 0 18.687 359l167.874-.186h.945c.198.016.398.016.596 0 .313-.016.624-.049.933-.1.111.009.224.009.335 0l.858-.16.659-.162a5.75 5.75 0 0 0 .708-.199c.2-.06.395-.135.584-.223a8.61 8.61 0 0 0 .846-.298c.285-.112.51-.236.783-.36.385-.186.783-.36 1.143-.558.36-.199.734-.41 1.094-.646l.758-.533c.36-.261.709-.546 1.057-.844a15.862 15.862 0 0 0 1.529-1.465A17.2 17.2 0 0 0 204 341.514l-.348-324.152a17.223 17.223 0 0 0-4.239-11.306h.013zm-4.674 335.445c0 4.473-3.624 8.103-8.104 8.117l-167.874.186a9.41 9.41 0 0 1-1.678-.162 7.466 7.466 0 0 1-1.491-.496 10.72 10.72 0 0 1-.845-.434 8.09 8.09 0 0 1-4.065-7.012l-.348-324.151c0-4.482 3.628-8.121 8.117-8.142l167.873-.186c.278-.017.556-.017.833 0 .189.013.376.042.56.087l.41.087c.202.034.402.084.596.149.254.08.503.176.746.285.485.199.948.448 1.38.745.444.292.86.624 1.243.993.186.186.36.384.534.583.168.2.322.411.46.633.11.155.209.317.298.484.073.116.14.236.2.36.096.171.179.35.248.533.427 1 .647 2.077.646 3.165l.261 324.176zm-180.03 7.21a8.09 8.09 0 0 1-4.064-7.011l-.087-75.258-4.624.497v17.548l-1.38-.062c.497 1.353.982 2.693 1.38 4.058v3.488c-.062.149-.137.335-.211.496a63.098 63.098 0 0 1-1.243 2.718 332.155 332.155 0 0 1-3.195 6.875V333.236c.031.058.052.12.062.186.425 1.462.606 2.984.535 4.505v.459c0 .149 0 .397-.062.596l-.1.695c0 .335-.112.645-.186.955-.078.348-.173.692-.286 1.03v1.241a7.638 7.638 0 0 0 2.548-1.017c.15-.348.286-.695.41-1.055a.496.496 0 0 1 .062-.161c.068-.032.14-.056.212-.075a.124.124 0 0 1 0-.062h.186l1.243-.1v2.409c.021.35.067.698.137 1.042 0 .298.112.596.186.881.075.286.137.509.212.757.049.192.115.379.198.559 0 .111.087.235.137.347.05.112.1.236.15.348.132.318.281.628.447.93a.235.235 0 0 0 0 .062c.149.261.31.534.485.795.156.257.326.505.51.744a.285.285 0 0 1 .061.087c.149.21.31.408.485.596.162.198.336.385.51.558l2.399-.248a.1.1 0 0 0 .062 0c1.243-.36 2.349-.744 3.468-1.13-.112-.16-.398-.31-.66-.458h.013zm0 0a8.09 8.09 0 0 1-4.064-7.011l-.087-75.258-4.624.497v17.548l-1.38-.062c.497 1.353.982 2.693 1.38 4.058v3.488c-.062.149-.137.335-.211.496a63.098 63.098 0 0 1-1.243 2.718 332.155 332.155 0 0 1-3.195 6.875V333.236c.031.058.052.12.062.186.425 1.462.606 2.984.535 4.505v.459c0 .149 0 .397-.062.596l-.1.695c0 .335-.112.645-.186.955-.078.348-.173.692-.286 1.03v1.241a7.638 7.638 0 0 0 2.548-1.017c.15-.348.286-.695.41-1.055a.496.496 0 0 1 .062-.161c.068-.032.139-.057.212-.075a.124.124 0 0 1 0-.062h.186l1.243-.1v2.409c.021.35.067.698.137 1.042 0 .298.112.596.186.881.075.286.137.509.212.757.049.192.115.379.198.559 0 .111.087.235.137.347.05.112.1.236.15.348.132.318.281.628.447.93a.235.235 0 0 0 0 .062c.149.261.31.534.485.795.156.257.326.505.51.744a.285.285 0 0 1 .061.087c.149.21.31.408.485.596.162.198.336.385.51.558l2.399-.248a.1.1 0 0 0 .062 0c1.243-.36 2.349-.744 3.468-1.13-.112-.16-.398-.31-.66-.458h.013z"/>
            <path fill="#FFF" d="M140.963 82L64 188.733 64.05 237 141 125.775z" opacity=".45" style="mix-blend-mode:overlay"/>
            <path fill="#000" d="M199.64 19.444L200 353.27a17.22 17.22 0 0 1-12.705 5.606L68.025 359l-1.127-9.248 120.397-.124c4.467-.014 8.082-3.65 8.081-8.13l-.347-324.664c-.013-4.482-3.637-8.11-8.106-8.117L34 8.878 48.75 5.15 185.1 5c7.992-.034 14.5 6.43 14.54 14.444z" opacity=".5" style="mix-blend-mode:overlay"/>
            <path fill="#FFF" d="M140.95 156L64 262.724 64.05 311 141 199.771z" opacity=".45" style="mix-blend-mode:overlay"/>
            <path fill="#4667AC" d="M230.714 348.712a8.089 8.089 0 0 1-4.066-7.012l-.087-75.258-4.625.497v17.548l-1.38-.062c.497 1.353.982 2.693 1.38 4.058v3.488c-.062.149-.137.335-.211.496a63.089 63.089 0 0 1-1.244 2.718 332.108 332.108 0 0 1-3.195 6.875V333.236c.03.058.052.12.062.186a13.85 13.85 0 0 1 .535 4.505v.459c0 .149 0 .397-.062.596l-.1.695c0 .335-.112.645-.186.955-.078.348-.173.692-.286 1.03v1.241a7.642 7.642 0 0 0 2.549-1.017c.149-.348.285-.695.41-1.055a.496.496 0 0 1 .062-.161 1.14 1.14 0 0 1 .062-.162.124.124 0 0 1 0-.062h.187l1.243-.1v2.409c.02.35.067.698.137 1.042 0 .298.112.596.186.881.075.286.137.509.212.757.049.192.115.379.199.559 0 .111.087.236.136.347.05.112.1.236.15.348.132.318.281.628.447.93a.235.235 0 0 0 0 .063c.15.26.311.533.485.794.156.257.327.506.51.744a.285.285 0 0 1 .062.087c.148.21.31.408.485.596.162.199.336.385.51.559l2.4-.249a.1.1 0 0 0 .061 0c1.244-.36 2.35-.744 3.47-1.13.05-.074-.237-.222-.498-.371zm0 0a8.089 8.089 0 0 1-4.066-7.012l-.087-75.258-4.625.497v17.548l-1.38-.062c.497 1.353.982 2.693 1.38 4.058v3.488c-.062.149-.137.335-.211.496a63.089 63.089 0 0 1-1.244 2.718 332.108 332.108 0 0 1-3.195 6.875V333.236c.03.058.052.12.062.186a13.85 13.85 0 0 1 .535 4.505v.459c0 .149 0 .397-.062.596-.017.233-.05.466-.1.695 0 .335-.112.645-.186.955-.078.348-.173.692-.286 1.03v1.241a7.642 7.642 0 0 0 2.549-1.017c.149-.348.285-.695.41-1.055 0-.112.087-.236.137-.36a.124.124 0 0 1 0-.062h.186l1.243-.1v2.409c.021.35.067.698.137 1.042 0 .298.112.596.187.881.074.285.136.509.211.757.05.192.116.379.199.558 0 .112.087.236.137.348.05.112.1.236.149.347.132.319.282.63.448.931a.235.235 0 0 0 0 .062c.149.26.31.534.484.795.157.257.327.505.51.744a.285.285 0 0 1 .062.087c.149.21.31.408.485.596.162.198.336.385.51.558l2.4-.248a.1.1 0 0 0 .062 0c1.243-.36 2.35-.745 3.469-1.13.037-.037-.249-.185-.51-.334zM415.487 6.056a5.711 5.711 0 0 0-.41-.484l-.1-.111A17.348 17.348 0 0 0 402.332 0L234.407.186C224.793.186 217 7.966 217 17.561l.435 324.114v1.24c.064.891.197 1.775.398 2.644.112.491.249.976.41 1.452.298.921.677 1.814 1.132 2.669.215.413.447.827.696 1.24.236.385.485.745.734 1.093A17.418 17.418 0 0 0 234.78 359l167.925-.186h.945c.199.016.398.016.597 0 .312-.016.624-.049.932-.1.112.009.224.009.336 0l.858-.16.659-.162c.24-.051.477-.117.709-.199a4.32 4.32 0 0 0 .435-.136c.287-.085.569-.184.845-.298.286-.112.51-.236.784-.36.385-.186.783-.36 1.143-.558.361-.199.734-.41 1.095-.646l.758-.533c.36-.261.709-.547 1.057-.844a15.865 15.865 0 0 0 1.53-1.465A17.196 17.196 0 0 0 420 341.6l-.348-324.15a17.22 17.22 0 0 0-4.178-11.394h.013zm-4.675 335.445c0 4.473-3.626 8.103-8.107 8.117l-167.925.186a9.416 9.416 0 0 1-1.679-.162 7.47 7.47 0 0 1-1.492-.496 10.724 10.724 0 0 1-.845-.434 8.089 8.089 0 0 1-4.066-7.012l-.348-324.151c0-4.482 3.629-8.121 8.119-8.142l167.925-.186c.278-.017.556-.017.833 0 .189.013.376.042.56.087l.41.087c.203.034.402.084.597.149.254.08.503.176.746.285.485.199.948.448 1.38.745.444.292.86.624 1.243.993.187.186.36.384.535.583.168.2.322.411.46.633.11.155.209.317.298.484.073.116.14.236.2.36.096.171.179.35.248.533.427 1 .647 2.077.647 3.165l.26 324.176zm-180.086 7.21a8.089 8.089 0 0 1-4.065-7.011l-.087-75.258-4.626.497v17.548l-1.38-.062c.498 1.353.983 2.693 1.38 4.058v3.488c-.062.149-.136.335-.21.496a63.089 63.089 0 0 1-1.244 2.718 332.108 332.108 0 0 1-3.196 6.875V333.236c.031.058.052.12.063.186a13.85 13.85 0 0 1 .534 4.505v.459c0 .149 0 .397-.062.596l-.1.695c0 .335-.111.645-.186.955-.078.348-.173.692-.286 1.03v1.241a7.642 7.642 0 0 0 2.549-1.017c.15-.348.286-.695.41-1.055a.496.496 0 0 1 .062-.161 1.24 1.24 0 0 1 .063-.187.124.124 0 0 1 0-.062h.186l1.243-.099V342.73c.021.35.067.698.137 1.042 0 .298.112.596.187.881.074.286.136.51.211.757.05.192.116.38.199.559 0 .112.087.236.137.347.05.112.1.236.149.348.132.318.282.629.448.93a.235.235 0 0 0 0 .063c.149.26.31.533.484.794.157.257.327.506.51.745a.285.285 0 0 1 .062.087c.149.209.31.408.485.595.162.199.336.385.51.559l2.4-.249a.1.1 0 0 0 .062 0c1.243-.36 2.35-.744 3.469-1.129.037-.05-.249-.198-.51-.347h.012zm0 0a8.089 8.089 0 0 1-4.065-7.011l-.087-75.258-4.626.497v17.548l-1.38-.062c.498 1.353.983 2.693 1.38 4.058v3.488c-.062.149-.136.335-.21.496a63.089 63.089 0 0 1-1.244 2.718 332.108 332.108 0 0 1-3.196 6.875V333.236c.031.058.052.12.063.186a13.85 13.85 0 0 1 .534 4.505v.459c0 .149 0 .397-.062.596l-.1.695c0 .335-.111.645-.186.955-.078.348-.173.692-.286 1.03v1.241a7.642 7.642 0 0 0 2.549-1.017c.15-.348.286-.695.41-1.055a.496.496 0 0 1 .062-.161 1.14 1.14 0 0 1 .063-.162.124.124 0 0 1 0-.062h.186l1.243-.1v2.409c.021.35.067.698.137 1.042 0 .298.112.596.187.881.074.286.136.509.211.757.05.192.116.379.199.559 0 .111.087.236.137.347.05.112.1.236.149.348.132.318.282.628.448.93a.235.235 0 0 0 0 .063c.149.26.31.533.484.794.157.257.327.506.51.744a.285.285 0 0 1 .062.087c.149.21.31.408.485.596.162.199.336.385.51.559l2.4-.249a.1.1 0 0 0 .062 0c1.243-.36 2.35-.744 3.469-1.13.037-.074-.249-.222-.51-.371h.012z"/>
            <path fill="#FFF" d="M356.95 82L280 188.733l.05 48.267L357 125.775z" opacity=".45" style="mix-blend-mode:overlay"/>
            <path fill="#000" d="M414.64 19.444L415 353.27a17.22 17.22 0 0 1-12.705 5.606l-119.27.124-1.127-9.248 120.397-.124c4.467-.014 8.082-3.65 8.081-8.13l-.347-324.664c-.013-4.482-3.637-8.11-8.106-8.117L249 8.878l14.75-3.729L400.1 5c7.992-.034 14.5 6.43 14.54 14.444z" opacity=".5" style="mix-blend-mode:overlay"/>
            <path fill="#FFF" d="M356.95 156L280 262.724l.05 48.276L357 199.771z" opacity=".45" style="mix-blend-mode:overlay"/>
            <path fill="#4667AC" d="M445.652 348.712a8.096 8.096 0 0 1-4.047-7.012l-.087-75.258-4.604.497v17.548l-1.374-.062c.495 1.353.978 2.693 1.374 4.058v3.488c-.062.149-.136.335-.21.496-.384.881-.78 1.787-1.238 2.718a332.81 332.81 0 0 1-3.181 6.875V333.236c.03.058.051.12.062.186a13.91 13.91 0 0 1 .532 4.505v.459c0 .149 0 .397-.062.596l-.1.695c0 .335-.11.645-.185.955-.077.348-.172.692-.284 1.03v1.241c.9-.182 1.76-.527 2.537-1.017.148-.348.285-.695.408-1.055a.497.497 0 0 1 .062-.161c.107-.042.22-.067.334-.075a.124.124 0 0 1 0-.062h.186l1.238-.1v2.409c.02.35.066.698.136 1.042 0 .298.111.596.186.881.074.286.136.509.21.757.049.192.115.379.198.559 0 .111.087.235.136.347.05.112.1.236.149.348.132.318.28.628.445.93a.236.236 0 0 0 0 .062c.149.261.31.534.483.795.156.257.325.505.508.744a.285.285 0 0 1 .061.087c.148.21.31.408.483.596.161.198.334.385.508.558l2.389-.248c.02.007.041.007.061 0 1.238-.36 2.34-.744 3.454-1.13-.223-.16-.495-.31-.768-.458zm0 0a8.096 8.096 0 0 1-4.047-7.012l-.087-75.258-4.604.497v17.548l-1.374-.062c.495 1.353.978 2.693 1.374 4.058v3.488c-.062.149-.136.335-.21.496-.384.881-.78 1.787-1.238 2.718a332.81 332.81 0 0 1-3.181 6.875V333.236c.03.058.051.12.062.186a13.91 13.91 0 0 1 .532 4.505v.459c0 .149 0 .397-.062.596-.017.233-.05.466-.1.695 0 .335-.11.645-.185.955-.077.348-.172.692-.284 1.03v1.241c.9-.182 1.76-.527 2.537-1.017.148-.348.285-.695.408-1.055 0-.112.087-.236.137-.36a.124.124 0 0 1 0-.062h.185l1.238-.1v2.409c.02.35.066.698.136 1.042 0 .298.111.596.186.881.074.285.136.509.21.757.049.192.115.379.198.558 0 .112.087.236.136.348.05.112.1.236.149.347.132.319.28.63.445.931a.236.236 0 0 0 0 .062c.149.26.31.534.483.795.156.257.325.505.508.744a.285.285 0 0 1 .062.087c.147.21.308.408.482.596.161.198.334.385.508.558l2.389-.248c.02.007.041.007.061 0 1.238-.36 2.34-.745 3.454-1.13.037-.037-.235-.185-.508-.334zM629.594 6.056a5.705 5.705 0 0 0-.409-.484l-.099-.111A17.233 17.233 0 0 0 616.498 0l-167.17.186C439.758.186 432 7.966 432 17.561l.347 324.114v1.24c.063.891.196 1.775.396 2.644.11.491.247.976.408 1.452.297.921.674 1.814 1.126 2.669.215.413.446.827.694 1.24.235.385.482.745.73 1.093A17.313 17.313 0 0 0 449.613 359l167.17-.186h.94c.198.016.397.016.595 0 .31-.016.62-.049.928-.1.111.009.223.009.334 0l.854-.16.656-.162c.24-.051.475-.117.706-.199.146-.038.291-.083.433-.136a8.55 8.55 0 0 0 .842-.298c.284-.112.507-.236.78-.36.383-.186.78-.36 1.138-.558.36-.199.73-.41 1.09-.646l.754-.533c.36-.261.706-.547 1.052-.844.54-.454 1.049-.943 1.523-1.465A17.239 17.239 0 0 0 634 341.6l-.347-324.15a17.266 17.266 0 0 0-4.06-11.394zm-4.63 335.445c0 4.473-3.609 8.103-8.07 8.117l-167.17.186a9.333 9.333 0 0 1-1.67-.162 7.413 7.413 0 0 1-1.486-.496 10.658 10.658 0 0 1-.841-.434 8.096 8.096 0 0 1-4.048-7.012l-.346-324.151c0-4.482 3.612-8.121 8.082-8.142l167.17-.186c.276-.017.553-.017.83 0 .187.013.373.042.556.087l.409.087c.201.034.4.084.594.149.253.08.5.176.742.285.483.199.944.448 1.374.745.442.292.857.624 1.238.993.186.186.359.384.532.583.167.2.32.411.458.633.109.155.208.317.297.484.072.116.139.236.198.36.096.171.18.35.248.533.425 1 .644 2.077.643 3.165l.26 324.176zm-179.275 7.21a8.096 8.096 0 0 1-4.047-7.011l-.087-75.258-4.604.497v17.548l-1.374-.062c.495 1.353.978 2.693 1.374 4.058v3.488c-.062.149-.136.335-.21.496-.384.881-.78 1.787-1.238 2.718a332.81 332.81 0 0 1-3.181 6.875V333.236c.03.058.051.12.062.186a13.91 13.91 0 0 1 .532 4.505v.459c0 .149 0 .397-.062.596l-.099.695c0 .335-.111.645-.186.955-.077.348-.172.692-.284 1.03v1.241c.9-.182 1.76-.527 2.537-1.017.149-.348.285-.695.409-1.055a.497.497 0 0 1 .061-.161c.096-.037.196-.062.297-.075a.124.124 0 0 1 0-.062h.186l1.238-.1v2.409c.02.35.066.698.136 1.042 0 .298.111.596.186.881.074.286.136.509.21.757.049.192.115.379.198.559 0 .111.087.235.136.347.05.112.1.236.149.348.132.318.28.628.445.93a.236.236 0 0 0 0 .062c.149.261.31.534.483.795.156.257.325.505.508.744a.285.285 0 0 1 .061.087c.148.21.31.408.483.596.161.198.334.385.508.558l2.389-.248c.02.007.041.007.061 0 1.238-.36 2.34-.744 3.454-1.13-.223-.16-.495-.31-.768-.458h.037zm0 0a8.096 8.096 0 0 1-4.047-7.011l-.087-75.258-4.604.497v17.548l-1.374-.062c.495 1.353.978 2.693 1.374 4.058v3.488c-.062.149-.136.335-.21.496-.384.881-.78 1.787-1.238 2.718a332.81 332.81 0 0 1-3.181 6.875V333.236c.03.058.051.12.062.186a13.91 13.91 0 0 1 .532 4.505v.459c0 .149 0 .397-.062.596l-.099.695c0 .335-.111.645-.186.955-.077.348-.172.692-.284 1.03v1.241c.9-.182 1.76-.527 2.537-1.017.149-.348.285-.695.409-1.055a.497.497 0 0 1 .061-.161c.096-.039.196-.064.297-.075a.124.124 0 0 1 0-.062h.186l1.238-.1v2.409c.02.35.066.698.136 1.042 0 .298.111.596.186.881.074.286.136.509.21.757.049.192.115.379.198.559 0 .111.087.235.136.347.05.112.1.236.149.348.132.318.28.628.445.93a.236.236 0 0 0 0 .062c.149.261.31.534.483.795.156.257.325.505.508.744a.285.285 0 0 1 .061.087c.148.21.31.408.483.596.161.198.334.385.508.558l2.389-.248c.02.007.041.007.061 0 1.238-.36 2.34-.744 3.454-1.13-.223-.16-.495-.31-.768-.458h.037z"/>
            <path fill="#FFF" d="M571.95 82L495 188.733l.062 48.267L572 125.775z" opacity=".45" style="mix-blend-mode:overlay"/>
            <path fill="#000" d="M629.64 19.444L630 353.27a17.22 17.22 0 0 1-12.705 5.606l-119.27.124-1.127-9.248 120.397-.124c4.467-.014 8.082-3.65 8.081-8.13l-.347-324.664c-.013-4.482-3.637-8.11-8.106-8.117L464 8.878l14.75-3.729L615.1 5c7.992-.034 14.5 6.43 14.54 14.444z" opacity=".5" style="mix-blend-mode:overlay"/>
            <path fill="#FFF" d="M571.963 156L495 262.724l.05 48.276L572 199.771z" opacity=".45" style="mix-blend-mode:overlay"/>
        </g>
        <path fill="#223762" fillRule="nonzero" d="M115.59 471a3.62 3.62 0 0 1-3.1-1.74c-.3-.49-29.9-49.74-55.23-118.14-42.45-114.61-40.57-194.18-31.52-240.74 9.39-48.27 29.19-78.8 58.87-90.73C136.3-1.13 198.3 41.94 200.91 43.78a3.614 3.614 0 0 1-4.16 5.91c-.61-.43-61.44-42.69-109.47-23.32C60 37.33 41.72 66.06 32.84 111.76 23.96 157.46 22.17 235.5 64 348.5c25.09 67.79 54.4 116.56 54.69 117a3.61 3.61 0 0 1-3.1 5.5z"/>
        <path fill="url(#a)" fillRule="nonzero" d="M194.63 376.08h14.8v10.21h-14.8z"/>
        <rect width="136.75" height="154.65" x="342.52" y="257.44" fill="url(#b)" fillRule="nonzero" rx="8.74"/>
        <path fill="url(#c)" fillRule="nonzero" d="M336 347.38H216.4c-9.1 0-16.48 7.71-16.48 17.22v140.53h154v-139c.01-10.37-8.01-18.75-17.92-18.75z"/>
        <rect width="141.63" height="154.65" x="322.9" y="257.44" fill="url(#d)" fillRule="nonzero" rx="8.74"/>
        <path fill="url(#e)" fillRule="nonzero" d="M323.89 240.78l2.94 60.37-44.74 53.77 14.22 11.79 47.35-52.38z"/>
        <path fill="url(#f)" fillRule="nonzero" d="M373.19 230.78s11.58 6.1 20.68 12.09 15.87 27.32 16.65 50c.78 22.68-7.52 86.33-7.52 86.33s-48.47 10.06-79.35-3.64c-10.38-4.61-10.67-3.9-10.67-3.9s9.63-53.86 9.37-60.1c-.26-6.24-6-14.83-6-26.28 0-11.45 2.6-35.64 7.55-44.49 4.95-8.85 15.35-14 15.35-14l33.94 3.99z"/>
        <path fill="#FFF" fillRule="nonzero" d="M365.69 229.51l4.17.23 3.33 1s-8.88 13.39-18.68 13.91c-9.8.52-12.15-10.27-12.15-10.27s-2.34 5.33-4.42 5.59c-2.08.26-6-3.38-4.42-7s5.72-6.24 5.72-6.24l26.45 2.78z"/>
        <path fill="url(#g)" fillRule="nonzero" d="M338.93 213.21l-1 15.74s3 5.33 11.59 5.46c8.59.13 16.16-4.9 16.16-4.9l-4.9-15.26-21.85-1.04z"/>
        <path fill="url(#h)" fillRule="nonzero" d="M309.17 157.09s-6.32 9.38-.74 30c3.19 11.79 8.16 20.63 9.82 30.48 1.66 9.85 6.06 10.71 10.86 11.34 4.8.63 21.68-6.39 28.2-6.4 6.52-.01 14.64 1.57 20.52-2.55 3.31-2.32 5-28.56 5-28.56l-20.36-40-12.13-6.67-41.17 12.36z"/>
        <path fill="url(#i)" fillRule="nonzero" d="M78.28 386.29h96.66v118.84H78.28z"/>
        <path fill="url(#j)" fillRule="nonzero" d="M142.02 386.29h32.92v118.84h-32.92z"/>
        <path fill="url(#k)" fillRule="nonzero" d="M313.6 182.79c2.35 11.29 5.28 24.91 11.9 36.19 6.62 11.28 30.69 10.25 37.14-.51 6.45-10.76 6.86-26.47 6.86-26.47s8.25-.69 9.41-7.11c1.16-6.42-.71-15.46-4.79-16.67-4.08-1.21-7.07 3.53-7.07 3.53s-.43-12-9.95-18.1c-9.52-6.1-41.1 1.35-42.63 3.15-1.53 1.8-3.22 14.71-.87 25.99z"/>
        <path fill="url(#l)" fillRule="nonzero" d="M311.09 150.68s-2.83 4.92-2.5 14.37c.33 9.45 6.45 12.56 16.73 13.43 10.28.87 17.4-2.9 23.28-2.63 5.88.27 9.9 14.55 9.93 29.38.03 14.83 6.67 16 12.47 17 5.8 1 28.26-14 14.71-41.12-11.12-22.27-8.27-33-27.19-40.63-18.92-7.63-35 .59-40.3 4-5.3 3.41-7.13 6.2-7.13 6.2z"/>
        <path fill="url(#m)" fillRule="nonzero" d="M207.84 347.38h23.83a7.92 7.92 0 0 1 7.92 7.92v149.83h-39.67V355.3a7.92 7.92 0 0 1 7.92-7.92z"/>
        <path fill="url(#n)" fillRule="nonzero" d="M183.61 386.29h16.3v118.84h-16.3z"/>
        <path fill="url(#o)" fillRule="nonzero" d="M354.11 186.2s.14-2.1 3.9-3.68 6.39-1 7.39 4.48-1.72 9.81-4.57 11.33c-2.85 1.52-5.9-1.32-5.9-1.32l-.82-10.81z"/>
        <path fill="url(#p)" fillRule="nonzero" d="M323.63 375.56c30.88 13.7 79.35 3.64 79.35 3.64s8.33-63.74 7.55-86.38c-.51-14.9-3.63-29.2-8.29-39l-26.33-1.63s4.52 38.68 3.48 46.83c-1.04 8.15-49.39 41.67-55.5 48.98a125.7 125.7 0 0 0-8.81 11.6c-1.23 7.09-2.12 12.07-2.12 12.07s.28-.72 10.67 3.89z"/>
        <path fill="url(#q)" fillRule="nonzero" d="M252 400.23h98.78v104.62h-103V404.48a4.25 4.25 0 0 1 4.22-4.25z"/>
        <path fill="#FFF" fillRule="nonzero" d="M260.06 488.23l1.55 6.23s-16.27 3.39-19 4.68c-2.73 1.29-3.68 2.17-3.49 3.82.19 1.65 3.87 2.17 3.87 2.17l39-.27-3.77-15.25-18.16-1.38zM223.89 485.26s-4.51 6.42-6.59 8.24c-2.08 1.82-16.22 2.6-19.6 4.6-3.38 2-1.47 7-1.47 7l40.93-.27 2.25-15.51-15.52-4.06z"/>
        <path fill="url(#r)" fillRule="nonzero" d="M279.48 372.39s-24.11 0-29.49 2.13c-5.38 2.13-7.11 5.9-5.9 16.13C245.3 400.88 259 489 259 489s15.75 5.16 18 3.1l2.22-2.06.26-117.65z"/>
        <path fill="url(#s)" fillRule="nonzero" d="M320.81 372.39s-35 .94-43.89 2.49C268.03 376.43 221.9 486 221.9 486s6.59 5.55 12.14 5.9c5.55.35 6.94 0 6.94 0l63.59-88.39 39.77 1.07a18.88 18.88 0 0 0 19.27-20.9l-.53-4.86-42.27-6.43z"/>
        <path fill="url(#t)" fillRule="nonzero" d="M328.2 299.06c-10.14-4.94-11.61-10.6-11.73-11.15.77 10.14 5.63 17.88 5.87 23.64.12 3-2 16.89-4.28 30.57 0 0 12.61-7.81 19.63-19.64 7.02-11.83 28.1-20 25.11-22.77-2.99-2.77-23.94 4.56-34.6-.65z"/>
        <path fill="url(#u)" fillRule="nonzero" d="M362.88 390.79c-6.18 3.61-14 7.59-19.36 8.15-10.06 1-38.68-5.72-47.18-5.9-8.5-.18 1 6.42 0 10.75s-18.91 9.37-27.75 25c-8.76 15.46-32 62.37-32.41 63.28a22 22 0 0 0 4.66-.11l63.59-88.39 39.77 1.07a18.87 18.87 0 0 0 18.68-13.85z"/>
        <path fill="url(#v)" fillRule="nonzero" d="M370.6 347.38h125.57a8.6 8.6 0 0 1 8.6 8.6v149.15H370.6V347.38z"/>
        <path fill="url(#w)" fillRule="nonzero" d="M358.69 347.38h23.83a7.92 7.92 0 0 1 7.92 7.92v149.83h-39.67V355.3a7.92 7.92 0 0 1 7.92-7.92z"/>
        <path fill="url(#x)" fillRule="nonzero" d="M20 520.48h573.43l-39.35-15.35H56.3z"/>
        <path fill="url(#y)" fillRule="nonzero" d="M327 358.73a102.29 102.29 0 0 0-12.73 2.69c-5.41 1.65-10.55 2.86-11.89 5.29-1.34 2.43 0 3.19 0 3.19h30.12c1.7 0 6.91-4.06 6.91-4.06L327 358.73z"/>
        <path fill="url(#z)" fillRule="nonzero" d="M377.53 244.71c-7.49 5.64 12.8 65.61 12.8 65.61l-63.51 48.22s4.83 9.37 10 10.75l5.2 1.39s61-40.64 68.37-49.29c7.37-8.65-1.26-100.46-32.86-76.68z"/>
        <rect width="42.57" height="4.98" x="299.53" y="369.9" fill="#223762" fillRule="nonzero" rx=".56"/>
        <path fill="#223762" fillRule="nonzero" d="M226.58 374.88h79.75c1.55 0 2.48-1.52 2.07-3.41l-13.51-62.09c-.41-1.88-2-3.41-3.55-3.41h-79.75c-1.55 0-2.48 1.52-2.07 3.41L223 371.47c.44 1.88 2 3.41 3.58 3.41z"/>
        <path fill="url(#A)" fillRule="nonzero" d="M222.66 374.88h79.75c1.55 0 2.48-1.52 2.07-3.41L291 309.38c-.41-1.88-2-3.41-3.55-3.41h-79.78c-1.55 0-2.48 1.52-2.07 3.41l13.51 62.09c.41 1.88 2 3.41 3.55 3.41z"/>
        <path fill="#D6E3FA" fillRule="nonzero" d="M251.13 333.92a15.44 15.44 0 0 1-1-3.19 3.91 3.91 0 0 0-2.5.82c-2.84 2.18-3.42 7.9-1.28 12.77 2.14 4.87 6.17 7.07 9 4.9 2.24-1.71 3-5.62 2.25-9.59-2.33-.05-4.91-2.15-6.47-5.71z"/>
        <path fill="url(#B)" fillRule="nonzero" d="M57.47 376.08h137.16v10.21H57.47z"/>
        <path fill="url(#C)" fillRule="nonzero" d="M69.61 386.29h8.67v118.84h-8.67zM174.94 386.29h8.67v118.84h-8.67z"/>
        <path fill="url(#D)" fillRule="nonzero" d="M78.28 440.6h96.66v10.21H78.28z"/>
        <path fill="url(#E)" fillRule="nonzero" d="M97.41 203.26a34.54 34.54 0 0 1 13.4 6.84l-6.56 3.49 9-1.26a34.33 34.33 0 0 1 5 6.29l-12 3.4 13.22-1.25c.24.47.47 1 .69 1.44l-13.46 6.48 14.43-4.09c.33.89.64 1.79.9 2.71a34.58 34.58 0 0 1 1.27 11.12l-12.75 1.51 12.6.45c0 .31-.06.62-.11.93L112.1 243l10.71-.19a34.5 34.5 0 0 1-2.11 7.19l-8.32.17 7 2.72a34.46 34.46 0 0 1-5.63 7.81c-6.54-28.51-16.34-57.44-16.34-57.44z"/>
        <path fill="url(#F)" fillRule="nonzero" d="M108.13 250.21l-6.91 4.38a34.48 34.48 0 0 1-4.5-4.13l8.47-7.61-11.32 4a34.58 34.58 0 0 1-4.8-10.21c-.08-.3-.14-.59-.22-.89l11.67-4.75-12.46.69c-.12-.93-.2-1.85-.25-2.77l11.88-5.5-11.94 4a34.32 34.32 0 0 1 .8-7.54l11.12-4.5-10.53 2.17a34.56 34.56 0 0 1 1.65-4.48l7.49-2.59-7 1.51a34.48 34.48 0 0 1 6.12-8.74s9.8 28.93 16.29 57.44a34.4 34.4 0 0 1-6-2.17l.44-8.31z"/>
        <path fill="url(#G)" fillRule="nonzero" d="M129.71 220.26A58.77 58.77 0 0 0 110.4 237l12.3 3-15.4 1.72a58 58 0 0 0-5.6 12.39l21.26.63-22.38 3.41c-.21.88-.37 1.77-.54 2.66l24.96 5.08-25.58-.75c-.18 1.59-.31 3.2-.36 4.83a58.27 58.27 0 0 0 2.53 18.81l21.72-2.8-20.64 5.95c.18.5.37 1 .56 1.49l18.77-1.71-17.79 4.11a58.42 58.42 0 0 0 6.47 10.91l13.84-3.16-10.37 7.34a58.72 58.72 0 0 0 12.57 10.5c-1.15-49.55 2.99-101.15 2.99-101.15z"/>
        <path fill="url(#H)" fillRule="nonzero" d="M131.57 301.86l13.25 4.35a58.37 58.37 0 0 0 5.71-8.65l-17.18-9 20.39 1.92a58.27 58.27 0 0 0 3.69-18.77v-1.55l-21.26-3 20.89-4c-.18-1.57-.44-3.12-.75-4.66l-21.94-4.13 21.41 1.6a58 58 0 0 0-4.47-12.06L131 241.13l18.31-.79a58.59 58.59 0 0 0-4.59-6.68l-13.46-1.16 12.19-.41a58.74 58.74 0 0 0-13.76-11.83s-4.14 51.6-3 101.15a58.67 58.67 0 0 0 9.06-6.05l-4.18-13.5z"/>
        <path fill="url(#I)" fillRule="nonzero" d="M145.3 223.62a39.42 39.42 0 0 0-14.7 8.62l6.27 4.25-9.08-1.49a50 50 0 0 0-6 7.84l11.87 4.08-13.41-1.4c-.31.59-.61 1.19-.9 1.8l12.93 7.87-14.28-4.88c-.46 1.1-.9 2.22-1.3 3.37a53.88 53.88 0 0 0-2.81 13.79l12.9 1.73-13 .69v1.16l11 2-11-.12a46.35 46.35 0 0 0 1.2 8.85l8.53.12-7.51 3.44a37.3 37.3 0 0 0 4.73 9.6c10.58-35.38 24.56-71.32 24.56-71.32z"/>
        <path fill="url(#J)" fillRule="nonzero" d="M127.94 281.88l6.51 5.35a46.62 46.62 0 0 0 5.18-5.17l-7.68-9.33 11.05 4.85a53.87 53.87 0 0 0 6.32-12.7c.13-.37.23-.74.35-1.1L138.35 258l12.71.72c.25-1.15.46-2.29.63-3.44l-11.46-6.68 11.77 4.84a50.25 50.25 0 0 0 .2-9.33l-10.82-5.44 10.52 2.57a44.71 44.71 0 0 0-1.09-5.53l-7.34-3.12 7 1.79a37.7 37.7 0 0 0-5.1-10.75s-14 35.93-24.5 71.31a36 36 0 0 0 6.48-2.75l.59-10.31z"/>
        <path fill="url(#K)" fillRule="nonzero" d="M99.65 248.42a45.43 45.43 0 0 0-11.8 15.88l9.79.24-11.36 3.81a44.82 44.82 0 0 0-2.17 10.28l16.15-3.05-16.33 6.29v2.1l19.66-.29-19.39 3.66c.13 1.23.29 2.47.53 3.71a45 45 0 0 0 5 13.78l15.93-5.71L91.09 307c.22.35.44.69.67 1l13.92-4.42-12.74 6.12a45.16 45.16 0 0 0 6.7 7.16l9.92-4.68-6.56 7.26a45.39 45.39 0 0 0 11.23 5.84c-9.14-37.21-14.58-76.86-14.58-76.86z"/>
        <path fill="url(#L)" fillRule="nonzero" d="M114.59 309.71l10.73 1.08a45.12 45.12 0 0 0 2.88-7.48l-14.47-3.94 15.71-1.93a45 45 0 0 0-.33-14.79c-.07-.4-.18-.78-.26-1.17l-16.55 1.3 15.1-6.5c-.4-1.16-.85-2.29-1.34-3.39l-17.25.53 16.43-2.34a44.8 44.8 0 0 0-5.38-8.37L104.11 264l13.69-3.64a45.29 45.29 0 0 0-4.58-4.36l-10.35 1.4 9.13-2.33a45.41 45.41 0 0 0-12.35-6.65s5.44 39.65 14.54 76.86a45.35 45.35 0 0 0 5.81-6.08l-5.41-9.49z"/>
        <path fill="url(#M)" fillRule="nonzero" d="M140.3 376.08H94.55l-6.8-59.3h59.35z"/>
        <path fill="url(#N)" fillRule="nonzero" d="M87.75 316.78l6.8 59.3h17.5l-5.07-59.3z"/>
        <path fill="#FFD46A" fillRule="nonzero" d="M85.44 315.08h63.98v14.61H85.44z"/>
        <path fill="url(#O)" fillRule="nonzero" d="M86.26 390.62H97.3v49.98H86.26z"/>
        <path fill="url(#P)" fillRule="nonzero" d="M97.3 390.62h11.04v49.98H97.3z"/>
        <path fill="#FFF" fillRule="nonzero" d="M108.33 390.62h8.63v49.98h-8.63z"/>
        <path fill="url(#Q)" fillRule="nonzero" d="M116.95 390.62h34.46v49.98h-34.46z"/>
        <path fill="url(#R)" fillRule="nonzero" d="M86.26 455.15h7.51v49.98h-7.51z"/>
        <path fill="url(#S)" fillRule="nonzero" d="M93.77 455.15h7.51v49.98h-7.51z"/>
        <path fill="#FFF" fillRule="nonzero" d="M101.28 455.15h5.87v49.98h-5.87z"/>
        <path fill="url(#T)" fillRule="nonzero" d="M107.15 455.15h23.45v49.98h-23.45z"/>
        <path fill="#FFF" fillRule="nonzero" d="M116.977 391.739l10.79-2.335 10.57 48.85-10.79 2.334zM144.162 391.738l10.79-2.335 10.57 48.85-10.79 2.334z"/>
        <path fill="url(#U)" fillRule="nonzero" d="M127.74 389.42h27.19l10.57 48.85h-27.19z"/>
        <path fill="url(#V)" fillRule="nonzero" d="M127.52 440.6l10.79-2.33h27.19l-10.79 2.33z"/>
        <path fill="url(#W)" fillRule="nonzero" d="M166.19 347.64h-3.83v-5.79h-25.95V373a3.08 3.08 0 0 0 3.08 3.08h19.8a3.08 3.08 0 0 0 3.08-3.08v-2.71h3.83a6 6 0 0 0 6-6v-10.62a6 6 0 0 0-6.01-6.03zm2.81 14.57a4.81 4.81 0 0 1-4.81 4.81h-1.79v-16.1h1.79a4.81 4.81 0 0 1 4.81 4.81v6.48z"/>
        <path fill="url(#X)" fillRule="nonzero" d="M261.1 249.07h-29.78a4.08 4.08 0 0 0-4.08 4.08v18.34a4.08 4.08 0 0 0 4.08 4.08h6.5L244 284h2.25l8.39-8.39h6.5a4.08 4.08 0 0 0 4.08-4.08v-18.38a4.08 4.08 0 0 0-4.12-4.08z"/>
        <path fill="url(#Y)" fillRule="nonzero" d="M258.85 249.07h-29.78a4.08 4.08 0 0 0-4.08 4.08v18.34a4.08 4.08 0 0 0 4.08 4.08h6.5L244 284l8.39-8.39h6.5a4.08 4.08 0 0 0 4.08-4.08v-18.38a4.08 4.08 0 0 0-4.12-4.08z"/>
        <path fill="url(#Z)" fillRule="nonzero" d="M547.72 396.85h-44.18a3.56 3.56 0 0 1-3.54-4.15l1.11-6.55a3.46 3.46 0 0 1 .53-1.34 161.92 161.92 0 0 0 18.19-37.43h-75.22c1.633 1.84 3.3 3.61 5 5.31.427.43.734.964.89 1.55l10.22 38.12a3.56 3.56 0 0 1-3.44 4.48h-15.9a3.56 3.56 0 0 0-3.56 3.56v18.8a3.56 3.56 0 0 0 3.56 3.56 3.56 3.56 0 0 1 3.54 3.15l8.7 76a3.56 3.56 0 0 0 3.54 3.15h33.76v.09h17.69v-.09h23.36a3.56 3.56 0 0 0 3.54-3.15l8.7-76a3.56 3.56 0 0 1 3.54-3.15 3.56 3.56 0 0 0 3.56-3.56v-18.8a3.56 3.56 0 0 0-3.59-3.55zm-53 0h-2.09c.74-.88 1.5-1.73 2.22-2.64-.047.893-.09 1.773-.13 2.64z" opacity=".45"/>
        <path fill="url(#aa)" fillRule="nonzero" d="M494 299.22c-10.37 39.32-5.63 78 10.14 106.23 27.63-16.78 50.86-48.09 61.19-87.45 10.33-39.36 5.63-78-10.14-106.23-27.64 16.82-50.84 48.13-61.19 87.45z"/>
        <path stroke="#124" stroke-linecap="round" stroke-linejoin="round" d="M535.25 297.65a475.51 475.51 0 0 0-16.09 55.85c-7.5 33-5.61 72.16-5.61 72.16M491.55 286.32s4.5 37.81 10.05 67c5.55 29.19 9.31 67.65 9.31 67.65M482.53 349.81s9 24.63 15.61 40.59c6.61 15.96 12.78 32.38 12.78 32.38"/>
        <path fill="url(#ab)" fillRule="nonzero" d="M520.42 148c-4.71 34.46-.62 66.24 9.54 87.72 15.56-18 28-47.49 32.73-81.95 4.73-34.46.62-66.24-9.54-87.72C537.6 84 525.13 113.54 520.42 148z"/>
        <path fill="url(#ac)" fillRule="nonzero" d="M488.46 203.26c1.42-31.55 3.52-88.49 4.72-121.68-21.89 27.1-35.93 68.61-35.93 115.22 0 46.07 13.73 87.15 35.18 114.26-2.43-31.82-5.26-79.06-3.97-107.8z"/>
        <path fill="url(#ad)" fillRule="nonzero" d="M531 196.81c0-47.28-14.43-89.35-36.86-116.41-.32.38-.62.8-.93 1.19-1.2 33.19-3.31 90.13-4.72 121.68-1.29 28.72 1.59 76 4 107.81.56.71 1.11 1.46 1.68 2.15C516.54 286.15 531 244.09 531 196.81z"/>
        <path fill="url(#ae)" fillRule="nonzero" d="M531.21 229.1c-8.5 28.35-7.4 56.16 1.18 76.42 18.31-12.2 34.52-34.82 43-63.17 8.48-28.35 7.4-56.16-1.18-76.42-18.29 12.19-34.5 34.82-43 63.17z"/>
        <path fill="url(#af)" fillRule="nonzero" d="M551.71 505.03h-81.16L458.5 399.86h105.25z"/>
        <path fill="url(#ag)" fillRule="nonzero" d="M458.5 399.86l12.05 105.17h31.05l-8.99-105.17z"/>
        <path fill="#FFD46A" fillRule="nonzero" d="M454.39 396.85h113.48v25.92H454.39z"/>
        <ellipse cx="495.72" cy="210.71" fill="url(#ah)" fillRule="nonzero" rx="4.18" ry="7.45"/>
        <ellipse cx="505.377" cy="218.946" fill="url(#ai)" fillRule="nonzero" rx="7.45" ry="4.18" transform="rotate(-45 505.377 218.946)"/>
        <ellipse cx="504.023" cy="258.525" fill="url(#aj)" fillRule="nonzero" rx="10.23" ry="5.73" transform="rotate(-45 504.023 258.525)"/>
        <ellipse cx="501.65" cy="278.925" fill="url(#ak)" fillRule="nonzero" rx="10.23" ry="5.73" transform="rotate(-65.03 501.65 278.925)"/>
        <path fill="url(#al)" fillRule="nonzero" d="M433 300.94c12.95 32.67 34.44 57.78 57.35 70.34-31.73-35.84-63.76-160.87-63.76-160.87-8.06 24.84-6.51 57.86 6.41 90.53z"/>
        <path fill="url(#am)" fillRule="nonzero" d="M484 280.75c-13-32.67-34.47-57.75-57.38-70.34 0 0 32 125 63.76 160.87 8.09-24.84 6.54-57.86-6.38-90.53z"/>
        <path fill="url(#an)" fillRule="nonzero" d="M484 280.75c-13-32.67-34.47-57.75-57.38-70.34 0 0 32 125 63.76 160.87 8.09-24.84 6.54-57.86-6.38-90.53z"/>
        <ellipse cx="461.758" cy="304.581" fill="url(#ao)" fillRule="nonzero" rx="3.22" ry="5.75" transform="rotate(-22.73 461.758 304.581)"/>
        <ellipse cx="482.532" cy="307.907" fill="url(#ap)" fillRule="nonzero" rx="3.22" ry="5.75" transform="rotate(-22.73 482.532 307.907)"/>
        <ellipse cx="471.079" cy="307.558" fill="url(#aq)" fillRule="nonzero" rx="5.75" ry="3.22" transform="rotate(-67.73 471.08 307.558)"/>
        <ellipse cx="472.77" cy="318.678" fill="url(#ar)" fillRule="nonzero" rx="5.75" ry="3.22" transform="rotate(-67.73 472.77 318.678)"/>
        <ellipse cx="481.903" cy="336.119" fill="url(#as)" fillRule="nonzero" rx="7.89" ry="4.42" transform="rotate(-67.73 481.903 336.119)"/>
        <ellipse cx="486.309" cy="351.342" fill="url(#at)" fillRule="nonzero" rx="7.89" ry="4.42" transform="rotate(-87.76 486.309 351.342)"/>
        <path stroke="#EB6057" stroke-linecap="round" stroke-linejoin="round" d="M323 192.5s1.2 13.95 1.2 17c0 3.05 4.17.24 5.45 0"/>
        <circle cx="213.158" cy="104.797" r="25.36" fill="#EF8C48" fillRule="nonzero" opacity=".48" transform="rotate(-11.71 213.158 104.797)"/>
        <circle cx="213.158" cy="104.797" r="18.06" fill="url(#au)" fillRule="nonzero" transform="rotate(-11.71 213.158 104.797)"/>
        <path fill="url(#av)" fillRule="nonzero" d="M200.71 44.74c-29 6-46.17 41.4-38.37 79l105-21.74c-7.81-37.62-37.63-63.27-66.63-57.26z"/>
        <path fill="#223762" fillRule="nonzero" d="M162.33 123.78l28.21-5.85c-5.7-27.52-3-53.65 5.83-72-26.37 8.45-41.44 42.13-34.04 77.85z"/>
    </g>
</svg>
