<svg xmlns="http://www.w3.org/2000/svg" width="194" height="24" viewBox="0 0 194 24">
    <g fill="none" fillRule="evenodd" opacity=".8">
        <path fill="#323C48" d="M9.656 5.955v2.862c-2.25-.502-4.05-1.285-5.094-.314-2.3 2.137 2.751 4.409 3.83 5.324 6.02 5.113.053 12.613-7.488 9.35v-2.88c1.323.468 4.095 1.386 5.411.516 2.013-1.327 1.281-3.92-.752-4.969-1.941-.999-4.232-2.367-4.796-4.355-1.513-5.33 4.866-8.107 8.889-5.534M20.47 5.26h3.342l5.87 18.067h-3.14l-1.452-4.393h-5.898l-1.395 4.393H14.66l5.81-18.068M52.144 5.306h3.342l5.869 18.069h-3.138l-1.453-4.394h-5.898l-1.394 4.394h-3.139l5.811-18.069M94.144 5.236h3.342l5.87 18.068h-3.139l-1.453-4.393h-5.898l-1.394 4.393h-3.139l5.811-18.068"/>
        <path fill="#FFFFFE" d="M22.123 8.57l2.59 8.106H19.54l2.583-8.107M53.797 8.617l2.59 8.106h-5.172l2.582-8.106M95.797 8.546l2.59 8.107h-5.172l2.582-8.107"/>
        <path fill="#323C48" d="M34.557 5.075h3.178v15.712h4.642v2.502h-7.82V5.075M66.44 5.081h4.346l4.234 13.495 4.29-13.405h4.235v18.033H80.74V9.11l-4.794 14.093h-1.991l-4.74-14.332v14.452H66.44V5.08M108.488 5.17h3.686l5.803 13.363V5.088h2.824v18.247h-3.177l-6.313-13.78v13.822h-2.823V5.171M127.848 5.296h5.96c9.396 1.381 9.128 16.796.08 18.081h-6.04V5.297M161.393 5.219l6.766-.034c4.978.803 5.412 7.064 1.037 9.342.568.607 1.117 1.458 1.557 2.185.981 1.616 1.589 4.152 2.036 6.709h-3.172c-.58-1.904-1.528-7.33-3.238-7.86h-1.78v7.791h-3.173l-.033-18.133"/>
        <path fill="#FFFFFE" d="M131.064 8.132h2.878c4.535.96 4.406 11.679.038 12.572h-2.916V8.132M164.716 7.823h1.93c3.037.376 2.951 4.568.024 4.917h-1.954V7.823"/>
        <path fill="#323C48" d="M146.347 5.045h8.901v2.84h-5.764v4.677h5.648v2.84h-5.648v5.302h5.96v2.63h-9.097V5.046M182.674 7.735l.44-.338-.368-.326.494-.082-.172-.462.665.457c.537.369.876.139.291 1.658 1.372.014 3.028-1.24 2.479-1.965l-.364-.125-.353.059-.738.31.23-.398-.336-.311.337-.267-.316-.42.528.155.58.263c1.004.138 1.089.194 1.319 1.088 5.049-1.428 4.665 5.168 1.245 6.38 2.715-3.057.809-4.714-.166-4.056-.2.135-.081.078-.124.145.211.513.096 1.134-.14 1.648-.373.184-.357.5-.842 1.157l-.168-.446-.491.18.256-.45-.38-.164.658-.28c1.545-1.583-1.415-.85-3.111.18-.805.49-.53.445-.599 1.444-.129.659-1.004.203-1.644.1l-.704.099.241-.301-.35-.336.389-.147-.106-.506c.161.07.362.3.61.43.51.267 1.062.35.784-.58l-1.267-1.02c-.217-.354-.427-1.074-.645-1.427-.244-.429-.708-.569-.743-.923-.33-3.35 1.075-2.451 1.855-1.242.329.512.188.764.21.994.02.23.206.439 1.187.862.346-.934.6-.98-.065-1.124l-.606.087"/>
        <path fill="#FFFFFE" d="M181.625 7.172c.114.342.11.73-.049.768-.158.038-.23-.24-.344-.583-.114-.344-.226-.626-.068-.663.158-.038.347.134.461.478M182.438 8.717c.22.28.344.644.209.739-.136.094-.297-.139-.516-.417-.22-.278-.418-.5-.283-.595.135-.094.37-.005.59.273M184.128 8.957c.468-.062.959.057.96.296.001.238-.372.183-.84.246-.47.063-.86.22-.86-.018-.003-.238.27-.46.74-.524M186.247 8.277c.432-.204.933-.24.999-.011.065.228-.307.289-.739.492-.432.204-.763.474-.829.246-.065-.228.137-.524.569-.727M188.915 7.425c.574.056 1.125.295 1.062.527-.063.232-.492.005-1.065-.05-.574-.056-1.081.078-1.02-.153.064-.233.45-.381 1.023-.324M188.931 8.349c.575.025 1.137.233 1.086.469-.052.234-.491.031-1.067.006s-1.027.11-.974-.124c.05-.235.38-.376.955-.351M190.83 9.228c.081.608-.375 2.104-.602 2.092-.225-.012.246-1.379.166-1.986-.08-.608-.286-1.056-.059-1.044.226.012.416.33.496.938M181.592 9.599c-.29-.358-.447-.799-.259-.885.188-.086.306.26.595.619.289.358.643.594.456.68-.188.086-.503-.057-.792-.414M184.237 10.672c-.531.089-1.077-.038-1.033-.352.044-.314.475-.213 1.005-.301.531-.088.991-.359.948-.045-.044.314-.39.61-.92.698M186.866 9.782c-.5.242-1.044.287-1.074.02-.032-.267.395-.295.894-.537.499-.242.81-.556.841-.289.032.267-.162.564-.66.806M180.415 7.612c.078.355.246.664.422.585.175-.078.094-.352.015-.707-.079-.354-.125-.659-.301-.58-.175.078-.215.348-.136.702"/>
        <path fill="#323C48" d="M185.281.517h.002v.004c2.169 0 4.133.938 5.553 2.45 1.418 1.512 2.296 3.6 2.297 5.906h.004v.007h-.004c0 2.309-.879 4.399-2.298 5.91-1.42 1.512-3.383 2.448-5.55 2.449v.003h-.006v-.003c-2.169-.001-4.134-.937-5.554-2.451-1.418-1.51-2.296-3.598-2.297-5.905h-.004v-.008h.004c0-2.307.879-4.398 2.298-5.908 1.42-1.512 3.384-2.448 5.55-2.45V.517h.005zm.002 1.83v.005h-.006v-.004c-1.691 0-3.223.732-4.331 1.912a6.74 6.74 0 0 0-1.801 4.619h.003v.008h-.003c0 1.8.688 3.433 1.799 4.615 1.11 1.182 2.642 1.914 4.335 1.914v-.004h.006v.004c1.69-.001 3.223-.731 4.331-1.912 1.112-1.183 1.8-2.817 1.8-4.62h-.003v-.007h.003a6.737 6.737 0 0 0-1.799-4.616c-1.109-1.18-2.642-1.912-4.334-1.913z"/>
    </g>
</svg>
