<svg xmlns="http://www.w3.org/2000/svg" width="151" height="25" viewBox="0 0 151 25">
    <path fill="#323C48" fillRule="evenodd" d="M131.234 7.433h15.017a4.627 4.627 0 0 1 4.618 4.618v8.331A4.626 4.626 0 0 1 146.25 25h-15.017a4.627 4.627 0 0 1-4.618-4.618v-8.331a4.628 4.628 0 0 1 4.618-4.618zm-7.63 0h-15.617a4.628 4.628 0 0 0-4.619 4.618v8.331a4.627 4.627 0 0 0 4.62 4.618h15.616l-.907-3.34h-13.374a2.057 2.057 0 0 1-2.052-2.053v-6.782c0-1.13.922-2.052 2.052-2.052h13.374l.907-3.34zm-47.47 0h4.024v12.656c0 .847.692 1.54 1.54 1.54h11.709c.847 0 1.54-.693 1.54-1.54V7.433h4.023v12.95A4.626 4.626 0 0 1 94.353 25H80.752a4.626 4.626 0 0 1-4.618-4.618V7.432zM77.046 0h5.269l1.59 4.88h-3.67L77.045 0zm7.522 0h6.128l-1.347 4.88h-3.493L84.568 0zm8.38 0h5.2l-3.173 4.88H91.3L92.948 0zM49.47 7.433h3.993v6.696h13.871V7.433h3.992V25h-3.992v-7.35H53.462V25h-3.993V7.433zm-3.65 0H30.203a4.628 4.628 0 0 0-4.619 4.618v8.331A4.627 4.627 0 0 0 30.203 25H45.82l-.908-3.34H31.54a2.057 2.057 0 0 1-2.053-2.053v-6.782c0-1.13.922-2.052 2.053-2.052h13.373l.908-3.34zm-24.864 0H4.618A4.628 4.628 0 0 0 0 12.05v1.16a4.627 4.627 0 0 0 4.618 4.618h11.51c.848 0 1.539.692 1.539 1.54v.735c0 .848-.691 1.54-1.54 1.54H1.224L.294 25H17.09a4.626 4.626 0 0 0 4.618-4.618v-1.34a4.627 4.627 0 0 0-4.618-4.618H5.58c-.848 0-1.54-.691-1.54-1.539v-.572c0-.848.692-1.54 1.54-1.54h14.435l.94-3.34zm111.3 3.372h12.975c.848 0 1.54.693 1.54 1.54v7.743c0 .847-.692 1.54-1.54 1.54h-12.976a1.542 1.542 0 0 1-1.538-1.54v-7.743c0-.847.69-1.54 1.538-1.54z" opacity=".8"/>
</svg>
