<svg xmlns="http://www.w3.org/2000/svg" width="86" height="45" viewBox="0 0 86 45">
    <g fill="#323C48" fillRule="evenodd" opacity=".8">
        <path d="M37.102.441l-17.193 17.14L37.102 34.78H27.46L10.325 17.581 27.46.441h9.642"/>
        <path d="M17.179 27.924l6.854 6.855H.043V.441h23.99l-6.854 6.857H6.897v20.626H17.18M40.528 34.78h4.821v-4.242l1.685-2.381 3.078 6.622h5.693l-5.402-10.865 4.356-6.333h-4.82l-4.59 7.147v-7.147h-4.82V34.78M72.94 34.78h13.01v-4.01h-8.015v-2.904h6.505v-3.719h-6.505v-2.556h7.9v-4.01H72.939V34.78M70.907 29.61v-.524l-.059-.059v-.231l-.058-.059v-.117l-.057-.057v-.174l-.059-.058v-.117l-.058-.057-.057-.117v-.058l-.059-.058-.058-.117v-.057l-.057-.058-.059-.059v-.116l-.058-.058-.058-.059-.058-.057-.059-.058-.058-.059-.057-.057-.059-.058-.058-.116-.058-.059-.058-.058h-.058l-.059-.058-.057-.058-.058-.058-.116-.058-.058-.059-.059-.057-.057-.059h-.117l-.058-.058-.058-.058-.117-.058h-.057l-.058-.058-.116-.059h-.058l-.117-.057h-.058l-.116-.058h-.116l-.059-.059h-.116l-.115-.057h-.059l-.116-.058h-.116l.116-.059h.175l.057-.058h.117l.057-.058h.059l.116-.058.058-.059h.058l.116-.057h.059l.058-.058.057-.059h.117l.057-.058.059-.057.016-.017.042-.042h.058l.058-.058.058-.058.059-.058.057-.058.059-.059.058-.057.057-.058h.059l.058-.059.057-.058.059-.057.058-.06.058-.115v-.058l.058-.059.058-.058.059-.057v-.059l.057-.058.058-.057v-.117l.059-.059v-.057l.058-.058v-.059l.058-.115v-.06l.058-.057v-.116l.059-.059v-.174l.057-.057v-.233l.058-.116v-1.395l-.058-.058v-.29l-.057-.058v-.174l-.059-.059v-.116l-.058-.058v-.116l-.058-.058v-.117l-.058-.057v-.059l-.059-.058v-.057l-.058-.06v-.116h-.057v-.057l-.059-.058v-.059l-.058-.057-.058-.058v-.059h-.058v-.058l-.058-.058v-.058l-.059-.059h-.057v-.057l-.058-.058v-.059h-.059l-.057-.058v-.057h-.058l-.059-.06-.057-.057-.059-.058-.058-.058-.058-.058-.058-.059h-.058v-.057h-.059l-.057-.058-.058-.059h-.059v-.057h-.057l-.058-.059h-.06l-.056-.058-.059-.059h-.058l-.058-.057h-.058l-.058-.058h-.059l-.057-.059h-.059l-.058-.057h-.116l-.058-.058h-.116l-.058-.059h-.116l-.059-.058h-.174l-.058-.058h-.232l-.058-.058h-.348l-.058-.058h-.814l-.058-.059H56.56V34.78h8.887l.174-.057h.523l.174-.058h.349l.115-.059h.175l.116-.058h.174l.116-.057.175-.059h.116l.174-.058.116-.057h.117l.116-.06.174-.057.117-.059.116-.057.115-.058.117-.059.116-.057.058-.058.116-.059.117-.115.116-.06.058-.058.116-.115.115-.059.059-.058.116-.116.058-.058.058-.116.116-.058.058-.116.059-.058.058-.116.058-.117.058-.116.059-.058.057-.116.058-.117.059-.115.057-.117.058-.116V31.7l.059-.116.057-.117v-.115l.058-.116v-.29l.059-.116v-.408l.058-.116v-.64l-.058-.057zm-9.468-8.31h2.846l.058.058h.232l.059.059h.116l.058.057h.116v.058h.058l.059.059h.057v.058h.058v.058h.059l.057.058v.059h.059v.057h.058v.058l.058.059v.058l.058.057v.117h.058v.233l.058.057v.465l-.058.059v.174l-.058.058v.116h-.058v.116h-.058v.058l-.058.059-.059.058v.057h-.057v.059h-.059l-.058.058h-.057v.057h-.059l-.058.059h-.058l-.058.058h-.058l-.059.059h-.174l-.058.057h-3.02V21.3zm4.356 8.773h-.057v.059l-.06.058v.058l-.057.058v.058h-.058v.058h-.058v.058h-.058v.058h-.058v.059h-.058l-.059.058-.057.057h-.059l-.058.059h-.057l-.059.059h-.116v.057h-.175l-.057.058h-.35l-.057.059H61.44v-3.138h3.136l.059.058h.174l.058.058h.116v.058h.116v.058h.117v.059h.057l.059.057.058.058h.058v.059h.058v.058l.058.057.058.059v.058h.058v.116h.059v.058l.057.059v.174h.058v.872l-.058.057v.174zM83.274.441c.45 0 .888.116 1.317.346.428.231.762.562 1 .991.24.43.36.877.36 1.344 0 .461-.118.905-.354 1.33a2.488 2.488 0 0 1-.99.993 2.71 2.71 0 0 1-1.333.353 2.71 2.71 0 0 1-1.333-.353 2.51 2.51 0 0 1-.992-.992 2.712 2.712 0 0 1-.355-1.331c0-.467.12-.915.36-1.344.24-.43.575-.76 1.003-.99.428-.231.868-.347 1.317-.347zm0 .444a2.28 2.28 0 0 0-1.099.29 2.077 2.077 0 0 0-.836.827 2.258 2.258 0 0 0-.301 1.12c0 .386.098.755.296 1.11a2.1 2.1 0 0 0 .83.826 2.25 2.25 0 0 0 1.11.297c.386 0 .756-.099 1.112-.297.355-.198.63-.473.827-.827.197-.354.295-.723.295-1.11 0-.387-.1-.76-.3-1.12a2.062 2.062 0 0 0-.837-.827 2.282 2.282 0 0 0-1.097-.29zm-1.176 3.714V1.721h.992c.339 0 .583.026.735.08a.716.716 0 0 1 .363.278.762.762 0 0 1-.09.97.896.896 0 0 1-.6.264c.1.042.183.093.244.152.115.113.257.303.426.57l.351.564h-.565l-.257-.453c-.2-.358-.364-.58-.487-.67-.085-.067-.21-.1-.373-.098h-.273V4.6h-.466zm.466-1.62h.564c.27 0 .454-.04.553-.121a.389.389 0 0 0 .147-.317.386.386 0 0 0-.07-.229.43.43 0 0 0-.198-.15c-.084-.033-.24-.049-.467-.049h-.53v.865zM.05 42.055c0-.51.076-.937.226-1.283.113-.255.267-.483.462-.686.195-.202.409-.352.64-.45a2.704 2.704 0 0 1 1.07-.197c.73 0 1.314.228 1.753.685.439.457.658 1.093.658 1.907 0 .807-.218 1.439-.653 1.895-.435.455-1.017.683-1.745.683-.737 0-1.323-.226-1.758-.68-.435-.454-.652-1.078-.652-1.874zm1.028-.034c0 .572.13 1.004.39 1.3.26.294.591.442.991.442s.73-.146.986-.439c.257-.293.386-.731.386-1.317 0-.579-.126-1.01-.376-1.295-.25-.285-.581-.426-.996-.426-.414 0-.747.143-1 .431-.254.289-.38.723-.38 1.304zM5.67 39.529h.997v2.118c.227-.024.38-.08.46-.17.08-.093.203-.347.37-.763.21-.53.423-.858.635-.988.21-.129.55-.194 1.019-.194.023 0 .072 0 .147-.003v.726l-.143-.004c-.206 0-.357.025-.452.076a.574.574 0 0 0-.232.229c-.059.103-.146.313-.262.633-.06.17-.127.311-.198.425-.072.114-.198.22-.38.321.226.063.413.192.56.385.147.193.308.465.483.817l.685 1.382h-1.18l-.605-1.306a8.628 8.628 0 0 1-.188-.343c-.133-.247-.242-.401-.327-.463-.086-.062-.216-.094-.392-.096v2.208H5.67v-4.99M9.7 42.055c0-.51.075-.937.226-1.283.113-.255.267-.483.462-.686.195-.202.408-.352.64-.45.31-.132.666-.197 1.07-.197.73 0 1.314.228 1.752.685.439.457.658 1.093.658 1.907 0 .807-.217 1.439-.653 1.895-.434.455-1.016.683-1.744.683-.737 0-1.324-.226-1.759-.68-.435-.454-.652-1.078-.652-1.874zm1.028-.034c0 .572.13 1.004.39 1.3.26.294.59.442.99.442.402 0 .73-.146.987-.439.256-.293.385-.731.385-1.317 0-.579-.125-1.01-.375-1.295-.25-.285-.582-.426-.996-.426-.414 0-.748.143-1 .431-.254.289-.381.723-.381 1.304zM15.32 44.52v-4.991h.997v1.966h1.996v-1.966h.998v4.99h-.998v-2.178h-1.996v2.178h-.998M20.338 44.52v-4.991h.998v1.966h1.996v-1.966h.998v4.99h-.998v-2.178h-1.996v2.178h-.998M25.357 39.529h.997v1.996h1.37c.36 0 .67.048.929.145.259.096.475.268.648.517.173.248.26.533.26.855 0 .339-.09.63-.269.873-.179.244-.378.405-.597.485-.218.08-.538.12-.96.12h-2.378v-4.991zm.997 4.143h1.013c.323 0 .549-.015.676-.045s.24-.1.34-.207a.555.555 0 0 0 .149-.391c0-.219-.081-.384-.244-.493-.162-.11-.455-.164-.878-.164h-1.056v1.3zm3.78.848h.999v-4.991h-.998v4.99zM32.163 44.52v-4.991h3.689v.847H33.16v1.089h2.51v.846h-2.51v1.361h2.783v.847h-3.78M39.839 44.52v-4.144h-1.482v-.847h3.961v.847h-1.481v4.143h-.998M42.962 44.52v-4.991h3.689v.847h-2.692v1.089h2.51v.846h-2.51v1.361h2.783v.847h-3.78M47.094 44.52l1.708-2.61-1.528-2.381h1.18l.95 1.464.957-1.464h1.147l-1.526 2.356 1.708 2.634h-1.216l-1.093-1.705-1.104 1.705h-1.183M52.222 44.52v-4.991h.998v1.966h1.997v-1.966h.997v4.99h-.997v-2.178H53.22v2.178h-.998M57.03 42.055c0-.51.076-.937.226-1.283.113-.255.266-.483.462-.686.195-.202.409-.352.64-.45.31-.132.665-.197 1.07-.197.73 0 1.314.228 1.752.685.44.457.658 1.093.658 1.907 0 .807-.218 1.439-.652 1.895-.436.455-1.017.683-1.746.683-.736 0-1.322-.226-1.758-.68-.435-.454-.652-1.078-.652-1.874zm1.028-.034c0 .572.13 1.004.39 1.3.26.294.591.442.991.442s.73-.146.986-.439c.257-.293.385-.731.385-1.317 0-.579-.125-1.01-.375-1.295-.25-.285-.581-.426-.996-.426-.414 0-.747.143-1.001.431-.253.289-.38.723-.38 1.304zM63.01 39.529h3.48v4.99h-.998v-4.143H64.01v2.114c0 .605-.02 1.028-.062 1.268a.906.906 0 0 1-.3.56c-.158.134-.406.201-.744.201-.12 0-.335-.012-.648-.036v-.81l.224.002c.21 0 .351-.027.424-.083.072-.056.108-.194.108-.412l-.003-.845v-2.806M67.316 42.055c0-.51.076-.937.227-1.283a2.36 2.36 0 0 1 .461-.686 1.94 1.94 0 0 1 .641-.45 2.703 2.703 0 0 1 1.069-.197c.73 0 1.314.228 1.753.685.438.457.657 1.093.657 1.907 0 .807-.216 1.439-.652 1.895-.434.455-1.016.683-1.744.683-.738 0-1.324-.226-1.759-.68-.435-.454-.653-1.078-.653-1.874zm1.028-.034c0 .572.13 1.004.391 1.3.26.294.59.442.99.442.401 0 .73-.146.987-.439.256-.293.385-.731.385-1.317 0-.579-.125-1.01-.375-1.295-.25-.285-.582-.426-.996-.426-.415 0-.748.143-1 .431-.255.289-.382.723-.382 1.304zM72.965 39.529h3.358v.847h-2.36v4.143h-.998v-4.99M76.867 39.529h.968v3.227L79.8 39.53h1.028v4.99h-.967v-3.17l-1.966 3.17h-1.028v-4.99M81.855 39.529h.968v3.227l1.965-3.227h1.028v4.99h-.968v-3.17l-1.965 3.17h-1.028v-4.99"/>
    </g>
</svg>
