<svg xmlns="http://www.w3.org/2000/svg" width="78" height="22" viewBox="0 0 78 22">
    <g fill="#323C48" fillRule="evenodd" opacity=".8">
        <path d="M6.236 12.692v9.073H.086V.08h10.917c2.64 0 3.583 2.556 3.583 4.001v4.526c0 1.195-.943 1.95-1.634 2.075 1.697.314 1.76 1.446 1.76 2.64v8.36H8.489v-7.543c0-1.32-.629-1.508-1.635-1.508l-.618.062zm0-8.884v5.176s.304.062.933 0c.628-.063 1.32-1.132 1.257-2.64-.063-1.51-.377-2.536-1.006-2.536H6.236zM37.415.079v8.967H35.14V.08h-6.15v21.686h6.15v-9.073h2.274v9.073h6.15V.08h-6.15M48.405.079h11.943v21.686h-6.15v-9.073h-2.273v9.073h-6.15V3.83c0-1.131.318-3.75 2.63-3.75zm3.52 5.51v3.457h2.274V3.955s-2.274-.692-2.274 1.634zM27.033 18.098h-4.034v-5.406h4.034V9.046h-4.034V3.725h4.034V.079H16.849v21.686H23v-.021h4.034v-3.646M62.559 16.904V.079h6.15v16.51s-.126 1.76 1.131 1.76c1.257 0 1.131-1.76 1.131-1.76V.08h6.15v16.825c0 4.714-2.126 5.029-7.281 5.029-5.155 0-7.281-.44-7.281-5.029zM72.28 2.725c0 1 .8 1.749 1.753 1.749.948 0 1.743-.749 1.743-1.749 0-.98-.795-1.73-1.743-1.73-.953 0-1.753.75-1.753 1.73zm.316 0c0-.832.623-1.474 1.437-1.474.804 0 1.427.642 1.427 1.474 0 .852-.623 1.493-1.427 1.493-.814 0-1.437-.641-1.437-1.493zm.758 1.024h.316v-.875h.335l.553.875h.34l-.581-.898c.302-.033.534-.186.534-.553 0-.391-.228-.582-.711-.582h-.786V3.75zm.316-1.777h.419c.214 0 .446.042.446.312 0 .32-.256.335-.535.335h-.33v-.647z"/>
    </g>
</svg>
