<svg xmlns="http://www.w3.org/2000/svg" width="87" height="26" viewBox="0 0 87 26">
    <g fill="#323C48" fillRule="evenodd" opacity=".8">
        <path d="M11.082 11.306H7.238V25.47H4.072V11.306H.247V8.563h10.835v2.743M12.923 8.563h3.466c1.255.017 2.238.009 2.982.161.745.154 1.394.31 1.967.647.736.451 1.47 1.095 1.837 1.812.368.717.526 1.595.544 2.368 0 1.208-.266 2.35-1.035 3.196-.77.845-1.491 1.337-2.743 1.579l5.365 7.143h-4.141l-4.602-6.887h-.402l-.026 6.887h-3.212V8.563zm3.162 2.62v5.133h.803c1.184 0 2.065-.236 2.64-.708.577-.472.865-1.119.865-1.94 0-.836-.28-1.455-.839-1.858-.56-.402-1.425-.611-2.593-.627h-.876zM33.408 8.097c2.564 0 4.702.85 6.41 2.552 1.71 1.701 2.565 3.808 2.565 6.32-.017 2.512-.875 4.61-2.577 6.296-1.701 1.685-3.834 2.527-6.398 2.527-2.58 0-4.722-.842-6.423-2.527-1.702-1.686-2.552-3.784-2.552-6.297 0-2.511.85-4.614 2.552-6.307 1.701-1.693 3.843-2.548 6.423-2.564zm0 14.78c1.658 0 3.022-.55 4.092-1.652 1.07-1.1 1.605-2.52 1.605-4.258s-.535-3.165-1.605-4.28c-1.07-1.117-2.434-1.675-4.092-1.675-1.673 0-3.041.558-4.103 1.675-1.063 1.115-1.594 2.542-1.594 4.28 0 1.738.531 3.157 1.594 4.258 1.062 1.101 2.43 1.652 4.103 1.652zM56.978 9.498v3.547c-.631-.615-1.506-1.207-2.256-1.53-.75-.324-1.403-.403-2.255-.403-1.783 0-2.564.5-3.652 1.718-1.089 1.22-1.665 2.43-1.665 4.303 0 1.824.802 3.122 1.906 4.317 0 0 1.37 1.29 3.599 1.424.786.047 1.552-.027 2.309-.35.757-.322 1.336-.85 2.014-1.597v3.67c-.73.468-1.479.8-2.248.993a9.458 9.458 0 0 1-2.32.291c-1.205 0-2.3-.202-3.282-.606a7.93 7.93 0 0 1-2.617-1.745 8.582 8.582 0 0 1-1.987-2.799c-.468-1.058-.694-2.258-.678-3.598 0-1.342.23-2.577.69-3.708a8.412 8.412 0 0 1 1.975-2.933 7.81 7.81 0 0 1 2.57-1.672c.967-.388 2.116-.581 3.448-.581.889 0 1.693.1 2.415.303.722.202 1.4.52 2.034.956M70.924 25.534l-1.386-3.588h-6.883l-1.478 3.543h-3.558l7.249-17.327 2.404-.002 7.236 17.374h-3.584zm-7.228-6.254l4.766-.013-2.356-6.088-2.41 6.101zM76.008 8.592h3.16V22.77h5.208v2.698h-8.368V8.592"/>
        <path d="M8.754 7.527S30.516-.52 49.707.291C59.7.713 64.434 2.619 64.434 2.619s6.25 1.882 7.86 4.884c-.11.873-.628.928-.628.928s.328-.055-2.292-1.528c-2.62-1.474-4.776-2.265-4.776-2.265S61.87 3.6 57.613 2.89c-4.257-.709-8.76-.818-8.76-.818S30.389 1.108 8.924 7.84l-.169-.314M86.463 11.123c0 .785-.318 1.495-.832 2.01a2.835 2.835 0 0 1-2.01.832h-.002a2.835 2.835 0 0 1-2.01-.833 2.833 2.833 0 0 1-.832-2.008v-.001c0-.785.319-1.496.833-2.01a2.834 2.834 0 0 1 2.008-.833h.002c.786 0 1.497.319 2.01.833.515.515.833 1.225.833 2.009zm-.425 0v-.001a2.414 2.414 0 0 0-2.418-2.417h-.002c-.667 0-1.27.27-1.708.708a2.41 2.41 0 0 0-.708 1.71c0 .668.27 1.272.707 1.71a2.41 2.41 0 0 0 1.71.708h.001c.67 0 1.273-.271 1.71-.708a2.41 2.41 0 0 0 .708-1.71z"/>
        <path d="M83.37 11.006v-.636h.162c.136 0 .235.028.29.082a.33.33 0 0 1 .097.193v.072a.329.329 0 0 1-.093.196c-.055.062-.154.093-.294.093h-.161zm-.871 1.512h.872v-.843l.584.843h1.041l-.827-1.1.017-.004.016-.01c.15-.056.285-.144.407-.267.122-.122.182-.305.182-.548 0-.222-.054-.39-.16-.503a1.055 1.055 0 0 0-.672-.31l-.192-.013h-1.268v2.755z"/>
    </g>
</svg>
