<svg xmlns="http://www.w3.org/2000/svg" width="490" height="459" viewBox="0 0 490 459">
    <defs>
        <linearGradient id="a" x1="51.74%" x2="48.175%" y1="93.777%" y2="5.63%">
            <stop offset="0%" stop-color="#EFDDCB"/>
            <stop offset="53%" stop-color="#EFD8C7"/>
            <stop offset="70%" stop-color="#F0BDAF"/>
            <stop offset="87%" stop-color="#F2A89C"/>
            <stop offset="98%" stop-color="#F2A095"/>
        </linearGradient>
        <linearGradient id="b" x1="51.797%" x2="41.778%" y1="94.079%" y2="2.698%">
            <stop offset="0%" stop-color="#EFDDCB"/>
            <stop offset="21%" stop-color="#EFD8C7"/>
            <stop offset="50%" stop-color="#F0BDAF"/>
            <stop offset="79%" stop-color="#F2A89C"/>
            <stop offset="98%" stop-color="#F2A095"/>
        </linearGradient>
        <linearGradient id="c" x1=".013%" y1="49.997%" y2="49.997%">
            <stop offset="0%" stop-color="#FFF" stop-opacity=".5"/>
            <stop offset="84%" stop-color="#F07125"/>
        </linearGradient>
        <linearGradient id="d" x1="90.481%" x2="2.577%" y1="42.967%" y2="53.021%">
            <stop offset="0%" stop-color="#EFDDCB"/>
            <stop offset="21%" stop-color="#EFD8C7"/>
            <stop offset="50%" stop-color="#F0BDAF"/>
            <stop offset="79%" stop-color="#F2A89C"/>
            <stop offset="98%" stop-color="#F2A095"/>
        </linearGradient>
        <linearGradient id="e" x1="51.329%" x2="49.398%" y1="62.785%" y2="36.754%">
            <stop offset="0%" stop-color="#EFDDCB"/>
            <stop offset="21%" stop-color="#EFD8C7"/>
            <stop offset="50%" stop-color="#F0BDAF"/>
            <stop offset="79%" stop-color="#F2A89C"/>
            <stop offset="98%" stop-color="#F2A095"/>
        </linearGradient>
        <linearGradient id="f" x1="0%" y1="49.984%" y2="49.984%">
            <stop offset="0%" stop-color="#FFF" stop-opacity=".5"/>
            <stop offset="84%" stop-color="#F07125"/>
        </linearGradient>
        <linearGradient id="g" x1="-.102%" x2="99.898%" y1="49.988%" y2="49.988%">
            <stop offset="0%" stop-color="#FFF" stop-opacity=".5"/>
            <stop offset="84%" stop-color="#F07125"/>
        </linearGradient>
        <linearGradient id="h" x1="-.009%" x2="99.996%" y1="49.979%" y2="49.979%">
            <stop offset="0%" stop-color="#002544"/>
            <stop offset="99%" stop-color="#640042"/>
        </linearGradient>
        <linearGradient id="i" x1="50.424%" x2="48.601%" y1="100.04%" y2=".127%">
            <stop offset="0%" stop-color="#002544"/>
            <stop offset="2%" stop-color="#002340"/>
            <stop offset="19%" stop-color="#00101D"/>
            <stop offset="33%" stop-color="#000408"/>
            <stop offset="42%"/>
            <stop offset="81%"/>
        </linearGradient>
        <linearGradient id="j" x1="51.773%" x2="48.578%" y1="100.004%" y2="-.42%">
            <stop offset="0%" stop-color="#EFDDCB"/>
            <stop offset="33%" stop-color="#F1BDAF"/>
            <stop offset="63%" stop-color="#F2A89C"/>
            <stop offset="82%" stop-color="#F2A095"/>
        </linearGradient>
        <linearGradient id="k" x1="51.472%" x2="48.223%" y1="95.401%" y2="-1.088%">
            <stop offset="0%" stop-color="#002544"/>
            <stop offset="19%" stop-color="#00172A"/>
            <stop offset="42%" stop-color="#000A13"/>
            <stop offset="63%" stop-color="#000305"/>
            <stop offset="81%"/>
        </linearGradient>
        <linearGradient id="l" x1="53.974%" x2="35.767%" y1="-5.584%" y2="94.152%">
            <stop offset="62%" stop-color="#B56819"/>
            <stop offset="100%" stop-color="#3C0055"/>
        </linearGradient>
        <linearGradient id="m" x1="191.512%" x2="-45.132%" y1="165.68%" y2="-14.003%">
            <stop offset="0%" stop-color="#FFC063"/>
            <stop offset="95%" stop-color="#E44D0B"/>
        </linearGradient>
        <linearGradient id="n" x1="84.907%" x2="10.18%" y1="-3.066%" y2="101.711%">
            <stop offset="0%" stop-color="#F07125"/>
            <stop offset="100%" stop-color="#9E5625"/>
        </linearGradient>
        <linearGradient id="o" x1="83.777%" x2="18.596%" y1="15.642%" y2="85.715%">
            <stop offset="0%" stop-color="#FFF" stop-opacity=".5"/>
            <stop offset="84%" stop-color="#F07125"/>
        </linearGradient>
        <linearGradient id="p" x1="52.58%" x2="47.931%" y1="57.13%" y2="42.81%">
            <stop offset="0%" stop-color="#EFDDCB"/>
            <stop offset="33%" stop-color="#F1BDAF"/>
            <stop offset="63%" stop-color="#F2A89C"/>
            <stop offset="82%" stop-color="#F2A095"/>
        </linearGradient>
        <linearGradient id="q" x1="67.722%" x2="35.591%" y1="37.248%" y2="54.271%">
            <stop offset="0%" stop-color="#FFF" stop-opacity=".5"/>
            <stop offset="84%" stop-color="#F07125"/>
        </linearGradient>
        <linearGradient id="r" x1="-.006%" y1="49.979%" y2="49.979%">
            <stop offset="0%" stop-color="#FFF" stop-opacity=".5"/>
            <stop offset="100%" stop-color="#002544" stop-opacity=".4"/>
        </linearGradient>
        <linearGradient id="s" x1="62.568%" x2="37.759%" y1="14.982%" y2="96.441%">
            <stop offset="0%" stop-color="#FFF" stop-opacity=".5"/>
            <stop offset="84%" stop-color="#F07125"/>
        </linearGradient>
        <linearGradient id="t" x1="37.826%" x2="61.826%" y1="49.642%" y2="49.642%">
            <stop offset="0%" stop-color="#FFF" stop-opacity=".5"/>
            <stop offset="84%" stop-color="#F07125"/>
        </linearGradient>
        <linearGradient id="u" x1="0%" x2="100.022%" y1="49.929%" y2="49.929%">
            <stop offset="0%" stop-color="#FFF" stop-opacity=".5"/>
            <stop offset="84%" stop-color="#F07125"/>
        </linearGradient>
        <linearGradient id="v" x1="50.994%" x2="49.203%" y1="100.004%" y2="-.42%">
            <stop offset="0%" stop-color="#EFDDCB"/>
            <stop offset="33%" stop-color="#F1BDAF"/>
            <stop offset="63%" stop-color="#F2A89C"/>
            <stop offset="82%" stop-color="#F2A095"/>
        </linearGradient>
        <linearGradient id="w" x1="52.144%" x2="48.28%" y1="100.004%" y2="-.42%">
            <stop offset="0%" stop-color="#EFDDCB"/>
            <stop offset="33%" stop-color="#F1BDAF"/>
            <stop offset="63%" stop-color="#F2A89C"/>
            <stop offset="82%" stop-color="#F2A095"/>
        </linearGradient>
        <linearGradient id="x" x1="56.008%" x2="45.606%" y1="14.676%" y2="86.338%">
            <stop offset="0%" stop-color="#FFF" stop-opacity=".5"/>
            <stop offset="84%" stop-color="#F07125"/>
        </linearGradient>
        <linearGradient id="y" x1="52.58%" x2="47.931%" y1="68.228%" y2="31.62%">
            <stop offset="0%" stop-color="#EFDDCB"/>
            <stop offset="33%" stop-color="#F1BDAF"/>
            <stop offset="63%" stop-color="#F2A89C"/>
            <stop offset="82%" stop-color="#F2A095"/>
        </linearGradient>
        <linearGradient id="z" x1="52.58%" x2="47.931%" y1="52.538%" y2="47.441%">
            <stop offset="0%" stop-color="#EFDDCB"/>
            <stop offset="33%" stop-color="#F1BDAF"/>
            <stop offset="63%" stop-color="#F2A89C"/>
            <stop offset="82%" stop-color="#F2A095"/>
        </linearGradient>
        <linearGradient id="A" x1="-.007%" y1="50.001%" y2="50.001%">
            <stop offset="0%" stop-color="#FFF" stop-opacity=".5"/>
            <stop offset="84%" stop-color="#F07125"/>
        </linearGradient>
        <linearGradient id="B" x1="50.3%" x2="49.759%" y1="100.004%" y2="-.42%">
            <stop offset="0%" stop-color="#EFDDCB"/>
            <stop offset="33%" stop-color="#F1BDAF"/>
            <stop offset="63%" stop-color="#F2A89C"/>
            <stop offset="82%" stop-color="#F2A095"/>
        </linearGradient>
        <linearGradient id="C" x1="50.594%" x2="49.523%" y1="100.004%" y2="-.42%">
            <stop offset="0%" stop-color="#EFDDCB"/>
            <stop offset="33%" stop-color="#F1BDAF"/>
            <stop offset="63%" stop-color="#F2A89C"/>
            <stop offset="82%" stop-color="#F2A095"/>
        </linearGradient>
        <linearGradient id="D" x1="-.006%" y1="49.979%" y2="49.979%">
            <stop offset="0%" stop-color="#FFF" stop-opacity=".5"/>
            <stop offset="100%" stop-color="#002544" stop-opacity=".4"/>
        </linearGradient>
        <linearGradient id="E" x1="50.388%" x2="49.689%" y1="100.004%" y2="-.42%">
            <stop offset="0%" stop-color="#EFDDCB"/>
            <stop offset="33%" stop-color="#F1BDAF"/>
            <stop offset="63%" stop-color="#F2A89C"/>
            <stop offset="82%" stop-color="#F2A095"/>
        </linearGradient>
        <linearGradient id="F" x1="70.742%" x2="44.842%" y1="5.624%" y2="97.739%">
            <stop offset="6%" stop-color="#FFF"/>
            <stop offset="100%" stop-color="#271C41"/>
        </linearGradient>
        <linearGradient id="G" x1="54.251%" x2="32.09%" y1="10.597%" y2="102.403%">
            <stop offset="29%" stop-color="#412D41"/>
            <stop offset="100%"/>
        </linearGradient>
        <linearGradient id="H" x1=".015%" y1="49.988%" y2="49.988%">
            <stop offset="0%" stop-color="#FFF" stop-opacity=".5"/>
            <stop offset="84%" stop-color="#F07125"/>
        </linearGradient>
        <linearGradient id="I" x1="56.643%" x2="43.337%" y1="10.838%" y2="89.297%">
            <stop offset="35%" stop-color="#002544"/>
            <stop offset="100%" stop-color="#E6E3F4"/>
        </linearGradient>
        <linearGradient id="J" x1="54.232%" x2="45.868%" y1="18.847%" y2="81.1%">
            <stop offset="35%" stop-color="#002544"/>
            <stop offset="100%" stop-color="#E6E3F4"/>
        </linearGradient>
        <linearGradient id="K" x1="54.162%" x2="45.838%" y1="49.455%" y2="50.545%">
            <stop offset="35%" stop-color="#271C41"/>
            <stop offset="100%"/>
        </linearGradient>
    </defs>
    <g fill="none" fill-rule="evenodd">
        <g fill-rule="nonzero">
            <path fill="#EEE" d="M435.868 333.072c-.48.558-.963 1.115-1.45 1.671-34.66 39.781-80.02 70.446-118.954 87.719-26.862 11.915-121.454 53.859-208.66 5.849-41.468-22.848-66.767-58.025-82.197-93.568a44.828 44.828 0 0 1-.72-1.671c-.175-.408-.342-.811-.513-1.215a263.595 263.595 0 0 1-8.925-24.751C.76 262.573.453 222.529.38 211.936-.13 129.33 37.846 37.34 92.613 11.423 110.52 2.966 128.503.99 128.503.99c19.098-2.098 35.156 1.455 49.533 6.854.548.206 1.092.415 1.636.629 13.836 5.403 26.143 12.413 38.138 17.58 12.33 5.309 23.344 8.24 33.479 9.623.559.076 1.114.149 1.67.213 37.024 4.475 62.7-11.4 99.59-6.408a115.181 115.181 0 0 1 18.42 4.093c59.215 18.213 106.096 82.357 116.436 143.69 9.91 58.855-14.445 112.6-51.537 155.808z"/>
            <g fill="#FFF">
                <path d="M355.984 333.072a.808.808 0 0 0-.072-.335 516.245 516.245 0 0 1-4.417-10.282c-3.34-7.958-6.368-15.612-9.13-23.148a473.414 473.414 0 0 1-5.623-16.145c-3.96-12.071-7.118-23.377-9.66-34.56a286.13 286.13 0 0 1-5.234-30.136 216.867 216.867 0 0 1-1.495-25.993c.028-7.451.546-14.893 1.552-22.276a140.77 140.77 0 0 1 3.937-18.944 125.87 125.87 0 0 1 5.707-16.024c.917-2.11 1.849-4.207 2.78-6.305.762-1.706 1.523-3.428 2.284-5.164.848-1.934 1.689-3.884 2.503-5.849a179.006 179.006 0 0 0 3.675-9.49c.72-2.03 1.405-4.088 2.054-6.172.373-1.18.733-2.364 1.08-3.552.33-1.115.65-2.236.96-3.363a207.084 207.084 0 0 0 2.746-11.21 208.014 208.014 0 0 0 2.88-16.56c.087-.644.171-1.292.251-1.939a221.171 221.171 0 0 0 1.46-35.9c-.562-.088-1.14-.168-1.68-.244a219.917 219.917 0 0 1-1.435 35.938c-.091.762-.19 1.493-.29 2.236a210.78 210.78 0 0 1-2.959 16.781c-.586 2.67-1.22 5.32-1.902 7.947a196.222 196.222 0 0 1-4.729 15.483c-1.187 3.381-2.518 6.732-3.907 10.045a409.467 409.467 0 0 1-2.518 5.849c-.662 1.504-1.328 3-1.986 4.482-.936 2.102-1.867 4.209-2.793 6.321a128.404 128.404 0 0 0-5.79 16.23 142.683 142.683 0 0 0-3.987 19.168 171.828 171.828 0 0 0-1.563 22.493c-.02 8.756.488 17.504 1.521 26.198a287.773 287.773 0 0 0 5.27 30.326c2.548 11.234 5.706 22.585 9.697 34.706a494.974 494.974 0 0 0 6.246 17.843 556.116 556.116 0 0 0 8.556 21.58 623.623 623.623 0 0 0 4.284 9.957h-79.393a.835.835 0 0 0 0 1.672h159.554l1.45-1.672h-79.891l.007.008zM266.407 333.076h-11.831a.82.82 0 0 0-.073-.335 516.528 516.528 0 0 1-4.42-10.282c-5.753-13.708-10.58-26.56-14.757-39.293-3.957-12.071-7.118-23.377-9.656-34.56a286.13 286.13 0 0 1-5.235-30.148 216.867 216.867 0 0 1-1.495-25.992c.028-7.452.547-14.893 1.552-22.276a141.364 141.364 0 0 1 3.934-18.945 126.461 126.461 0 0 1 5.707-16.023 789.05 789.05 0 0 1 2.784-6.306c2.949-6.633 6-13.491 8.465-20.502a205.718 205.718 0 0 0 9.971-42.797 218.99 218.99 0 0 0 1.636-29.728 87.092 87.092 0 0 1-1.67-.213c.144 9.94-.392 19.877-1.605 29.743a203.622 203.622 0 0 1-9.892 42.447c-2.442 6.946-5.478 13.773-8.415 20.376-.932 2.102-1.868 4.189-2.789 6.321a127.836 127.836 0 0 0-5.797 16.23 142.68 142.68 0 0 0-3.984 19.168 171.816 171.816 0 0 0-1.567 22.493c-.018 8.756.49 17.504 1.522 26.198a287.739 287.739 0 0 0 5.265 30.326c2.553 11.234 5.707 22.585 9.697 34.706 4.185 12.779 9.036 25.672 14.807 39.423a659.89 659.89 0 0 0 4.28 9.957H142.564a.83.83 0 0 0-.057-.38 336.058 336.058 0 0 1-23.91-102.174c-2.587-36.06.783-72.254 10.024-108.018a363.084 363.084 0 0 1 11.07-35.246 374.263 374.263 0 0 1 12.806-30.44 370.581 370.581 0 0 1 5.68-11.534c1.08-2.107 2.18-4.201 3.299-6.283a388.517 388.517 0 0 1 18.196-30.497c-.544-.214-1.088-.423-1.636-.629a392.45 392.45 0 0 0-18.497 31.126 321.905 321.905 0 0 0-3.28 6.283 320.478 320.478 0 0 0-4.42 8.93 375.174 375.174 0 0 0-13.741 32.446 364.345 364.345 0 0 0-11.23 35.84c-9.207 35.794-12.555 72.038-9.964 108.144a337.697 337.697 0 0 0 23.925 102.432h-22.803a.835.835 0 0 0 0 1.672h148.37a.834.834 0 0 0 .011-1.66zM111.787 333.076H50.179a.835.835 0 0 0 0 1.671h61.608a.835.835 0 0 0 0-1.671zM43.788 333.072h-19.9c.235.556.475 1.113.719 1.671h19.181a.835.835 0 0 0 0-1.671z"/>
            </g>
            <path fill="#BDD3DE" d="M414.89 414.614l-232.867.419 15.442-63.912h224.52z" opacity=".42"/>
            <g fill="#FFF" opacity=".5">
                <path d="M210.418 439.677c-10.998 0-23.564-5.156-30.56-12.524-3.386-3.564-5.082-7.258-4.911-10.662.426-8.442 12.014-13.419 35.099-23.338 14.391-6.184 18.42-5.712 21.586-4.604 4.763 1.656 8.902 5.636 11.652 11.195 2.663 5.362 3.603 11.504 2.602 16.846-3.005 15.92-22.54 23.087-35.468 23.087zm17.386-50.96c-3.077 0-7.989 1.142-17.443 5.19-22.765 9.782-34.193 14.69-34.593 22.61-.16 3.188 1.458 6.668 4.684 10.065 6.847 7.216 19.17 12.258 29.955 12.265 12.642 0 31.732-6.953 34.62-22.424l.41.076-.41-.076c2.054-10.971-4.478-23.883-13.696-27.097a10.17 10.17 0 0 0-3.53-.61h.003z"/>
                <path d="M210.453 433.828c-10.846 0-23.271-4.535-28.913-10.54-1.99-2.12-2.975-4.307-2.85-6.325.38-6.18 10.763-9.775 31.432-16.941 12.855-4.455 16.454-4.113 19.276-3.32 8.61 2.418 14.708 12.131 12.79 20.383-2.69 11.553-20.17 16.743-31.735 16.743zm15.525-36.757c-2.758 0-7.152.815-15.598 3.743-20.319 7.045-30.518 10.578-30.872 16.203-.11 1.778.795 3.75 2.625 5.711 5.494 5.857 17.656 10.282 28.297 10.282 11.291 0 28.338-4.992 30.918-16.096l.407.095-.407-.095c1.822-7.84-3.995-17.082-12.205-19.39a11.081 11.081 0 0 0-3.165-.453zM274.377 402.078a39.633 39.633 0 0 1-19.585-5.495c-8.046-4.893-14.962-14.252-16.811-22.755-.898-4.124-.498-7.593 1.141-10.03 4.075-6.01 14.757-4.501 36.046-1.5 13.278 1.873 16.02 4.02 17.854 6.237 2.755 3.34 4.021 8.095 3.569 13.396-.438 5.11-2.473 10.03-5.577 13.499l-.312-.278.312.278c-4.307 4.82-10.402 6.648-16.637 6.648zm-23.709-41.582c-5.52 0-8.99 1.04-10.842 3.774-1.522 2.243-1.875 5.487-1.027 9.382 1.807 8.298 8.56 17.437 16.427 22.22 9.218 5.605 26.223 9.001 35.175-.998 6.342-7.083 7.29-19.382 1.99-25.806-1.655-2.003-4.352-4.113-17.325-5.944-10.683-1.505-18.653-2.628-24.398-2.628z"/>
                <path d="M276.922 398.152c-6.768 0-14.369-2.696-19.516-5.822-7.936-4.825-15.02-13.67-16.48-20.562-.518-2.449-.267-4.501.73-5.933 3.043-4.375 12.231-2.395 30.534 1.55 11.386 2.452 13.87 4.306 15.597 6.146 5.24 5.612 5.391 15.456.316 20.654-2.777 2.844-6.813 3.967-11.18 3.967zm-28.498-33.996c-3.044 0-5.018.64-6.064 2.143-.86 1.238-1.07 3.047-.598 5.282 1.416 6.702 8.336 15.315 16.097 20.03a41.279 41.279 0 0 0 15.715 5.506c4.288.51 10.192.316 13.943-3.53l.297.293-.297-.293c4.782-4.901 4.626-14.196-.327-19.5-1.56-1.668-4.013-3.5-15.153-5.899-11.059-2.38-18.736-4.032-23.613-4.032zM338.18 386.157c-8.077 0-16.359-2.722-22.065-6.191-9.07-5.514-16.857-16.058-18.942-25.639-1.008-4.638-.563-8.537 1.293-11.275 4.566-6.751 16.622-5.053 40.616-1.668 14.962 2.11 18.047 4.524 20.106 7.018 3.1 3.755 4.527 9.109 4.013 15.076-.494 5.753-2.78 11.294-6.28 15.197-4.859 5.422-11.718 7.482-18.741 7.482zm-26.745-46.916c-6.25 0-10.176 1.176-12.28 4.28-1.723 2.543-2.127 6.218-1.168 10.627 2.04 9.375 9.67 19.699 18.561 25.106 10.413 6.332 29.632 10.167 39.752-1.143l.312.278-.312-.278c7.171-7.996 8.244-21.918 2.245-29.183-1.872-2.285-4.927-4.657-19.581-6.725-12.049-1.694-21.042-2.962-27.529-2.962z"/>
                <path d="M341.052 381.729c-7.609 0-16.191-3.046-21.989-6.565-8.944-5.438-16.925-15.399-18.569-23.175-.582-2.749-.3-5.049.814-6.652 3.424-4.908 13.768-2.666 34.395 1.767 12.832 2.764 15.629 4.851 17.561 6.919 5.893 6.31 6.064 17.383.358 23.228-3.131 3.214-7.655 4.478-12.57 4.478zm-32.166-38.357c-3.458 0-5.706.731-6.89 2.441-.977 1.409-1.217 3.484-.684 6.001 1.602 7.574 9.42 17.303 18.185 22.634 9.301 5.655 25.87 10.084 33.527 2.22 5.418-5.548 5.239-16.069-.38-22.085-1.765-1.904-4.539-3.96-17.12-6.672-12.459-2.677-21.106-4.539-26.638-4.539zM352.735 458.526c-12.105 0-23.85-9.9-29.312-18.601-5.642-8.994-7.887-21.915-5.463-31.415 1.172-4.6 3.317-7.886 6.2-9.52 7.115-3.987 17.12 2.932 37.063 16.717 12.432 8.594 14.11 12.135 14.837 15.288 1.092 4.749-.03 10.175-3.158 15.281-3.017 4.924-7.54 8.85-12.417 10.773a20.968 20.968 0 0 1-7.75 1.477zm-24.15-59.802a8.029 8.029 0 0 0-4.013 1.012c-2.663 1.5-4.683 4.608-5.802 8.98-2.37 9.298-.167 21.948 5.36 30.763 5.327 8.522 16.812 18.213 28.582 18.217 2.556.007 5.09-.47 7.468-1.409 9.998-3.945 17.177-15.901 15.066-25.086-.659-2.867-2.321-6.37-14.499-14.79-16.073-11.104-25.584-17.687-32.162-17.687z"/>
                <path d="M353.804 455.042c-9.796 0-20.444-9.862-25.6-18.08-5.561-8.868-8.24-21.358-6.23-29.046.71-2.72 1.993-4.65 3.705-5.583 5.246-2.86 13.505 3.778 29.959 17.003 10.234 8.225 11.794 11.343 12.604 14.058 2.446 8.286-2.355 18.278-10.078 20.944a13.312 13.312 0 0 1-4.36.704zm-25.424-52.549a4.721 4.721 0 0 0-2.283.56c-1.521.819-2.663 2.57-3.298 5.06-1.96 7.49.677 19.695 6.129 28.392a46.673 46.673 0 0 0 13.087 13.518c4.078 2.692 10.15 5.487 15.894 3.5 7.324-2.532 11.877-12.018 9.55-19.904-.731-2.479-2.283-5.575-12.327-13.644-13.825-11.096-21.757-17.482-26.745-17.482h-.007zM411.577 407.984c-12.105 0-23.85-9.9-29.312-18.601-5.635-8.998-7.887-21.922-5.463-31.42 1.171-4.599 3.317-7.885 6.2-9.519 7.115-3.983 17.12 2.932 37.063 16.717 12.432 8.594 14.11 12.136 14.837 15.288 1.091 4.749-.03 10.175-3.158 15.282-3.017 4.923-7.54 8.849-12.417 10.772a20.968 20.968 0 0 1-7.75 1.481zm-24.15-59.803a8.025 8.025 0 0 0-4.013 1.013c-2.663 1.5-4.687 4.608-5.802 8.98-2.37 9.298-.167 21.948 5.36 30.763 5.326 8.522 16.812 18.213 28.582 18.217 2.556.007 5.09-.47 7.468-1.409 9.998-3.945 17.177-15.901 15.065-25.086-.658-2.867-2.32-6.37-14.498-14.79-16.058-11.104-25.58-17.688-32.162-17.688z"/>
                <path d="M412.654 404.489c-9.796 0-20.445-9.863-25.6-18.08-5.562-8.869-8.24-21.359-6.231-29.047.711-2.719 1.993-4.65 3.705-5.582 5.246-2.86 13.506 3.777 29.96 17.002 10.233 8.225 11.793 11.344 12.603 14.059 2.446 8.286-2.358 18.278-10.077 20.943a13.312 13.312 0 0 1-4.36.705zm-25.425-52.55a4.721 4.721 0 0 0-2.282.56c-1.522.82-2.663 2.57-3.299 5.061-1.959 7.49.678 19.695 6.13 28.392a46.673 46.673 0 0 0 13.086 13.518c4.078 2.692 10.146 5.487 15.895 3.5 7.323-2.533 11.877-12.018 9.549-19.905-.73-2.478-2.283-5.574-12.326-13.643-13.83-11.1-21.754-17.463-26.753-17.463v-.02zM205.587 378.504a36.808 36.808 0 0 1-18.189-5.103c-7.475-4.543-13.893-13.236-15.597-21.137-.834-3.835-.465-7.064 1.072-9.334 3.805-5.593 13.696-4.188 33.479-1.405 12.333 1.74 14.882 3.736 16.583 5.8 5.15 6.24 4.26 18.156-1.864 24.998-4.025 4.475-9.69 6.18-15.484 6.18zm-22-38.593c-5.114 0-8.325.96-10.036 3.488-1.408 2.075-1.735 5.08-.952 8.686 1.674 7.695 7.936 16.164 15.218 20.6 8.544 5.194 24.306 8.343 32.603-.917 5.878-6.561 6.757-17.958 1.845-23.91-1.522-1.855-4.032-3.808-16.058-5.503-9.903-1.4-17.295-2.444-22.62-2.444z"/>
                <path d="M207.953 374.852c-6.285 0-13.345-2.502-18.124-5.407-7.372-4.482-13.954-12.696-15.308-19.12-.484-2.284-.248-4.188.68-5.529 2.835-4.078 11.368-2.239 28.366 1.424 10.576 2.285 12.885 4.002 14.48 5.712 4.888 5.248 5.017 14.386.296 19.222-2.59 2.655-6.33 3.698-10.39 3.698zm-26.42-31.518c-2.824 0-4.692.579-5.643 1.95-.795 1.142-.985 2.829-.551 4.878 1.312 6.21 7.726 14.195 14.924 18.567 12.676 7.703 23.701 5.712 27.486 1.839 4.429-4.535 4.284-13.141-.304-18.053-1.442-1.546-3.717-3.24-14.046-5.468-10.016-2.156-17.233-3.71-21.867-3.71v-.003z"/>
            </g>
            <path fill="#FFF" d="M214.352 11.077h61.345v92.315h-61.345z"/>
            <path fill="#BDD3DE" d="M227.705 80.419c-4.123 1.302-9.606.94-13.353-2.087v-32.6a59.134 59.134 0 0 1 2.503-4.161l3.34 12.12 9.18-7.52c.28 3.622.557 7.242.834 10.86l10.85-8.758c2.708 16.08-3.9 29.16-13.354 32.146z" opacity=".42"/>
            <path fill="#EBDEDE" d="M251.81 19.9c9.168 4.017 13.733 11.8 12.113 17.642-.704 2.551-2.72 5.236-5.528 6.138-5.417 1.74-13.574-3.221-18.093-13.628l7.361 2.357-.81-7.235 5.87 3.221-.913-8.495zM264.433 81.401c-.37 0-.738-.036-1.1-.106-4.257-.83-8.37-7.121-7.844-16.218l.053-.956 4.325 4.49 1.952-5.297 2.846 4.322 2.237-5.948.456.579c4.63 5.864 5.547 13.095 2.13 16.823a7.157 7.157 0 0 1-5.055 2.311zm-8.15-15.304c-.163 8.111 3.451 13.648 7.21 14.379 2.1.407 4.215-.69 5.38-1.961 2.586-2.822 2.803-9.017-1.72-15.144l-2.283 6.092-2.838-4.31-1.837 4.996-3.911-4.052z"/>
            <g fill="#EBDEDE" opacity=".7">
                <path d="M237.928 93.487c-3.36 0-7.674-1.31-12.912-3.922a.426.426 0 0 1 .38-.761c8.119 4.051 13.87 4.908 17.097 2.543 2.922-2.14 3.116-6.443 3.34-11.423.259-5.735.582-12.875 5.326-18.99a24.78 24.78 0 0 1 9.336-7.235.419.419 0 1 1 .35.761 23.97 23.97 0 0 0-9.028 6.98c-4.595 5.906-4.9 12.604-5.166 18.514-.236 5.198-.437 9.684-3.683 12.06-1.316.982-2.996 1.473-5.04 1.473zM225.217 33.635h-.053a.419.419 0 0 1-.361-.468c1.365-10.7 4.036-16.473 8.152-17.688 1.903-.556 3.561.038 5.186.61 1.624.57 3.31 1.168 5.326.715a.419.419 0 0 1 .182.815c-2.26.507-4.139-.156-5.794-.761-1.567-.553-3.043-1.078-4.671-.598-3.71 1.093-6.258 6.808-7.575 16.99a.419.419 0 0 1-.392.385z"/>
            </g>
            <g fill="#EBDEDE" transform="translate(217.99 22.847)">
                <ellipse cx="31.626" cy="33.136" rx="1.461" ry="1.462"/>
                <ellipse cx="52.078" cy="7.654" opacity=".7" rx="1.461" ry="1.462"/>
                <ellipse cx="1.579" cy="1.805" opacity=".7" rx="1.461" ry="1.462"/>
                <ellipse cx="31.626" cy="65.716" rx="1.461" ry="1.462"/>
            </g>
            <rect width="122.633" height="83.503" x="72.146" y="38.989" fill="#BDD3DE" opacity=".42" rx="12"/>
            <g fill="#FFF" opacity=".5">
                <path d="M86.16 47.96l12.962-.308a11.248 11.248 0 0 0 3.146 11.88l-13.315 1.18c-.32-.266-5.284-4.53-4.207-9.69a7.745 7.745 0 0 1 1.415-3.062zM88.405 67.37l12.483 1.065a10.482 10.482 0 0 0 2.91 10.864l-12.779 1.428c-.544-.438-4.036-3.347-4.086-8.057a10.144 10.144 0 0 1 1.472-5.3zM106.423 47.778h12.101a23.412 23.412 0 0 0 3.34 11.697l-12.934-.834a12.79 12.79 0 0 1-2.891-7.615 11.77 11.77 0 0 1 .384-3.248z"/>
            </g>
            <g transform="translate(151.413 44.933)">
                <path fill="#FFF" d="M26.273 32.085H.826c-.114-2.467.013-4.94.38-7.383.601-4.006 1.522-5.659 1.107-8.861-.281-2.155-.864-2.624-1.476-4.798C.183 8.723-.304 5.205.837.339h24.728a21.011 21.011 0 0 0-.738 7.014c.187 2.803.822 3.48 1.107 6.275.38 3.77-.51 5.069-.738 8.861a28.63 28.63 0 0 0 1.077 9.596z"/>
                <path fill="#EBDEDE" d="M3.778 11.226h16.964v1H3.778zM3.778 13.998h16.964v1H3.778zM3.778 16.949h16.964v1H3.778zM3.778 19.904h16.964v1H3.778zM3.778 22.855h16.964v1H3.778zM22.955 12.566l-.89-1.809a.185.185 0 0 1 .331-.163l.575 1.142.94-1.885a.185.185 0 1 1 .33.164l-1.286 2.551zM22.955 15.517l-.89-1.809a.185.185 0 0 1 .331-.163l.575 1.142.94-1.885a.185.185 0 1 1 .33.164l-1.286 2.551zM22.955 18.099l-.89-1.805a.185.185 0 0 1 .331-.164l.575 1.143.94-1.885a.185.185 0 1 1 .33.163L22.955 18.1z"/>
                <ellipse cx="13.365" cy="3.29" fill="#EBDEDE" rx="1.107" ry="1.108"/>
            </g>
            <g fill="#FFF" transform="translate(107.663 68.161)">
                <path d="M23.907 15.106L21.51.856a.673.673 0 0 0-.761-.551l-8.59 1.447-1.267.213L.837 3.659a.678.678 0 0 0-.552.762l2.397 14.25a.677.677 0 0 0 .666.563.574.574 0 0 0 .114 0l19.912-3.359a.674.674 0 0 0 .533-.77zm-.62.38l-19.913 3.36a.263.263 0 0 1-.3-.214L.677 4.382a.259.259 0 0 1 .213-.296l9.956-1.68 1.267-.213L20.798.727h.046c.127 0 .234.092.255.217l2.397 14.25a.259.259 0 0 1-.21.281v.012z"/>
                <path d="M10.962.474L12.21.55l-.204 3.338-1.25-.077zM19.208 11.127a.11.11 0 0 0 0-.035 1.456 1.456 0 0 0-.042-.21 3.699 3.699 0 0 0-.49-1.004l-.122-.172a12.916 12.916 0 0 0-1.841-1.991c0-1.295-.088-4.094-.727-4.356a.403.403 0 0 0-.464.125c-.81.811-1.96 3.427-2.115 3.808l-.343.343-2.324.38C8.14 5.168 7.354 5.08 6.958 5.328a.575.575 0 0 0-.25.34c-.381 1.18.554 3.628.79 4.188a5.56 5.56 0 0 0-1.14 2.037c0 .069-.039.137-.05.202-.1.393-.1.806 0 1.2.018.07.04.138.068.205.179.44.475.822.856 1.104.072.057.148.11.225.16 1.069.708 2.663 1.028 4.23 1.028.8.004 1.599-.086 2.378-.27 1.902-.472 3.88-1.668 4.736-2.955.051-.074.098-.15.14-.228.215-.366.309-.79.267-1.211zM18.2 12.65c-.898 1.07-2.663 2.079-4.257 2.475-1.963.487-4.417.3-5.927-.495l-.255-.152a2.5 2.5 0 0 1-.947-.968 1.452 1.452 0 0 1-.092-.21 1.078 1.078 0 0 1-.038-.117 2.073 2.073 0 0 1 0-.998c0-.065.034-.133.053-.205a5.332 5.332 0 0 1 1.142-1.946.206.206 0 0 0 .034-.217c-.339-.792-1.141-3.047-.83-4.029a.171.171 0 0 1 .077-.118.163.163 0 0 1 .095-.023c.259 0 1.042.305 3.234 2.719.046.053.116.08.186.068l2.507-.418a.205.205 0 0 0 .11-.058l.419-.418a.251.251 0 0 0 .046-.065c0-.03 1.244-2.898 2.042-3.694l.023-.026c.248.24.453 2.063.453 4.055 0 .056.022.109.06.148.679.592 1.296 1.25 1.842 1.965l.122.172c.2.28.35.593.445.925 0 .05 0 .099.027.145.026.045 0 .045 0 .068.002.428-.145.842-.415 1.173-.03.088-.095.16-.156.244z"/>
                <ellipse cx="10.346" cy="10.364" rx="1" ry="1" transform="rotate(-85.16 10.346 10.364)"/>
                <ellipse cx="14.681" cy="8.751" rx="1" ry="1" transform="rotate(-85.426 14.681 8.75)"/>
                <path d="M15.244 12.094a.103.103 0 0 1-.057-.19l4.801-3.146a.104.104 0 1 1 .114.175l-4.8 3.134a.106.106 0 0 1-.058.027zM15.803 12.387a.103.103 0 0 1-.038-.202l5.353-2.048a.104.104 0 1 1 .076.194l-5.353 2.048-.038.008zM15.636 12.973a.105.105 0 0 1 0-.209l5.668-.716a.104.104 0 1 1 .027.206l-5.684.716-.011.003zM10.652 13.023h-.023l-5.603-1.188a.103.103 0 0 1-.08-.126.107.107 0 0 1 .125-.08l5.581 1.185a.105.105 0 0 1 0 .209zM4.5 13.522a.105.105 0 0 1 0-.21l5.73-.022a.105.105 0 0 1 0 .209l-5.73.023zM5.037 15.372a.104.104 0 0 1-.027-.205l5.558-1.386a.104.104 0 1 1 .05.202L5.06 15.369h-.027l.004.003z"/>
            </g>
            <g fill="#FFF" transform="translate(86.74 94.055)">
                <path d="M22.37 2.795a.658.658 0 0 0-.46-.228l-8.903-.595-1.252-.068-9.994-.666a.684.684 0 0 0-.49.167.659.659 0 0 0-.229.465L.084 16.286a.67.67 0 0 0 .627.72l20.163 1.344h.05a.674.674 0 0 0 .673-.632l.959-14.417a.663.663 0 0 0-.186-.506zm-1.206 14.881a.286.286 0 0 1-.088.18.25.25 0 0 1-.19.06L.723 16.576a.263.263 0 0 1-.24-.274l.959-14.42a.251.251 0 0 1 .087-.18.262.262 0 0 1 .187-.06l10.024.666 1.252.083 8.872.59a.263.263 0 0 1 .243.274l-.943 14.421z"/>
                <path d="M11.755.088h1.252v3.343h-1.252zM7.373 4.158c-1.784 0-3.234 1.904-3.234 4.284s1.45 4.28 3.234 4.28 3.234-1.904 3.234-4.28c0-2.376-1.45-4.284-3.234-4.284zm0 8.355c-1.67 0-3.044-1.828-3.044-4.07a5.215 5.215 0 0 1 .259-1.646c.042-.126.088-.247.133-.38C5.242 5.19 6.243 4.36 7.35 4.36c.957.048 1.82.589 2.283 1.428.078.122.148.25.209.38.347.712.524 1.494.517 2.286.038 2.23-1.316 4.059-2.986 4.059zM18.873 9.036a2.664 2.664 0 0 0-4.23-1.089 4.357 4.357 0 0 0-1.522 2.407 4.707 4.707 0 0 0-.11 1.786c.186 1.328.978 2.41 2.134 2.707.204.052.414.077.624.076a2.909 2.909 0 0 0 1.769-.636c.286-.21.542-.459.76-.739a4.628 4.628 0 0 0 .8-1.664 4.364 4.364 0 0 0-.225-2.848zm0 2.795a4.377 4.377 0 0 1-.688 1.481c-.212.307-.469.58-.761.811-.62.508-1.438.7-2.218.522-1.141-.293-1.876-1.39-1.997-2.726a4.425 4.425 0 0 1 .125-1.523 4.151 4.151 0 0 1 1.461-2.285 2.726 2.726 0 0 1 1.647-.594c.194 0 .387.024.575.072.768.22 1.393.782 1.693 1.523a4.15 4.15 0 0 1 .152 2.72h.011z"/>
                <path d="M4.584 6.816l-.137-.156c.061-.053 1.461-1.26 2.348-.819.79.381 1.582.404 1.966.02.48-.48 1.237.129 1.271.155L9.9 6.18s-.647-.518-.99-.171c-.448.45-1.335.457-2.206.019-.764-.38-2.107.777-2.119.788zM7.015 7.86a1.036 1.036 0 0 0-.068-.21 1.141 1.141 0 0 0-1.035-.762 1.373 1.373 0 0 0-1.284 2.24 1.373 1.373 0 0 0 2.425-.88 1.498 1.498 0 0 0-.038-.389zM5.912 9.382a1.171 1.171 0 0 1-1.137-1.895 1.171 1.171 0 0 1 2.077.752 1.058 1.058 0 0 1-.94 1.139v.004zM8.834 6.873c-.469.017-.88.32-1.035.762a1.498 1.498 0 0 0-.114.59 1.164 1.164 0 1 0 1.149-1.352zm0 2.506a1.171 1.171 0 0 1-1.137-1.895 1.171 1.171 0 0 1 2.076.752 1.058 1.058 0 0 1-.94 1.143z"/>
                <path d="M6.878 7.65h1v1h-1zM7.373 11.679c-.59 0-1.12-.354-1.347-.899a.105.105 0 0 1 .194-.08 1.252 1.252 0 0 0 2.313 0 .105.105 0 1 1 .194.08 1.457 1.457 0 0 1-1.354.899zM15.72 13.77c-.59 0-1.121-.355-1.347-.9a.105.105 0 0 1 .194-.08 1.252 1.252 0 0 0 2.313 0 .105.105 0 1 1 .194.08 1.457 1.457 0 0 1-1.354.9z"/>
                <circle cx="5.709" cy="8.237" r="1" transform="rotate(-84.39 5.709 8.237)"/>
                <circle cx="14.889" cy="11.164" r="1" transform="rotate(-84.39 14.89 11.164)"/>
                <circle cx="8.63" cy="8.239" r="1" transform="rotate(-84.39 8.63 8.24)"/>
                <circle cx="16.559" cy="11.16" r="1" transform="rotate(-84.39 16.559 11.16)"/>
                <path d="M20.163 10.94c-.791-.267-.259-1.85-.917-2.513a6.18 6.18 0 0 0-1.864-1.047c-.259-.937-3.165-.58-3.937-.19-.834.418-.834 2.086-1.67 2.086-.838 0-.834 1.672 0 3.343a.38.38 0 0 0 .197.217c.53.214 1.461-1.298 2.724-2.722a18.08 18.08 0 0 1 1.461-1.47c.403.602.752 1.24 1.042 1.904.81 1.847 1.085 3.732 1.648 3.72a.38.38 0 0 0 .255-.145c1.305-1.332 1.822-2.916 1.061-3.183z"/>
            </g>
            <g fill="#FFF" opacity=".5">
                <path d="M191.648 97.143a.198.198 0 0 0-.21-.187h-8.449l-.05-8.14h8.519a.19.19 0 0 0 0-.382h-8.522l-.042-3.518a.21.21 0 0 0-.415 0l.023 3.514h-10.017l-.023-3.514a.21.21 0 1 0-.418 0l.023 3.514h-9.599l-.022-3.514a.21.21 0 0 0-.415 0l.019 3.514h-9.598v-3.518a.202.202 0 0 0-.21-.183.198.198 0 0 0-.205.187l.023 3.514h-8.914a.19.19 0 0 0 0 .381h8.891l.053 8.142h-8.944a.19.19 0 0 0 0 .38h8.944l.053 8.145h-8.997a.194.194 0 0 0-.205.183c.006.108.097.191.205.187h9.001l.076 12.345c.008.108.102.19.21.183a.202.202 0 0 0 .209-.187l-.088-12.33h9.599l.08 12.345a.21.21 0 0 0 .414 0l-.068-12.345h9.598l.08 12.345a.194.194 0 0 0 .205.183c.108.004.2-.079.206-.186l-.072-12.342h10.013l.08 12.345c.008.108.1.19.209.183a.202.202 0 0 0 .21-.186l-.08-12.342h8.41a.198.198 0 0 0 .21-.186.194.194 0 0 0-.21-.183h-8.41l-.039-8.164h8.465a.198.198 0 0 0 .194-.183zm-29.583-8.328l.053 8.141h-9.61l-.053-8.14h9.61zm-9.51 16.663l-.054-8.145h9.598l.061 8.145h-9.606zm9.89-16.655h9.626l.05 8.141h-9.6l-.075-8.141zm.13 16.655l-.05-8.145h9.599l.05 8.145h-9.599zm9.891-16.655h10.017l.053 8.141h-9.997l-.073-8.141zm.126 16.655l-.05-8.145h10.013l.054 8.145h-10.017z"/>
                <path d="M191.857 97.143a.407.407 0 0 0-.418-.38h-8.26l-.05-7.723h8.31a.394.394 0 0 0 0-.788h-8.313l-.023-3.336a.381.381 0 0 0-.121-.278.42.42 0 0 0-.278-.115.45.45 0 0 0-.324.126.381.381 0 0 0-.11.27v3.31h-9.58v-3.313a.407.407 0 0 0-.418-.381.426.426 0 0 0-.304.126.381.381 0 0 0-.114.27l.023 3.31h-9.2l-.022-3.314a.403.403 0 0 0-.419-.38.433.433 0 0 0-.304.125.381.381 0 0 0-.11.27v3.31h-9.161l-.023-3.313a.403.403 0 0 0-.418-.381.418.418 0 0 0-.301.126.381.381 0 0 0-.114.27l.023 3.309h-8.682a.394.394 0 0 0 0 .788h8.686l.049 7.723h-8.75a.394.394 0 0 0 0 .788h8.75l.05 7.726h-8.789a.394.394 0 0 0 0 .788h8.792l.076 12.136c.017.22.203.387.423.38a.42.42 0 0 0 .281-.106.38.38 0 0 0 .133-.29l-.08-12.131h9.184l.076 12.136c.012.22.199.389.419.38a.426.426 0 0 0 .285-.106.38.38 0 0 0 .13-.29l-.077-12.132h9.173l.08 12.136c.012.22.198.39.418.38a.426.426 0 0 0 .285-.106.38.38 0 0 0 .13-.29l-.077-12.131h9.599l.076 12.136c.014.219.2.387.418.38a.426.426 0 0 0 .286-.106.38.38 0 0 0 .13-.29l-.077-12.131h8.202a.394.394 0 0 0 0-.789h-8.194l-.05-7.726h8.256a.403.403 0 0 0 .418-.373zm-9.458 8.118h-9.598l-.05-7.726h9.599l.05 7.726zm-9.682-16.236h9.599l.05 7.722h-9.622l-.027-7.722zm-9.963 8.51h9.18l.023 7.726h-9.173l-.03-7.726zm9.176-.788h-9.199l-.05-7.722h9.18l.069 7.722zm-9.964 8.514h-9.199l-.05-7.726h9.185l.064 7.726zm-9.233-8.514l-.05-7.722h9.184l.046 7.722h-9.199.02z"/>
                <g transform="translate(155.217 90.628)">
                    <ellipse cx="2.119" cy="2.262" rx="2.085" ry="2.087"/>
                    <ellipse cx="22.153" cy="10.616" rx="2.085" ry="2.087"/>
                </g>
            </g>
            <path fill="#FFF" d="M52.88 217.685a.198.198 0 0 1-.19-.202l.788-25.204a.202.202 0 0 1 .201-.19.198.198 0 0 1 .19.202l-.787 25.204a.198.198 0 0 1-.202.19zM53.383 217.811a.198.198 0 0 1-.172-.217l2.892-25.052a.202.202 0 0 1 .217-.172c.106.014.182.11.17.218L53.6 217.64a.198.198 0 0 1-.217.171zM50.997 217.628a.198.198 0 0 1-.194-.175l-2.541-25.09a.198.198 0 1 1 .38-.038l2.542 25.09a.198.198 0 0 1-.175.217h-.02l.008-.004zM50.56 217.857a.198.198 0 0 1-.21-.16l-4.774-24.752a.198.198 0 1 1 .38-.076l4.775 24.752a.198.198 0 0 1-.156.232h-.015v.004z"/>
            <path fill="#EBDEDE" d="M52.02 217.67a.198.198 0 0 1-.197-.187l-1.434-25.185a.198.198 0 0 1 .186-.21.202.202 0 0 1 .21.187l1.437 25.178a.198.198 0 0 1-.186.21l-.015.007z"/>
            <path fill="#EBDEDE" d="M43.826 197.184l4.33 22.272h6.296l3.146-22.847z"/>
            <path fill="#EBDEDE" d="M82.47 152.357v22.806H23.375v-22.806l-8.917-8.925v163.693a267.528 267.528 0 0 0 8.925 24.751v-17.6H82.47v54.708h8.928V143.432l-8.928 8.925zm-59.096 29.085H82.47v38.014H23.374v-38.014zm0 44.278H82.47v38.014H23.374V225.72zm0 82.292v-38.014H82.47v38.014H23.374z"/>
            <path fill="#EBDEDE" d="M86.218 132.651a.418.418 0 0 0-.582.096l-16.621 23.056.94-11.701 13.056-27.219a.422.422 0 0 0-.761-.362l-12.117 25.262 1.644-20.452a.419.419 0 1 0-.834-.069l-1.677 20.879-6.688-17.242a.419.419 0 1 0-.761.304l7.308 18.85-.886 11.042-9.017-17.691a.425.425 0 1 0-.76.38l9.636 18.891-.913 11.37a.419.419 0 0 0 .38.45h.034a.419.419 0 0 0 .415-.38l.86-10.705 17.424-24.172a.42.42 0 0 0-.08-.587z"/>
            <path fill="#FFF" d="M71.788 162.65h-8.347c-.551 1.268-2.062 5.198-.563 9.546a12.002 12.002 0 0 0 1.842 3.405h6.087a13.84 13.84 0 0 0 1.521-3.405c1.23-4.245.069-7.958-.54-9.546z"/>
            <path fill="#EBDEDE" d="M57.18 154.501H30.26a.205.205 0 0 0-.206.21v3.548a.206.206 0 0 0 .206.21h1.046v16.5a.21.21 0 0 0 .205.209h24.626a.21.21 0 0 0 .205-.21v-16.5h.837a.21.21 0 0 0 .21-.209v-3.548a.21.21 0 0 0-.21-.21zm-1.256 20.258H31.72v-16.29h24.203v16.29zm1.042-16.709H30.47v-3.13H56.97v3.13h-.004z"/>
            <g>
                <path fill="#FFF" d="M63.833 218.68l15.868-29.287a1.954 1.954 0 0 1 2.933 1.591l-15.868 29.287a3.423 3.423 0 0 0-2.933-1.592z"/>
                <path fill="#EBDEDE" d="M66.82 218.637l14.125-26.072a.104.104 0 1 1 .183.099l-14.126 26.072a.104.104 0 1 1-.182-.099zM66.085 218.237l14.126-26.072a.104.104 0 1 1 .182.099L66.272 218.34a.106.106 0 1 1-.187-.103zM65.355 217.841L79.48 191.77a.104.104 0 1 1 .183.099L65.538 217.94a.104.104 0 1 1-.183-.099z"/>
            </g>
            <ellipse cx="34.852" cy="214.235" fill="#FFF" rx="6.053" ry="6.058"/>
            <g>
                <path fill="#EBDEDE" d="M46.33 242.638a.21.21 0 0 1-.195-.289c.434-1.062.525-1.797.255-2.072a.65.65 0 0 0-.327-.148.924.924 0 0 1-.517-.278c-.354-.415-.225-1.177.38-2.323a.214.214 0 1 1 .38.198c-.68 1.264-.57 1.706-.44 1.855.082.08.19.13.304.144.193.036.372.126.517.26.41.414.358 1.24-.164 2.524a.21.21 0 0 1-.194.13z"/>
                <path fill="#FFF" d="M41.848 263.734s-2.18-22.558-.091-23.81a1.14 1.14 0 0 1 .87-.23c.522.214.278 1.185.8 1.482.52.297 1.14-.582 2.084-.419.944.164.967 1.082 1.67 1.253 1.32.324 2.542-2.559 3.34-2.506 1.142.077 2.055 6.055 2.325 24.226H41.848v.004z"/>
            </g>
            <g>
                <path fill="#EBDEDE" d="M58.237 248.251a.21.21 0 0 1-.183-.103 3.677 3.677 0 0 1-.456-1.294 3.941 3.941 0 0 1-.03-.819 5.518 5.518 0 0 1 .319-1.6.206.206 0 0 1 .266-.125.21.21 0 0 1 .126.267 5.103 5.103 0 0 0-.297 1.477c-.017.245-.008.492.027.735.063.403.201.79.407 1.142a.21.21 0 0 1-.179.32z"/>
                <path fill="#BDD3DE" d="M54.923 263.734c-.19-4.345-.654-15.727-.247-16.709.103-.251.415-1.001.822-1.001.38.156.205.872.59 1.092.384.221.715-.274 1.521-.308.807-.034 1.142.446 1.644.217.502-.228.41-.762.833-.834.422-.072.677.446 1.252.419.483-.023.688-.427.833-.419.437.023.818 3.808.833 17.543h-8.08z" opacity=".42"/>
            </g>
            <path fill="#EBDEDE" d="M76.467 287.335h-44.4a.304.304 0 0 0-.346.206v3.553a.308.308 0 0 0 .346.21h1.72v16.499a.3.3 0 0 0 .342.21h40.6a.3.3 0 0 0 .342-.21v-16.5h1.396c.152.026.3-.063.347-.21v-3.552a.304.304 0 0 0-.347-.206zm-38.956 20.258h-3.036v-16.29h3.017v16.29h.019zm3.424 0H37.91v-16.29h2.994v16.29h.03zm3.336 0H41.35v-16.29h2.922v16.29zm3.268 0h-2.85v-16.29h2.85v16.29zm3.424 0h-3.028v-16.29h2.994v16.29h.034zm3.34 0h-2.921v-16.29h2.921v16.29zm3.264 0h-2.845v-16.29h2.845v16.29zm3.424 0h-3.05v-16.29h2.993v16.29h.057zm3.34 0H61.41v-16.29h2.883v16.29h.039zm3.265 0h-2.922v-16.29h2.85v16.29h.072zm3.424 0h-2.994v-16.29h2.994v16.29zm3.423 0H71.37v-16.29h3.016v16.29h.057zm1.72-16.709H32.409v-3.134h43.697v3.134h.057z"/>
            <g fill="#FFF" opacity=".54" transform="translate(19.022 176.686)">
                <ellipse cx="2.039" cy="1.188" rx="1.023" ry="1.024"/>
                <ellipse cx="66.355" cy="1.188" rx="1.023" ry="1.024"/>
                <ellipse cx="1.225" cy="46.323" rx="1.042" ry="1.043"/>
                <ellipse cx="66.763" cy="45.474" rx="1.023" ry="1.024"/>
                <ellipse cx="2.058" cy="91.016" rx="1.042" ry="1.043"/>
                <ellipse cx="67.58" cy="91.016" rx="1.042" ry="1.043"/>
                <ellipse cx="2.058" cy="135.713" rx="1.042" ry="1.043"/>
                <ellipse cx="67.58" cy="135.713" rx="1.042" ry="1.043"/>
            </g>
            <path fill="#BDD3DE" d="M397.25 300.442c5.17 14.2 2.477 34.138-8.206 40.147-3.652 2.052-8.834 2.536-13.068 2.932-4.07.38-12.417 1.142-18.843-1.466-13.825-5.636-21.795-28.205-14.894-42.489 4.794-9.92 13.551-9.203 19.452-19.633 6.003-10.609 3.58-23.084.608-31.94l12.464-5.568c-.316 19.04 4.565 31.389 9.602 39.473 5.645 9.043 9.712 9.84 12.885 18.544z" opacity=".42"/>
            <g fill="#BDD3DE" opacity=".42">
                <path d="M358.411 217.849c.46.523 1.065.897 1.739 1.074 3.112.727 8.773-11.043.955-8.98-2.146.564-3.633 1.345-4.31 2.514-2.511-8.252-5.452-17.349-8.884-27.34 2.572-.842 3.95-2.095 4.737-3.252 4.185-6.188-16.694-28.403-18.778-9.608-.685 6.158.09 10.533 3.195 12.795 3.105 2.262 7.499 1.203 9.667.48a805.934 805.934 0 0 1 6.985 21.21 4.05 4.05 0 0 0-1.176-1.181c-3.424-2.209-15.282 9.546-4.98 10.418 3.375.286 5.753-.201 6.947-1.934.492-.76.73-1.658.681-2.563 15.727 51.304 15.18 70.492 15.172 70.713a134.085 134.085 0 0 1-8.267 40.744.628.628 0 0 0 1.176.434 135.362 135.362 0 0 0 8.346-41.125c.004-.21.533-17.848-13.205-64.399z" opacity=".54"/>
                <path d="M368.105 197.53c2.366 3.34 17.743-3.118 8.518-7.795-3.025-1.523-5.41-1.972-7.164-.81-.261.173-.5.38-.707.616.413-3.85.936-7.72 1.567-11.606.89.172 1.794.266 2.701.282 2.283.205 3.755-.324 4.721-.968 4.976-3.324-3.834-26.114-11.032-12.794-2.363 4.364-3.105 7.844-1.48 10.46.901 1.45 2.408 2.262 3.884 2.715a217.179 217.179 0 0 0-2.16 17.813 3.87 3.87 0 0 0-.446-.993c-2.203-3.45-17.88 2.261-8.883 7.372 2.944 1.675 5.326 2.231 7.118 1.142a4.57 4.57 0 0 0 1.902-2.563 193.44 193.44 0 0 0 .64 29.751c.76 7.548 1.879 14.173 2.959 20.582 2.214 13.107 4.31 25.49 2.465 42.359a132.211 132.211 0 0 1-8.309 33.673.628.628 0 0 0 1.168.457 133.503 133.503 0 0 0 8.37-33.993c1.864-17.044-.244-29.507-2.477-42.706-1.08-6.39-2.195-12.996-2.948-20.501a193.238 193.238 0 0 1-.445-32.592l.038.1z" opacity=".54"/>
            </g>
            <g>
                <path fill="#EBDEDE" d="M354.025 102.154a7.024 7.024 0 0 1-5.81-2.616c-1.179-1.5-.905-2.616-1.472-4.863-1.742-6.907-7.513-9.059-6.326-12.588.099-.29.38-1.143 1.141-1.478 2.812-1.253 8.54 6.447 9.405 7.616-.548-1.5-5.844-16.405-.925-20.098a2.909 2.909 0 0 1 2.016-.682c4.204.476 5.593 13.533 5.768 15.258.293-5.433 2.183-9.603 4.972-10.334a2.953 2.953 0 0 1 2.123.145c2.23 1.21 2.134 6.286.875 9.995-.963 2.83-2.56 4.737-2.306 4.95.43.328 4.136-5.822 7.328-5.163 1.57.324 3.043 2.285 3.074 4.234.068 3.922-5.87 4.002-14.023 11.93-1.823 1.752-3.34 3.511-5.84 3.694z"/>
                <path fill="#BDD3DE" d="M363.015 98.7H344.65v3.55h1.042l1.461 16.08h13.772l1.096-16.08h.993V98.7z" opacity=".42"/>
                <path fill="#BDD3DE" d="M363.433 105.882a39.91 39.91 0 0 1-19.197 0v-1.752a39.91 39.91 0 0 0 19.197 0v1.752z" opacity=".42"/>
            </g>
            <g>
                <path fill="#BDD3DE" d="M308.936 118.928l3.63.339 4.77-51.197a2.111 2.111 0 0 0-1.902-1.272 2.202 2.202 0 0 0-1.731.933l-4.767 51.197z" opacity=".42"/>
                <path fill="#FFF" d="M312.68 118.635l3.629.339 4.778-51.194a2.111 2.111 0 0 0-1.902-1.272 2.202 2.202 0 0 0-1.731.933l-4.775 51.194z" opacity=".5"/>
                <path fill="#EBDEDE" d="M301.795 118.65l7.498.697 3.915-42.005a5.543 5.543 0 0 0-7.48-.697l-3.933 42.005z"/>
                <path fill="#BDD3DE" d="M324.777 118.105l8.404.785 2.857-30.654a8.482 8.482 0 0 0-4.337-1.477 8.256 8.256 0 0 0-4.067.693l-2.857 30.653z" opacity=".42"/>
                <path fill="#EBDEDE" d="M316.358 118.764l9.8.914 3.915-41.997a8.799 8.799 0 0 0-5.037-1.938 8.61 8.61 0 0 0-4.763 1.024l-3.915 41.997z"/>
            </g>
            <path fill="#FFF" d="M279.551 117.915h87.637v5.849h-87.637z" opacity=".5"/>
        </g>
        <g fill-rule="nonzero">
            <g fill="#002544">
                <path d="M190.583 366.648l-1.04-.346c9.917-29.823 28.737-86.757 28.962-88.773l1.092.069c-.114 2.1-26.058 80.158-29.014 89.05zM227.146 375.267l-1.092-.027c.807-31.169 2.237-90.617 1.88-92.534l1.065-.24c.483 1.906-1.613 83.505-1.853 92.801zM267.024 363.526c-11.267-29.553-32.861-85.894-33.957-87.598l.875-.654c1.142 1.487 30.734 79.024 34.105 87.86l-1.023.392z"/>
            </g>
            <path fill="#E6E3F4" d="M270.745 224.494c-2.081-11.102-6.88-36.7-26.046-45.695-.662-.31-1.34-.598-2.032-.867a37.305 37.305 0 0 0-13.85-2.412c-.731 0-1.464.032-2.2.096l-.807.068c-.787.076-1.575.179-2.359.308-6.967 1.141-13.839 4.374-19.075 10.55-4.398 5.193-7.111 11.83-7.99 18.988a43.846 43.846 0 0 0-.08 10.098 46.141 46.141 0 0 0 1.362 7.227 47.238 47.238 0 0 0 7.085 14.936 74.062 74.062 0 0 0-9.749 12.624l-.308.505-.243.407-.172.29-.179.307c-.163.286-.323.563-.483.849-.16.285-.297.536-.441.798-.282.514-.548 1.031-.81 1.545v.022l-.305.57a56.573 56.573 0 0 0-1.195 2.553 56.793 56.793 0 0 0-2.439 6.561 49.705 49.705 0 0 0-.784 2.913 42.091 42.091 0 0 0-1.065 6.904c-.35 5.23.445 10.037 2.488 14.027.103.205.213.403.324.605.179.33.38.654.574.97a22.385 22.385 0 0 0 7.39 7.135c3.824 2.339 8.443 3.838 13.443 4.564l1.104.14a55.13 55.13 0 0 0 15.875-.543c.38-.065.73-.133 1.096-.206a59.304 59.304 0 0 0 7.111-1.844c.652-.22 1.3-.458 1.945-.711a53.007 53.007 0 0 0 3.645-1.488c.335-.148.666-.3.997-.46a46.425 46.425 0 0 0 10.308-6.61c4.566-3.94 7.23-8.033 9.132-10.954 14.692-22.988 9.658-49.833 8.733-54.77z"/>
            <path fill="#002544" d="M249.958 273.205a.38.38 0 0 1-.107 0c-4.638-1.434-14.03-1.814-14.128-1.814a.38.38 0 0 1-.35-.38.357.357 0 0 1 .38-.35c.38 0 9.585.38 14.315 1.836a.38.38 0 0 1-.11.708z" opacity=".71"/>
        </g>
        <g fill-rule="nonzero">
            <path fill="url(#a)" d="M28.603 4.089l-1.355 11.319-1.373 11.55a1.18 1.18 0 0 1-1.02 1.032C20.342 28.58.597 31.032.122 29.329c-.503-1.944 12.69-4.606 15.281-6.554 1.218-.913 2.097-5.397 2.664-9.889.654-5.013.943-10.026.943-10.026l9.593 1.229z" transform="translate(297.084 348.6)"/>
            <path fill="url(#b)" d="M77.244 22.402c-3.448 2.994-18.588 16.002-19.924 14.834-1.522-1.339 8.044-10.89 9.132-13.947.332-.928-.281-3.02-1.293-5.477C62.845 12.19 58.443 4.64 58.443 4.64L67.126.346l7.652 15.191 2.747 5.454c.236.48.12 1.059-.281 1.411z" transform="translate(297.084 348.6)"/>
            <path fill="#F58CBA" d="M325.459 369.687l-1.656-1.285.08-.654.67-.552a.143.143 0 1 0-.183-.22l-.437.38.38-3.328c-3.044-.978-6.347-1.837-9.162-2.507-.1.76-.206 1.503-.32 2.237l-.57-1.08a.142.142 0 0 0-.252.133l.761 1.415c-.057.346-.114.684-.175 1.019l-.76.209a.142.142 0 1 0 .037.281h.038l.64-.174c-.533 2.864-1.214 5.206-2.055 5.838-.13.095-.264.183-.404.262l-.38-.59a.142.142 0 0 0-.24.153l.38.574c-3.637 1.902-15.098 4.344-14.615 6.158.38 1.403 13.622 0 20.928-.863 1.637-.198 2.972-.38 3.805-.476a1.18 1.18 0 0 0 1.02-1.03l.666-5.569.152-1.263 1.522 1.18a.14.14 0 1 0 .13-.248zM374.602 369.577l-1.796-3.594-.45-.894.381-.483a.144.144 0 1 0-.224-.179l-.297.38-.346-.684-9.62 2.282c1.012 2.457 1.625 4.564 1.294 5.477-.068.183-.148.36-.24.532l-1.312-1.75a.145.145 0 0 0-.229.172l1.393 1.856-.22.38-.956.43a.145.145 0 0 0 .08.27h.038l.548-.247c-2.64 3.944-9.54 11.178-8.238 12.33 1.065.944 10.905-7.134 16.598-11.961 1.446-1.229 2.625-2.248 3.326-2.853.424-.363.537-.973.27-1.464z"/>
            <path fill="#640042" d="M324.26 373.217a.145.145 0 0 0-.194-.05l-.894.533.445-3.708a5.836 5.836 0 0 0-5.605 5.83c0 .419.045.836.137 1.244 1.636-.198 2.972-.38 3.805-.475a1.18 1.18 0 0 0 1.02-1.031l.179-1.522 1.08-.642a.14.14 0 0 0 .027-.18zM374.328 371.003c-.7.605-1.88 1.624-3.326 2.853a4.426 4.426 0 0 1 1.804-7.873l1.807 3.594a1.183 1.183 0 0 1-.285 1.426z"/>
            <g fill="#002544">
                <path d="M308.31 378.241v-6.545c-13.92 1.422-12.527 7.686-12.527 7.686h30.756v-1.14h-18.23zM378.102 374.986l-.567-.993-15.897 9.048-3.254-5.705c-11.415 8.15-7.104 12.932-7.104 12.932l9.186-5.226 17.636-10.056z"/>
            </g>
            <g>
                <path fill="#271C41" d="M333.103 240.761s-30.996 62.331-29.9 117.01l29.904 5.104s.38-39.73 11.67-68.892c11.29-29.161-11.674-53.222-11.674-53.222z"/>
                <path fill="#FF667D" d="M318.697 354.492a.179.179 0 0 1-.179-.167c-.947-24.673 2.337-45.356 9.756-61.471l.518-1.111a130.65 130.65 0 0 0 10.91-33.699 124.667 124.667 0 0 0 1.788-17.115.183.183 0 0 1 .186-.168.179.179 0 0 1 .175.179 124.998 124.998 0 0 1-1.796 17.157 130.982 130.982 0 0 1-10.943 33.783c-.19.41-.38.78-.518 1.11-7.397 16.066-10.654 36.696-9.726 61.316a.179.179 0 0 1-.175.183l.004.003z"/>
                <path fill="#39215A" d="M382.699 354.127l-14.46 7.406-13.976 7.162a223.027 223.027 0 0 1-21.928-121.255c.233-2.322.487-4.554.76-6.694l34.627-11.665a64.31 64.31 0 0 1 3.284 20.778c-.206 18.352-8.505 20.866-10.575 36.818-2.53 19.47 6.945 37.966 18.204 59.95a224.81 224.81 0 0 0 4.064 7.5z"/>
                <path fill="#FF667D" d="M365.743 355.95a.184.184 0 0 1-.16-.092c-15.98-27.735-21.75-50.586-17.157-67.938.122-.456.27-.985.438-1.59 1.613-5.765 4.97-17.762 3.57-33.34a84.447 84.447 0 0 0-3.517-17.61.183.183 0 1 1 .35-.11 84.846 84.846 0 0 1 3.531 17.685c1.408 15.644-1.963 27.686-3.58 33.47-.168.602-.316 1.142-.438 1.583-4.566 17.252 1.191 40.016 17.123 67.664a.182.182 0 0 1-.16.277z"/>
                <path fill="url(#c)" d="M74.786 127.888a3850.984 3850.984 0 0 0-16.716 8.447 1996.989 1996.989 0 0 0-6.99 3.583A223.027 223.027 0 0 1 29.15 18.664a163.384 163.384 0 0 0 45.635 109.224z" opacity=".12" transform="translate(303.172 228.792)"/>
            </g>
        </g>
        <g fill-rule="nonzero">
            <path fill="#F07125" d="M329.808 209.512v2.396a.091.091 0 0 1-.095.091h-.624a257.096 257.096 0 0 0-1.541 19.645h-9.003l-1.872-19.656h-.617a.095.095 0 0 1-.091-.095v-2.389a.092.092 0 0 1 .095-.095h13.672c.049.008.083.054.076.103z"/>
            <path fill="#271C41" d="M329.808 209.512v2.396a.091.091 0 0 1-.095.091h-.624a257.096 257.096 0 0 0-1.541 19.645h-3.181a91.563 91.563 0 0 0 .76-22.223l4.68.091z" opacity=".42"/>
        </g>
        <g fill-rule="nonzero">
            <path fill="url(#d)" d="M13.348 6.542c4.608-.133 6.199-.506 7.314.666 1.225 1.285.966 3.522.597 5.115l5.164-2.225a16.194 16.194 0 0 0-3.615-5.541 10.814 10.814 0 0 0-2.805-1.993c-.262-.13-.51-.232-.806-.35a26.934 26.934 0 0 0-4.852-1.32c-1.811-.3-5.875-.978-6.038-.38-.122.44 1.963 1.342 2.05 1.38a8.344 8.344 0 0 0 3.326.666 7.382 7.382 0 0 1-1.994 1.327c-1.309.59-2.45.632-3.656.666-1.228.03-2.455-.08-3.657-.331C1.99 3.735.57 2.922.388 3.225c-.144.236.578.913.666.997 2.462 2.32 7.968 2.45 12.294 2.32z" transform="translate(302.792 180.107)"/>
            <path fill="url(#e)" d="M30.312 36.962h-4.49l-.145 1.632a33.544 33.544 0 0 1-7.017 1.179c-1.141.06-3.402.114-3.656.996a.471.471 0 0 0 0 .331c.289.643 2.427.13 5.985-.33 1.27-.164 2.314-.27 2.99-.332-1.189.432-2.412.765-3.656.997-2.576.48-4.714.415-4.985 1.327a.456.456 0 0 0 0 .331c.267.552 2.032.141 4.654-.33 1.404-.255 4.612-.834 4.654-.666.042.167-1.735.943-3.988 1.327-2.196.38-4.068.21-4.323.997a.471.471 0 0 0 0 .33c.08.183.453.624 3.988 0 2.736-.482 4.612-1.114 4.654-.996.042.118-.601.38-1.328.666-3.044 1.202-5.03.973-5.327 1.993a.43.43 0 0 0 0 .33c.494.875 5.901-1.353 6.647-1.662a43.101 43.101 0 0 0 9.307-5.324l-3.964-2.796z" transform="translate(302.792 180.107)"/>
            <path fill="#640042" d="M345.139 204.674l-2.919 10.57a986.706 986.706 0 0 1-10.94-12.392 950.35 950.35 0 0 1-10.574-12.392 578.14 578.14 0 0 0 3.779-5.351l.597-.844a113.787 113.787 0 0 1 10.21 9.128c.8.806 1.574 1.608 2.32 2.404 2.657 2.83 5.17 5.793 7.527 8.877z"/>
            <path fill="url(#f)" d="M15.346 10.193c-.282 2.665-.89 4.123-1.823 4.374-1.895.507-5.133-3.949-9.714-13.369l.597-.844a111.777 111.777 0 0 1 4.985 4.184 121.073 121.073 0 0 1 5.224 4.944l.731.711z" opacity=".12" transform="translate(320.676 183.91)"/>
            <path fill="#640042" d="M367.749 229.096l-23.28 7.839-11.362 3.826c7.82-28.145 7.922-37.799 5.833-40.461a14.733 14.733 0 0 1-2.188-3.644c-1.248-2.985-1.183-5.663-1.096-8.367.229-6.88.343-10.32.38-10.57.32-3.598.176-8.539-1.73-14.78a54.757 54.757 0 0 0-1.184-3.446c.609.22 5.864 1.996 10.21-1.096a10.122 10.122 0 0 0 3.283-4.009 243.535 243.535 0 0 1 21.134 74.708z"/>
            <path fill="url(#g)" d="M45.28 40.225c0 6.98-.905 9.129-2.023 22.654-.64 7.755-1.203 15.039-1.568 19.812l-11.362 3.826c7.82-28.145 7.922-37.798 5.833-40.46a14.733 14.733 0 0 1-2.188-3.645c-1.248-2.985-1.183-5.663-1.096-8.367.228-6.88.343-10.319.38-10.57.32-3.598.176-8.539-1.73-14.78a21.918 21.918 0 0 1 7.202 4.944c6.416 6.72 6.553 16.154 6.553 26.586z" opacity=".23" transform="translate(302.792 154.244)"/>
            <path fill="url(#h)" d="M69.698 47.163c-2.096 5.226-6.38 7.987-14.95 13.487a97.072 97.072 0 0 1-22.245 10.57l-1.716-4.564-.437-1.172-.495-1.32-.632-1.677a101.532 101.532 0 0 0 13.855-6.576c.822-.468 1.605-.913 2.344-1.339 6.773-3.887 10.213-6.154 10.783-9.596.598-3.606-2.393-4.701-7.66-15.309-4.691-9.452-3.892-11.745-3.283-12.757.928-1.552 2.804-2.445 4.787-2.81a11.8 11.8 0 0 1 3.6-.107c2.164.289 4.322 1.305 6.342 2.849 7.926 6.051 13.748 20.242 9.707 30.32z" transform="translate(302.792 154.244)"/>
        </g>
        <g transform="translate(318.773 128)">
            <path fill="url(#i)" fill-rule="nonzero" d="M8.26 6.165S-2.423 16.2 1.462 19.432c1.206 1.004 2.219 1.791 2.435 3.503.32 2.522-2.747 3.35-3.424 6.717-.518 2.586.616 5.47 2.553 7.291.304.29 2.93 2.662 6.564 2.187a7.783 7.783 0 0 0 4.01-1.822 6.804 6.804 0 0 0 2.188-3.282c.34-1.191.34-2.453 0-3.644L8.261 6.165z"/>
            <path fill="url(#j)" fill-rule="nonzero" d="M26.19 16.355c-3.142-6.215-11.544-9.79-16.54-6.846-3.737 2.194-4.334 7.306-4.372 7.72-.23 2.648.46 5.294 1.952 7.494.072.661.156 1.608.175 2.75.03 1.772-.114 2.593.38 2.917.202.137.678.293 1.823-.38a7.8 7.8 0 0 0 1.096 2.186 8.447 8.447 0 0 0 4.01 2.918c3.425 1.06 6.59-.97 7.23-1.389 4.749-3.046 7.435-11.08 4.247-17.37z"/>
            <ellipse cx="8.981" cy="24.143" fill="#000" fill-rule="nonzero" rx="1" ry="1" transform="rotate(-23.6 8.98 24.143)"/>
            <path fill="url(#k)" fill-rule="nonzero" d="M5.251 14.88c1.762 4.385 7.938 2.213 11.651 6.986 4.243 5.454.354 14.571 5.08 17.496.548.339 1.32.609 1.74 1.464.985 1.997-1.264 3.933-.872 7.314a7.404 7.404 0 0 0 2.176 4.39 6.193 6.193 0 0 0 5.22 1.464c3.045-.601 2.942-3.096 5.655-3.902 3.326-.99 4.745 2.419 9.132 1.95.723-.075 3.768-.399 5.655-2.924 3.348-4.477.327-12.171-.042-13.1a17.265 17.265 0 0 0-1.263-2.506c-4.35-4.389 3.044-3.423 1.305-9.265-1.739-5.842-8.269-1.951-10.441-12.68-1.047-5.158-3.258-7.094-4.833-8.536C33.154.962 30.616.64 28.067.37 25.97.114 14.893-1.221 8.862 4.827c-2.062 2.02-5.057 6.485-3.61 10.052z"/>
            <path stroke="#000" stroke-linecap="round" stroke-width="1.2" d="M13.318 32.733a3.962 3.962 0 0 0 1.423-3.986"/>
            <path fill="#000" fill-rule="nonzero" d="M7.009 20.77l3.326.997s-1.001-1.989-3.326-.996z"/>
        </g>
        <path fill="#E6E3F4" fill-rule="nonzero" d="M182.474 246.809a7.232 7.232 0 0 1 2.074-.468l-7.911 8.147c-.19.106-.468.255-.818.422-.407.198-.552.27-.613.213-.06-.057 0-.205.198-.62.164-.346.3-.627.38-.829l1.473-1.521c.269-.127.524-.282.761-.46.232-.172.411-.32.438-.343.297-.247.818-.76 1.88-2.358l2.138-2.183z"/>
        <g>
            <g fill-rule="nonzero">
                <path fill="#271C41" d="M125.755 375.765a153.05 153.05 0 0 0-2.584 7.463c-1.723 5.423-1.579 6.02-2.454 6.895-1.587 1.59-4.224 1.803-7.058 1.373-4.25-.639-8.946-2.715-11.199-3.712-1.039-.46-11.415-5.115-10.696-8.082.323-1.331 2.766-1.788 3.425-1.902 7.393-1.388 12.031 6.664 16.94 5.736l.259-.057c1.982-.506 4.41-2.625 6.126-9.943l7.241 2.23zM194.217 380.09c-.088 2.244-1.903 4.184-4.262 5.785-3.566 2.407-8.425 4.058-10.757 4.85-1.077.38-11.864 3.959-13.345 1.292-.666-1.198.826-3.19 1.222-3.72 4.497-6.024 13.367-3.24 16.362-7.245.053-.068.102-.14.152-.217.803-1.228 1.206-3.221 0-6.66a18.251 18.251 0 0 0-.206-.555 311.937 311.937 0 0 0-1.598-4.458c2.139-1.014 4.275-2.028 6.408-3.042a150.91 150.91 0 0 0 2.017 4.75c.35.781.73 1.61 1.141 2.488 2.405 5.15 2.919 5.496 2.866 6.732z"/>
                <g fill="#FFF" opacity=".39" transform="translate(92.369 374.845)">
                    <ellipse cx="25.675" cy="1.442" rx="1.019" ry="1.02" transform="rotate(-77.25 25.675 1.442)"/>
                    <ellipse cx="28.811" cy="6.026" rx="1.019" ry="1.02" transform="rotate(-77.25 28.811 6.026)"/>
                    <ellipse cx="24.636" cy="8.66" rx="1.019" ry="1.02" transform="rotate(-77.25 24.636 8.66)"/>
                    <ellipse cx="26.883" cy="14.534" rx="1.019" ry="1.02" transform="rotate(-77.25 26.883 14.534)"/>
                    <ellipse cx="17.962" cy="13.115" rx="1.019" ry="1.02" transform="rotate(-77.25 17.962 13.115)"/>
                    <ellipse cx="15.649" cy="7.522" rx="1.019" ry="1.02" transform="rotate(-77.25 15.649 7.522)"/>
                    <ellipse cx="8.108" cy="7.9" rx="1.019" ry="1.02" transform="rotate(-77.25 8.108 7.9)"/>
                    <ellipse cx="1.26" cy="7.844" rx="1.019" ry="1.02" transform="rotate(-77.25 1.26 7.844)"/>
                    <ellipse cx="3.615" cy="2.715" rx="1.019" ry="1.02" transform="rotate(-77.25 3.615 2.715)"/>
                    <ellipse cx="33.308" cy="1.975" rx="1.019" ry="1.02" transform="rotate(-77.25 33.308 1.975)"/>
                </g>
                <g fill="#FFF" opacity=".39" transform="translate(165.808 365.336)">
                    <ellipse cx="17.033" cy="6.376" rx="1.02" ry="1.019" transform="rotate(-29.87 17.033 6.376)"/>
                    <ellipse cx="22.448" cy="7.622" rx="1.02" ry="1.019" transform="rotate(-29.87 22.448 7.622)"/>
                    <ellipse cx="21.16" cy="12.384" rx="1.02" ry="1.019" transform="rotate(-29.87 21.16 12.384)"/>
                    <ellipse cx="26.793" cy="15.188" rx="1.02" ry="1.019" transform="rotate(-29.87 26.793 15.188)"/>
                    <ellipse cx="19.264" cy="20.177" rx="1.02" ry="1.019" transform="rotate(-29.87 19.264 20.177)"/>
                    <ellipse cx="13.773" cy="17.631" rx="1.02" ry="1.019" transform="rotate(-29.87 13.773 17.631)"/>
                    <ellipse cx="8.483" cy="23.014" rx="1.02" ry="1.019" transform="rotate(-29.87 8.483 23.014)"/>
                    <ellipse cx="3.409" cy="27.605" rx="1.02" ry="1.019" transform="rotate(-29.87 3.409 27.605)"/>
                    <ellipse cx="1.663" cy="22.238" rx="1.02" ry="1.019" transform="rotate(-29.87 1.663 22.238)"/>
                    <ellipse cx="23.011" cy="1.604" rx="1.02" ry="1.019" transform="rotate(-29.87 23.011 1.604)"/>
                </g>
                <path fill="url(#l)" d="M120.687 11.365c-9.913 5.667-14.593 8.968-20.224 11.92a168.199 168.199 0 0 0-19.212 11.79 74.684 74.684 0 0 1 6.316 12.297c3.957 9.863 4.566 17.496 5.65 26.583.94 7.713 2.523 18.694 5.328 32.234a65.003 65.003 0 0 1-6.556 3.43l-.175-.46a.665.665 0 0 0-.035-.087 311.937 311.937 0 0 0-1.598-4.458C82.822 84.437 74.2 66.724 69.565 57.486c-9.566-19.018-12.644-22.422-10.59-27.716 2.055-5.295 8.048-9.323 15.96-14.62 2.906-1.948 5.707-3.515 11.3-6.645a436.99 436.99 0 0 1 13.63-7.31 67.68 67.68 0 0 0 3.805.098c5.495 0 8.021-1.167 14.608-.909 3.215.126 5.955.521 7.82 1.202 1.446.529 2.366 1.232 2.576 2.119.35 1.578-1.511 3.959-7.987 7.66z" transform="translate(91.608 264.544)"/>
                <path fill="url(#m)" d="M146.683 10.847c-.285 4.013-.947 5.907-1.838 7.46 0 .022-.05.09-.118.197-1.902 3.191-5.829 4.089-6.902 4.374-1.427.38-5.727 1.696-12.329 3.754-11.13 3.476-28.8 9.06-50.227 15.769-.62 1.776-1.61 4.458-2.99 7.641a116.556 116.556 0 0 1-13.3 22.927c-5.487 7.607-13.37 19.634-25.266 40.207l-3.805.046-4.284.053c11.872-41.682 22.32-64.13 29.299-75.864 5.64-9.509 9.003-11.985 9.003-11.985 7.865-5.823 17.838-10.193 25.388-13.164 2.085-.821 3.987-1.521 5.608-2.145A174.84 174.84 0 0 1 127.38 1.37l5.144.76.921.142 1.648.25 11.354 1.712.26.042v.202c.136 2.121.128 4.25-.024 6.37z" transform="translate(91.608 264.544)"/>
                <path fill="url(#n)" d="M146.683 10.847c-.285 4.013-.947 5.907-1.838 7.46 0 .022-.05.09-.118.197-1.902 3.191-5.829 4.089-6.902 4.374-1.427.38-5.727 1.696-12.329 3.754-11.13 3.476-28.8 9.06-50.227 15.769-.62 1.776-1.61 4.458-2.99 7.641a116.556 116.556 0 0 1-13.3 22.927c-5.487 7.607-13.37 19.634-25.266 40.207l-3.805.046a2870.269 2870.269 0 0 0 15.457-33.943C61.643 42.903 61.57 41.032 66.293 37.742c15.338-10.65 51.022-15.245 59.131-19.162a12.938 12.938 0 0 0 3.086-2.119c2.515-2.411 3.535-5.617 3.9-8.367a21.29 21.29 0 0 0-.053-5.903l.145-.038.92.14 1.648.252 11.354 1.711.26.042v.201a46.933 46.933 0 0 1 0 6.348z" transform="translate(91.608 264.544)"/>
                <path fill="#365588" d="M238.291 275.392c-.285 4.012-.947 5.907-1.838 7.458 0 .023-.05.092-.118.198-1.902 3.191-5.829 4.089-6.902 4.374-1.427.38-5.727 1.697-12.329 3.754 7.36-7.987 8.505-12.118 7.329-14.324-1.016-1.901-3.805-2.575-4.01-4.739-.206-2.164 2.518-4.062 4.604-5.283l1.647.251 11.355 1.712.258.042v.201c.145 2.116.147 4.24.004 6.356z" opacity=".29"/>
                <path fill="url(#o)" d="M54.9 37.41c5.64-9.508 9-11.984 9-11.984 7.864-5.823 17.838-10.193 25.387-13.164 2.15 5.919-22.523 23.274-34.387 25.149z" opacity=".42" transform="translate(91.608 264.544)"/>
            </g>
            <g fill-rule="nonzero">
                <path fill="#09458B" d="M210.45 196.698a14.178 14.178 0 0 0-.549 3.111c-.794 5.325-1.592 10.65-2.393 15.975-.986 2.73-6.23 16.788-15.388 22.406a15.141 15.141 0 0 1-6.469 2.252 14.755 14.755 0 0 1-6.069-.76c-9.604-3.044-17.937-10.27-20.03-12.138a86.825 86.825 0 0 1-6.982-6.98c.243-.611.494-1.22.742-1.829l.483-1.095.734-1.658.503-1.141.106-.24a83.99 83.99 0 0 0 17.252 9.832c6.142 2.594 9.27 3.876 11.994 3.088 4.186-1.205 5.095-5.134 14.406-23.646 1.16-2.308 2.245-4.43 3.425-6.325 2.123-3.453 4.524-6.135 8.15-7.755 3.159-1.411 6.256-1.575 6.534-.924.384.867-4.73 2.73-6.45 7.827z"/>
                <path fill="url(#p)" d="M23.854 26.343l-1.233 2.803-.483 1.092-.163.38-.564 1.274-.022.02a2.793 2.793 0 0 1-.651.406c-.548.247-1.08.527-1.594.837l-.762.483h-.022l-1.199.76a16.43 16.43 0 0 1-5.22-2.662c-.47-.356-.92-.737-1.348-1.14-.357-.332-.67-.655-.94-.952a9.182 9.182 0 0 0-3.553.278c-2.26.643-3.55 2.016-5.027 1.495a2.527 2.527 0 0 1-.575-.305 2.75 2.75 0 0 1-.38-.342c.742-.285 1.488-.567 2.245-.844 2.724-1 14.223-3.868 18.767-4.458l.16-.019a.274.274 0 0 1 .17 0l2.394.894z" transform="translate(131.181 188.475)"/>
                <path fill="url(#q)" d="M20.742 32.33c-.548.247-1.08.526-1.595.836l-.76.483h-.024l-1.198.76a16.43 16.43 0 0 1-5.22-2.661c2.282.813 3.98.68 5.14.353 1.328-.38 2.724-1.22 3.326-.665.228.24.347.563.33.893z" opacity=".17" transform="translate(131.181 188.475)"/>
                <path fill="url(#r)" d="M71.03 9.056a124.495 124.495 0 0 1-5.011 22.353c-2.424 7.455-3.942 9.653-6.248 11.03-5.411 3.222-13.143.704-15.56-.087a29.96 29.96 0 0 1-5.707-2.594c-3.097-1.788-8.371-5.462-13.143-12.628a83.99 83.99 0 0 0 15.837 8.809c6.141 2.594 9.27 3.876 11.994 3.088 4.185-1.205 5.095-5.134 14.406-23.646 1.18-2.308 2.264-4.435 3.432-6.325z" opacity=".17" transform="translate(131.181 188.475)"/>
                <path fill="#365588" d="M155.035 214.818l-1.232 2.803-.484 1.092-.163.38-.563 1.274-.023.02-.27-6.467.16-.019a.274.274 0 0 1 .17 0l2.405.917z" opacity=".38"/>
            </g>
            <g fill-rule="nonzero">
                <path fill="#4C93F4" d="M257.05 241.78a28.661 28.661 0 0 1-.958 2.716 22.255 22.255 0 0 1-7.086 9.509c-.848.647-2.001 2.05-3.097 3.533-.41.563-.814 1.141-1.19 1.678-1.036 1.521-1.854 2.826-2.04 3.206l-1.523 2.408-2.58 4.039h-.266l-5.3-.244-2.082-.095-6.773-.308-1.115-.05-2.82-.128-9.824-.457-20.616-.943.034-.05a18.635 18.635 0 0 0 2.139-4.69c.099-.315.304-1.692.574-3.643.034-.232.065-.48.1-.73.071-.575.155-1.183.239-1.822.023-.194.05-.38.076-.59a.08.08 0 0 1 0-.026c.065-.495.13-1.008.194-1.522.046-.338.087-.677.13-1.019.034-.278.072-.551.106-.837v-.114c.11-.89.224-1.791.339-2.689.254-2.069.506-4.115.719-5.895.316-2.583.563-4.63.658-5.428 0-.076.019-.156.034-.236.015-.08 0-.08 0-.099.038-.258.076-.52.118-.76l.114-.76c.073-.457.137-.906.21-1.351 0-.057 0-.114.026-.167.046-.27.088-.54.13-.81.101-.632.203-1.254.304-1.868.038-.244.08-.487.122-.73a243.3 243.3 0 0 1 .647-3.694 1673.27 1673.27 0 0 1 .803-4.21c.072-.358.14-.707.216-1.054.077-.346.145-.692.217-1.03.073-.339.168-.788.251-1.168.069-.308.137-.612.202-.917.065-.304.152-.68.232-1.015l.137-.586.152-.639c.35-1.48.704-2.879 1.054-4.184a120.147 120.147 0 0 1 .487-1.753l.1-.35c.041-.152.087-.308.133-.456.045-.149.06-.213.09-.316l.153-.51c.065-.213.13-.426.19-.635.107-.35.213-.688.32-1.023.065-.202.126-.38.19-.597.065-.217.126-.38.19-.586l.381-1.14c.065-.183.13-.381.19-.545a65.544 65.544 0 0 1 .635-1.712c.126-.323.248-.638.381-.95l.38-.898c.168-.403.34-.795.51-1.168l.138-.3.232-.494c.05-.11.099-.217.152-.324.053-.106.126-.258.19-.38l.187-.38c.125-.244.247-.483.38-.715l.187-.347c.076-.144.156-.285.232-.422a27.152 27.152 0 0 1 .677-1.14c.133-.21.232-.381.343-.537l.17-.255.168-.247.164-.24c.114-.156.22-.304.33-.449.271-.38.541-.692.8-.996.205-.24.407-.457.605-.666a11.293 11.293 0 0 1 2.705-2.107c.187-.11.362-.198.522-.277.16-.08.35-.168.532-.244.727-.3 1.476-.539 2.242-.715.14-.034.293-.072.452-.103l.134-.03c.049 0 .099-.02.14-.03h.02c.52-.11 1.08-.21 1.693-.301l.213-.034.186-.027.206-.03.217-.03.627-.088.51-.061.335-.042H220.285l1.142-.125H221.591l.43-.042 1.263-.126.974-.091h.194c.167-.019.346-.034.525-.046l.358-.034.73-.065 1.142-.102 1.199-.103c1.64-.144 3.15-.243 4.539-.297a69.735 69.735 0 0 1 1.903-.053H236.765c.066-.004.132-.004.198 0h.727c.312 0 .613.02.91.038.296.02.65.034.962.061l.38.027h.37l.354.034h.102c.427.042.826.087 1.21.14h.065c5.244.761 6.982 2.42 7.79 3.4a9.07 9.07 0 0 1 1.59 2.9c1.697 4.643 11.034 30.67 5.627 48.604z"/>
                <path fill="url(#s)" d="M25.17 45.455C18.467 57.177 8.77 57.36 4.598 56.801c.247-1.879.513-3.804.802-5.75 2.474-16.79 5.297-27.591 7.991-34.612 1.998-5.196 3.927-8.311 5.598-10.243 5.277 11.095 11.99 29.104 6.183 39.26z" opacity=".12" transform="translate(189.78 186.193)"/>
                <path fill="#002544" d="M243.337 205.26a49.425 49.425 0 0 0-1.994 13.955c.023 8.432 2.245 11.73.666 15.951-1.237 3.298-4.916 7.486-16.62 9.97 8.75 6.062 19.474 5.704 25.596 0 5.072-4.717 5.327-11.537 5.327-13.294l-12.975-26.582z" opacity=".2"/>
                <path fill="#002544" d="M241.997 186.824c-.635 7.387-5.563 13.11-11.487 14.073-3.877.594-7.81-.64-10.655-3.34-3.835-3.677-3.888-8.47-3.88-9.314.049 0 .098-.019.14-.03h.02c.52-.11 1.08-.21 1.692-.3l.213-.035.187-.027.205-.03.217-.03.628-.088.51-.06.335-.043H220.33l1.142-.125H221.636l.43-.042 1.264-.126.974-.09h.194c.167-.02.346-.035.525-.047l.357-.034.731-.064 1.142-.103 1.198-.103c1.64-.144 3.15-.243 4.54-.296a69.735 69.735 0 0 1 1.902-.054h1.918c.066-.004.132-.004.198 0h.727c.312 0 .612.02.91.038.296.02.65.035.962.061l.38.027h.384l.354.034h.042l1.23.148z"/>
            </g>
            <g transform="translate(217.938 148.158)">
                <path fill="url(#t)" fill-rule="nonzero" d="M7.523 15.571c-.08.027-.11.027-.076 0a.08.08 0 0 1 .076 0z" opacity=".32"/>
                <path fill="url(#u)" fill-rule="nonzero" d="M13.573 20.474c-1.492-1.29-4.54-3.89-5.685-4.682a3.346 3.346 0 0 1 1.853-.806c2.002-.213 3.805 1.403 4.045 3.605a4.323 4.323 0 0 1-.213 1.883z" opacity=".32"/>
                <path fill="url(#v)" fill-rule="nonzero" d="M28.055 21.547a8.604 8.604 0 0 1-.997 1.327c.141 1.66.141 3.327 0 4.986-.091 1.077-.175 1.993-.3 2.78-.236 1.465-.624 2.48-1.523 3.196-.898.715-2.039.924-3.082.992-1.35.061-2.7-.098-3.999-.471l-.76 2.518-.435 1.426a19.21 19.21 0 0 1 2.861.023c.126.6.876 4.457-1.643 7.607-2.074 2.601-5.015 3.042-6.564 3.278-1.198.179-6.358.89-9.513-2.46a6.672 6.672 0 0 1-.338-.381A7.35 7.35 0 0 1 .24 42.61a9.288 9.288 0 0 1 .045-2.932 15.135 15.135 0 0 1 3.395-.411l1.061-2.465 2.717-6.313.982-2.283c-.198-.224-.38-.456-.575-.692a16.041 16.041 0 0 1-2.397-4.123 17.292 17.292 0 0 1-1.107-5.515C4.129 12.37 6.263 6.614 10.795 4.393a10.624 10.624 0 0 1 10.171.574c.21.14.408.295.594.464.818.761 2.123 2.416 3.272 6.295.305 1.023.598 2.198.868 3.549.026.087.057.175.087.258.318 1 .864 1.911 1.595 2.663.654.654 1.27.962 1.331 1.658.054.525-.205.95-.658 1.693z"/>
                <g fill="#271C41" fill-rule="nonzero">
                    <path d="M24.844 11.737a3.315 3.315 0 0 0-2.664-1.52c-1.248 0-2.348.82-3.006 2.064a4.89 4.89 0 0 0-.38.94 5.898 5.898 0 0 0-.256 1.734c0 2.613 1.633 4.74 3.646 4.74 1.857 0 3.398-1.815 3.622-4.154a6.38 6.38 0 0 0 .027-.586 5.517 5.517 0 0 0-.99-3.218zm-2.664 7.227c-1.606 0-2.915-1.799-2.915-4.009 0-2.21 1.31-4.009 2.915-4.009 1.606 0 2.919 1.8 2.919 4.01 0 2.209-1.313 4.016-2.923 4.016l.004-.008z"/>
                    <path d="M7.37 17.014l11.829-4.717.27.678L7.64 17.693z"/>
                </g>
                <path fill="#365588" fill-rule="nonzero" d="M18.162 34.28l-1.096 3.644a13.655 13.655 0 0 1-7.294-6.196l8.39 2.553z" opacity=".38"/>
                <path fill="#002544" fill-rule="nonzero" d="M21.598 5.382a.194.194 0 0 1-.03.06c-.328.472-2.835-.638-5.012.834-2.176 1.472-1.29 3.662-3.394 9.508-1.735 4.83-3.044 5.295-2.824 7.988.156 1.974 1.013 3.423.176 4.887a4.265 4.265 0 0 1-2.352 1.845 3.369 3.369 0 0 1-.548.16l-.152-.187c-1.678-2.05-8.265-10.65-5.91-20.44.491-2.042 1.637-6.777 5.59-8.854.133-.072.278-.14.419-.21 6.312-2.848 14.387 3.066 14.037 4.409z"/>
                <path fill="url(#w)" fill-rule="nonzero" d="M13.573 20.474a3.422 3.422 0 0 1-.213.51 3.565 3.565 0 0 1-2.778 1.978c-2.001.209-3.805-1.404-4.045-3.606a4.092 4.092 0 0 1 1.351-3.564 3.346 3.346 0 0 1 1.853-.806c2.002-.213 3.805 1.403 4.045 3.605a4.323 4.323 0 0 1-.213 1.883z"/>
                <path fill="url(#x)" fill-rule="nonzero" d="M8.683 27.457c-.171 1.023-.346 2.046-.517 3.07l-.936 5.575-2.477.708 2.716-6.314c-1.678-2.05-8.264-10.65-5.909-20.44.491-2.042 1.636-6.777 5.59-8.854a22.698 22.698 0 0 0-2.778 16.686 27.425 27.425 0 0 0 4.311 9.57z" opacity=".32"/>
                <ellipse cx="23.569" cy="14.735" fill="#000" fill-rule="nonzero" rx="1" ry="1"/>
                <path fill="#000" fill-rule="nonzero" d="M17.06 10.136l4.425-2.294.477.918-4.425 2.295z"/>
                <path stroke="#000" stroke-linecap="round" stroke-width="1.2" d="M20.548 25.662c.297.75.75 1.43 1.328 1.993a5.804 5.804 0 0 0 2.827 1.495"/>
            </g>
            <g fill-rule="nonzero">
                <path fill="url(#y)" d="M21.48 67.937l-.65.134c-3.102.59-9.951 1.171-11.606-1.605-.898-1.499.144-3.359.456-4.766.137-.624.133-1.141-.247-1.522a1.74 1.74 0 0 0-1.347-.38 7.152 7.152 0 0 0-2.013.449l-.06.019c-.328.11-.595.21-.781.278-.342.445-.78 1.053-1.328 1.901v.02c-1.062 1.616-1.583 2.114-1.88 2.357a9.304 9.304 0 0 1-.437.343 4.372 4.372 0 0 1-.761.46.426.426 0 0 1-.415.038c-.186-.16.065-.78.761-2.1.487-.909 1.142-2.099 2.05-3.483.15-.233.31-.472.473-.72a18.73 18.73 0 0 1 3.569-2.308 18.471 18.471 0 0 1 3.044-1.187l.21-.06h.045c.263.212.525.433.791.657a52.463 52.463 0 0 1 7.892 8.33c.225.3.445.593.655.882.57.769 1.097 1.523 1.579 2.263z" transform="translate(176.462 186.573)"/>
                <path fill="url(#z)" d="M15.095 64.754c-3.364 1.141-5.769.913-7.397.453-1.248-.354-3.284-1.206-4.985-.331-.202.102-.673.35-.666.665 0 .57 1.633.955 3.326 1.328 4.863 1.076 7.298 1.612 9.307 1.662a31.01 31.01 0 0 0 5.327-.331l-4.912-3.446z" transform="translate(176.462 186.573)"/>
                <path fill="url(#A)" d="M21.48 67.937l-.65.134c-3.102.59-9.951 1.171-11.606-1.605-.898-1.499.144-3.359.456-4.766 1.522 1.14 2.074 2.525 4.338 3.172 1.8.513 3.66.27 5.22-.13a64.432 64.432 0 0 1 2.242 3.195z" opacity=".17" transform="translate(176.462 186.573)"/>
                <path fill="url(#B)" d="M6.918 57.269s-1.88 1.628-1.88 2.282c0 .654-.761 4.564-.22 4.773.54.21 2.214-5.104 2.214-5.104l-.114-1.951z" transform="translate(176.462 186.573)"/>
                <path fill="url(#C)" d="M7.367 57.565s-1.663 2.99-.997 3.656c.666.665 2.328 1.993 2.328 1.327 0-.666-.996-1.993-.996-1.993l.996-1.662c-.14-.7-.513-1.232-.996-1.328a.864.864 0 0 0-.335 0z" transform="translate(176.462 186.573)"/>
                <path fill="#365588" d="M196.351 252.202c-4.486.692-7.903-6.196-9.383-9.858h.046a52.463 52.463 0 0 1 8.683 8.988c.228.28.445.577.654.87z" opacity=".38"/>
                <path fill="#09458B" d="M251.978 258.078c-4.49 2.37-7.812.837-20.612-.665a338.469 338.469 0 0 0-37.564-2.316c.233-1.405.468-2.811.704-4.219.096-.588.194-1.176.293-1.764a330.532 330.532 0 0 1 23.591-3.332c7.634-.795 11.45-1.19 14.958-1.328 9.932-.38 11.416.525 13.3-.996 4.162-3.378 1.761-11.863-1.664-28.906a658.28 658.28 0 0 1-4.726-26.275c-.09-.551-.175-1.095-.258-1.639h.33c2.634.095 6.778.67 10.632 3.313 5.027 3.45 7.386 8.923 8.976 16.282.742 3.367 8.904 42.968-7.96 51.845z"/>
                <path fill="url(#D)" d="M80.588 55.207c-1.141 14.104-52.738 10.019-62.54 9.129.096-.589.194-1.177.293-1.765a330.532 330.532 0 0 1 23.591-3.332c7.633-.795 11.45-1.19 14.958-1.327 9.932-.38 11.416.524 13.3-.997 4.162-3.377 1.76-11.863-1.664-28.906A658.28 658.28 0 0 1 63.8 1.734l.073-1.628c.323.655 17.937 39.652 16.715 55.101z" opacity=".17" transform="translate(176.462 186.573)"/>
                <path fill="url(#E)" d="M6.773 57.269l-2.732 2.624-.331 2.663c-.05 1.182-.038 2.578.331 2.662.37.084.932-1.183.997-1.327.613-1.377.434-2.282.666-3.656a9.175 9.175 0 0 1 1.07-2.966z" transform="translate(176.462 186.573)"/>
            </g>
            <path fill="#E6E3F4" fill-rule="nonzero" d="M192.801 237.848l-4.996 5.142a55.682 55.682 0 0 0-.791-.658l-.255.072 5.213-5.366a.624.624 0 0 1 .852.121.612.612 0 0 1-.023.689z"/>
        </g>
        <g fill-rule="nonzero" transform="translate(52.415 152.723)">
            <ellipse cx="64.984" cy="20.786" fill="#E6E3F4" rx="6.381" ry="6.378"/>
            <path fill="#271C41" d="M20.262 104.416c0 1.868-2.861 2.944-6.168 3.233-4.505.38-9.828-.684-9.828-3.233a7.997 7.997 0 0 1 7.998-7.994 7.997 7.997 0 0 1 7.998 7.994z"/>
            <path fill="url(#F)" d="M14.079 107.638c-4.505.38-9.829-.685-9.829-3.233a7.988 7.988 0 0 1 5.468-7.58 15.412 15.412 0 0 0 4.36 10.813z" opacity=".36"/>
            <path fill="#271C41" d="M57.316 8.037a.693.693 0 0 0-.947 0L.453 60.418a.62.62 0 0 0 0 .905c.266.25.68.25.947 0l4.308-4.028 5.974 40.4c.056.321.336.553.662.549h.095a.647.647 0 0 0 .57-.723l-6.088-41.2a.616.616 0 0 0-.03-.125L57.31 8.938a.62.62 0 0 0 .007-.901z"/>
            <path fill="#271C41" d="M77.72 15.123l-10.91 6.325-3.318 1.924-7.374 4.275-3.531 2.05-.286-7.28-.357-9.116 1.952-1.13-3.12-9.258 1.643-.95 1.279-.742.734-.426.91-.529 6.491 7.307L63.8 6.432l10.951 6.842z"/>
            <path fill="url(#G)" d="M77.72 15.126l-10.91 6.326-3.318 1.924-7.374 4.275c5.635-4.975 6.468-8.295 6.175-10.421 0-.095-.03-.183-.045-.27-.594-3.001-3.512-3.998-5.833-8.748A20.425 20.425 0 0 1 54.413.795l.913-.529 6.492 7.307 1.967-1.141 10.951 6.846 2.983 1.848z" opacity=".49"/>
            <path fill="url(#H)" d="M77.72 15.126l-10.91 6.326-3.318 1.924-7.374 4.275-3.535 2.05-.286-7.28a15.853 15.853 0 0 1 6.302-4.005 98.511 98.511 0 0 1 3.694-1.186c4.745-1.446 9.186-2.526 12.455-3.956l2.971 1.852z" opacity=".17"/>
        </g>
        <g fill-rule="nonzero">
            <path fill="#E6E3F4" d="M64.36 292.218L46.498 393.771a4.012 4.012 0 0 1-1.883 7.722 4.013 4.013 0 0 1-.3-7.943L62.197 291.9l4.894-27.822 2.15.38-4.882 27.761zM256.16 395.315c0 2.217-1.67 4.009-3.733 4.009-2.062 0-3.733-1.795-3.733-4.009a4.016 4.016 0 0 1 2.348-3.735l-11.838-72.346-9.314-56.972 2.001-.38 9.437 57.664 11.75 71.813a3.937 3.937 0 0 1 3.082 3.956z"/>
            <path fill="url(#I)" d="M26.092 6.766l2.15.38-4.882 27.766-2.162-.308z" transform="translate(41 257.318)"/>
            <path fill="url(#J)" d="M200.324 62.24l-2.12-.323-9.314-56.972 2.001-.38z" transform="translate(41 257.318)"/>
            <path fill="url(#K)" d="M208.038 1.582v4.564a1.325 1.325 0 0 1-1.276 1.37H12.58c-.73-.027-1.3-.64-1.276-1.37V1.582A1.325 1.325 0 0 1 12.58.213h194.178a1.324 1.324 0 0 1 1.28 1.37z" transform="translate(41 257.318)"/>
            <g fill="#E6E3F4">
                <path d="M194.726 258.257h-38.488a1.276 1.276 0 1 1 0-2.552h38.488a1.276 1.276 0 1 1 0 2.552z"/>
                <path d="M121.862 293.219a22.324 22.324 0 0 1-11.346-3.013c-9.95-5.952-13.764-20.352-8.87-33.5a.274.274 0 1 1 .514.19c-4.806 12.905-1.093 27.004 8.637 32.842 5.81 3.477 13.767 3.91 19.787 1.08 4.988-2.338 7.077-6.085 9.513-10.451 1.556-2.8 3.318-5.972 6.088-9.167 6.514-7.481 16.362-12.387 29.242-14.578a.274.274 0 1 1 .091.54c-12.762 2.172-22.496 7.013-28.919 14.4-2.74 3.149-4.49 6.294-6.03 9.071-2.466 4.45-4.593 8.254-9.742 10.68a21.24 21.24 0 0 1-8.965 1.906z"/>
            </g>
            <path fill="#E6E3F4" d="M135.268 258.257H91.509a2.089 2.089 0 0 1-1.998-1.457L77.48 219.283a1.274 1.274 0 0 1 2.431-.76l11.933 37.205h43.424a1.274 1.274 0 0 1 0 2.53z"/>
            <path fill="#000" d="M95.52 256.618h3.284v1H95.52z"/>
        </g>
    </g>
</svg>
