  <svg
    xmlns="http://www.w3.org/2000/svg"
    width="30"
    height="24"
    viewBox="0 0 30 24"
  >
    <g fill="none" fillRule="evenodd">
      <path d="M-1-4h32v32H-1z" />
      <path
        fill="#FFF"
        fillRule="nonzero"
        d="M18.753 3.724a3.288 3.288 0 0 0-.397 1.104H2.311a.548.548 0 0 0-.552.551c0 .296.247.552.552.552h16.045c.065.389.2.762.397 1.103H2.311A1.661 1.661 0 0 1 .655 5.38c0-.914.735-1.655 1.656-1.655h16.442zm5.735 0h3.2a1.661 1.661 0 0 1 1.657 1.655c0 .915-.735 1.655-1.656 1.655h-3.2c.197-.34.331-.714.396-1.103h2.804a.548.548 0 0 0 .552-.552.558.558 0 0 0-.552-.551h-2.804a3.288 3.288 0 0 0-.397-1.104zM12.472 20.276a4.415 4.415 0 0 1-8.185 0H2.31A1.651 1.651 0 0 1 .655 18.62c0-.906.742-1.655 1.656-1.655h1.976a4.415 4.415 0 0 1 8.185 0h15.217a1.651 1.651 0 0 1 1.656 1.655c0 .906-.742 1.655-1.656 1.655H12.472zm.287-1.104h14.93a.558.558 0 0 0 .552-.551.548.548 0 0 0-.552-.552h-14.93c.046.366.046.737 0 1.103zm-8.76 0a4.457 4.457 0 0 1 0-1.103H2.312a.558.558 0 0 0-.552.552c0 .304.24.551.552.551H4zm4.38 2.759a3.31 3.31 0 1 0 0-6.62 3.31 3.31 0 0 0 0 6.62zm0-2.207a1.103 1.103 0 1 1 0-2.207 1.103 1.103 0 0 1 0 2.207zm0-18.207a.552.552 0 0 1 0-1.103h7.724a.552.552 0 0 1 0 1.103H8.38zm5.518 22.07a.552.552 0 0 1 0-1.104h7.724a.552.552 0 0 1 0 1.103h-7.724zM18.31 5.378c0 .848.324 1.695.97 2.341a.552.552 0 1 1-.78.78 4.414 4.414 0 1 1 3.12 1.293.552.552 0 1 1 0-1.103 3.31 3.31 0 1 0-3.31-3.31zm3.31 1.104a1.103 1.103 0 1 1 0-2.207 1.103 1.103 0 0 1 0 2.207z"
      />
    </g>
  </svg>
