  <svg
    xmlns="http://www.w3.org/2000/svg"
    width="28"
    height="28"
    viewBox="0 0 28 28"
  >
    <g fill="none" fillRule="evenodd">
      <path d="M-2-2h32v32H-2z" />
      <path
        fill="#FFF"
        fillRule="nonzero"
        d="M25.034 4.512a3.288 3.288 0 0 0-1.103-.397V2.414a.552.552 0 0 0-1.103 0v1.7c-.39.066-.763.2-1.104.398V2.414a1.655 1.655 0 0 1 3.31 0v2.098zm0 6.96v14.114a1.655 1.655 0 0 1-3.31 0V11.472a4.415 4.415 0 0 1-2.758-4.093.552.552 0 0 1 1.103 0 3.31 3.31 0 1 0 .97-2.34.552.552 0 1 1-.78-.78 4.414 4.414 0 1 1 4.775 7.213zm-2.206.287v13.827a.552.552 0 0 0 1.103 0V11.76a4.457 4.457 0 0 1-1.103 0zm.551-3.276a1.103 1.103 0 1 1 0-2.207 1.103 1.103 0 0 1 0 2.207zm-7.724 16.23v.873a1.655 1.655 0 1 1-3.31 0v-.873a4.415 4.415 0 0 1 0-8.185V2.414a1.655 1.655 0 1 1 3.31 0v14.114a4.415 4.415 0 0 1 0 8.185zM13.448 25v.586a.552.552 0 0 0 1.104 0V25a4.457 4.457 0 0 1-1.104 0zm0-8.759a4.457 4.457 0 0 1 1.104 0V2.414a.552.552 0 1 0-1.104 0V16.24zm.552 1.07a3.31 3.31 0 1 0 0 6.62 3.31 3.31 0 0 0 0-6.62zm0 2.206a1.103 1.103 0 1 1 0 2.207 1.103 1.103 0 0 1 0-2.207zM6.276 3.287a4.415 4.415 0 0 1 0 8.185v14.114a1.655 1.655 0 1 1-3.31 0V11.472a4.415 4.415 0 0 1 0-8.185v-.873a1.655 1.655 0 0 1 3.31 0v.873zM4.069 3a4.457 4.457 0 0 1 1.103 0v-.586a.552.552 0 0 0-1.103 0V3zm0 8.759v13.827a.552.552 0 0 0 1.103 0V11.76a4.457 4.457 0 0 1-1.103 0zm.552-1.07a3.31 3.31 0 1 0 0-6.62 3.31 3.31 0 0 0 0 6.62zm0-2.206a1.103 1.103 0 1 1 0-2.207 1.103 1.103 0 0 1 0 2.207z"
      />
    </g>
  </svg>
