 <svg
    xmlns="http://www.w3.org/2000/svg"
    width="53"
    height="56"
    viewBox="0 0 53 56"
  >
    <g fill="currentColor" fillRule="nonzero">
      <path d="M49.875 30.625H2.625A2.628 2.628 0 0 0 0 33.25a.875.875 0 0 0 1.75 0c0-.482.393-.875.875-.875h.717l-2.031 12.19a7.883 7.883 0 0 0 1.015 5.346L3.5 51.867v3.149c0 .542.442.984.984.984h43.532a.986.986 0 0 0 .984-.984v-3.149l1.174-1.956a7.883 7.883 0 0 0 1.015-5.347l-2.031-12.189h.717c.482 0 .875.393.875.875a.875.875 0 0 0 1.75 0 2.628 2.628 0 0 0-2.625-2.625zM44.299 49.01l-1.044 1.74h-2.588l.619-1.545a7.902 7.902 0 0 0 .515-3.795l-1.448-13.035h2.656l2.08 12.477a6.132 6.132 0 0 1-.79 4.158zm-8.14 1.74l.584-2.044a7.846 7.846 0 0 0 .278-2.784l-1.074-13.547h2.645l1.47 13.228a6.144 6.144 0 0 1-.401 2.951l-.878 2.196H36.16zm-4.608 0l.18-3.2c.01-.187.014-.377.011-.565l-.228-14.61h2.678l1.085 13.685a6.103 6.103 0 0 1-.217 2.165l-.72 2.525h-2.79zm-4.426 0V32.375h2.639l.228 14.638c.003.146 0 .294-.009.44l-.185 3.297h-2.673zm-4.428 0l-.205-3.275a6.176 6.176 0 0 1-.01-.489l.253-14.611h2.64V50.75h-2.678zm-13.452 0l-1.044-1.74a6.132 6.132 0 0 1-.79-4.158l2.08-12.477h2.656L10.7 45.41a7.902 7.902 0 0 0 .515 3.795l.618 1.545H9.245zm4.472 0l-.878-2.195a6.145 6.145 0 0 1-.4-2.952l1.47-13.228h2.643l-1.08 13.537c-.076.947.018 1.89.281 2.803l.585 2.035h-2.62zm4.442 0l-.724-2.518a6.102 6.102 0 0 1-.22-2.18l1.093-13.677h2.677l-.253 14.58c-.004.209 0 .42.014.629l.198 3.166h-2.785zM3.037 44.852l2.08-12.477h2.6l-2.031 12.19A7.883 7.883 0 0 0 6.7 49.91l.503.839H4.87l-1.044-1.74a6.132 6.132 0 0 1-.79-4.158zM47.25 54.25h-42V52.5h42v1.75zm1.424-5.24l-1.044 1.74h-2.334l.503-.84a7.883 7.883 0 0 0 1.015-5.346l-2.031-12.189h2.6l2.08 12.477a6.132 6.132 0 0 1-.79 4.158zM9.625 28.875A.875.875 0 0 0 10.5 28V1.75H42V28a.875.875 0 0 0 1.75 0V1.75C43.75.785 42.965 0 42 0H10.5c-.965 0-1.75.785-1.75 1.75V28c0 .483.392.875.875.875z" />
      <path d="M39.375 28.875A.875.875 0 0 0 40.25 28V4.375a.875.875 0 0 0-.875-.875h-26.25a.875.875 0 0 0-.875.875V28A.875.875 0 0 0 14 28V14.875h8.75a.875.875 0 0 0 0-1.75H14V5.25h11.375V28a.875.875 0 0 0 1.75 0V14.875H38.5V28c0 .483.392.875.875.875zm-12.25-15.75V5.25H38.5v7.875H27.125z" />
    </g>
  </svg>
