<svg
    xmlns="http://www.w3.org/2000/svg"
    width="59"
    height="56"
    viewBox="0 0 59 56"
  >
    <g fill="none" fillRule="nonzero">
      <path
        fill="#94C1FF"
        d="M18.835.494h18.337v18.337H18.835zM.496 18.831h18.339v18.337H.496z"
      />
      <path
        fill="#D7E9FF"
        d="M6.916 32.584a.916.916 0 1 1-1.833.001.916.916 0 0 1 1.833 0zM14.25 32.584a.916.916 0 1 1-1.832.001.916.916 0 0 1 1.833 0zM.496.494h18.339v18.337H.496z"
      />
      <path fill="#FFF" d="M2.33 2.328h16.505V.494H.496v18.337H2.33z" />
      <path
        fill="#D7E9FF"
        d="M18.833 18.831h18.339v18.337H18.833zM37.17 37.169h18.339v18.337H37.17z"
      />
      <path fill="#94C1FF" d="M18.833 37.169h18.339v18.337H18.833z" />
      <path
        fill="#D7E9FF"
        d="M.497 37.169h18.339v18.337H.497zM48.544 9.515c-2.149-2.148-12.18-4.4-12.18-4.4s2.252 10.032 4.4 12.18a5.502 5.502 0 0 0 7.78-7.78z"
      />
      <path
        fill="#FFF"
        d="M41.412 16.647c-1.77-1.77-3.606-8.878-4.2-11.331-.524-.127-.847-.2-.847-.2s2.251 10.03 4.399 12.179a5.503 5.503 0 0 0 7.78 0c.11-.11.209-.225.307-.341a5.5 5.5 0 0 1-7.44-.307z"
      />
      <path
        fill="#D7E9FF"
        d="M46.41 13.864l-1.297 1.297 4.865 4.866 1.297-1.298z"
      />
      <path
        fill="#94C1FF"
        d="M49.33 20.675l5.836 5.835a1.833 1.833 0 1 0 2.594-2.594l-5.836-5.835-2.594 2.594z"
      />
      <path
        fill="#D7E9FF"
        d="M55.815 25.861h-.001l-5.835-5.834-.649.648 5.836 5.835a1.833 1.833 0 0 0 2.594 0c.112-.113.2-.239.278-.37a1.832 1.832 0 0 1-2.223-.279z"
      />
      <path fill="#FFF" d="M45.111 15.16l.648-.649 4.866 4.864-.648.649z" />
      <path
        fill="#D7E9FF"
        d="M25.253 50.921a.916.916 0 1 1-1.832.002.916.916 0 0 1 1.832-.002zM32.588 50.921a.916.916 0 1 1-1.833.002.916.916 0 0 1 1.833-.002z"
      />
      <path
        fill="#FFF"
        d="M20.666 20.664h16.505v-1.833H18.832v18.337h1.834zM2.33 39.002h16.506V37.17H.497v18.337h1.834z"
      />
      <path
        fill="#D7E9FF"
        d="M2.33 20.664h16.506v-1.833H.497v18.337h1.834zM20.667 39h16.505v-1.833H18.833v18.337h1.834z"
      />
      <path fill="#FFF" d="M39.004 39.002H55.51V37.17H37.17v18.337h1.834z" />
      <g fill="#116FFF">
        <path d="M44.855 19.476a6.442 6.442 0 0 1-4.527-1.897c-2.34-2.339-4.363-11.927-4.448-12.334a.458.458 0 0 1 .543-.542c.406.085 9.993 2.11 12.332 4.447 1.571 1.571 2.236 3.845 1.733 5.93a.459.459 0 0 1-.892-.215c.43-1.777-.142-3.72-1.49-5.067-1.806-1.806-8.91-3.531-11.174-4.044.513 2.263 2.237 9.37 4.044 11.176 1.348 1.349 3.29 1.918 5.068 1.489a.46.46 0 0 1 .553.338.46.46 0 0 1-.338.553 5.956 5.956 0 0 1-1.404.166z" />
        <path d="M51.24 19.224a.457.457 0 0 1-.324-.134l-4.54-4.538a.458.458 0 1 1 .649-.648l4.54 4.538a.458.458 0 0 1-.325.782zM49.942 20.521a.457.457 0 0 1-.324-.134l-4.538-4.538a.458.458 0 1 1 .648-.648l4.538 4.538a.458.458 0 0 1-.324.782z" />
        <path d="M49.294 21.17a.457.457 0 0 1-.324-.783l2.594-2.593a.458.458 0 1 1 .649.648l-2.595 2.593a.457.457 0 0 1-.324.134z" />
        <path d="M57.723 24.41a.457.457 0 0 1-.324-.134l-5.835-5.834a.458.458 0 1 1 .649-.648l5.834 5.834a.458.458 0 0 1-.324.782zM55.13 27.003a.457.457 0 0 1-.324-.134l-5.836-5.834a.458.458 0 1 1 .648-.648l5.836 5.834a.458.458 0 0 1-.324.782z" />
        <path d="M56.426 27.542a2.275 2.275 0 0 1-1.62-.673.458.458 0 1 1 .648-.648c.521.521 1.424.521 1.945 0a1.378 1.378 0 0 0 0-1.945.458.458 0 1 1 .648-.648 2.296 2.296 0 0 1 0 3.241 2.275 2.275 0 0 1-1.62.673zM45.404 15.983a.457.457 0 0 1-.324-.134 1.376 1.376 0 0 1 1.945-1.945.458.458 0 1 1-.648.649.458.458 0 1 0-.649.648.458.458 0 0 1-.324.782zM18.835 55.964H.498a.458.458 0 0 1-.459-.458V37.169c0-.254.206-.459.459-.459h18.337c.253 0 .458.205.458.459v18.337a.458.458 0 0 1-.458.458zM.956 55.047h17.42v-17.42H.957v17.42zM55.51 55.964H37.171a.458.458 0 0 1-.458-.458V37.169c0-.254.205-.459.458-.459H55.51c.254 0 .459.205.459.459v18.337a.458.458 0 0 1-.459.458zm-17.88-.917h17.421v-17.42h-17.42v17.42z" />
        <path d="M37.172 37.627H18.835a.458.458 0 0 1-.458-.458V18.83c0-.253.205-.458.458-.458h18.337c.254 0 .459.205.459.458V37.17a.458.458 0 0 1-.459.458zm-17.879-.917h17.42V19.29h-17.42v17.42z" />
        <path d="M18.833 19.29H.496a.458.458 0 0 1-.458-.459V.494c0-.253.205-.458.458-.458h18.337c.254 0 .459.205.459.458v18.337a.458.458 0 0 1-.459.459zM.955 18.373h17.42V.953H.955v17.42zM37.172 55.964H18.835a.458.458 0 0 1-.458-.458V37.169c0-.254.205-.459.458-.459h18.337c.254 0 .459.205.459.459v18.337a.458.458 0 0 1-.459.458zm-17.879-.917h17.42v-17.42h-17.42v17.42z" />
        <path d="M28.004 52.297a.458.458 0 0 1-.459-.459c0-.146.022-3.605 1.929-4.896.878-.596 1.984-.633 3.284-.113a.458.458 0 1 1-.34.85c-.998-.397-1.815-.392-2.43.022-1.503 1.016-1.526 4.107-1.526 4.137a.459.459 0 0 1-.458.459z" />
        <path d="M28.004 52.297a.459.459 0 0 1-.459-.459c0-.03-.022-3.12-1.526-4.137-.614-.414-1.431-.42-2.43-.022a.459.459 0 0 1-.34-.85c1.3-.52 2.407-.482 3.285.113 1.907 1.29 1.928 4.75 1.928 4.896a.459.459 0 0 1-.458.459zM28.004 46.796a.46.46 0 0 1-.459-.458c-.002-.46-.152-1.761-.824-2.244-.327-.236-.76-.261-1.323-.072a.46.46 0 0 1-.29-.87c.851-.284 1.575-.216 2.15.2 1.19.857 1.204 2.898 1.204 2.985a.46.46 0 0 1-.458.459z" />
        <path d="M28.004 46.796a.458.458 0 0 1-.459-.459c0-.087.014-2.128 1.204-2.985.574-.417 1.299-.484 2.15-.2a.46.46 0 0 1-.29.87c-.561-.19-.996-.163-1.325.073-.674.486-.822 1.784-.822 2.242a.458.458 0 0 1-.458.459zM24.336 52.297a1.377 1.377 0 0 1-1.375-1.375c0-.759.617-1.376 1.375-1.376a1.377 1.377 0 0 1 0 2.75zm0-1.834a.46.46 0 0 0 0 .917.46.46 0 0 0 0-.917zM31.671 52.297a1.377 1.377 0 0 1-1.375-1.375c0-.759.617-1.376 1.375-1.376s1.375.617 1.375 1.376c0 .758-.616 1.375-1.375 1.375zm0-1.834a.46.46 0 0 0 0 .917.46.46 0 0 0 0-.917zM28.004 43.128a.458.458 0 0 1-.459-.458v-1.834a.458.458 0 1 1 .917 0v1.834a.458.458 0 0 1-.458.458z" />
        <g>
          <path d="M18.835 37.627H.498a.458.458 0 0 1-.459-.458V18.83c0-.253.206-.458.459-.458h18.337c.253 0 .458.205.458.458V37.17a.458.458 0 0 1-.458.458zM.956 36.71h17.42V19.29H.957v17.42z" />
          <path d="M9.667 33.96a.458.458 0 0 1-.459-.459c0-.147.022-3.605 1.929-4.896.878-.597 1.984-.634 3.284-.113a.458.458 0 1 1-.34.85c-.998-.397-1.815-.392-2.43.022-1.504 1.016-1.526 4.107-1.526 4.137a.459.459 0 0 1-.458.459z" />
          <path d="M9.667 33.96a.459.459 0 0 1-.459-.459c0-.03-.022-3.121-1.527-4.137-.613-.414-1.43-.42-2.429-.022a.458.458 0 1 1-.34-.85c1.3-.522 2.407-.483 3.284.113 1.908 1.29 1.929 4.75 1.929 4.896a.458.458 0 0 1-.458.459zM9.667 28.458a.46.46 0 0 1-.459-.457c-.002-.46-.152-1.761-.824-2.244-.327-.235-.76-.26-1.323-.072a.458.458 0 1 1-.29-.87c.851-.284 1.576-.216 2.15.2 1.19.857 1.204 2.898 1.204 2.985a.46.46 0 0 1-.458.459z" />
          <path d="M9.667 28.458A.458.458 0 0 1 9.208 28c0-.087.014-2.128 1.203-2.985.576-.417 1.299-.486 2.151-.2a.46.46 0 0 1-.29.87c-.562-.189-.996-.163-1.325.073-.674.486-.822 1.783-.822 2.242a.458.458 0 0 1-.458.458zM5.999 33.96a1.377 1.377 0 0 1-1.375-1.376c0-.758.617-1.375 1.375-1.375s1.375.617 1.375 1.375c0 .759-.616 1.376-1.375 1.376zm0-1.834a.46.46 0 0 0 0 .917.46.46 0 0 0 0-.917zM13.334 33.96a1.377 1.377 0 0 1-1.375-1.376c0-.758.617-1.375 1.375-1.375s1.375.617 1.375 1.375c0 .759-.617 1.376-1.375 1.376zm0-1.834a.46.46 0 0 0 0 .917.46.46 0 0 0 0-.917zM9.667 24.791a.458.458 0 0 1-.459-.458v-1.834a.458.458 0 1 1 .917 0v1.834a.458.458 0 0 1-.458.458z" />
        </g>
        <path d="M35.339 2.786h-14.67a.458.458 0 1 1 0-.917h14.67a.458.458 0 1 1 0 .917zM33.505 5.537H20.669a.458.458 0 1 1 0-.917h12.836a.458.458 0 1 1 0 .917zM34.422 8.288H20.669a.458.458 0 1 1 0-.917h13.753a.458.458 0 1 1 0 .917zM35.339 11.038h-14.67a.458.458 0 1 1 0-.917h14.67a.458.458 0 1 1 0 .917zM35.339 13.789h-14.67a.458.458 0 1 1 0-.917h14.67a.458.458 0 1 1 0 .917zM35.339 16.54h-14.67a.458.458 0 1 1 0-.918h14.67a.458.458 0 1 1 0 .917z" />
      </g>
    </g>
  </svg>
