  <svg
    xmlns="http://www.w3.org/2000/svg"
    width="28"
    height="28"
    viewBox="0 0 28 28"
  >
    <g fill="none" fillRule="evenodd">
      <path d="M-2-2h32v32H-2z" />
      <path
        fill="#FFF"
        fillRule="nonzero"
        d="M14 27.793C6.382 27.793.207 21.618.207 14 .207 6.382 6.382.207 14 .207 21.618.207 27.793 6.382 27.793 14c0 7.618-6.175 13.793-13.793 13.793zm0-1.103c7.009 0 12.69-5.681 12.69-12.69 0-7.009-5.681-12.69-12.69-12.69C6.991 1.31 1.31 6.991 1.31 14c0 7.009 5.681 12.69 12.69 12.69zM9.07 21.98a.555.555 0 0 1 .1.047A9.38 9.38 0 0 0 23.38 14c0-5.18-4.2-9.38-9.38-9.38a.573.573 0 0 1-.116-.011A9.374 9.374 0 0 0 5.96 9.158a.552.552 0 0 1-.945-.569c2.982-4.962 9.421-6.568 14.384-3.586a10.485 10.485 0 0 1 4.991 10.398c-.685 5.127-5.076 9.082-10.39 9.082-5.79 0-10.483-4.694-10.483-10.483a.552.552 0 0 1 1.104 0 9.373 9.373 0 0 0 4.45 7.981zm10.16-4.894a.474.474 0 0 1 .026-.053 6.069 6.069 0 0 0-7.026-8.838 6.068 6.068 0 0 0-4.03 7.578c.006.02.011.041.015.061a6.047 6.047 0 0 0 2.75 3.42.552.552 0 0 1-.551.956 7.172 7.172 0 0 1 2.39-13.283A7.173 7.173 0 0 1 16.1 20.859a.552.552 0 1 1-.323-1.055 6.047 6.047 0 0 0 3.451-2.717zM11.24 14a.552.552 0 0 1 1.104 0A1.655 1.655 0 1 0 14 12.345a.552.552 0 0 1 0-1.104A2.759 2.759 0 1 1 11.241 14z"
      />
    </g>
  </svg>
