<svg
    xmlns="http://www.w3.org/2000/svg"
    width="32"
    height="29"
    viewBox="0 0 32 29"
  >
    <g fill="none" fillRule="nonzero">
      <path
        fill="#94C1FF"
        d="M22.744 14.25l-2.498-2.497 2.498-2.498 2.497 2.498z"
      />
      <path
        fill="#D7E9FF"
        d="M21.245 11.752l1.998-1.998-.5-.499-2.497 2.497 2.497 2.498.5-.5z"
      />
      <path
        fill="#5C9EFF"
        d="M24.242 11.752l-1.5-1.498.5-.5 1.999 1.998-1.998 1.998-.5-.499z"
      />
      <path
        fill="#94C1FF"
        d="M7.76 22.862l.62-.62-.62-.62v-.879H6.88l-.62-.62-.62.62h-.879v.878l-.62.62.62.621v.879h.878l.62.62.621-.62h.878z"
      />
      <path
        fill="#D7E9FF"
        d="M5.761 23.74v-.878l-.62-.62.62-.62v-.879h-.999v.878l-.62.62.62.621v.879h.878z"
      />
      <path
        fill="#5C9EFF"
        d="M6.76 20.743v.878l.62.62-.62.621v.879h.998v-.879l.62-.62-.62-.62v-.879H6.88z"
      />
      <path
        fill="#94C1FF"
        d="M19.247 7.507a.749.749 0 1 1-1.498 0 .749.749 0 0 1 1.498 0z"
      />
      <path
        fill="#D7E9FF"
        d="M18.248 7.507c0-.326.21-.6.5-.704a.743.743 0 0 0-.25-.045.75.75 0 0 0 0 1.498.743.743 0 0 0 .25-.046.747.747 0 0 1-.5-.703z"
      />
      <path
        fill="#94C1FF"
        d="M27.738 7.507a.749.749 0 1 1-1.498 0 .749.749 0 0 1 1.498 0zM19.247 15.998a.75.75 0 1 1-1.498 0 .75.75 0 0 1 1.498 0zM27.738 15.998a.75.75 0 1 1-1.498 0 .75.75 0 0 1 1.498 0z"
      />
      <path
        fill="#D7E9FF"
        d="M26.74 7.507c0-.326.209-.6.499-.704a.743.743 0 0 0-.25-.045.75.75 0 0 0 0 1.498.743.743 0 0 0 .25-.046.747.747 0 0 1-.5-.703zM26.74 15.998c0-.326.209-.6.499-.703a.73.73 0 0 0-.25-.046.75.75 0 0 0 0 1.498.759.759 0 0 0 .25-.045.748.748 0 0 1-.5-.704zM18.248 15.998c0-.326.21-.6.5-.703a.731.731 0 0 0-.25-.046.75.75 0 0 0 0 1.498.759.759 0 0 0 .25-.045.748.748 0 0 1-.5-.704z"
      />
      <g fill="#116FFF">
        <path d="M7.259 10.008a.248.248 0 0 1-.177-.073l-1-1.003a.25.25 0 1 1 .355-.353l.999 1.003a.25.25 0 0 1-.177.426z" />
        <path d="M5.261 10.008a.25.25 0 0 1-.177-.426l.999-1.003a.25.25 0 0 1 .354.353l-.999 1.003a.25.25 0 0 1-.177.073zM6.26 2.012a.25.25 0 0 1-.176-.427l.998-.994a.25.25 0 0 1 .353.354l-.999.995a.25.25 0 0 1-.176.072z" />
        <path d="M6.26 2.012a.25.25 0 0 1-.177-.072L5.084.945A.25.25 0 0 1 5.437.59l1 .994a.25.25 0 0 1-.177.427z" />
        <path d="M6.26 10.504a.25.25 0 0 1-.25-.25V.264a.25.25 0 1 1 .5 0v9.99a.25.25 0 0 1-.25.25z" />
        <g>
          <path d="M1.76 6.508a.25.25 0 0 1-.176-.427l1.003-1a.25.25 0 1 1 .353.355l-1.003.999a.25.25 0 0 1-.177.073z" />
          <path d="M2.763 5.508a.248.248 0 0 1-.176-.072l-1.003-.999a.25.25 0 0 1 .352-.354l1.003.999a.25.25 0 0 1-.176.427zM10.75 6.508a.25.25 0 0 1-.176-.074l-.995-1a.25.25 0 1 1 .354-.351l.995.999a.25.25 0 0 1-.177.426z" />
          <path d="M9.756 5.508a.249.249 0 0 1-.177-.426l.995-.998a.25.25 0 0 1 .354.353l-.995.998a.25.25 0 0 1-.177.074z" />
          <path d="M11.255 5.509h-9.99a.25.25 0 1 1 0-.5h9.99a.25.25 0 1 1 0 .5z" />
        </g>
        <g>
          <path d="M9.257 3.51h-.999a.25.25 0 1 1 0-.499h.999a.25.25 0 1 1 0 .5z" />
          <path d="M8.258 3.51a.25.25 0 0 1-.25-.249v-.999a.25.25 0 1 1 .5 0v.999a.25.25 0 0 1-.25.25zM4.262 8.505a.25.25 0 0 1-.25-.25v-.999a.25.25 0 1 1 .5 0v1a.25.25 0 0 1-.25.25z" />
          <path d="M4.262 7.507h-1a.25.25 0 1 1 0-.5h1a.25.25 0 1 1 0 .5z" />
          <path d="M3.263 8.506a.249.249 0 0 1-.177-.427l1.998-1.998a.25.25 0 1 1 .353.354L3.44 8.433a.249.249 0 0 1-.176.073zM7.259 4.51a.249.249 0 0 1-.177-.427L9.08 2.085a.25.25 0 1 1 .353.354L7.435 4.437a.249.249 0 0 1-.176.073z" />
        </g>
        <g>
          <path d="M4.261 3.51h-.998a.25.25 0 1 1 0-.499h.998a.25.25 0 1 1 0 .5z" />
          <path d="M4.262 3.51a.25.25 0 0 1-.25-.249v-.999a.25.25 0 1 1 .5 0v.999a.25.25 0 0 1-.25.25zM8.258 8.505a.25.25 0 0 1-.25-.25v-.999a.25.25 0 1 1 .5 0v1a.25.25 0 0 1-.25.25z" />
          <path d="M9.257 7.507h-1a.25.25 0 1 1 0-.5h1a.25.25 0 1 1 0 .5z" />
          <path d="M9.257 8.506a.249.249 0 0 1-.177-.073L7.082 6.435a.25.25 0 1 1 .353-.354L9.433 8.08a.25.25 0 0 1-.176.427zM5.26 4.51a.249.249 0 0 1-.176-.073L3.086 2.439a.25.25 0 1 1 .353-.354l1.998 1.998a.25.25 0 0 1-.176.427z" />
        </g>
        <g>
          <path d="M26.989 16.997a1 1 0 0 1-.999-.999 1 1 0 0 1 .999-.999 1 1 0 0 1 0 1.998zm0-1.498a.5.5 0 1 0 0 1 .5.5 0 0 0 0-1z" />
          <path d="M26.46 15.718a.249.249 0 0 1-.177-.073l-1.718-1.718a.25.25 0 1 1 .353-.353l1.718 1.718a.25.25 0 0 1-.177.426zM19.247 12.002h-5.495a.25.25 0 1 1 0-.5h5.495a.25.25 0 1 1 0 .5zM31.734 12.002H26.24a.25.25 0 1 1 0-.5h5.494a.25.25 0 1 1 0 .5z" />
          <path d="M29.237 12.002a.249.249 0 0 1-.177-.426l1.499-1.499a.25.25 0 1 1 .353.354l-1.499 1.498a.249.249 0 0 1-.176.073z" />
          <path d="M30.735 13.5a.249.249 0 0 1-.176-.072l-1.499-1.499a.25.25 0 1 1 .353-.353l1.499 1.498a.25.25 0 0 1-.177.427zM16.25 12.002a.25.25 0 0 1-.177-.073l-1.498-1.498a.25.25 0 1 1 .353-.354l1.498 1.499a.25.25 0 0 1-.176.426z" />
          <path d="M14.751 13.5a.249.249 0 0 1-.176-.426l1.498-1.498a.25.25 0 1 1 .353.353l-1.498 1.499a.25.25 0 0 1-.177.073zM22.743 8.506a.25.25 0 0 1-.25-.25V2.762a.25.25 0 1 1 .5 0v5.494a.25.25 0 0 1-.25.25zM22.743 20.993a.25.25 0 0 1-.25-.25V15.25a.25.25 0 1 1 .5 0v5.494a.25.25 0 0 1-.25.25z" />
          <path d="M24.242 19.994a.249.249 0 0 1-.177-.073l-1.498-1.499a.25.25 0 1 1 .353-.353l1.498 1.499a.25.25 0 0 1-.176.426z" />
          <path d="M21.245 19.994a.25.25 0 0 1-.177-.426l1.499-1.499a.25.25 0 1 1 .353.353l-1.499 1.499a.249.249 0 0 1-.176.073zM22.743 5.509a.25.25 0 0 1-.177-.426l1.5-1.499a.25.25 0 1 1 .352.353L22.92 5.436a.249.249 0 0 1-.177.073z" />
          <path d="M22.743 5.509a.249.249 0 0 1-.176-.073l-1.499-1.499a.25.25 0 1 1 .353-.353l1.499 1.499a.25.25 0 0 1-.177.426zM22.743 14.5a.249.249 0 0 1-.176-.073l-2.498-2.498a.25.25 0 0 1 0-.353l2.498-2.498a.25.25 0 0 1 .353 0l2.497 2.498a.25.25 0 0 1 0 .353l-2.497 2.498a.249.249 0 0 1-.177.073zM20.6 11.752l2.144 2.145 2.145-2.145-2.145-2.144-2.144 2.144z" />
          <g>
            <path d="M26.989 8.506a1 1 0 0 1 0-1.998 1 1 0 0 1 0 1.998zm0-1.499a.5.5 0 1 0 .001 1 .5.5 0 0 0-.001-1z" />
            <path d="M24.741 10.004a.249.249 0 0 1-.176-.426l1.718-1.718a.25.25 0 1 1 .353.353l-1.718 1.718a.249.249 0 0 1-.177.073z" />
          </g>
          <g>
            <path d="M18.498 16.997a1 1 0 0 1-.999-.999 1 1 0 1 1 .999.999zm0-1.498a.5.5 0 1 0 0 1 .5.5 0 0 0 0-1z" />
            <path d="M19.027 15.718a.25.25 0 0 1-.176-.426l1.718-1.718a.25.25 0 1 1 .353.353l-1.718 1.718a.249.249 0 0 1-.177.073z" />
          </g>
          <g>
            <path d="M18.497 8.506a1 1 0 0 1 0-1.998 1 1 0 0 1 0 1.998zm0-1.499a.5.5 0 1 0 .002 1 .5.5 0 0 0-.002-1z" />
            <path d="M20.745 10.004a.249.249 0 0 1-.176-.073L18.85 8.213a.25.25 0 1 1 .353-.353l1.718 1.718a.25.25 0 0 1-.177.426z" />
          </g>
          <path d="M22.743 13.001a.25.25 0 0 1-.25-.25v-1.997a.25.25 0 1 1 .5 0v1.998a.25.25 0 0 1-.25.25z" />
          <path d="M23.742 12.002h-1.998a.25.25 0 1 1 0-.5h1.998a.25.25 0 1 1 0 .5zM27.004 16.248a.252.252 0 0 1-.252-.25c0-.138.11-.25.247-.25h.005a.25.25 0 0 1 0 .5zM27.004 7.756a.252.252 0 0 1-.252-.25c0-.137.11-.249.247-.249h.005a.25.25 0 0 1 0 .5zM18.513 7.756a.252.252 0 0 1-.253-.25c0-.137.11-.249.247-.249h.006a.25.25 0 0 1 0 .5zM18.513 16.248a.252.252 0 0 1-.253-.25c0-.138.11-.25.247-.25h.006a.25.25 0 0 1 0 .5z" />
        </g>
        <g>
          <path d="M6.26 24.61a.25.25 0 0 1-.177-.073l-.547-.547H4.76a.25.25 0 0 1-.25-.25v-.774l-.547-.548a.25.25 0 0 1 0-.353l.548-.547v-.775a.25.25 0 0 1 .25-.25h.774l.547-.547a.25.25 0 0 1 .353 0l.548.548h.774a.25.25 0 0 1 .25.25v.774l.548.547a.25.25 0 0 1 0 .354l-.548.547v.774a.25.25 0 0 1-.25.25h-.774l-.548.547a.249.249 0 0 1-.176.074zM5.01 23.49h.628a.25.25 0 0 1 .177.074l.444.444.444-.444a.25.25 0 0 1 .176-.073h.629v-.629a.25.25 0 0 1 .073-.176l.444-.444-.444-.444a.25.25 0 0 1-.073-.177v-.628H6.88a.25.25 0 0 1-.176-.073l-.444-.444-.444.444a.25.25 0 0 1-.177.073h-.628v.628a.25.25 0 0 1-.073.177l-.444.444.444.444a.25.25 0 0 1 .073.176v.629zM3.263 22.492H.266a.25.25 0 1 1 0-.5h2.997a.25.25 0 1 1 0 .5z" />
          <path d="M.765 23.49a.25.25 0 0 1-.177-.426l1-.999a.25.25 0 1 1 .353.354l-1 .998a.249.249 0 0 1-.176.074z" />
          <path d="M1.764 22.492a.25.25 0 0 1-.176-.073l-1-1a.25.25 0 1 1 .354-.353l.999 1a.25.25 0 0 1-.177.426zM12.254 22.492H9.257a.25.25 0 1 1 0-.5h2.997a.25.25 0 1 1 0 .5z" />
          <path d="M10.755 22.492a.25.25 0 0 1-.176-.427l.999-.999a.25.25 0 1 1 .353.354l-1 .999a.249.249 0 0 1-.176.073z" />
          <path d="M11.754 23.49a.249.249 0 0 1-.176-.072l-1-1a.25.25 0 1 1 .354-.352l.999.998a.25.25 0 0 1-.177.427zM2.022 26.73a.25.25 0 0 1-.177-.426l2.12-2.12a.25.25 0 1 1 .352.354l-2.119 2.119a.25.25 0 0 1-.176.073z" />
          <path d="M3.081 27.084a.25.25 0 0 1-.25-.25V25.42a.25.25 0 1 1 .5 0v1.414a.25.25 0 0 1-.25.25z" />
          <path d="M1.669 25.67a.25.25 0 1 1 0-.499H3.08a.25.25 0 1 1 0 .5H1.67zM8.38 20.373a.25.25 0 0 1-.177-.426l2.12-2.12a.25.25 0 1 1 .352.353l-2.12 2.12a.249.249 0 0 1-.176.073z" />
          <path d="M9.44 19.313a.25.25 0 0 1-.25-.25V17.65a.25.25 0 1 1 .499 0v1.413a.25.25 0 0 1-.25.25z" />
          <path d="M10.852 19.313H9.439a.25.25 0 1 1 0-.5h1.413a.25.25 0 1 1 0 .5z" />
          <g>
            <path d="M6.26 28.486a.25.25 0 0 1-.25-.25v-2.997a.25.25 0 1 1 .5 0v2.997a.25.25 0 0 1-.25.25z" />
            <path d="M7.26 27.986a.249.249 0 0 1-.177-.073l-1-1a.25.25 0 1 1 .353-.353l1 1a.25.25 0 0 1-.176.426z" />
            <path d="M5.262 27.986a.25.25 0 0 1-.177-.426l.998-1a.25.25 0 0 1 .354.354l-.998.999a.249.249 0 0 1-.177.073z" />
          </g>
          <g>
            <path d="M6.26 19.495a.25.25 0 0 1-.249-.25v-2.998a.25.25 0 1 1 .5 0v2.998a.25.25 0 0 1-.25.25z" />
            <path d="M6.26 17.996a.25.25 0 0 1-.176-.073l-.999-1a.25.25 0 1 1 .353-.352l1 .999a.25.25 0 0 1-.177.426z" />
            <path d="M6.26 17.996a.25.25 0 0 1-.176-.426l1-1a.25.25 0 1 1 .352.354l-.999.999a.25.25 0 0 1-.176.073z" />
          </g>
          <g>
            <path d="M10.499 26.73a.25.25 0 0 1-.177-.074l-2.119-2.119a.25.25 0 1 1 .353-.353l2.12 2.12a.25.25 0 0 1-.177.426z" />
            <path d="M10.852 25.67H9.438a.25.25 0 1 1 0-.5h1.414a.25.25 0 1 1 0 .5z" />
            <path d="M9.44 27.083a.25.25 0 0 1-.25-.25l-.002-1.412a.25.25 0 0 1 .5-.001l.001 1.413a.25.25 0 0 1-.25.25z" />
          </g>
          <g>
            <path d="M4.142 20.372a.249.249 0 0 1-.177-.073l-2.12-2.12a.25.25 0 1 1 .353-.353l2.12 2.12a.25.25 0 0 1-.176.426z" />
            <path d="M3.082 19.312H1.669a.25.25 0 1 1 0-.5h1.413a.25.25 0 1 1 0 .5z" />
            <path d="M3.082 19.312a.25.25 0 0 1-.25-.25V17.65a.25.25 0 1 1 .5 0v1.413a.25.25 0 0 1-.25.25z" />
          </g>
          <path d="M5.76 22.993a.25.25 0 0 1-.177-.426l1.001-1.001a.25.25 0 1 1 .353.353l-1 1a.249.249 0 0 1-.177.074z" />
          <path d="M6.76 22.991a.25.25 0 0 1-.177-.073l-1-.999a.25.25 0 1 1 .354-.353l.999.999a.25.25 0 0 1-.177.426z" />
        </g>
      </g>
    </g>
  </svg>
