 <svg
    xmlns="http://www.w3.org/2000/svg"
    width="43"
    height="56"
    viewBox="0 0 43 56"
  >
    <g fill="none" fillRule="nonzero">
      <path fill="#D7E9FF" d="M.464.473h20.973v55.054H.464z" />
      <path
        fill="#FFF"
        d="M.464.473h5.243v55.054H.464zM16.194.473h5.243v55.054h-5.243z"
      />
      <path fill="#D7E9FF" d="M21.438.473h20.973v41.946H21.438z" />
      <path
        fill="#FFF"
        d="M21.438.473h5.243v41.946h-5.243zM37.167.473h5.243v41.946h-5.243zM38.915 42.419v3.496a1.748 1.748 0 0 0 3.495 0v-3.496h-3.495z"
      />
      <path
        fill="#D7E9FF"
        d="M40.663 45.915a1.748 1.748 0 0 1-1.748-1.748v1.748a1.748 1.748 0 0 0 3.495 0v-1.748c0 .965-.782 1.748-1.747 1.748z"
      />
      <path
        fill="#FFF"
        d="M38.915 45.915v-3.496H19.69v3.496c0 .965.782 1.747 1.747 1.747h19.226a1.748 1.748 0 0 1-1.748-1.747z"
      />
      <path
        fill="#D7E9FF"
        d="M39.157 46.788h-17.72a1.748 1.748 0 0 1-1.747-1.747v.873c0 .966.782 1.748 1.747 1.748h19.226a1.74 1.74 0 0 1-1.506-.874z"
      />
      <path
        fill="#94C1FF"
        d="M24.933 17.076h13.982v3.496H24.933zM31.05 26.689h1.748v5.243H31.05z"
      />
      <circle cx="10.951" cy="16.64" r="1" fill="#FFF" />
      <path
        fill="#FFF"
        d="M11.825 39.36a.874.874 0 1 1-1.747.001.874.874 0 0 1 1.747 0zM32.798 39.36a.873.873 0 1 1-1.747.001.873.873 0 0 1 1.747 0zM9.713 5.28l1.238-1.24 1.238 1.24-1.238 1.237zM9.712 28l1.239-1.238L12.189 28l-1.238 1.238zM9.712 50.72l1.239-1.238 1.238 1.239-1.238 1.238zM30.686 5.28l1.238-1.239 1.238 1.238-1.238 1.239z"
      />
      <path fill="#D7E9FF" d="M24.933 17.076h13.982v1H24.933z" />
      <path fill="#5C9EFF" d="M24.933 19.698h13.982v1H24.933z" />
      <path fill="#D7E9FF" d="M31.05 26.689h1v5.243h-1z" />
      <path fill="#FFF" d="M19.69 42.419h19.225v1H19.69z" />
      <g fill="#116FFF">
        <path d="M3.112 52.906a.44.44 0 0 1-.441-.437c0-.242.191-.437.433-.437h.008a.437.437 0 1 1 0 .874zM3.112 49.41a.44.44 0 0 1-.441-.437c0-.241.191-.437.433-.437h.008a.437.437 0 1 1 0 .874zM3.112 45.915a.44.44 0 0 1-.441-.437c0-.242.191-.437.433-.437h.008a.437.437 0 1 1 0 .874zM3.112 42.419a.44.44 0 0 1-.441-.437c0-.241.191-.437.433-.437h.008a.437.437 0 1 1 0 .874zM3.112 38.923a.44.44 0 0 1-.441-.436c0-.242.191-.437.433-.437h.008a.437.437 0 1 1 0 .873zM3.112 35.428a.44.44 0 0 1-.441-.437c0-.241.191-.437.433-.437h.008a.437.437 0 1 1 0 .874zM3.112 31.932a.44.44 0 0 1-.441-.436c0-.242.191-.437.433-.437h.008a.437.437 0 1 1 0 .873zM3.112 28.437A.44.44 0 0 1 2.671 28c0-.241.191-.437.433-.437h.008a.437.437 0 1 1 0 .874zM3.112 24.941a.44.44 0 0 1-.441-.437c0-.241.191-.436.433-.436h.008a.437.437 0 1 1 0 .873zM3.112 21.446a.44.44 0 0 1-.441-.437c0-.242.191-.437.433-.437h.008a.437.437 0 1 1 0 .874zM3.112 17.95a.44.44 0 0 1-.441-.437c0-.241.191-.437.433-.437h.008a.437.437 0 1 1 0 .874zM3.112 14.455a.44.44 0 0 1-.441-.437c0-.242.191-.437.433-.437h.008a.437.437 0 1 1 0 .874zM3.112 10.96a.44.44 0 0 1-.441-.438c0-.241.191-.437.433-.437h.008a.437.437 0 1 1 0 .874zM3.112 7.464a.44.44 0 0 1-.441-.437c0-.242.191-.437.433-.437h.008a.437.437 0 1 1 0 .874zM3.112 3.968a.44.44 0 0 1-.441-.437c0-.241.191-.437.433-.437h.008a.437.437 0 1 1 0 .874zM18.842 52.906a.44.44 0 0 1-.441-.437c0-.242.19-.437.432-.437h.009a.437.437 0 1 1 0 .874zM18.842 49.41a.44.44 0 0 1-.441-.437c0-.241.19-.437.432-.437h.009a.437.437 0 1 1 0 .874zM18.842 38.923a.44.44 0 0 1-.441-.436c0-.242.19-.437.432-.437h.009a.437.437 0 1 1 0 .873zM18.842 35.428a.44.44 0 0 1-.441-.437c0-.241.19-.437.432-.437h.009a.437.437 0 1 1 0 .874zM18.842 31.932a.44.44 0 0 1-.441-.436c0-.242.19-.437.432-.437h.009a.437.437 0 1 1 0 .873zM18.842 28.437A.44.44 0 0 1 18.4 28c0-.241.19-.437.432-.437h.009a.437.437 0 1 1 0 .874zM18.842 24.941a.44.44 0 0 1-.441-.437c0-.241.19-.436.432-.436h.009a.437.437 0 1 1 0 .873zM18.842 21.446a.44.44 0 0 1-.441-.437c0-.242.19-.437.432-.437h.009a.437.437 0 1 1 0 .874zM18.842 17.95a.44.44 0 0 1-.441-.437c0-.241.19-.437.432-.437h.009a.437.437 0 1 1 0 .874zM18.842 14.455a.44.44 0 0 1-.441-.437c0-.242.19-.437.432-.437h.009a.437.437 0 1 1 0 .874zM18.842 10.96a.44.44 0 0 1-.441-.438c0-.241.19-.437.432-.437h.009a.437.437 0 1 1 0 .874zM18.842 7.464a.44.44 0 0 1-.441-.437c0-.242.19-.437.432-.437h.009a.437.437 0 1 1 0 .874zM18.842 3.968a.44.44 0 0 1-.441-.437c0-.241.19-.437.432-.437h.009a.437.437 0 1 1 0 .874zM.464 55.964a.437.437 0 0 1-.437-.437V.473a.437.437 0 1 1 .874 0v55.054a.437.437 0 0 1-.437.437zM21.438 41.982a.437.437 0 0 1-.437-.437V.473a.437.437 0 1 1 .873 0v41.072a.437.437 0 0 1-.436.437z" />
        <path d="M21.438.91H.463a.437.437 0 1 1 0-.874h20.974a.437.437 0 1 1 0 .874zM21.438 55.964H.463a.437.437 0 1 1 0-.874h20.974a.437.437 0 1 1 0 .874z" />
        <path d="M5.708 55.09a.437.437 0 0 1-.437-.437V1.347a.437.437 0 1 1 .874 0v53.306a.437.437 0 0 1-.437.437zM16.194 55.09a.437.437 0 0 1-.437-.437V1.347a.437.437 0 1 1 .874 0v53.306a.437.437 0 0 1-.437.437zM10.951 7.027a.436.436 0 0 1-.309-.128l-1.31-1.31a.437.437 0 0 1 0-.619l1.31-1.31c.17-.171.447-.171.618 0l1.31 1.31c.171.171.171.447 0 .618l-1.31 1.31a.436.436 0 0 1-.309.129zm-.693-1.748l.693.693.693-.693-.693-.693-.693.693zM10.951 52.469a.436.436 0 0 1-.309-.128l-1.31-1.311a.437.437 0 0 1 0-.618l1.31-1.31c.17-.171.447-.171.618 0l1.31 1.31c.171.17.171.447 0 .618l-1.31 1.31a.435.435 0 0 1-.309.129zm-.693-1.748l.693.693.693-.693-.693-.693-.693.693zM10.951 29.748a.436.436 0 0 1-.309-.128l-1.31-1.311a.437.437 0 0 1 0-.618l1.31-1.31c.17-.171.447-.171.618 0l1.31 1.31c.171.17.171.447 0 .618l-1.31 1.31a.435.435 0 0 1-.309.129zM10.258 28l.693.693.693-.693-.693-.693-.693.693zM10.951 17.95c-.723 0-1.31-.588-1.31-1.31 0-.723.587-1.311 1.31-1.311.723 0 1.31.588 1.31 1.31 0 .723-.587 1.311-1.31 1.311zm0-1.747a.437.437 0 1 0 0 .874.437.437 0 0 0 0-.874zM10.951 40.671c-.723 0-1.31-.588-1.31-1.31 0-.723.587-1.311 1.31-1.311.723 0 1.31.588 1.31 1.31 0 .723-.587 1.311-1.31 1.311zm0-1.748a.437.437 0 1 0 .001.875.437.437 0 0 0-.001-.875zM32.798 39.797a.437.437 0 0 1-.437-.437.438.438 0 0 0-.874 0 .437.437 0 1 1-.874 0 1.312 1.312 0 0 1 2.621 0 .437.437 0 0 1-.436.437zM24.085 31.932a.44.44 0 0 1-.44-.436c0-.242.19-.437.431-.437h.009a.436.436 0 1 1 0 .873zM24.085 35.428a.44.44 0 0 1-.44-.437c0-.241.19-.437.431-.437h.009a.436.436 0 1 1 0 .874zM24.085 38.923a.44.44 0 0 1-.44-.436c0-.242.19-.437.431-.437h.009a.436.436 0 1 1 0 .873zM24.085 28.437a.44.44 0 0 1-.44-.437c0-.241.19-.437.431-.437h.009a.436.436 0 1 1 0 .874zM24.085 24.941a.44.44 0 0 1-.44-.437c0-.241.19-.436.431-.436h.009a.436.436 0 1 1 0 .873zM24.085 14.455a.44.44 0 0 1-.44-.437c0-.242.19-.437.431-.437h.009a.436.436 0 1 1 0 .874zM24.085 10.96a.44.44 0 0 1-.44-.438c0-.241.19-.437.431-.437h.009a.436.436 0 1 1 0 .874zM24.085 7.464a.44.44 0 0 1-.44-.437c0-.242.19-.437.431-.437h.009a.436.436 0 1 1 0 .874zM24.085 3.968a.44.44 0 0 1-.44-.437c0-.241.19-.437.431-.437h.009a.436.436 0 1 1 0 .874zM39.815 31.932a.44.44 0 0 1-.44-.436c0-.242.19-.437.431-.437h.009a.436.436 0 1 1 0 .873zM39.815 35.428a.44.44 0 0 1-.44-.437c0-.241.19-.437.431-.437h.009a.436.436 0 1 1 0 .874zM39.815 38.923a.44.44 0 0 1-.44-.436c0-.242.19-.437.431-.437h.009a.436.436 0 1 1 0 .873zM39.815 28.437a.44.44 0 0 1-.44-.437c0-.241.19-.437.431-.437h.009a.436.436 0 1 1 0 .874zM39.815 24.941a.44.44 0 0 1-.44-.437c0-.241.19-.436.431-.436h.009a.436.436 0 1 1 0 .873zM39.815 14.455a.44.44 0 0 1-.44-.437c0-.242.19-.437.431-.437h.009a.436.436 0 1 1 0 .874zM39.815 10.96a.44.44 0 0 1-.44-.438c0-.241.19-.437.431-.437h.009a.436.436 0 1 1 0 .874zM39.815 7.464a.44.44 0 0 1-.44-.437c0-.242.19-.437.431-.437h.009a.436.436 0 1 1 0 .874zM39.815 3.968a.44.44 0 0 1-.44-.437c0-.241.19-.437.431-.437h.009a.436.436 0 1 1 0 .874zM42.41 46.351a.437.437 0 0 1-.436-.436V.473a.437.437 0 1 1 .874 0v45.442a.437.437 0 0 1-.437.436z" />
        <path d="M42.41.91H21.439a.437.437 0 1 1 0-.874H42.41a.437.437 0 1 1 0 .874z" />
        <path d="M26.68 15.766a.437.437 0 0 1-.436-.437V1.347a.437.437 0 1 1 .874 0v13.982a.437.437 0 0 1-.437.437zM26.68 41.982a.437.437 0 0 1-.436-.437V22.32a.437.437 0 1 1 .874 0v19.225a.437.437 0 0 1-.437.437zM37.167 41.982a.437.437 0 0 1-.437-.437V24.068a.437.437 0 1 1 .874 0v17.477a.437.437 0 0 1-.437.437zM37.167 15.766a.437.437 0 0 1-.437-.437V1.347a.437.437 0 1 1 .874 0v13.982a.437.437 0 0 1-.437.437zM31.924 7.027a.436.436 0 0 1-.309-.128l-1.31-1.31a.437.437 0 0 1 0-.619l1.31-1.31c.17-.171.447-.171.618 0l1.31 1.31c.172.171.172.447 0 .618l-1.31 1.31a.435.435 0 0 1-.309.129zm-.693-1.748l.693.693.693-.693-.693-.693-.693.693zM40.663 48.1H21.437a.437.437 0 1 1 0-.875h19.226a.437.437 0 1 1 0 .874z" />
        <path d="M40.663 48.1a2.187 2.187 0 0 1-2.185-2.185.437.437 0 1 1 .874 0c0 .722.588 1.31 1.31 1.31.723 0 1.312-.588 1.312-1.31a.437.437 0 1 1 .873 0c0 1.205-.98 2.184-2.184 2.184zM21.438 48.1a2.187 2.187 0 0 1-2.185-2.185.437.437 0 1 1 .874 0c0 .722.588 1.31 1.31 1.31a.437.437 0 1 1 0 .874z" />
        <path d="M38.915 46.351a.437.437 0 0 1-.437-.436v-3.496a.437.437 0 1 1 .874 0v3.496a.437.437 0 0 1-.437.436zM19.69 46.351a.437.437 0 0 1-.437-.436v-3.496a.437.437 0 1 1 .874 0v3.496a.437.437 0 0 1-.437.436z" />
        <path d="M38.915 42.856H19.69a.437.437 0 1 1 0-.874h19.225a.437.437 0 1 1 0 .874zM21.438 55.964a.437.437 0 0 1-.437-.437v-5.243a.437.437 0 1 1 .873 0v5.243a.437.437 0 0 1-.436.437z" />
        <g>
          <path d="M38.915 21.009H24.933a.437.437 0 0 1-.437-.437v-3.495c0-.242.196-.437.437-.437h13.982c.242 0 .437.195.437.437v3.495a.437.437 0 0 1-.437.437zm-13.545-.874h13.108v-2.622H25.37v2.622zM40.663 21.883a.437.437 0 0 1-.437-.437v-2.622a.437.437 0 1 1 .874 0v2.622a.437.437 0 0 1-.437.437z" />
          <path d="M31.924 23.63a.436.436 0 0 1-.085-.865l8.738-1.747a.436.436 0 1 1 .171.856l-8.739 1.748a.429.429 0 0 1-.085.009z" />
          <path d="M31.924 27.126a.437.437 0 0 1-.437-.437v-3.495a.437.437 0 1 1 .874 0v3.495a.437.437 0 0 1-.437.437z" />
          <path d="M32.798 32.37H31.05a.437.437 0 0 1-.437-.438V26.69c0-.241.196-.437.437-.437h1.748c.241 0 .437.196.437.437v5.243a.437.437 0 0 1-.437.437zm-1.31-.874h.873v-4.37h-.874v4.37z" />
        </g>
      </g>
    </g>
  </svg>
