  <svg
    xmlns="http://www.w3.org/2000/svg"
    width="128"
    height="128"
    viewBox="0 0 128 128"
  >
    <g fill="none" fillRule="nonzero">
      <path
        fill="#A4D5F3"
        d="M119.35 87.162l-8.332-13.46c.034-.158.044-.324.076-.482L124 64l-12.906-9.218c-.008-.042-.01-.084-.02-.124l8.442-13.418-15.446-3.634c-.088-.132-.158-.276-.248-.408l2.604-15.622-15.622 2.604c-.042-.028-.084-.048-.124-.076L87.162 8.652l-13.46 8.332c-.158-.034-.324-.044-.482-.076L64 4l-9.218 12.906c-.042.008-.084.01-.124.018L41.24 8.484 37.606 23.93c-.132.088-.276.158-.408.248l-15.622-2.604 2.604 15.622c-.028.042-.048.084-.076.124L8.652 40.838l8.332 13.46c-.034.158-.044.324-.076.482L4 64l12.906 9.218c.008.042.01.084.018.124L8.484 86.76l15.446 3.634c.088.132.158.276.248.408l-2.604 15.622 15.622-2.604c.042.028.084.048.124.076l3.52 15.452 13.46-8.332c.158.034.324.044.482.076L64 124l9.218-12.906c.042-.008.084-.01.124-.02l13.418 8.442 3.634-15.446c.132-.088.276-.158.408-.248l15.622 2.604-2.604-15.622c.028-.042.048-.084.076-.124l15.454-3.518z"
      />
      <circle
        cx="40"
        cy="40"
        r="40"
        fill="#5F93CE"
        transform="translate(24 24)"
      />
      <circle cx="32" cy="32" r="32" fill="#FFF" transform="translate(32 32)" />
      <path
        fill="#2B3139"
        d="M64 22c-23.196 0-42 18.804-42 42s18.804 42 42 42 42-18.804 42-42-18.804-42-42-42zm0 80c-20.986 0-38-17.014-38-38s17.014-38 38-38 38 17.014 38 38-17.014 38-38 38zm-2-50a8 8 0 1 0-16 0 8 8 0 0 0 16 0zm-12 0c0-2.208 1.792-4 4-4s4 1.792 4 4-1.792 4-4 4-4-1.792-4-4zm29.38-3.444a2.038 2.038 0 0 0-2.882 0L50.556 74.498a2.038 2.038 0 0 0 2.88 2.882L79.38 51.438a2.038 2.038 0 0 0 0-2.882zM64 30c-18.778 0-34 15.222-34 34s15.222 34 34 34 34-15.222 34-34-15.222-34-34-34zm0 64c-16.568 0-30-13.432-30-30 0-16.568 13.432-30 30-30 16.568 0 30 13.432 30 30 0 16.568-13.432 30-30 30zm12-28a8 8 0 1 0 0 16 8 8 0 0 0 0-16zm0 12c-2.208 0-4-1.792-4-4s1.792-4 4-4 4 1.792 4 4-1.792 4-4 4z"
      />
      <path
        fill="#2B3139"
        d="M113.25 73.834L128 64l-14.632-9.756 9.822-14.586-17.42-3.492 3.484-17.42-17.282 3.456L88.578 4.91l-14.744 9.842L64 0l-9.756 14.632L39.658 4.81l-3.492 17.418-17.42-3.482 3.456 17.282L4.91 39.422l9.842 14.744L0 64l14.632 9.754L4.81 88.342l17.418 3.492-3.482 17.42 17.282-3.456 3.394 17.292 14.744-9.842L64 128l9.754-14.632 14.588 9.822 3.492-17.418 17.42 3.482-3.456-17.282 17.292-3.394-9.84-14.744zm-8.238 31.178l-16.156-3.728-2.772 16.348-13.37-9.576L64 122l-8.776-14.042-13.494 9.596-2.698-16.246-16.044 3.704 3.728-16.156-16.348-2.772 9.576-13.37L6 64l14.042-8.776-9.596-13.494 16.246-2.698-3.704-16.044 16.156 3.728 2.772-16.348 13.37 9.576L64 6l8.776 14.042 13.494-9.596 2.698 16.246 16.044-3.704-3.728 16.156 16.348 2.772-9.576 13.37L122 64l-14.042 8.776 9.596 13.494-16.246 2.698 3.704 16.044z"
      />
    </g>
  </svg>
