  <svg
    xmlns="http://www.w3.org/2000/svg"
    width="59"
    height="56"
    viewBox="0 0 59 56"
  >
    <g fill="none" fillRule="nonzero">
      <path fill="#94C1FF" d="M14.309 22.462h33.146v3.667H14.309z" />
      <path
        fill="#F6BB42"
        d="M52.979 34.381l-1.842 1.834v-6.418l1.842-1.834zM46.534 40.8l-1.842 1.833v-6.418l1.842-1.834zM52.979 47.217l-1.842 1.834v-6.418l1.842-1.834zM46.534 53.635l-1.842 1.834V49.05l1.842-1.834z"
      />
      <path
        fill="#94C1FF"
        d="M52.979 34.381l-1.842 1.834v-6.418l1.842-1.834zM46.534 40.8l-1.842 1.833v-6.418l1.842-1.834zM52.979 47.217l-1.842 1.834v-6.418l1.842-1.834zM46.534 53.635l-1.842 1.834V49.05l1.842-1.834z"
      />
      <path
        fill="#D7E9FF"
        d="M6.943 29.797h44.194v6.418H6.943zM.499 36.215h44.194v6.418H.499zM6.943 42.633h44.194v6.418H6.943zM.499 49.051h44.194v6.418H.499z"
      />
      <path
        fill="#94C1FF"
        d="M51.137 29.797H6.943l1.842-1.834h44.194zM6.943 36.215H.5l1.84-1.834h4.604zM6.943 49.05H.5l1.84-1.833h4.604zM46.534 40.8h6.445l-1.842 1.833h-6.445z"
      />
      <path
        fill="#FFF"
        d="M6.943 29.797h1v6.418h-1zM21.674 29.797h1v6.418h-1zM36.406 29.797h1v6.418h-1zM6.943 42.633h1v6.418h-1zM.499 36.215h1v6.418h-1zM15.23 36.215h1v6.418h-1z"
      />
      <path
        fill="#94C1FF"
        d="M14.309 36.215h1v6.418h-1zM29.04 36.215h1v6.418h-1zM43.772 36.215h1v6.418h-1zM50.217 42.633h1v6.418h-1zM35.485 42.633h1v6.418h-1zM20.753 42.633h1v6.418h-1zM14.309 49.051h1v6.418h-1zM29.04 49.051h1v6.418h-1zM43.772 49.051h1v6.418h-1zM50.217 29.797h1v6.418h-1zM35.485 29.797h1v6.418h-1zM20.753 29.797h1v6.418h-1z"
      />
      <path
        fill="#FFF"
        d="M29.961 36.215h1v6.418h-1zM.499 49.051h1v6.418h-1zM15.23 49.051h1v6.418h-1zM29.961 49.051h1v6.418h-1zM21.674 42.633h1v6.418h-1zM36.406 42.633h1v6.418h-1z"
      />
      <path
        fill="#D7E9FF"
        d="M18.912 24.296a.919.919 0 0 1-.92.917.919.919 0 0 1-.921-.917c0-.507.412-.917.92-.917.51 0 .921.41.921.917zM44.692 24.296a.919.919 0 0 1-.92.917.918.918 0 0 1 0-1.834c.508 0 .92.41.92.917zM28.119 22.462h5.525v3.667h-5.525zM48.71 4.93C46.552 2.782 36.478.53 36.478.53s2.261 10.032 4.418 12.18a5.541 5.541 0 0 0 7.812 0 5.485 5.485 0 0 0 0-7.78z"
      />
      <path
        fill="#FFF"
        d="M41.548 12.061c-1.777-1.77-3.621-8.877-4.217-11.33C36.803.603 36.48.53 36.48.53s2.261 10.032 4.418 12.18a5.541 5.541 0 0 0 7.813 0c.11-.11.21-.225.308-.341a5.538 5.538 0 0 1-7.47-.308z"
      />
      <path
        fill="#D7E9FF"
        d="M45.263 10.575l1.302-1.298 4.886 4.865-1.303 1.297z"
      />
      <path
        fill="#94C1FF"
        d="M49.499 16.09l5.86 5.835v-.001c.72.716 1.886.716 2.604 0 .72-.716.72-1.877 0-2.593l-5.86-5.835L49.5 16.09z"
      />
      <path
        fill="#D7E9FF"
        d="M56.01 21.276l-5.86-5.835-.651.649 5.86 5.835v-.001c.72.716 1.886.716 2.604 0 .114-.112.203-.238.28-.369a1.846 1.846 0 0 1-2.233-.28z"
      />
      <path fill="#FFF" d="M45.263 10.576l.651-.648 4.886 4.865-.651.648z" />
      <path fill="#D7E9FF" d="M14.309 22.462h1v3.667h-1z" />
      <path fill="#5C9EFF" d="M46.534 22.462h1v3.667h-1z" />
      <g fill="#116FFF">
        <path d="M44.692 55.927H.5a.46.46 0 0 1-.46-.458V49.05a.457.457 0 0 1 .46-.459h44.193a.46.46 0 0 1 .46.459v6.418a.459.459 0 0 1-.46.458zM.96 55.01h43.273v-5.5H.959v5.5z" />
        <path d="M51.136 49.51H6.944a.46.46 0 0 1-.46-.46l-.001-6.417a.457.457 0 0 1 .46-.459h44.194a.461.461 0 0 1 .46.459v6.418a.459.459 0 0 1-.46.458zm-43.732-.918h43.272v-5.5H7.405v5.5z" />
        <path d="M44.692 43.091H.5a.46.46 0 0 1-.46-.458v-6.418a.457.457 0 0 1 .46-.459h44.193a.46.46 0 0 1 .46.459v6.418a.459.459 0 0 1-.46.458zM.96 42.175h43.273v-5.502H.959v5.502z" />
        <path d="M36.406 36.673H6.944a.46.46 0 0 1-.46-.458l-.001-6.418a.457.457 0 0 1 .46-.459h44.194a.461.461 0 0 1 .46.459v6.417a.46.46 0 0 1-.46.458l-14.731.001zm-29.002-.917h43.273v-5.5H7.404v5.5z" />
        <path d="M51.137 30.255a.457.457 0 0 1-.326-.783l.921-.916c.18-.18.472-.18.651 0 .18.18.18.47 0 .648l-.92.917a.46.46 0 0 1-.326.134zM6.943 30.255a.457.457 0 0 1-.326-.783L8.46 27.64c.18-.18.471-.18.651 0 .18.18.18.47 0 .648L7.27 30.121a.46.46 0 0 1-.326.134z" />
        <path d="M52.979 28.422H8.785a.46.46 0 1 1 0-.917h44.194a.459.459 0 1 1 0 .917zM.499 36.673a.46.46 0 0 1-.326-.782l1.842-1.834c.18-.179.471-.179.65 0 .18.18.18.47 0 .648L.825 36.54a.46.46 0 0 1-.325.134z" />
        <path d="M6.023 34.84H2.34a.46.46 0 1 1 0-.917h3.683a.46.46 0 1 1 0 .917zM.499 49.51a.457.457 0 0 1-.325-.783l1.84-1.834c.18-.179.472-.179.652 0 .18.18.18.47 0 .648L.824 49.375a.46.46 0 0 1-.325.134z" />
        <path d="M6.023 47.676H2.34a.46.46 0 1 1 0-.917h3.683a.46.46 0 1 1 0 .917zM36.406 30.255a.457.457 0 0 1-.325-.783l.92-.916c.18-.18.471-.18.651 0 .18.18.18.47 0 .648l-.92.917a.46.46 0 0 1-.326.134zM21.674 30.255a.46.46 0 0 1-.325-.782l.92-.917c.18-.18.472-.18.652 0 .18.18.18.47 0 .648l-.921.917a.459.459 0 0 1-.326.134zM51.137 36.672a.457.457 0 0 1-.326-.783l1.842-1.832c.18-.18.471-.18.651 0 .18.18.18.47 0 .648l-1.841 1.833a.46.46 0 0 1-.326.134zM44.692 43.091a.457.457 0 0 1-.325-.783l1.841-1.833c.18-.179.471-.179.651 0 .18.18.18.47 0 .648l-1.841 1.834a.46.46 0 0 1-.326.134z" />
        <path d="M52.979 34.84a.46.46 0 0 1-.46-.459v-6.418a.46.46 0 0 1 .46-.458c.254 0 .46.205.46.458v6.418a.46.46 0 0 1-.46.459zM51.137 43.091a.457.457 0 0 1-.326-.783l.921-.916c.18-.18.472-.18.651 0 .18.18.18.47 0 .648l-.92.917a.46.46 0 0 1-.326.134z" />
        <path d="M52.979 41.258h-5.525a.46.46 0 1 1 0-.917h5.525a.459.459 0 1 1 0 .917zM51.136 49.51a.457.457 0 0 1-.326-.783l1.843-1.834c.18-.179.471-.179.651 0 .18.18.18.47 0 .648l-1.842 1.834a.46.46 0 0 1-.326.134z" />
        <path d="M52.979 47.676a.46.46 0 0 1-.46-.459V40.8a.46.46 0 0 1 .46-.458c.254 0 .46.205.46.458v6.418a.459.459 0 0 1-.46.459zM46.534 41.258a.46.46 0 0 1-.46-.459v-3.667a.46.46 0 0 1 .46-.459.46.46 0 0 1 .46.459v3.667a.46.46 0 0 1-.46.459zM44.692 55.927a.457.457 0 0 1-.325-.782l1.841-1.834c.18-.179.471-.179.651 0 .18.18.18.47 0 .648l-1.841 1.834a.459.459 0 0 1-.326.134z" />
        <path d="M46.534 54.094a.46.46 0 0 1-.46-.459v-3.667a.46.46 0 0 1 .46-.459.46.46 0 0 1 .46.459v3.667a.46.46 0 0 1-.46.459zM15.23 42.175a.46.46 0 0 1-.46-.459v-4.584a.46.46 0 1 1 .92 0v4.584a.46.46 0 0 1-.46.459zM21.674 35.756a.46.46 0 0 1-.46-.458v-4.584a.46.46 0 0 1 .46-.459.46.46 0 0 1 .46.459v4.584a.46.46 0 0 1-.46.458zM29.96 42.175a.46.46 0 0 1-.46-.459v-4.584a.46.46 0 0 1 .461-.459.46.46 0 0 1 .46.459v4.584a.46.46 0 0 1-.46.459zM15.23 55.01a.46.46 0 0 1-.46-.458v-4.584a.46.46 0 0 1 .46-.459.46.46 0 0 1 .46.459v4.584a.46.46 0 0 1-.46.458zM29.96 55.01a.46.46 0 0 1-.46-.458v-4.584a.46.46 0 0 1 .461-.459.46.46 0 0 1 .46.459v4.584a.46.46 0 0 1-.46.458zM36.406 35.756a.46.46 0 0 1-.46-.458v-4.584a.46.46 0 0 1 .46-.459.46.46 0 0 1 .46.459v4.584a.46.46 0 0 1-.46.458zM21.674 48.592a.46.46 0 0 1-.46-.458V43.55a.46.46 0 0 1 .46-.459.46.46 0 0 1 .46.459v4.584a.46.46 0 0 1-.46.458zM36.406 48.592a.459.459 0 0 1-.46-.458V43.55a.46.46 0 0 1 .46-.459.46.46 0 0 1 .46.459v4.584a.46.46 0 0 1-.46.458zM30.91 24.754a.463.463 0 0 1-.465-.458c0-.254.201-.459.456-.459h.009a.46.46 0 1 1 0 .917z" />
        <path d="M47.455 26.588H14.309a.46.46 0 0 1-.46-.459v-3.667a.46.46 0 0 1 .46-.458h33.145a.46.46 0 0 1 .46.458v3.667a.459.459 0 0 1-.46.459zm-32.686-.917h32.225v-2.75H14.77v2.75z" />
        <path d="M28.12 25.671a.46.46 0 0 1-.46-.458l-.001-1.834a.46.46 0 1 1 .92 0l.001 1.834a.46.46 0 0 1-.46.458zM33.644 25.671a.46.46 0 0 1-.46-.458v-1.834a.46.46 0 0 1 .46-.459.46.46 0 0 1 .46.459v1.834a.46.46 0 0 1-.46.458zM43.772 25.671a1.376 1.376 0 0 1-.977-2.349c.522-.516 1.433-.517 1.954.001.26.26.404.606.404.973a1.38 1.38 0 0 1-1.381 1.375zm0-1.834a.456.456 0 0 0-.46.459c0 .122.047.237.134.324.266.266.785.05.786-.324a.456.456 0 0 0-.46-.458zM17.992 25.671a1.38 1.38 0 0 1-1.381-1.376 1.38 1.38 0 1 1 2.762 0 1.38 1.38 0 0 1-1.38 1.376zm0-1.834a.46.46 0 1 0 0 .917.46.46 0 0 0 .46-.458.46.46 0 0 0-.46-.459zM45.042 14.855a6.483 6.483 0 0 1-4.547-1.897C38.147 10.619 36.114 1.03 36.028.624a.459.459 0 0 1 .545-.543c.41.085 10.036 2.11 12.384 4.448 1.579 1.572 2.246 3.844 1.74 5.93a.46.46 0 1 1-.895-.215c.432-1.777-.142-3.72-1.496-5.067-1.814-1.807-8.949-3.531-11.222-4.044.515 2.263 2.248 9.37 4.062 11.177 1.353 1.348 3.304 1.918 5.088 1.488a.458.458 0 1 1 .217.892c-.464.11-.937.165-1.409.165z" />
        <path d="M51.454 14.603a.46.46 0 0 1-.326-.134L46.57 9.931a.457.457 0 0 1 0-.648c.18-.18.47-.18.65 0l4.56 4.538a.457.457 0 0 1-.326.782zM50.15 15.9a.46.46 0 0 1-.326-.135l-4.556-4.537a.457.457 0 0 1 0-.648.461.461 0 0 1 .65 0l4.557 4.537a.457.457 0 0 1-.325.783z" />
        <path d="M49.499 16.548a.46.46 0 0 1-.325-.782l2.605-2.593c.18-.18.471-.18.651 0 .18.179.18.469 0 .648l-2.606 2.593a.46.46 0 0 1-.325.134z" />
        <path d="M57.963 19.79a.46.46 0 0 1-.325-.135l-5.859-5.834a.457.457 0 0 1 0-.648c.18-.18.471-.18.651 0l5.859 5.834a.457.457 0 0 1-.326.782zM55.36 22.382a.46.46 0 0 1-.326-.134l-5.86-5.834a.457.457 0 0 1 0-.649c.18-.179.47-.179.65 0l5.86 5.835a.457.457 0 0 1-.324.782z" />
        <path d="M56.661 22.92a2.291 2.291 0 0 1-1.627-.672.457.457 0 0 1 0-.648.463.463 0 0 1 .652 0c.52.52 1.43.52 1.952 0a1.373 1.373 0 0 0 0-1.945.457.457 0 0 1 0-.648c.18-.18.472-.18.652 0a2.289 2.289 0 0 1-.001 3.241 2.289 2.289 0 0 1-1.628.672zM45.593 11.362a.46.46 0 0 1-.325-.134 1.361 1.361 0 0 1-.405-.975c0-.367.144-.712.406-.97.26-.26.607-.403.975-.403.37 0 .716.143.978.403.179.18.179.47-.001.648a.461.461 0 0 1-.651 0 .458.458 0 1 0-.651.648.457.457 0 0 1-.326.783z" />
      </g>
    </g>
  </svg>
