 <svg
    xmlns="http://www.w3.org/2000/svg"
    width="80"
    height="80"
    viewBox="0 0 80 80"
  >
    <g fill="none" fillRule="nonzero">
      <path
        fill="#5C9EFF"
        d="M8.157 33.717C2.81 35.825 1.25 39.376 1.25 39.376l6.906 4.031v-9.69zM59.367 33.717c5.347 2.108 6.906 5.659 6.906 5.659l-6.905 4.031v-9.69z"
      />
      <path
        fill="#D7E9FF"
        d="M75.59 79.335l-3.123-6.243 1.249-2.498v-1.248h3.746v1.248l1.249 2.498z"
      />
      <path
        fill="#FFF"
        d="M73.716 73.092l1.249-2.498h-1.25l-1.248 2.498 3.122 6.243.624-1.248z"
      />
      <path
        fill="#94C1FF"
        d="M77.462 73.092l-1.249-2.498h1.25l1.248 2.498-3.122 6.243-.624-1.248z"
      />
      <path fill="#5C9EFF" d="M78.087 55.61v13.736h-4.995V55.609z" />
      <path
        fill="#5C9EFF"
        d="M73.092 55.61V30.634c0-1.25.574-2.498 2.497-2.498s2.497 1.249 2.497 2.498v24.974h-4.994z"
      />
      <path
        fill="#FFF"
        d="M74.34 30.635c0-1.102.449-2.2 1.873-2.445a3.653 3.653 0 0 0-.624-.053c-1.923 0-2.497 1.249-2.497 2.497v38.711h1.248v-38.71z"
        opacity=".2"
      />
      <path
        fill="#2287FF"
        d="M76.838 30.635c0-1.102-.45-2.2-1.873-2.445.19-.033.396-.053.624-.053 1.923 0 2.498 1.249 2.498 2.497v38.711h-1.249v-38.71z"
      />
      <path fill="#FFF" d="M59.355 11.903H48.117V.665z" />
      <path
        fill="#D7E9FF"
        d="M59.367 43.407L39.186 55.168l-5.429 2.73-5.43-2.73-20.17-11.76V.664h39.96v11.238h11.24z"
      />
      <path
        fill="#94C1FF"
        d="M1.626 78.087l24.013-15.123 2.738-1.716c.138.7.883 2.166 1.62 2.166.862 0 2.048.5 2.66 1.099.6.612 1.598.612 2.198 0 .612-.599 1.798-1.099 2.66-1.099.424 0 .811-.174 1.086-.462l.534-1.704 26.75 16.839a3.752 3.752 0 0 1-2.784 1.249H4.411a3.754 3.754 0 0 1-2.785-1.25z"
      />
      <path
        fill="#5C9EFF"
        d="M28.449 61.865c-.012-.86-.5-2.06-1.112-2.66-.599-.598-.599-1.598 0-2.197.613-.612 1.112-1.81 1.112-2.66a1.554 1.554 0 0 1 1.549-1.56c.861 0 2.047-.488 2.66-1.099.599-.6 1.597-.6 2.197 0 .612.611 1.798 1.099 2.66 1.099.637 0 1.186.399 1.423.949.088.187.125.4.125.612 0 .849.5 2.047 1.112 2.66.6.598.6 1.598 0 2.197-.612.612-1.112 1.799-1.112 2.66a1.5 1.5 0 0 1-.462 1.086 1.496 1.496 0 0 1-1.087.462c-.861 0-2.047.5-2.66 1.099-.599.612-1.597.612-2.197 0-.612-.599-1.798-1.099-2.66-1.099a1.553 1.553 0 0 1-1.51-1.236c-.026-.1-.038-.2-.038-.313z"
      />
      <path
        fill="#94C1FF"
        d="M31.246 63.414a1.553 1.553 0 0 1-1.511-1.236c-.025-.1-.037-.2-.037-.313-.013-.86-.5-2.06-1.112-2.66-.6-.598-.6-1.598 0-2.197.612-.612 1.112-1.81 1.112-2.66a1.554 1.554 0 0 1 1.549-1.56c.861 0 1.87-1.56 1.41-1.099-.612.611-1.798 1.099-2.66 1.099a1.555 1.555 0 0 0-1.548 1.56c0 .85-.5 2.048-1.112 2.66-.599.6-.599 1.599 0 2.198.613.6 1.1 1.799 1.112 2.66 0 .111.012.212.037.312.138.7.774 1.236 1.512 1.236.861 0 2.047.5 2.66 1.099.46.47-.55-1.099-1.412-1.099z"
      />
      <path
        fill="#2287FF"
        d="M36.219 63.414c.737 0 1.373-.537 1.511-1.236.025-.1.038-.2.038-.313.012-.86.499-2.06 1.111-2.66.6-.598.6-1.598 0-2.197-.612-.612-1.111-1.81-1.111-2.66a1.554 1.554 0 0 0-1.549-1.56c-.862 0-1.871-1.56-1.411-1.099.612.611 1.798 1.099 2.66 1.099a1.555 1.555 0 0 1 1.548 1.56c0 .85.5 2.048 1.112 2.66.6.6.6 1.599 0 2.198-.612.6-1.1 1.799-1.112 2.66 0 .111-.012.212-.037.312a1.553 1.553 0 0 1-1.511 1.236c-.862 0-2.048.5-2.66 1.099-.46.47.55-1.099 1.41-1.099z"
      />
      <path
        fill="#94C1FF"
        d="M66.848 41.873V75.59c0 .949-.362 1.836-.962 2.498l-26.75-16.839s.426-1.43 1.039-2.042c.6-.6.6-1.599 0-2.198-.612-.612-.99-1.84-.99-1.84l22.28-12.983 4.795-2.81c.376.837.588 1.712.588 2.498zM.664 41.873V75.59c0 .949.362 1.836.962 2.498l26.75-16.839s-.426-1.43-1.039-2.043c-.599-.598-.599-1.598 0-2.197.613-.612.99-1.84.99-1.84L6.047 42.185l-4.796-2.81c-.375.837-.587 1.712-.587 2.498z"
      />
      <path
        fill="#D7E9FF"
        d="M3.162 75.59V41.872c0-.408.06-.841.167-1.28l-2.078-1.217c-.375.836-.587 1.71-.587 2.497V75.59c0 .949.362 1.836.962 2.498a3.754 3.754 0 0 0 2.784 1.248h2.498a3.754 3.754 0 0 1-2.785-1.248 3.728 3.728 0 0 1-.961-2.498z"
      />
      <path
        fill="#5C9EFF"
        d="M64.35 75.59V41.872c0-.408-.06-.841-.168-1.28l2.078-1.217c.376.836.588 1.71.588 2.497V75.59c0 .949-.362 1.836-.962 2.498a3.752 3.752 0 0 1-2.784 1.248h-2.498a3.753 3.753 0 0 0 2.784-1.248c.6-.662.962-1.549.962-2.498z"
      />
      <path
        fill="#2287FF"
        d="M60.604 34.267a17.25 17.25 0 0 0-1.236-.55v9.69l1.236-.722v-8.418zM6.92 34.267c.391-.19.797-.376 1.237-.55v9.69l-1.236-.722v-8.418z"
      />
      <path fill="#94C1FF" d="M73.716 69.346h3.746v1.249h-3.746z" />
      <path fill="#FFF" d="M10.654 44.87l-2.497-1.463V.665h2.497z" />
      <path fill="#94C1FF" d="M56.858 44.87l2.497-1.463V11.903h-2.497z" />
      <g fill="#116FFF">
        <path d="M63.102 79.96H4.41a4.385 4.385 0 0 1-3.248-1.455A4.338 4.338 0 0 1 .04 75.589V41.873c0-.864.222-1.816.642-2.753.648-1.508 1.684-2.786 2.838-3.498l1.812-1.112a.624.624 0 1 1 .654 1.064l-1.81 1.112c-.927.57-1.806 1.669-2.35 2.936-.348.775-.537 1.571-.537 2.251v33.716c0 .77.284 1.508.8 2.078a3.135 3.135 0 0 0 2.321 1.044h58.692c.878 0 1.724-.38 2.32-1.043a3.09 3.09 0 0 0 .802-2.079V41.873c0-.68-.19-1.476-.533-2.242-.55-1.276-1.428-2.374-2.355-2.946l-.556-.333a.624.624 0 0 1 .642-1.07l.563.336c1.16.716 2.197 1.994 2.85 3.511.415.928.638 1.88.638 2.744V75.59a4.34 4.34 0 0 1-1.124 2.917 4.384 4.384 0 0 1-3.247 1.454z" />
        <path d="M1.626 78.711a.624.624 0 0 1-.333-1.152l24.013-15.123a.623.623 0 1 1 .666 1.056L1.96 78.615a.616.616 0 0 1-.333.096zM65.886 78.711a.616.616 0 0 1-.333-.096l-24-15.123a.624.624 0 0 1 .665-1.056l24 15.123a.624.624 0 0 1-.332 1.152zM25.639 54.223a.613.613 0 0 1-.314-.086L.964 39.931a.624.624 0 0 1 .275-1.18h.012c.11 0 .22.03.315.086l24.388 14.222a.625.625 0 0 1-.315 1.164zM41.873 54.223a.625.625 0 0 1-.315-1.164l24.386-14.222c.394-.229.946.083.946.539 0 .26-.156.484-.381.578L42.186 54.138a.61.61 0 0 1-.313.085zM8.157 42.035a.624.624 0 0 1-.625-.624V.665a.624.624 0 1 1 1.25 0V41.41c0 .345-.28.624-.625.624zM59.355 41.337a.624.624 0 0 1-.624-.625V11.903a.624.624 0 1 1 1.249 0v28.809c0 .345-.28.625-.625.625z" />
        <path d="M48.117 1.289H8.157a.624.624 0 1 1 0-1.249h39.96a.624.624 0 1 1 0 1.249zM33.756 65.597c-.588 0-1.136-.23-1.545-.648-.491-.48-1.53-.91-2.213-.91a2.167 2.167 0 0 1-2.125-1.741c-.03-.12-.048-.27-.048-.433-.01-.702-.442-1.741-.925-2.213a2.166 2.166 0 0 1-.636-1.545c0-.586.224-1.133.632-1.54.494-.496.929-1.532.929-2.219 0-.158.017-.318.052-.473.194-.97 1.107-1.712 2.12-1.712.693 0 1.73-.428 2.22-.916.813-.817 2.265-.817 3.08 0 .488.488 1.525.916 2.217.916.866 0 1.65.52 1.997 1.325.115.245.176.54.176.86 0 .687.434 1.723.929 2.218.408.408.632.955.632 1.54a2.16 2.16 0 0 1-.632 1.54c-.495.496-.929 1.532-.929 2.219 0 .58-.239 1.14-.655 1.538a2.113 2.113 0 0 1-1.518.635c-.683 0-1.722.43-2.223.92a2.135 2.135 0 0 1-1.535.639zm0-13.734a.92.92 0 0 0-.657.267c-.733.73-2.065 1.282-3.101 1.282-.424 0-.819.317-.9.722a.96.96 0 0 0-.025.214c0 1.014-.568 2.376-1.294 3.102a.92.92 0 0 0-.267.657.92.92 0 0 0 .267.657c.709.695 1.28 2.055 1.294 3.093a.937.937 0 0 0 .924.933c1.005 0 2.365.56 3.097 1.277a.938.938 0 0 0 1.314.01c.742-.726 2.102-1.287 3.106-1.287.244 0 .47-.095.635-.269a.892.892 0 0 0 .29-.656c0-1.03.556-2.363 1.294-3.1a.92.92 0 0 0 .267-.658.92.92 0 0 0-.267-.657c-.726-.726-1.294-2.088-1.294-3.102a.83.83 0 0 0-.067-.347.95.95 0 0 0-.858-.59c-1.036 0-2.369-.55-3.1-1.28a.923.923 0 0 0-.658-.268z" />
        <path d="M33.756 62.477a.624.624 0 0 1-.624-.624v-7.492a.624.624 0 1 1 1.248 0v7.492c0 .345-.279.624-.624.624z" />
        <path d="M35.628 56.234a.623.623 0 0 1-.345-.105L33.41 54.88a.624.624 0 1 1 .692-1.039l1.873 1.249a.624.624 0 0 1-.347 1.144z" />
        <path d="M31.884 56.234a.623.623 0 0 1-.347-1.144l1.873-1.249a.624.624 0 1 1 .692 1.04l-1.873 1.248a.624.624 0 0 1-.345.105zM35.628 58.731a.625.625 0 0 1-.345-.105l-1.873-1.248a.624.624 0 1 1 .692-1.04l1.873 1.25a.624.624 0 0 1-.347 1.143z" />
        <path d="M31.884 58.731a.624.624 0 0 1-.347-1.144l1.873-1.248a.625.625 0 0 1 .692 1.039l-1.873 1.248a.625.625 0 0 1-.345.105zM35.628 61.229a.623.623 0 0 1-.345-.105l-1.873-1.249a.624.624 0 1 1 .692-1.039l1.873 1.249a.624.624 0 0 1-.347 1.144z" />
        <path d="M31.884 61.229a.624.624 0 0 1-.347-1.144l1.873-1.249a.624.624 0 1 1 .692 1.039l-1.873 1.249a.623.623 0 0 1-.345.105zM48.117 12.528a.624.624 0 0 1-.625-.625V.665a.624.624 0 1 1 1.249 0v11.238c0 .345-.28.625-.624.625z" />
        <path d="M59.355 12.528H48.117a.624.624 0 1 1 0-1.25h11.238a.624.624 0 1 1 0 1.25z" />
        <path d="M59.355 12.528c-.16 0-.32-.061-.441-.183L47.675 1.105a.624.624 0 1 1 .883-.882l11.239 11.239a.624.624 0 0 1-.442 1.066zM33.756 16.274H16.898a.624.624 0 1 1 0-1.249h16.858a.624.624 0 1 1 0 1.249zM50.614 23.766H16.898a.624.624 0 1 1 0-1.248h33.716a.624.624 0 1 1 0 1.248zM50.614 31.259H16.898a.624.624 0 1 1 0-1.249h33.716a.624.624 0 1 1 0 1.249zM50.614 38.751H16.898a.624.624 0 1 1 0-1.248h33.716a.624.624 0 1 1 0 1.248zM73.092 69.97a.624.624 0 0 1-.625-.624V30.635a.624.624 0 1 1 1.249 0v38.71c0 .346-.28.625-.624.625zM78.087 69.97a.624.624 0 0 1-.625-.624V30.635a.624.624 0 1 1 1.249 0v38.71c0 .346-.28.625-.624.625z" />
        <path d="M78.087 69.97h-4.995a.624.624 0 1 1 0-1.249h4.995a.624.624 0 1 1 0 1.249z" />
        <path d="M72.466 73.716a.624.624 0 0 1-.557-.904l1.248-2.497a.624.624 0 1 1 1.117.559l-1.248 2.497a.626.626 0 0 1-.56.345z" />
        <path d="M75.59 79.96a.625.625 0 0 1-.56-.345L71.91 73.37a.624.624 0 1 1 1.117-.558l3.122 6.243a.625.625 0 0 1-.559.904z" />
        <path d="M75.588 79.96a.624.624 0 0 1-.557-.904l3.121-6.244a.624.624 0 1 1 1.117.56l-3.121 6.243a.627.627 0 0 1-.56.345z" />
        <path d="M78.71 73.716a.625.625 0 0 1-.558-.345l-1.248-2.497a.624.624 0 1 1 1.117-.559l1.248 2.498a.625.625 0 0 1-.558.903zM78.087 56.234h-4.995a.624.624 0 1 1 0-1.249h4.995a.624.624 0 1 1 0 1.249zM75.59 79.96a.624.624 0 0 1-.625-.625V74.34a.624.624 0 1 1 1.248 0v4.995c0 .346-.279.625-.624.625zM78.087 31.259a.624.624 0 0 1-.625-.624c0-1.874-1.41-1.874-1.873-1.874-.463 0-1.873 0-1.873 1.874a.624.624 0 1 1-1.249 0c0-1.955 1.167-3.122 3.122-3.122 1.955 0 3.122 1.167 3.122 3.122 0 .345-.28.624-.624.624z" />
        <path d="M75.59 42.498a.624.624 0 0 1-.625-.625V30.634a.624.624 0 1 1 1.248 0v11.24c0 .344-.279.623-.624.623zM73.716 71.219a.624.624 0 0 1-.624-.625v-1.248a.624.624 0 1 1 1.248 0v1.248c0 .346-.28.625-.624.625zM77.462 71.219a.624.624 0 0 1-.624-.625v-1.248a.624.624 0 1 1 1.249 0v1.248c0 .346-.28.625-.625.625zM44.37 72.468H23.142a.624.624 0 1 1 0-1.25H44.37a.624.624 0 1 1 0 1.25zM38.751 74.965h-9.99a.624.624 0 1 1 0-1.249h9.99a.624.624 0 1 1 0 1.249z" />
      </g>
    </g>
  </svg>
