 <svg
  xmlns="http://www.w3.org/2000/svg"
  width="319"
  height="288"
  viewBox="0 0 319 288"
  >
  <g fill="#fff" fillRule="nonzero">
  <path d="M240.714 81.143h-40.571v40.571h40.571V81.143zm0-20.286V20.286H139.286v40.571h40.571V20.286h20.286v40.571h40.571zM139.286 81.143v40.571h40.571V81.143h-40.571zM119 0h142v142H119V0zM77.286 204H57V62h40.571v20.286H77.286v101.428h101.428V163.43H199V204H77.286zM18.062 256.304v3.955H5.054v9.273h12.568v3.977H5.054v9.536h13.425V287H.66v-30.696h17.403zM23.159 287v-30.696h8.9c1.655 0 3.076.227 4.262.681 1.187.454 2.164 1.048 2.933 1.78a6.88 6.88 0 0 1 1.703 2.516c.366.945.55 1.9.55 2.867 0 1.597-.374 2.926-1.121 3.988-.747 1.062-1.934 1.923-3.56 2.582v.088c1.143.22 2.172.564 3.088 1.033a8.272 8.272 0 0 1 2.329 1.736 7.25 7.25 0 0 1 1.46 2.35c.338.88.506 1.84.506 2.88 0 .937-.187 1.893-.56 2.867-.374.974-.978 1.856-1.813 2.647-.835.791-1.922 1.436-3.263 1.934-1.34.498-2.97.747-4.889.747H23.16zm4.395-26.74v9.184h2.922c2.212 0 3.846-.4 4.9-1.198 1.055-.798 1.582-2.032 1.582-3.702 0-.571-.088-1.117-.263-1.637a3.267 3.267 0 0 0-.89-1.362c-.418-.389-.967-.7-1.648-.934-.681-.235-1.527-.352-2.538-.352h-4.065zm0 13.16v9.625h5.537c1.304 0 2.377-.147 3.22-.44.841-.293 1.512-.67 2.01-1.131.498-.462.846-.982 1.043-1.56a5.307 5.307 0 0 0 .297-1.725c0-.703-.136-1.344-.407-1.923-.27-.578-.688-1.08-1.252-1.505-.564-.425-1.27-.754-2.12-.989-.85-.234-1.853-.351-3.01-.351h-5.318zm20.698-17.116h9.602c1.67 0 3.12.23 4.35.692 1.231.462 2.246 1.092 3.044 1.89a7.546 7.546 0 0 1 1.78 2.812c.388 1.077.582 2.223.582 3.44a9.167 9.167 0 0 1-.615 3.372 7.149 7.149 0 0 1-1.89 2.725c-.85.769-1.922 1.377-3.219 1.823-1.296.447-2.838.67-4.625.67h-4.592V287h-4.417v-30.696zm4.417 3.955v9.514h4.987c.82 0 1.564-.106 2.23-.318a4.64 4.64 0 0 0 1.704-.945 4.248 4.248 0 0 0 1.087-1.527c.257-.6.385-1.282.385-2.044a5.74 5.74 0 0 0-.253-1.67 3.923 3.923 0 0 0-.857-1.505c-.403-.446-.937-.809-1.604-1.087-.666-.279-1.498-.418-2.494-.418H52.67zm17.402 11.404c0-2.124.392-4.138 1.176-6.042a15.303 15.303 0 0 1 3.328-5.021c1.436-1.443 3.168-2.586 5.197-3.428 2.029-.842 4.288-1.263 6.779-1.263 2.534 0 4.819.42 6.855 1.263 2.036.842 3.768 1.981 5.197 3.417a14.98 14.98 0 0 1 3.295 5.01c.77 1.904 1.154 3.925 1.154 6.064 0 2.066-.377 4.047-1.132 5.944a15.047 15.047 0 0 1-3.263 5.02c-1.42 1.45-3.16 2.608-5.218 3.472-2.058.864-4.384 1.297-6.976 1.297-1.67 0-3.238-.195-4.703-.583a16.163 16.163 0 0 1-4.01-1.637 15.183 15.183 0 0 1-3.24-2.516 15.492 15.492 0 0 1-2.417-3.208 15.45 15.45 0 0 1-1.506-3.724 16.023 16.023 0 0 1-.516-4.065zm4.548 0c0 1.67.3 3.22.901 4.647a11.312 11.312 0 0 0 2.494 3.714c1.062 1.047 2.322 1.864 3.78 2.45 1.457.586 3.043.879 4.757.879 1.713 0 3.303-.293 4.768-.88 1.464-.585 2.728-1.402 3.79-2.45a11.312 11.312 0 0 0 2.494-3.713c.6-1.428.9-2.977.9-4.647 0-1.7-.3-3.263-.9-4.691a11.19 11.19 0 0 0-2.494-3.702c-1.062-1.04-2.326-1.853-3.79-2.44-1.465-.585-3.055-.878-4.768-.878-1.714 0-3.3.293-4.758.879-1.457.586-2.717 1.398-3.779 2.439a11.19 11.19 0 0 0-2.494 3.702c-.6 1.428-.9 2.992-.9 4.691zM137 256.304V287h-4.416v-23.884h-.088l-9.448 11.865h-.725l-9.448-11.865h-.088V287h-4.395v-30.696h4.131l10.174 12.613 10.217-12.613H137zm19.512-.176L170.244 287h-4.504l-4.087-9.053h-13.052L144.734 287h-4.504l13.183-30.872h3.098zm-1.604 6.746l-4.592 11.118h9.536l-4.944-11.118zm45.176 21.84c-.747.396-1.523.759-2.329 1.088-.806.33-1.659.612-2.56.846-.9.235-1.867.418-2.9.55a26.339 26.339 0 0 1-3.329.198c-1.919 0-3.662-.228-5.23-.682-1.567-.454-2.962-1.069-4.185-1.845a14.677 14.677 0 0 1-3.186-2.703 16.092 16.092 0 0 1-2.23-3.241 15.576 15.576 0 0 1-1.308-3.46 14.197 14.197 0 0 1-.428-3.362c0-1.553.19-3.036.571-4.45.38-1.414.923-2.717 1.626-3.911a15.176 15.176 0 0 1 2.56-3.241 15.685 15.685 0 0 1 3.373-2.472 17.039 17.039 0 0 1 4.065-1.571c1.464-.366 3.01-.55 4.636-.55a20.257 20.257 0 0 1 4.889.604c.857.213 1.75.477 2.68.792.93.315 1.916.692 2.956 1.132v4.724a30.458 30.458 0 0 0-2.758-1.44 21.868 21.868 0 0 0-2.615-1 17.088 17.088 0 0 0-2.57-.582 18.239 18.239 0 0 0-2.626-.186c-1.758 0-3.384.296-4.878.89-1.494.593-2.787 1.41-3.878 2.45a11.114 11.114 0 0 0-2.56 3.713c-.615 1.435-.923 3.003-.923 4.702 0 1.714.3 3.285.9 4.713a10.648 10.648 0 0 0 2.539 3.68c1.091 1.026 2.398 1.824 3.922 2.396 1.523.57 3.208.857 5.054.857 1.757 0 3.545-.293 5.36-.88 1.817-.585 3.604-1.45 5.362-2.592v4.834zm28.433-28.41v3.955h-10.613V287h-4.416v-26.74h-10.613v-3.956h25.642zm21.555 0v3.955h-13.008v9.273h12.569v3.977h-12.569v9.536h13.426V287h-17.82v-30.696h17.402zm4.856 0h9.602c1.67 0 3.12.23 4.35.692 1.231.462 2.246 1.092 3.044 1.89a7.546 7.546 0 0 1 1.78 2.812c.388 1.077.582 2.223.582 3.44a9.167 9.167 0 0 1-.615 3.372 7.149 7.149 0 0 1-1.89 2.725c-.85.769-1.923 1.377-3.219 1.823-1.296.447-2.838.67-4.625.67h-4.592V287h-4.417v-30.696zm4.417 3.955v9.514h4.987c.82 0 1.564-.106 2.23-.318a4.64 4.64 0 0 0 1.703-.945 4.248 4.248 0 0 0 1.088-1.527c.256-.6.385-1.282.385-2.044a5.74 5.74 0 0 0-.253-1.67 3.923 3.923 0 0 0-.857-1.505c-.403-.446-.938-.809-1.604-1.087-.667-.279-1.498-.418-2.494-.418h-5.185zm24.653 22.5h11.69V287h-19.425v-.308l1.846-2.175c2.886-3.574 5.182-6.606 6.889-9.097 1.706-2.49 2.82-4.372 3.34-5.647.52-1.274.78-2.534.78-3.779 0-1.728-.491-3.116-1.473-4.164-.981-1.047-2.285-1.57-3.91-1.57-1.231 0-2.443.362-3.637 1.087s-2.267 1.747-3.22 3.065v-5.58c2.388-1.95 4.85-2.923 7.383-2.923 2.681 0 4.89.893 6.625 2.68 1.736 1.787 2.604 4.058 2.604 6.812 0 1.23-.216 2.545-.648 3.944-.432 1.399-1.198 3.01-2.296 4.834-1.099 1.824-2.967 4.31-5.603 7.46l-.945 1.12zm29.201-26.85H315v17.226h3.428v3.736H315V287h-4.284v-10.13H297.73v-1.889l15.468-19.072zm-2.482 17.226v-8.899l-7.098 8.9h7.098z"/></g>
</svg>
