  <svg
    xmlns="http://www.w3.org/2000/svg"
    width="56"
    height="56"
    viewBox="0 0 56 56"
  >
    <g fill="none" fillRule="nonzero">
      <path
        fill="#D7E9FF"
        d="M31.052 20.572L29.49 22.32l2.127 2.458.309 1.52s.207 3.64-3.65 3.88c-5.082.317-4.103-4.607-4.042-4.564.27.188.541-.22.756-.051 3.85 2.997 3.393-.11 3.393-.11l-1.898-1.783-1.551-3.098v-.874h6.118v.874z"
      />
      <path
        fill="#94C1FF"
        d="M28.321 26.286c-.161.5-.643.902-1.968.189l-2.046 1.45c.16.532.454 1.057.946 1.472l2.815-1.994a.864.864 0 0 0 .253-1.117zM31.059 18.824v.873l-5.468.001 6.999-7z"
      />
      <path
        fill="#D7E9FF"
        d="M31.583 9.998l-7.079 7.079.437 1.747v.874h.65l6.999-7 .216-.865z"
      />
      <path
        fill="#94C1FF"
        d="M28.661 9.212l-4.899 4.898.742 2.966 7.079-7.078-.524-.786z"
      />
      <path
        fill="#D7E9FF"
        d="M24.941 9.212l-1.747 2.621.568 2.277 4.899-4.898z"
      />
      <path
        fill="#FFF"
        d="M25.815 18.824l-.437-1.748-.742-2.966-.568-2.277 1.747-2.621h-.874l-1.747 2.621.568 2.277.742 2.966.437 1.748v.874h.874z"
      />
      <path
        fill="#D7E9FF"
        d="M24.636 14.11l-.174-.699-.7.7.742 2.965.7-.698z"
      />
      <path
        fill="#5C9EFF"
        d="M30.272 18.824l.437-1.748.742-2.966.569-2.277-1.748-2.621h.874l1.747 2.621-.568 2.277-.742 2.966-.437 1.748v.874h-.874z"
      />
      <path
        fill="#94C1FF"
        d="M32.02 11.833l-.478 1.914 1.048-1.048.216-.866-1.223-1.835-.471.471z"
      />
      <path
        fill="#D7E9FF"
        d="M3.094 45.041h49.811v7.865H3.094zM.473 52.906h55.054v2.622H.473zM.473 42.419h55.054v2.622H.473z"
      />
      <path
        fill="#94C1FF"
        d="M31.926 26.298l-.31-1.52-2.126-2.458 1.562-1.748v-.874h-.874v.874l-1.595 2.276s5.534 4.078-1.182 7.33c-.114.055-.233.01-.352.017.368.029.765.034 1.226-.017 3.842-.43 3.65-3.88 3.65-3.88z"
      />
      <path
        fill="#FFF"
        d="M28.62 25.81l.638-.356-2.026-2.04-1.424-2.842v-.874h-.874v.874l1.552 3.098z"
      />
      <path fill="#94C1FF" d="M20.572 47.662h14.856v2.622H20.572z" />
      <path fill="#FFF" d="M28.874 5.716l-1.748 1.748v1.748h1.748z" />
      <path fill="#D7E9FF" d="M28.874 3.094l-1.748 1.748v2.622l1.748-1.748z" />
      <path fill="#FFF" d="M28.874.473L27.126 2.22v2.621l1.748-1.748z" />
      <path fill="#D7E9FF" d="M28.874.473h-1.748V2.22z" />
      <path fill="#FFF" d="M.473 42.419h1v2.622h-1z" />
      <path
        fill="#94C1FF"
        d="M54.653 42.419h1v2.622h-1zM52.032 45.041h1v7.865h-1zM54.653 52.906h1v2.622h-1z"
      />
      <path fill="#FFF" d="M.473 52.906h1v2.622h-1zM3.094 45.041h1v7.865h-1z" />
      <g fill="#116FFF">
        <path d="M22.783 49.41a.44.44 0 0 1-.441-.437c0-.241.19-.437.432-.437h.009a.437.437 0 1 1 0 .874zM24.53 49.41a.44.44 0 0 1-.44-.437c0-.241.19-.437.432-.437h.009a.437.437 0 1 1 0 .874zM26.278 49.41a.44.44 0 0 1-.44-.437c0-.241.19-.437.432-.437h.008a.437.437 0 1 1 0 .874zM28.026 49.41a.44.44 0 0 1-.441-.437c0-.241.191-.437.432-.437h.009a.437.437 0 1 1 0 .874zM29.773 49.41a.44.44 0 0 1-.44-.437c0-.241.191-.437.432-.437h.008a.436.436 0 1 1 0 .874zM31.521 49.41a.44.44 0 0 1-.44-.437c0-.241.191-.437.432-.437h.008a.436.436 0 1 1 0 .874zM33.269 49.41a.44.44 0 0 1-.44-.437c0-.241.19-.437.431-.437h.009a.436.436 0 1 1 0 .874zM28.047 30.622c-.888 0-1.731-.203-2.44-.587a.437.437 0 1 1 .417-.768c.58.314 1.28.48 2.023.48a3.453 3.453 0 0 0 3.449-3.449c0-.444-.031-.91-.255-1.306-.047-.097-.231-.339-1.092-1.173a56.178 56.178 0 0 0-.71-.677l-.113-.106a.438.438 0 0 1-.063-.56l1.359-2.036v-.305h-5.244v.334l1.506 3.005 1.799 1.654c.162.168.27.336.343.521a.437.437 0 0 1-.813.32.643.643 0 0 0-.139-.213l-1.767-1.599a.779.779 0 0 1-.233-.363l-1.523-3.026a.437.437 0 0 1-.047-.196v-.874c0-.241.196-.437.437-.437h6.118c.241 0 .437.196.437.437v.874c0 .086-.026.171-.074.243l-1.227 1.839c.166.156.363.344.563.538 1.017.987 1.176 1.224 1.258 1.397.309.545.353 1.145.353 1.71a4.328 4.328 0 0 1-4.322 4.323zm-3.889-2.625a.437.437 0 0 1-.425-.335 3.882 3.882 0 0 1-.102-.898c0-.43.065-.86.193-1.279a.787.787 0 0 1 .763-.577.79.79 0 0 1 .533.207l.948.689a.437.437 0 1 1-.515.704l-.921-.671a3.498 3.498 0 0 0-.127.927c0 .241.026.475.079.695a.437.437 0 0 1-.426.538z" />
        <path d="M31.059 19.261a.436.436 0 0 1-.423-.543l1.7-6.803-1.511-2.266h-5.65l-1.51 2.266 1.7 6.803a.437.437 0 1 1-.847.212l-1.748-6.99a.437.437 0 0 1 .06-.35l1.748-2.62a.438.438 0 0 1 .364-.195h6.117c.146 0 .282.073.363.194l1.748 2.622c.068.102.09.229.06.348l-1.748 6.991a.436.436 0 0 1-.423.331z" />
        <path d="M24.637 13.674a.436.436 0 0 1-.31-.746l3.152-3.151a.437.437 0 1 1 .617.617l-3.15 3.152a.436.436 0 0 1-.31.128zM25.424 16.594a.436.436 0 0 1-.31-.745l5.287-5.286a.437.437 0 1 1 .617.617l-5.286 5.286a.435.435 0 0 1-.308.128zM26.465 19.261a.436.436 0 0 1-.31-.746l5.252-5.251a.437.437 0 1 1 .618.617l-5.251 5.252a.436.436 0 0 1-.31.128zM27.126 8.775a.437.437 0 0 1-.437-.437V.473a.437.437 0 1 1 .874 0v7.865a.437.437 0 0 1-.437.437zM28.874 8.775a.437.437 0 0 1-.437-.437V.473a.437.437 0 1 1 .874 0v7.865a.437.437 0 0 1-.437.437z" />
        <path d="M27.126 2.657a.436.436 0 0 1-.309-.745L28.565.164a.437.437 0 1 1 .618.618L27.435 2.53a.436.436 0 0 1-.309.127zM27.126 5.28a.436.436 0 0 1-.309-.747l1.748-1.747a.437.437 0 1 1 .618.617l-1.748 1.748a.436.436 0 0 1-.309.128zM27.126 7.9a.436.436 0 0 1-.309-.745l1.748-1.748a.437.437 0 1 1 .618.618l-1.748 1.748a.435.435 0 0 1-.309.128zM55.527 45.478H.473a.437.437 0 0 1-.437-.437v-2.622c0-.241.195-.437.437-.437h55.054c.242 0 .437.196.437.437v2.622a.437.437 0 0 1-.437.437zM.91 44.604h54.18v-1.748H.91v1.748zM55.527 55.964H.473a.437.437 0 0 1-.437-.437v-2.621c0-.242.195-.437.437-.437h55.054c.242 0 .437.195.437.437v2.621a.436.436 0 0 1-.437.437zM.91 55.09h54.18v-1.747H.91v1.747z" />
        <path d="M3.094 52.469a.437.437 0 0 1-.437-.437v-6.117a.437.437 0 1 1 .874 0v6.117a.437.437 0 0 1-.437.437zM52.906 52.469a.437.437 0 0 1-.437-.437v-6.117a.437.437 0 1 1 .874 0v6.117a.437.437 0 0 1-.437.437zM2.657 45.478a.437.437 0 0 1-.436-.437v-.437a.437.437 0 1 1 .873 0v.437a.437.437 0 0 1-.437.437zM4.405 45.478a.437.437 0 0 1-.437-.437v-.437a.437.437 0 1 1 .874 0v.437a.437.437 0 0 1-.437.437zM6.153 45.478a.437.437 0 0 1-.437-.437v-.437a.437.437 0 1 1 .874 0v.437a.437.437 0 0 1-.437.437zM7.9 45.478a.437.437 0 0 1-.436-.437v-.437a.437.437 0 1 1 .874 0v.437a.437.437 0 0 1-.437.437zM9.649 45.478a.437.437 0 0 1-.437-.437v-.437a.437.437 0 1 1 .873 0v.437a.437.437 0 0 1-.436.437zM11.396 45.478a.437.437 0 0 1-.437-.437v-.437a.437.437 0 1 1 .874 0v.437a.437.437 0 0 1-.437.437zM13.144 45.478a.437.437 0 0 1-.437-.437v-.437a.437.437 0 1 1 .874 0v.437a.437.437 0 0 1-.437.437zM14.892 45.478a.437.437 0 0 1-.437-.437v-.437a.437.437 0 1 1 .874 0v.437a.437.437 0 0 1-.437.437zM16.64 45.478a.437.437 0 0 1-.437-.437v-.437a.437.437 0 1 1 .873 0v.437a.437.437 0 0 1-.436.437zM18.387 45.478a.437.437 0 0 1-.437-.437v-.437a.437.437 0 1 1 .874 0v.437a.437.437 0 0 1-.437.437zM20.135 45.478a.437.437 0 0 1-.437-.437v-.437a.437.437 0 1 1 .874 0v.437a.437.437 0 0 1-.437.437zM21.883 45.478a.437.437 0 0 1-.437-.437v-.437a.437.437 0 1 1 .874 0v.437a.437.437 0 0 1-.437.437zM23.63 45.478a.437.437 0 0 1-.436-.437v-.437a.437.437 0 1 1 .874 0v.437a.437.437 0 0 1-.437.437zM25.378 45.478a.437.437 0 0 1-.437-.437v-.437a.437.437 0 1 1 .874 0v.437a.437.437 0 0 1-.437.437zM27.126 45.478a.437.437 0 0 1-.437-.437v-.437a.437.437 0 1 1 .874 0v.437a.437.437 0 0 1-.437.437zM28.874 45.478a.437.437 0 0 1-.437-.437v-.437a.437.437 0 1 1 .874 0v.437a.437.437 0 0 1-.437.437zM30.622 45.478a.437.437 0 0 1-.437-.437v-.437a.437.437 0 1 1 .874 0v.437a.437.437 0 0 1-.437.437zM32.37 45.478a.437.437 0 0 1-.438-.437v-.437a.437.437 0 1 1 .874 0v.437a.437.437 0 0 1-.437.437zM34.117 45.478a.437.437 0 0 1-.437-.437v-.437a.437.437 0 1 1 .874 0v.437a.437.437 0 0 1-.437.437zM35.865 45.478a.437.437 0 0 1-.437-.437v-.437a.437.437 0 1 1 .874 0v.437a.437.437 0 0 1-.437.437zM37.613 45.478a.437.437 0 0 1-.437-.437v-.437a.437.437 0 1 1 .874 0v.437a.437.437 0 0 1-.437.437zM39.36 45.478a.437.437 0 0 1-.437-.437v-.437a.437.437 0 1 1 .874 0v.437a.437.437 0 0 1-.437.437zM41.108 45.478a.437.437 0 0 1-.437-.437v-.437a.437.437 0 1 1 .874 0v.437a.437.437 0 0 1-.437.437zM42.856 45.478a.437.437 0 0 1-.437-.437v-.437a.437.437 0 1 1 .874 0v.437a.437.437 0 0 1-.437.437zM44.604 45.478a.437.437 0 0 1-.437-.437v-.437a.437.437 0 1 1 .874 0v.437a.437.437 0 0 1-.437.437zM46.351 45.478a.437.437 0 0 1-.436-.437v-.437a.437.437 0 1 1 .873 0v.437a.437.437 0 0 1-.437.437zM48.1 45.478a.437.437 0 0 1-.438-.437v-.437a.437.437 0 1 1 .874 0v.437a.437.437 0 0 1-.437.437zM49.847 45.478a.437.437 0 0 1-.437-.437v-.437a.437.437 0 1 1 .874 0v.437a.437.437 0 0 1-.437.437zM51.595 45.478a.437.437 0 0 1-.437-.437v-.437a.437.437 0 1 1 .874 0v.437a.437.437 0 0 1-.437.437zM53.343 45.478a.437.437 0 0 1-.437-.437v-.437a.437.437 0 1 1 .873 0v.437a.437.437 0 0 1-.436.437zM2.657 53.78a.437.437 0 0 1-.436-.437v-.437a.437.437 0 1 1 .873 0v.437a.437.437 0 0 1-.437.436zM4.405 53.78a.437.437 0 0 1-.437-.437v-.437a.437.437 0 1 1 .874 0v.437a.437.437 0 0 1-.437.436zM6.153 53.78a.437.437 0 0 1-.437-.437v-.437a.437.437 0 1 1 .874 0v.437a.437.437 0 0 1-.437.436zM7.9 53.78a.437.437 0 0 1-.436-.437v-.437a.437.437 0 1 1 .874 0v.437a.437.437 0 0 1-.437.436zM9.649 53.78a.437.437 0 0 1-.437-.437v-.437a.437.437 0 1 1 .873 0v.437a.437.437 0 0 1-.436.436zM11.396 53.78a.437.437 0 0 1-.437-.437v-.437a.437.437 0 1 1 .874 0v.437a.437.437 0 0 1-.437.436zM13.144 53.78a.437.437 0 0 1-.437-.437v-.437a.437.437 0 1 1 .874 0v.437a.437.437 0 0 1-.437.436zM14.892 53.78a.437.437 0 0 1-.437-.437v-.437a.437.437 0 1 1 .874 0v.437a.437.437 0 0 1-.437.436zM16.64 53.78a.437.437 0 0 1-.437-.437v-.437a.437.437 0 1 1 .873 0v.437a.437.437 0 0 1-.436.436zM18.387 53.78a.437.437 0 0 1-.437-.437v-.437a.437.437 0 1 1 .874 0v.437a.437.437 0 0 1-.437.436zM20.135 53.78a.437.437 0 0 1-.437-.437v-.437a.437.437 0 1 1 .874 0v.437a.437.437 0 0 1-.437.436zM21.883 53.78a.437.437 0 0 1-.437-.437v-.437a.437.437 0 1 1 .874 0v.437a.437.437 0 0 1-.437.436zM23.63 53.78a.437.437 0 0 1-.436-.437v-.437a.437.437 0 1 1 .874 0v.437a.437.437 0 0 1-.437.436zM25.378 53.78a.437.437 0 0 1-.437-.437v-.437a.437.437 0 1 1 .874 0v.437a.437.437 0 0 1-.437.436zM27.126 53.78a.437.437 0 0 1-.437-.437v-.437a.437.437 0 1 1 .874 0v.437a.437.437 0 0 1-.437.436zM28.874 53.78a.437.437 0 0 1-.437-.437v-.437a.437.437 0 1 1 .874 0v.437a.437.437 0 0 1-.437.436zM30.622 53.78a.437.437 0 0 1-.437-.437v-.437a.437.437 0 1 1 .874 0v.437a.437.437 0 0 1-.437.436zM32.37 53.78a.437.437 0 0 1-.438-.437v-.437a.437.437 0 1 1 .874 0v.437a.437.437 0 0 1-.437.436zM34.117 53.78a.437.437 0 0 1-.437-.437v-.437a.437.437 0 1 1 .874 0v.437a.437.437 0 0 1-.437.436zM35.865 53.78a.437.437 0 0 1-.437-.437v-.437a.437.437 0 1 1 .874 0v.437a.437.437 0 0 1-.437.436zM37.613 53.78a.437.437 0 0 1-.437-.437v-.437a.437.437 0 1 1 .874 0v.437a.437.437 0 0 1-.437.436zM39.36 53.78a.437.437 0 0 1-.437-.437v-.437a.437.437 0 1 1 .874 0v.437a.437.437 0 0 1-.437.436zM41.108 53.78a.437.437 0 0 1-.437-.437v-.437a.437.437 0 1 1 .874 0v.437a.437.437 0 0 1-.437.436zM42.856 53.78a.437.437 0 0 1-.437-.437v-.437a.437.437 0 1 1 .874 0v.437a.437.437 0 0 1-.437.436zM44.604 53.78a.437.437 0 0 1-.437-.437v-.437a.437.437 0 1 1 .874 0v.437a.437.437 0 0 1-.437.436zM46.351 53.78a.437.437 0 0 1-.436-.437v-.437a.437.437 0 1 1 .873 0v.437a.437.437 0 0 1-.437.436zM48.1 53.78a.437.437 0 0 1-.438-.437v-.437a.437.437 0 1 1 .874 0v.437a.437.437 0 0 1-.437.436zM49.847 53.78a.437.437 0 0 1-.437-.437v-.437a.437.437 0 1 1 .874 0v.437a.437.437 0 0 1-.437.436zM51.595 53.78a.437.437 0 0 1-.437-.437v-.437a.437.437 0 1 1 .874 0v.437a.437.437 0 0 1-.437.436zM53.343 53.78a.437.437 0 0 1-.437-.437v-.437a.437.437 0 1 1 .873 0v.437a.437.437 0 0 1-.436.436zM35.428 50.72H20.572a.437.437 0 0 1-.437-.436v-2.622c0-.241.196-.437.437-.437h14.856c.241 0 .437.196.437.437v2.622a.437.437 0 0 1-.437.437zm-14.419-.873h13.982v-1.748H21.009v1.748zM6.59 41.982a.437.437 0 0 1-.253-.794L27.31 26.332a.437.437 0 0 1 .505.713L6.844 41.903a.44.44 0 0 1-.253.08zM49.41 41.982a.434.434 0 0 1-.248-.078L31.684 29.845a.437.437 0 1 1 .497-.719l17.477 12.06a.437.437 0 0 1-.248.796z" />
      </g>
    </g>
  </svg>
