 <svg
    xmlns="http://www.w3.org/2000/svg"
    width="46"
    height="56"
    viewBox="0 0 46 56"
  >
    <g fill="none" fillRule="nonzero">
      <path
        fill="#D7E9FF"
        d="M45.529 51.115c0 1.448-1.187 2.622-2.65 2.622-1.465 0-2.651-1.174-2.651-2.622s1.186-7.865 2.65-7.865c1.465 0 2.65 6.417 2.65 7.865z"
      />
      <path fill="#94C1FF" d="M10.189 13.581H35.81v41.946H10.189z" />
      <path
        fill="#D7E9FF"
        d="M5.772 51.115c0 1.448-1.186 2.622-2.65 2.622-1.465 0-2.65-1.174-2.65-2.622s1.185-7.865 2.65-7.865c1.464 0 2.65 6.417 2.65 7.865z"
      />
      <path
        fill="#94C1FF"
        d="M3.122 43.25c-.151 0-.298.082-.442.207 1.253 1.077 2.209 6.36 2.209 7.658 0 1.3-.956 2.37-2.21 2.578.145.024.292.044.443.044 1.464 0 2.65-1.174 2.65-2.622s-1.186-7.865-2.65-7.865z"
      />
      <path
        fill="#FFF"
        d="M1.355 51.115c0-1.299.955-6.581 2.208-7.658-.144-.125-.29-.207-.441-.207-1.464 0-2.65 6.417-2.65 7.865 0 1.448 1.186 2.622 2.65 2.622.15 0 .297-.02.441-.045-1.252-.208-2.208-1.278-2.208-2.577z"
      />
      <path
        fill="#94C1FF"
        d="M42.878 43.25c-.15 0-.297.082-.441.207 1.253 1.077 2.208 6.36 2.208 7.658 0 1.3-.956 2.37-2.208 2.578.144.024.29.044.441.044 1.465 0 2.65-1.174 2.65-2.622s-1.185-7.865-2.65-7.865z"
      />
      <path
        fill="#FFF"
        d="M41.111 51.115c0-1.299.956-6.581 2.21-7.658-.145-.125-.292-.207-.443-.207-1.464 0-2.65 6.417-2.65 7.865 0 1.448 1.186 2.622 2.65 2.622.151 0 .298-.02.442-.045-1.253-.208-2.209-1.278-2.209-2.577z"
      />
      <path
        fill="#5C9EFF"
        d="M19.908 11.833h16.786v1.748H19.908zM8.423 8.338h11.485v1.748H8.423z"
      />
      <path fill="#FFF" d="M13.723 42.419h2.651v1.748h-2.651z" />
      <path fill="#D7E9FF" d="M13.723 44.167h2.651v1.748h-2.651z" />
      <path fill="#FFF" d="M19.024 42.419h2.651v1.748h-2.651z" />
      <path fill="#D7E9FF" d="M19.024 44.167h2.651v1.748h-2.651z" />
      <path fill="#FFF" d="M24.325 42.419h2.651v1.748h-2.651z" />
      <path fill="#D7E9FF" d="M24.325 44.167h2.651v1.748h-2.651z" />
      <path fill="#FFF" d="M29.626 42.419h2.651v1.748h-2.651z" />
      <path fill="#D7E9FF" d="M29.626 44.167h2.651v1.748h-2.651z" />
      <path fill="#FFF" d="M13.723 34.554h2.651v1.748h-2.651z" />
      <path fill="#D7E9FF" d="M13.723 36.302h2.651v1.748h-2.651z" />
      <path fill="#FFF" d="M19.024 34.554h2.651v1.748h-2.651z" />
      <path fill="#D7E9FF" d="M19.024 36.302h2.651v1.748h-2.651z" />
      <path fill="#FFF" d="M24.325 34.554h2.651v1.748h-2.651z" />
      <path fill="#D7E9FF" d="M24.325 36.302h2.651v1.748h-2.651z" />
      <path fill="#FFF" d="M29.626 34.554h2.651v1.748h-2.651z" />
      <path fill="#D7E9FF" d="M29.626 36.302h2.651v1.748h-2.651z" />
      <path fill="#FFF" d="M13.723 26.689h2.651v1.748h-2.651z" />
      <path fill="#D7E9FF" d="M13.723 28.437h2.651v1.748h-2.651z" />
      <path fill="#FFF" d="M19.024 26.689h2.651v1.748h-2.651z" />
      <path fill="#D7E9FF" d="M19.024 28.437h2.651v1.748h-2.651z" />
      <path fill="#FFF" d="M24.325 26.689h2.651v1.748h-2.651z" />
      <path fill="#D7E9FF" d="M24.325 28.437h2.651v1.748h-2.651z" />
      <path fill="#FFF" d="M29.626 26.689h2.651v1.748h-2.651z" />
      <path fill="#D7E9FF" d="M29.626 28.437h2.651v1.748h-2.651z" />
      <path fill="#FFF" d="M13.723 18.824h2.651v1.748h-2.651z" />
      <path fill="#D7E9FF" d="M13.723 20.572h2.651v1.748h-2.651z" />
      <path fill="#FFF" d="M19.024 18.824h2.651v1.748h-2.651z" />
      <path fill="#D7E9FF" d="M19.024 20.572h2.651v1.748h-2.651z" />
      <path fill="#FFF" d="M24.325 18.824h2.651v1.748h-2.651z" />
      <path fill="#D7E9FF" d="M24.325 20.572h2.651v1.748h-2.651z" />
      <path fill="#FFF" d="M29.626 18.824h2.651v1.748h-2.651z" />
      <path
        fill="#D7E9FF"
        d="M29.626 20.572h2.651v1.748h-2.651zM21.675 50.284h2.65v5.243h-2.65z"
      />
      <path
        fill="#FFF"
        d="M21.675 50.284h1v5.243h-1zM13.723 20.572h1v1.748h-1zM19.024 20.572h1v1.748h-1zM24.325 20.572h1v1.748h-1zM29.626 20.572h1v1.748h-1zM13.723 28.437h1v1.748h-1zM19.024 28.437h1v1.748h-1zM24.325 28.437h1v1.748h-1zM29.626 28.437h1v1.748h-1zM13.723 36.302h1v1.748h-1zM19.024 36.302h1v1.748h-1zM24.325 36.302h1v1.748h-1zM29.626 36.302h1v1.748h-1zM13.723 44.167h1v1.748h-1zM19.024 44.167h1v1.748h-1zM24.325 44.167h1v1.748h-1zM29.626 44.167h1v1.748h-1z"
      />
      <path fill="#D7E9FF" d="M10.189 13.581h1v41.946h-1z" />
      <path fill="#5C9EFF" d="M34.927 13.581h1v41.946h-1z" />
      <path fill="#94C1FF" d="M8.423 8.338h1v1.748h-1z" />
      <path fill="#2287FF" d="M35.811 11.833h1v1.748h-1z" />
      <g fill="#116FFF">
        <path d="M38.46 55.964H7.54a.44.44 0 0 1-.443-.437.44.44 0 0 1 .442-.437h30.922c.244 0 .442.196.442.437a.439.439 0 0 1-.442.437z" />
        <path d="M10.19 55.964a.44.44 0 0 1-.442-.437V13.581a.44.44 0 0 1 .441-.437.44.44 0 0 1 .442.437v41.946a.439.439 0 0 1-.442.437zM35.81 55.964a.44.44 0 0 1-.441-.437V14.455a.44.44 0 0 1 .442-.437.44.44 0 0 1 .441.437v41.072a.44.44 0 0 1-.441.437zM19.908 14.018a.44.44 0 0 1-.442-.437v-1.748a.44.44 0 0 1 .442-.437.44.44 0 0 1 .442.437v1.748a.44.44 0 0 1-.442.437z" />
        <path d="M36.694 12.27H19.908a.44.44 0 0 1-.442-.437.44.44 0 0 1 .442-.437h16.786a.44.44 0 0 1 .442.437.44.44 0 0 1-.442.437z" />
        <path d="M36.694 14.018a.44.44 0 0 1-.442-.437v-1.748a.44.44 0 0 1 .442-.437.44.44 0 0 1 .442.437v1.748a.44.44 0 0 1-.442.437z" />
        <path d="M36.694 14.018H19.908a.44.44 0 0 1-.442-.437.44.44 0 0 1 .442-.437h16.786a.44.44 0 0 1 .442.437.44.44 0 0 1-.442.437z" />
        <path d="M19.908 14.892a.44.44 0 0 1-.442-.437v-.874a.44.44 0 0 1 .442-.437.44.44 0 0 1 .442.437v.874a.44.44 0 0 1-.442.437zM21.675 14.892a.44.44 0 0 1-.442-.437v-.874a.44.44 0 0 1 .442-.437.44.44 0 0 1 .442.437v.874a.44.44 0 0 1-.442.437zM23.442 14.892a.44.44 0 0 1-.442-.437v-.874a.44.44 0 0 1 .442-.437.44.44 0 0 1 .442.437v.874a.44.44 0 0 1-.442.437zM25.209 14.892a.44.44 0 0 1-.442-.437v-.874a.44.44 0 0 1 .442-.437.44.44 0 0 1 .441.437v.874a.439.439 0 0 1-.441.437zM8.423 10.522a.44.44 0 0 1-.442-.437V8.338a.44.44 0 0 1 .442-.437.44.44 0 0 1 .441.437v1.747a.44.44 0 0 1-.441.437z" />
        <path d="M19.908 8.775H8.423a.44.44 0 0 1-.442-.437.44.44 0 0 1 .442-.437h11.485a.44.44 0 0 1 .442.437.44.44 0 0 1-.442.437zM19.908 10.522H8.423a.44.44 0 0 1-.442-.437.44.44 0 0 1 .442-.436h11.485a.44.44 0 0 1 .442.436.44.44 0 0 1-.442.437z" />
        <path d="M11.073 11.396a.44.44 0 0 1-.442-.437v-.874a.44.44 0 0 1 .442-.436.44.44 0 0 1 .442.436v.874a.439.439 0 0 1-.442.437zM12.84 11.396a.44.44 0 0 1-.442-.437v-.874a.44.44 0 0 1 .442-.436.44.44 0 0 1 .442.436v.874a.439.439 0 0 1-.442.437zM14.607 11.396a.44.44 0 0 1-.442-.437v-.874a.44.44 0 0 1 .442-.436.44.44 0 0 1 .442.436v.874a.439.439 0 0 1-.442.437zM16.374 11.396a.44.44 0 0 1-.442-.437v-.874a.44.44 0 0 1 .442-.436.44.44 0 0 1 .442.436v.874a.439.439 0 0 1-.442.437zM18.14 11.396a.44.44 0 0 1-.44-.437v-.874a.44.44 0 0 1 .44-.436.44.44 0 0 1 .443.436v.874a.44.44 0 0 1-.442.437zM26.976 14.892a.44.44 0 0 1-.442-.437v-.874a.44.44 0 0 1 .442-.437.44.44 0 0 1 .441.437v.874a.44.44 0 0 1-.441.437zM28.743 14.892a.44.44 0 0 1-.442-.437v-.874a.44.44 0 0 1 .442-.437.44.44 0 0 1 .441.437v.874a.439.439 0 0 1-.441.437zM30.51 14.892a.44.44 0 0 1-.442-.437v-.874a.44.44 0 0 1 .442-.437.44.44 0 0 1 .441.437v.874a.44.44 0 0 1-.441.437zM32.277 14.892a.44.44 0 0 1-.442-.437v-.874a.44.44 0 0 1 .442-.437.44.44 0 0 1 .441.437v.874a.439.439 0 0 1-.441.437zM34.044 14.892a.44.44 0 0 1-.442-.437v-.874a.44.44 0 0 1 .442-.437.44.44 0 0 1 .441.437v.874a.44.44 0 0 1-.441.437zM16.374 22.757h-2.65a.44.44 0 0 1-.442-.437v-3.496a.44.44 0 0 1 .441-.437h2.65a.44.44 0 0 1 .443.437v3.496a.44.44 0 0 1-.442.437zm-2.209-.874h1.767V19.26h-1.767v2.622zM21.675 22.757h-2.65a.44.44 0 0 1-.442-.437v-3.496a.44.44 0 0 1 .441-.437h2.65a.44.44 0 0 1 .443.437v3.496a.44.44 0 0 1-.442.437zm-2.209-.874h1.767V19.26h-1.767v2.622zM26.976 22.757h-2.65a.44.44 0 0 1-.442-.437v-3.496a.44.44 0 0 1 .441-.437h2.65a.44.44 0 0 1 .442.437v3.496a.44.44 0 0 1-.441.437zm-2.21-.874h1.768V19.26h-1.767v2.622zM32.277 22.757h-2.65a.44.44 0 0 1-.443-.437v-3.496a.44.44 0 0 1 .442-.437h2.65a.44.44 0 0 1 .442.437v3.496a.44.44 0 0 1-.441.437zm-2.21-.874h1.768V19.26h-1.767v2.622zM16.374 30.622h-2.65a.44.44 0 0 1-.442-.437v-3.496a.44.44 0 0 1 .441-.437h2.65a.44.44 0 0 1 .443.437v3.496a.439.439 0 0 1-.442.437zm-2.209-.874h1.767v-2.622h-1.767v2.622zM21.675 30.622h-2.65a.439.439 0 0 1-.442-.437v-3.496a.44.44 0 0 1 .441-.437h2.65a.44.44 0 0 1 .443.437v3.496a.44.44 0 0 1-.442.437zm-2.209-.874h1.767v-2.622h-1.767v2.622zM26.976 30.622h-2.65a.439.439 0 0 1-.442-.437v-3.496a.44.44 0 0 1 .441-.437h2.65a.44.44 0 0 1 .442.437v3.496a.44.44 0 0 1-.441.437zm-2.21-.874h1.768v-2.622h-1.767v2.622zM32.277 30.622h-2.65a.44.44 0 0 1-.443-.437v-3.496a.44.44 0 0 1 .442-.437h2.65a.44.44 0 0 1 .442.437v3.496a.439.439 0 0 1-.441.437zm-2.21-.874h1.768v-2.622h-1.767v2.622zM16.374 38.487h-2.65a.44.44 0 0 1-.442-.437v-3.496a.44.44 0 0 1 .441-.437h2.65a.44.44 0 0 1 .443.437v3.496a.439.439 0 0 1-.442.437zm-2.209-.874h1.767V34.99h-1.767v2.622zM21.675 38.487h-2.65a.439.439 0 0 1-.442-.437v-3.496a.44.44 0 0 1 .441-.437h2.65a.44.44 0 0 1 .443.437v3.496a.44.44 0 0 1-.442.437zm-2.209-.874h1.767V34.99h-1.767v2.622zM26.976 38.487h-2.65a.439.439 0 0 1-.442-.437v-3.496a.44.44 0 0 1 .441-.437h2.65a.44.44 0 0 1 .442.437v3.496a.44.44 0 0 1-.441.437zm-2.21-.874h1.768V34.99h-1.767v2.622zM32.277 38.487h-2.65a.44.44 0 0 1-.443-.437v-3.496a.44.44 0 0 1 .442-.437h2.65a.44.44 0 0 1 .442.437v3.496a.439.439 0 0 1-.441.437zm-2.21-.874h1.768V34.99h-1.767v2.622zM16.374 46.351h-2.65a.44.44 0 0 1-.442-.436v-3.496a.44.44 0 0 1 .441-.437h2.65a.44.44 0 0 1 .443.437v3.496a.44.44 0 0 1-.442.436zm-2.209-.873h1.767v-2.622h-1.767v2.622zM21.675 46.351h-2.65a.44.44 0 0 1-.442-.436v-3.496a.44.44 0 0 1 .441-.437h2.65a.44.44 0 0 1 .443.437v3.496a.44.44 0 0 1-.442.436zm-2.209-.873h1.767v-2.622h-1.767v2.622zM26.976 46.351h-2.65a.44.44 0 0 1-.442-.436v-3.496a.44.44 0 0 1 .441-.437h2.65a.44.44 0 0 1 .442.437v3.496a.44.44 0 0 1-.441.436zm-2.21-.873h1.768v-2.622h-1.767v2.622zM32.277 46.351h-2.65a.44.44 0 0 1-.443-.436v-3.496a.44.44 0 0 1 .442-.437h2.65a.44.44 0 0 1 .442.437v3.496a.44.44 0 0 1-.441.436zm-2.21-.873h1.768v-2.622h-1.767v2.622zM24.325 55.964h-2.65a.44.44 0 0 1-.442-.437v-5.243a.44.44 0 0 1 .442-.437h2.65a.44.44 0 0 1 .442.437v5.243a.44.44 0 0 1-.442.437zm-2.208-.874h1.767v-4.37h-1.767v4.37zM19.908 10.522a.44.44 0 0 1-.442-.437V8.338a.44.44 0 0 1 .442-.437.44.44 0 0 1 .442.437v1.747a.44.44 0 0 1-.442.437zM14.165 5.28a.44.44 0 0 1-.442-.438V.472a.44.44 0 0 1 .442-.436.44.44 0 0 1 .442.437v4.37a.44.44 0 0 1-.442.436z" />
        <path d="M10.19 7.027a.436.436 0 0 1-.18-.836l3.976-1.748a.443.443 0 0 1 .583.222c.099.22-.002.478-.224.577l-3.976 1.747a.444.444 0 0 1-.18.038z" />
        <path d="M18.14 7.027a.444.444 0 0 1-.179-.038l-3.975-1.747a.435.435 0 0 1-.224-.577c.099-.221.36-.32.583-.222L18.32 6.19a.435.435 0 0 1-.18.836zM42.878 55.964a.44.44 0 0 1-.441-.437v-5.286a.44.44 0 0 1 .441-.437.44.44 0 0 1 .442.437v5.286a.44.44 0 0 1-.442.437z" />
        <path d="M44.646 53.506a.442.442 0 0 1-.329-.145.434.434 0 0 1 .034-.617 2.181 2.181 0 0 0 .736-1.629c0-2.824-1.613-7.428-2.209-7.428-.595 0-2.208 4.604-2.208 7.428 0 .62.268 1.214.736 1.63a.434.434 0 0 1 .033.616.443.443 0 0 1-.624.034 3.051 3.051 0 0 1-1.029-2.28c0-.924 1.032-8.302 3.092-8.302s3.092 7.378 3.092 8.302c0 .869-.375 1.7-1.029 2.28a.442.442 0 0 1-.295.111zM3.122 55.964a.44.44 0 0 1-.442-.437v-5.286a.44.44 0 0 1 .442-.437.44.44 0 0 1 .441.437v5.286a.439.439 0 0 1-.441.437z" />
        <path d="M4.89 53.506a.442.442 0 0 1-.33-.145.434.434 0 0 1 .034-.617 2.181 2.181 0 0 0 .736-1.629c0-2.824-1.613-7.428-2.208-7.428-.596 0-2.21 4.604-2.21 7.428 0 .62.27 1.214.737 1.63a.434.434 0 0 1 .033.616.443.443 0 0 1-.623.034 3.051 3.051 0 0 1-1.03-2.28c0-.924 1.032-8.302 3.092-8.302s3.093 7.378 3.093 8.302c0 .869-.376 1.7-1.03 2.28a.442.442 0 0 1-.295.111zM16.374 21.009h-2.65a.44.44 0 0 1-.442-.437.44.44 0 0 1 .441-.437h2.65a.44.44 0 0 1 .443.437.44.44 0 0 1-.442.437zM21.675 21.009h-2.65a.44.44 0 0 1-.442-.437.44.44 0 0 1 .441-.437h2.65a.44.44 0 0 1 .443.437.44.44 0 0 1-.442.437zM26.976 21.009h-2.65a.44.44 0 0 1-.442-.437.44.44 0 0 1 .441-.437h2.65a.44.44 0 0 1 .442.437.44.44 0 0 1-.441.437zM32.277 21.009h-2.65a.44.44 0 0 1-.443-.437.44.44 0 0 1 .442-.437h2.65a.44.44 0 0 1 .442.437.44.44 0 0 1-.441.437zM32.277 28.874h-2.65a.44.44 0 0 1-.443-.437.44.44 0 0 1 .442-.437h2.65a.44.44 0 0 1 .442.437.44.44 0 0 1-.441.437zM26.976 28.874h-2.65a.44.44 0 0 1-.442-.437.44.44 0 0 1 .441-.437h2.65a.44.44 0 0 1 .442.437.44.44 0 0 1-.441.437zM21.675 28.874h-2.65a.44.44 0 0 1-.442-.437.44.44 0 0 1 .441-.437h2.65a.44.44 0 0 1 .443.437.44.44 0 0 1-.442.437zM16.374 28.874h-2.65a.44.44 0 0 1-.442-.437.44.44 0 0 1 .441-.437h2.65a.44.44 0 0 1 .443.437.44.44 0 0 1-.442.437zM16.374 36.739h-2.65a.44.44 0 0 1-.442-.437.44.44 0 0 1 .441-.437h2.65c.245 0 .443.195.443.437a.439.439 0 0 1-.442.437zM21.675 36.739h-2.65a.439.439 0 0 1-.442-.437c0-.242.197-.437.441-.437h2.65a.44.44 0 0 1 .443.437.44.44 0 0 1-.442.437zM26.976 36.739h-2.65a.439.439 0 0 1-.442-.437c0-.242.197-.437.441-.437h2.65a.44.44 0 0 1 .442.437.44.44 0 0 1-.441.437zM32.277 36.739h-2.65a.44.44 0 0 1-.443-.437.44.44 0 0 1 .442-.437h2.65c.245 0 .442.195.442.437a.439.439 0 0 1-.441.437zM16.374 44.604h-2.65a.44.44 0 0 1-.442-.437.44.44 0 0 1 .441-.437h2.65a.44.44 0 0 1 .443.437.44.44 0 0 1-.442.437zM21.675 44.604h-2.65a.44.44 0 0 1-.442-.437.44.44 0 0 1 .441-.437h2.65a.44.44 0 0 1 .443.437.44.44 0 0 1-.442.437zM26.976 44.604h-2.65a.44.44 0 0 1-.442-.437.44.44 0 0 1 .441-.437h2.65a.44.44 0 0 1 .442.437.44.44 0 0 1-.441.437zM32.277 44.604h-2.65a.44.44 0 0 1-.443-.437.44.44 0 0 1 .442-.437h2.65a.44.44 0 0 1 .442.437.44.44 0 0 1-.441.437z" />
      </g>
    </g>
  </svg>
