  <svg
    xmlns="http://www.w3.org/2000/svg"
    width="105"
    height="112"
    viewBox="0 0 105 112"
  >
    <g fill="none" fillRule="nonzero">
      <path
        fill="#5C9EFF"
        d="M18.38 40.253h15.747v45.92H18.38zM86.62 36.91l-15.748-7.13v56.392H86.62z"
      />
      <path
        fill="#94C1FF"
        d="M104.116 111.116H.883v-10.498c0-6.999 3.5-9.623 10.499-12.248 2.065-.77 5.039-1.557 8.189-2.572 4.548-1.452 9.413-3.342 12.213-6.177 0 0 4.094 8.749 20.716 8.749 16.623 0 20.122-8.749 20.122-8.749l.297-.297c4.566 5.005 15.573 7.14 20.7 9.046 6.998 2.625 10.497 5.25 10.497 12.248v10.498z"
      />
      <path
        fill="#D7E9FF"
        d="M14.881 88.37c2.065-.77 5.039-1.557 8.189-2.572 3.506-1.119 7.188-2.503 9.979-4.374-.901-1.05-1.265-1.803-1.265-1.803-2.8 2.835-7.665 4.725-12.213 6.177-3.15 1.015-6.124 1.801-8.19 2.572C4.384 90.995.884 93.62.884 100.618v10.498h3.5v-10.498c0-6.999 3.5-9.623 10.498-12.248z"
      />
      <path
        fill="#5C9EFF"
        d="M90.12 88.37c-2.067-.77-5.042-1.557-8.19-2.572-3.505-1.119-7.189-2.503-9.98-4.374.9-1.05 1.266-1.803 1.266-1.803 2.8 2.835 7.664 4.725 12.213 6.177 3.149 1.015 6.124 1.801 8.19 2.572 6.999 2.625 10.498 5.25 10.498 12.248v10.498h-3.5v-10.498c0-6.999-3.5-9.623-10.498-12.248z"
      />
      <path
        fill="#D7E9FF"
        d="M68.145 111.116c-.871-7.874-7.539-13.998-15.645-13.998-8.105 0-14.773 6.124-15.645 13.998h31.29z"
      />
      <path
        fill="#FFF"
        d="M54.25 97.224a15.973 15.973 0 0 0-1.75-.106c-8.105 0-14.774 6.124-15.645 13.998h3.5c.808-7.298 6.599-13.084 13.895-13.892z"
      />
      <path
        fill="#94C1FF"
        d="M50.75 97.224a15.983 15.983 0 0 1 1.75-.106c8.106 0 14.773 6.124 15.645 13.998h-3.5c-.808-7.298-6.599-13.084-13.895-13.892z"
      />
      <path
        fill="#D7E9FF"
        d="M82.823 39.484c0 20.04-18.965 38.494-30.62 38.494-11.654 0-30.62-18.455-30.62-38.494 0-20.04 13.71-33.245 30.62-33.245s30.62 13.206 30.62 33.245z"
      />
      <path
        fill="#94C1FF"
        d="M52.203 6.239c-.59 0-1.167.054-1.75.085 16.093.884 28.87 13.82 28.87 33.16 0 19.067-17.164 36.686-28.87 38.352a12.43 12.43 0 0 0 1.75.142c11.655 0 30.62-18.455 30.62-38.494 0-20.04-13.71-33.245-30.62-33.245z"
      />
      <path
        fill="#FFF"
        d="M25.082 39.484c0-19.34 12.78-32.276 28.87-33.16-.582-.031-1.159-.085-1.75-.085-16.909 0-30.62 13.206-30.62 33.245 0 20.04 18.967 38.494 30.62 38.494.566 0 1.154-.057 1.75-.142-11.704-1.666-28.87-19.285-28.87-38.352z"
      />
      <path
        fill="#94C1FF"
        d="M74.371 8.81s-6.09 6.107-16.01 13.07c-10.148 7.121-24.285 15.135-39.98 18.372v-5.249C18.38 16.16 33.655.884 52.5.884A34.023 34.023 0 0 1 74.371 8.81z"
      />
      <path
        fill="#D7E9FF"
        d="M21.88 35.004c0-18.29 14.4-33.175 32.479-34.037-.619-.033-1.233-.083-1.86-.083-18.844 0-34.119 15.275-34.119 34.12v5.249c1.177-.243 2.341-.52 3.5-.815v-4.434z"
      />
      <path
        fill="#94C1FF"
        d="M74.371 8.81C81.86 15.074 86.62 24.488 86.62 35.004v1.906h-.034c-16.448-6-28.224-15.03-28.224-15.03 9.92-6.963 16.01-13.07 16.01-13.07z"
      />
      <path
        fill="#5C9EFF"
        d="M74.371 8.81A34.023 34.023 0 0 0 52.5.884c-.553 0-1.094.056-1.641.083 7.584.41 14.528 3.265 20.013 7.843C78.36 15.074 83.12 24.488 83.12 35.004v.567c1.131.458 2.283.908 3.465 1.34h.035v-1.907c0-10.516-4.76-19.93-12.249-26.194zM59.709 63.874c1.574 0 2.852.788 2.852 1.75 0 .961-1.278 1.75-2.852 1.75-1.556 0-2.835-.789-2.835-1.75 0-.962 1.279-1.75 2.835-1.75z"
      />
      <path
        fill="#D7E9FF"
        d="M70.872 74.372c0 1.907.77 3.534 2.047 4.952l-.297.297s-3.5 8.749-20.122 8.749-20.716-8.749-20.716-8.749c1.452-1.47 2.344-3.202 2.344-5.25v-6.788c5.949 6.299 12.947 10.288 18.372 10.288 5.423 0 12.44-3.99 18.372-10.288v6.789z"
      />
      <g fill="#116FFF">
        <path d="M104.116 111.991H.883a.874.874 0 0 1-.874-.875v-10.498c0-7.496 3.888-10.376 11.065-13.067 1.253-.468 2.848-.946 4.537-1.45 1.168-.35 2.415-.725 3.691-1.135 4.064-1.299 9.081-3.148 11.859-5.96 1.408-1.423 2.092-2.939 2.092-4.634a.874.874 0 1 1 1.75 0c0 2.148-.874 4.121-2.597 5.864-3.045 3.085-8.317 5.038-12.57 6.396-1.285.413-2.544.791-3.724 1.145-1.731.517-3.227.965-4.424 1.413-6.728 2.522-9.93 4.876-9.93 11.428v9.623h101.484v-9.623c0-6.552-3.202-8.906-9.93-11.43-1.214-.451-2.823-.933-4.529-1.444-5.741-1.719-12.887-3.858-16.51-7.83-1.51-1.679-2.276-3.541-2.276-5.542a.874.874 0 1 1 1.75 0c0 1.577.596 3.005 1.822 4.366 3.294 3.61 10.474 5.76 15.716 7.33 1.733.52 3.37 1.01 4.638 1.481 7.18 2.693 11.069 5.572 11.069 13.068v10.499a.875.875 0 0 1-.876.875z" />
        <path d="M52.5 78.746c-5.656 0-12.761-3.949-19.008-10.561-6.867-7.264-11.347-16.453-12.29-25.214a.874.874 0 0 1 .776-.964.858.858 0 0 1 .964.776c.903 8.389 5.212 17.208 11.822 24.199 5.834 6.177 12.63 10.014 17.736 10.014 5.123 0 11.918-3.836 17.736-10.013a48.342 48.342 0 0 0 1.72-1.925.875.875 0 0 1 1.333 1.131 49.5 49.5 0 0 1-1.781 1.994c-6.135 6.516-13.42 10.563-19.008 10.563zM77.555 59.5a.876.876 0 0 1-.757-1.314c3.564-6.142 5.447-12.645 5.447-18.808a.875.875 0 1 1 1.75 0c0 6.47-1.965 13.278-5.683 19.686a.87.87 0 0 1-.757.436z" />
        <path d="M34.128 75.982a.874.874 0 0 1-.875-.875v-7.524a.874.874 0 1 1 1.75 0v7.524a.874.874 0 0 1-.875.875zM70.872 75.247a.874.874 0 0 1-.875-.875v-6.789a.874.874 0 1 1 1.75 0v6.789a.874.874 0 0 1-.875.875zM37.627 108.561a.876.876 0 0 1-.826-1.162 16.64 16.64 0 0 1 1.846-3.73c3.761-5.654 10.585-8.531 17.522-7.02a.874.874 0 1 1-.373 1.708c-6.236-1.358-12.327 1.22-15.69 6.28a14.949 14.949 0 0 0-1.653 3.337.873.873 0 0 1-.826.587zM67.372 108.561a.875.875 0 0 1-.826-.587 14.93 14.93 0 0 0-1.653-3.34 15.181 15.181 0 0 0-2.48-2.856.877.877 0 0 1 1.17-1.305c1.035.927 1.965 2 2.766 3.19a16.715 16.715 0 0 1 1.85 3.737.877.877 0 0 1-.827 1.161zM50.75 108.491a.873.873 0 0 1-.618-1.493l15.747-15.747a.874.874 0 1 1 1.237 1.237l-15.747 15.747a.873.873 0 0 1-.619.256zM86.62 35.878a.874.874 0 0 1-.875-.874c0-9.876-4.35-19.178-11.934-25.524A33.32 33.32 0 0 0 52.5 1.76c-18.331 0-33.245 14.913-33.245 33.245a.874.874 0 1 1-1.75 0C17.506 15.708 33.206.009 52.5.009a35.067 35.067 0 0 1 22.432 8.13 34.946 34.946 0 0 1 12.563 26.864.874.874 0 0 1-.875.875z" />
        <path d="M18.38 83.12a.874.874 0 0 1-.874-.874V35.004a.874.874 0 1 1 1.75 0v47.242a.874.874 0 0 1-.876.875zM86.62 83.12a.874.874 0 0 1-.875-.874V35.004a.874.874 0 1 1 1.75 0v47.242a.874.874 0 0 1-.875.875z" />
        <path d="M18.38 41.127a.875.875 0 0 1-.177-1.731c16.005-3.301 30.4-11.736 39.656-18.231C67.594 14.33 73.69 8.253 73.752 8.192a.875.875 0 0 1 1.237 1.235c-.062.062-6.257 6.242-16.127 13.17-9.391 6.59-24.008 15.15-40.306 18.512a.918.918 0 0 1-.177.018z" />
        <path d="M86.585 37.785a.879.879 0 0 1-.3-.053C69.9 31.754 57.946 22.666 57.828 22.575a.874.874 0 1 1 1.065-1.39c.116.09 11.869 9.022 27.99 14.904a.874.874 0 0 1-.299 1.696zM62.56 66.498a.876.876 0 0 1-.109-1.743c.023-.003 2.112-.266 4.945-.945 5.972-1.404 15.987-4.743 15.987-11.344 0-1.234-.352-2.563-1.045-3.948a.876.876 0 0 1 1.564-.783c.817 1.631 1.23 3.223 1.23 4.73 0 7.808-10.86 11.527-17.332 13.048-2.933.702-5.043.968-5.132.979a.826.826 0 0 1-.107.006z" />
        <path d="M59.709 68.248c-2.08 0-3.71-1.153-3.71-2.625C56 64.153 57.63 63 59.71 63c2.09 0 3.727 1.153 3.727 2.624 0 1.472-1.637 2.625-3.727 2.625zm0-3.5c-1.215 0-1.96.566-1.96.875 0 .31.745.875 1.96.875 1.225 0 1.977-.565 1.977-.875 0-.309-.752-.874-1.977-.874zM52.5 89.245c-16.984 0-21.332-8.875-21.508-9.253a.875.875 0 0 1 1.582-.745c.04.082 4.138 8.248 19.926 8.248 15.847 0 19.278-8.117 19.309-8.199a.875.875 0 0 1 1.626.65c-.154.38-3.916 9.299-20.935 9.299z" />
      </g>
    </g>
  </svg>
