  <svg
    xmlns="http://www.w3.org/2000/svg"
    width="30"
    height="30"
    viewBox="0 0 30 30"
  >
    <g fill="none" fillRule="evenodd">
      <path d="M-1-1h32v32H-1z" />
      <path
        fill="#FFF"
        fillRule="nonzero"
        d="M15 11.138a3.85 3.85 0 0 0-2.731 1.131.552.552 0 1 1-.78-.78A4.966 4.966 0 1 1 10.034 15a.552.552 0 0 1 1.104 0A3.862 3.862 0 1 0 15 11.138zm-3.31-8.826c0-.91.726-1.657 1.644-1.657h3.332a1.65 1.65 0 0 1 1.644 1.657v3.124c.4.11.793.242 1.176.397l2.145-2.146a1.648 1.648 0 0 1 2.335-.008l2.355 2.355a1.65 1.65 0 0 1-.008 2.335l-1.778 1.777c.297.493.553 1.01.765 1.544h2.389c.909 0 1.656.726 1.656 1.644v3.332a1.65 1.65 0 0 1-1.657 1.644h-2.02c-.182.669-.43 1.317-.74 1.936l1.385 1.385c.643.643.658 1.685.008 2.335l-2.355 2.355a1.65 1.65 0 0 1-2.335-.008l-1.385-1.386c-.62.31-1.267.559-1.936.74v2.021c0 .91-.726 1.657-1.644 1.657h-3.332a1.65 1.65 0 0 1-1.644-1.657V25.3a10.446 10.446 0 0 1-1.544-.765L8.37 26.313a1.648 1.648 0 0 1-2.335.008L3.68 23.966a1.65 1.65 0 0 1 .008-2.335l2.146-2.145a10.41 10.41 0 0 1-.397-1.176H2.312c-.91 0-1.657-.726-1.657-1.644v-3.332a1.65 1.65 0 0 1 1.657-1.644h3.492c.112-.283.236-.56.372-.832l-2.489-2.49a1.648 1.648 0 0 1-.008-2.334L6.034 3.68a1.65 1.65 0 0 1 2.335.008l2.489 2.49c.272-.137.55-.261.832-.373V2.31v.001zm-1.025 5.232L7.59 4.468a.546.546 0 0 0-.774-.009L4.459 6.815a.544.544 0 0 0 .009.774l3.076 3.076a9.331 9.331 0 0 0-.96 2.128H2.313a.546.546 0 0 0-.553.541v3.332c0 .303.247.54.553.54h4.006c.155.877.436 1.726.833 2.522l-2.683 2.683a.546.546 0 0 0-.009.774l2.356 2.356a.544.544 0 0 0 .774-.009l2.416-2.416a9.347 9.347 0 0 0 2.788 1.403v3.169a.546.546 0 0 0 .541.553h3.332a.545.545 0 0 0 .54-.553v-2.902a9.32 9.32 0 0 0 3.232-1.227l1.973 1.973a.546.546 0 0 0 .774.009l2.356-2.356a.544.544 0 0 0-.009-.774l-1.973-1.973a9.32 9.32 0 0 0 1.226-3.231h2.903a.546.546 0 0 0 .553-.541v-3.332a.544.544 0 0 0-.553-.54h-3.17a9.347 9.347 0 0 0-1.402-2.789l2.416-2.416a.546.546 0 0 0 .009-.774l-2.356-2.356a.544.544 0 0 0-.774.009L19.728 7.15a9.312 9.312 0 0 0-2.521-.833V2.312a.546.546 0 0 0-.541-.553h-3.332a.544.544 0 0 0-.54.553v4.273a9.331 9.331 0 0 0-2.129.96v-.001zM15 16.104a1.103 1.103 0 1 1 0-2.207 1.103 1.103 0 0 1 0 2.206z"
      />
    </g>
  </svg>
