  <svg
    xmlns="http://www.w3.org/2000/svg"
    width="18"
    height="13"
    viewBox="0 0 18 13"
  >
  <path fill="currentColor" fillRule="evenodd"
  d="M14.315 1.986s0-.141 0 0c-.709-.709-1.56-.993-2.41-.85.85-.143 1.276-.427 1.418-.568 0-.142 0-.284-.142-.284-.425 0-.85.142-1.134.284.425-.284.567-.426.567-.568-.425 0-.85.284-1.417.71.142-.284.283-.426.142-.568a1.107 1.107 0 0 0-.567.567c-.426.426-.709.71-.85 1.136-.568.993-.993 1.844-1.276 2.837h-.142a3.348 3.348 0 0 0-1.276-1.135c-.567-.425-1.275-.71-2.126-1.135-.85-.426-1.7-.851-2.693-1.135 0 .993.426 1.845 1.418 2.412-.284 0-.709 0-.992.142 0 .851.708 1.56 1.984 1.845-.425 0-.85.142-1.276.425.426.852 1.134 1.135 2.268 1.135-.142.142-.425.284-.425.284-.142.142-.284.426-.142.71.284.425.567.567 1.276.567-.992.994-2.268 1.561-3.685 1.42-.85 0-1.843-.426-2.835-1.278.992 1.42 2.41 2.554 4.11 3.264 1.984.567 3.969.71 5.811.142a10.114 10.114 0 0 0 4.82-3.264c.566-.851.991-1.703 1.133-2.554.992 0 1.7-.284 2.126-.851-.283.142-.992.142-1.984-.142.992-.142 1.7-.426 1.842-.993a2.76 2.76 0 0 1-2.126 0c-.141-.994-.567-1.845-1.417-2.555z"/>
  </svg>
