  <svg
    xmlns="http://www.w3.org/2000/svg"
    width="56"
    height="48"
    viewBox="0 0 56 48"
  >
    <g fill="currentColor" fillRule="nonzero">
      <path d="M55.18 8.969a.82.82 0 0 0-.82.82v35.055h-1.641V4.102a.82.82 0 0 0-.82-.82H4.101a.82.82 0 0 0-.82.82v40.742H1.64v-3.555a.82.82 0 0 0-1.641 0v4.375c0 .453.367.82.82.82h2.461v.274c0 .453.368.82.82.82h8.345a.82.82 0 0 0 .813-.928l-.022-.166H38.5a.82.82 0 0 0 0-1.64H13.02l-.216-1.64h30.392l-.216 1.64H42a.82.82 0 1 0 0 1.64h.763l-.022.166a.823.823 0 0 0 .813.928h8.344a.82.82 0 0 0 .82-.82v-.274h2.462a.82.82 0 0 0 .82-.82V9.79a.82.82 0 0 0-.82-.82zm-9.297 18.03a.821.821 0 0 1 0-1.642h5.195v1.641h-5.195zM43.599 4.921l3.597 14.639a.82.82 0 0 0 1.593-.391l-3.5-14.248h2.357l.7 8.11a.82.82 0 0 0 1.635-.142l-.688-7.968h1.785v18.795h-4.453L42.007 4.922H43.6zm-36.892 0L6.02 12.89a.82.82 0 1 0 1.634.141l.7-8.11h2.358l-3.5 14.249a.82.82 0 0 0 1.593.391l3.597-14.64h1.592L9.375 23.718H4.922V4.922h1.785zm3.41 22.076H4.922v-1.64h5.195a.821.821 0 0 1 0 1.64zm-5.195 18.94v-17.3h4.303l2.285 17.3H4.922zm5.943-17.416a2.465 2.465 0 0 0 1.713-2.344 2.465 2.465 0 0 0-1.555-2.288l4.66-18.968H27.18v36.64H12.587l-1.722-13.04zm17.955 13.04V4.922h11.498l4.66 18.968a2.465 2.465 0 0 0-1.556 2.288c0 1.096.72 2.027 1.713 2.344l-1.722 13.04H28.82zm22.258 4.376H44.49l2.285-17.3h4.303v17.3z" />
      <path d="M55.18 0H.82A.82.82 0 0 0 0 .82v36.97a.82.82 0 1 0 1.64 0V1.64h52.72v4.65a.82.82 0 1 0 1.64 0V.82a.82.82 0 0 0-.82-.82z" />
    </g>
  </svg>
