  <svg
    xmlns="http://www.w3.org/2000/svg"
    width="30"
    height="27"
    viewBox="0 0 30 27"
  >
    <g fill="none" fillRule="evenodd">
      <path d="M-1-3h32v32H-1z" />
      <path
        fill="#FFF"
        fillRule="nonzero"
        d="M12.7 25.138a1.656 1.656 0 1 1 0-1.104h14.435c.621 0 1.106-.49 1.106-1.096V3.062a1.101 1.101 0 0 0-1.106-1.096H2.865c-.621 0-1.106.49-1.106 1.096v19.876c0 .605.495 1.096 1.106 1.096h3.86a.552.552 0 1 1 0 1.104h-3.86a2.205 2.205 0 0 1-2.21-2.2V3.062a2.198 2.198 0 0 1 2.21-2.2h24.27c1.218 0 2.21.983 2.21 2.2v19.876a2.198 2.198 0 0 1-2.21 2.2H12.7zm-1.562 0a.552.552 0 1 1 0-1.104.552.552 0 0 1 0 1.104z"
      />
    </g>
  </svg>
