 <svg
    xmlns="http://www.w3.org/2000/svg"
    width="56"
    height="32"
    viewBox="0 0 56 32"
  >
    <g fill="none" fillRule="nonzero">
      <path
        fill="#D7E9FF"
        d="M.473 28.093h12.234v3.455H.473zM12.707 28.093H.473l22.72-22.458h12.235z"
      />
      <path fill="#F2C397" d="M12.707 31.548v-3.455L35.428 5.635V9.09z" />
      <path fill="#94C1FF" d="M12.707 31.548v-3.455L35.428 5.635V9.09z" />
      <path fill="#D7E9FF" d="M20.572 28.093h12.234v3.455H20.572z" />
      <path
        fill="#94C1FF"
        d="M12.707 28.093L35.428 5.635h-2.186l-22.72 22.458z"
      />
      <path fill="#D7E9FF" d="M32.806 28.093H20.572l22.72-22.458h12.235z" />
      <path fill="#94C1FF" d="M53.78 5.635L31.058 28.093h1.747L55.527 5.635z" />
      <path fill="#F2C397" d="M32.806 31.548v-3.455L55.527 5.635V9.09z" />
      <path fill="#94C1FF" d="M32.806 31.548v-3.455L55.527 5.635V9.09z" />
      <path
        fill="#D7E9FF"
        d="M10.522 22.91h12.234v3.455H10.522zM22.757 22.91H10.522L33.243.452h12.235z"
      />
      <path
        fill="#FFF"
        d="M33.243.452L10.523 22.91h1.747L34.991.452zM23.194 5.635L.473 28.093H2.22L24.94 5.635z"
      />
      <path fill="#F2C397" d="M22.757 26.365V22.91L45.477.452v3.456z" />
      <path fill="#94C1FF" d="M22.757 26.365V22.91L45.477.452v3.456z" />
      <path
        fill="#94C1FF"
        d="M22.758 28.093l22.72-22.458h-2.185l-22.72 22.458z"
      />
      <path
        fill="#FFF"
        d="M.473 28.093h1.748v3.455H.473zM20.565 28.093h1.748v3.455h-1.748zM10.522 22.91h1.748v3.455h-1.748z"
      />
      <g fill="#116FFF">
        <path d="M22.757 26.797H10.522a.434.434 0 0 1-.437-.432V22.91c0-.238.196-.432.437-.432h12.235c.241 0 .437.194.437.432v3.455c0 .24-.196.432-.437.432zm-11.798-.863h11.36v-2.592H10.96v2.592zM45.478.884H33.243a.434.434 0 0 1-.437-.432c0-.239.196-.432.437-.432h12.234c.242 0 .437.193.437.432a.434.434 0 0 1-.436.432z" />
        <path d="M22.757 23.342a.439.439 0 0 1-.31-.126.428.428 0 0 1 0-.611L45.17.147a.44.44 0 0 1 .617 0c.171.169.171.442 0 .61l-22.72 22.459a.439.439 0 0 1-.31.126zM22.757 26.797a.438.438 0 0 1-.31-.126.428.428 0 0 1 0-.611L45.17 3.603a.44.44 0 0 1 .617 0c.171.168.171.442 0 .61l-22.72 22.458a.438.438 0 0 1-.31.126zM10.522 23.342a.439.439 0 0 1-.309-.126.428.428 0 0 1 0-.611L32.934.147a.44.44 0 0 1 .618 0c.17.169.17.442 0 .61l-22.72 22.459a.438.438 0 0 1-.31.126z" />
        <path d="M45.478 4.34a.434.434 0 0 1-.437-.432V.452c0-.239.195-.432.437-.432.241 0 .437.193.437.432v3.456a.434.434 0 0 1-.437.432zM19.57 23.216l-.618-.611 6.117-6.046c2.645-2.616 4.923-.918 4.947-.9a.428.428 0 0 1 .077.607.438.438 0 0 1-.613.075c-.066-.049-1.708-1.232-3.793.828l-6.117 6.047zM22.32 8.659a.438.438 0 0 1-.31-.127.428.428 0 0 1 0-.61l2.622-2.592a.44.44 0 0 1 .618 0c.171.169.171.442 0 .611L22.63 8.532a.438.438 0 0 1-.31.127zM12.707 31.98H.473a.434.434 0 0 1-.437-.432v-3.455c0-.238.195-.432.437-.432h12.234c.242 0 .437.194.437.432v3.455c0 .24-.195.432-.437.432zM.91 31.116h11.36v-2.591H.91v2.59z" />
        <path d="M27.128 6.065h-3.934a.434.434 0 0 1-.437-.432c0-.239.195-.432.437-.432h3.934c.241 0 .437.193.437.432a.434.434 0 0 1-.437.432zM12.707 31.98a.439.439 0 0 1-.309-.127.428.428 0 0 1 0-.61l4.342-4.292a.44.44 0 0 1 .618 0c.17.168.17.442 0 .61l-4.342 4.292a.438.438 0 0 1-.309.127z" />
        <path d="M.473 28.525a.439.439 0 0 1-.31-.127.428.428 0 0 1 0-.61L22.886 5.329a.44.44 0 0 1 .617 0c.171.17.171.442 0 .611L.783 28.398a.439.439 0 0 1-.31.127zM32.806 31.98H20.572a.434.434 0 0 1-.437-.432v-3.455c0-.238.196-.432.437-.432h12.234c.242 0 .437.194.437.432v3.455c0 .24-.195.432-.437.432zm-11.797-.864h11.36v-2.591H21.01v2.59zM55.527 6.067H44.608a.434.434 0 0 1-.437-.432c0-.239.196-.432.437-.432h10.92c.24 0 .436.193.436.432a.434.434 0 0 1-.437.432z" />
        <path d="M32.806 28.525a.439.439 0 0 1-.309-.127.428.428 0 0 1 0-.61L55.218 5.329a.44.44 0 0 1 .618 0c.17.17.17.442 0 .611l-22.72 22.458a.439.439 0 0 1-.31.127zM32.806 31.98a.439.439 0 0 1-.309-.127.428.428 0 0 1 0-.61L55.218 8.784a.44.44 0 0 1 .618 0c.17.169.17.442 0 .61l-22.72 22.458a.438.438 0 0 1-.31.127z" />
        <path d="M55.527 9.522a.434.434 0 0 1-.437-.431V5.635c0-.239.196-.432.437-.432.242 0 .437.193.437.432V9.09a.434.434 0 0 1-.437.431zM24.941 28.525a.439.439 0 0 1-.309-.127.428.428 0 0 1 0-.61l3.496-3.455a.44.44 0 0 1 .618 0c.17.168.17.442 0 .61l-3.496 3.455a.438.438 0 0 1-.309.127zM29.31 28.523a.439.439 0 0 1-.308-.126.428.428 0 0 1 0-.611l6.117-6.045a.44.44 0 0 1 .618 0c.17.169.17.442 0 .61l-6.117 6.046a.438.438 0 0 1-.31.126zM43.329 9.666l-.618-.61 3.733-3.69a.441.441 0 0 1 .617 0c.171.17.171.443 0 .612L43.33 9.666zM31.933 5.205a.439.439 0 0 1-.309-.127.428.428 0 0 1 0-.61l4.37-4.321a.44.44 0 0 1 .618 0c.171.169.171.442 0 .61l-4.37 4.321a.439.439 0 0 1-.309.127zM31.933 9.52a.439.439 0 0 1-.309-.126.428.428 0 0 1 0-.61L40.362.146a.44.44 0 0 1 .618 0c.17.168.17.442 0 .61l-8.738 8.637a.438.438 0 0 1-.309.127zM20.572 28.525a.439.439 0 0 1-.309-.127.428.428 0 0 1 0-.61l.867-.858a.44.44 0 0 1 .618 0c.17.17.17.443 0 .611l-.867.857a.439.439 0 0 1-.309.127zM12.707 28.525a.439.439 0 0 1-.309-.127.428.428 0 0 1 0-.61l.901-.891a.44.44 0 0 1 .618 0c.17.169.17.442 0 .61l-.901.891a.438.438 0 0 1-.309.127z" />
      </g>
    </g>
  </svg>
