<svg xmlns="http://www.w3.org/2000/svg" width="381" height="361" viewBox="0 0 381 361">
    <defs>
        <linearGradient id="a" x1="-.107%" x2="99.946%" y1="50.018%" y2="50.018%">
            <stop offset="0%" stop-color="#5A142A" stop-opacity=".2"/>
            <stop offset="100%" stop-color="#FC860A" stop-opacity=".2"/>
        </linearGradient>
        <linearGradient id="b" x1="-.19%" x2="99.936%" y1="50.503%" y2="50.503%">
            <stop offset="0%" stop-color="#E2C8C0"/>
            <stop offset="100%" stop-color="#DD8093" stop-opacity=".4"/>
        </linearGradient>
        <linearGradient id="c" x1="-.077%" x2="99.986%" y1="50.161%" y2="50.161%">
            <stop offset="0%" stop-color="#5A142A" stop-opacity=".2"/>
            <stop offset="100%" stop-color="#FC860A" stop-opacity=".2"/>
        </linearGradient>
        <linearGradient id="d" x1="-.123%" x2="99.985%" y1="49.92%" y2="49.92%">
            <stop offset="0%" stop-color="#FFF"/>
            <stop offset="100%" stop-color="#9375A1"/>
        </linearGradient>
        <linearGradient id="e" x1=".155%" x2="100.07%" y1="50.532%" y2="50.532%">
            <stop offset="0%" stop-color="#FFF"/>
            <stop offset="100%" stop-color="#9375A1"/>
        </linearGradient>
        <linearGradient id="f" x1="-.174%" x2="99.868%" y1="50.305%" y2="50.305%">
            <stop offset="0%" stop-color="#E2C8C0"/>
            <stop offset="100%" stop-color="#DD8093" stop-opacity=".4"/>
        </linearGradient>
        <linearGradient id="g" x1=".078%" x2="100.023%" y1="49.977%" y2="49.977%">
            <stop offset="0%" stop-color="#FFF"/>
            <stop offset="100%" stop-color="#9375A1"/>
        </linearGradient>
        <linearGradient id="h" x1="-.15%" x2="99.991%" y1="49.886%" y2="49.886%">
            <stop offset="0%" stop-color="#FFF"/>
            <stop offset="100%" stop-color="#9375A1"/>
        </linearGradient>
        <linearGradient id="i" x1=".13%" x2="100.076%" y1="50.046%" y2="50.046%">
            <stop offset="0%" stop-color="#FFF"/>
            <stop offset="100%" stop-color="#9375A1"/>
        </linearGradient>
        <linearGradient id="j" x1=".012%" x2="99.989%" y1="49.984%" y2="49.984%">
            <stop offset="0%" stop-color="#FC860A"/>
            <stop offset="100%" stop-color="#F2BE54"/>
        </linearGradient>
        <linearGradient id="k" x1="-.154%" x2="99.858%" y1="49.704%" y2="49.704%">
            <stop offset=".238%" stop-color="#FF931E"/>
            <stop offset="100%" stop-color="#FFF"/>
        </linearGradient>
        <linearGradient id="l" x1="42.656%" x2="54.397%" y1="27.571%" y2="90.825%">
            <stop offset="14.9%" stop-color="#87AEB4" stop-opacity=".5"/>
            <stop offset="83.49%" stop-color="#153E5C"/>
        </linearGradient>
        <linearGradient id="m" x1="-.004%" x2="100.001%" y1="50.093%" y2="50.093%">
            <stop offset="19.48%" stop-color="#87AEB4"/>
            <stop offset="83.49%" stop-color="#153E5C"/>
        </linearGradient>
        <linearGradient id="n" x1=".021%" x2="99.999%" y1="50.045%" y2="50.045%">
            <stop offset="19.03%" stop-color="#87AEB4" stop-opacity=".6"/>
            <stop offset="83.49%" stop-color="#153E5C"/>
        </linearGradient>
        <linearGradient id="o" x1="-.051%" x2="99.94%" y1="49.902%" y2="49.902%">
            <stop offset=".238%" stop-color="#FF931E"/>
            <stop offset="100%" stop-color="#FFF"/>
        </linearGradient>
        <linearGradient id="p" x1=".01%" x2="100.006%" y1="50.002%" y2="50.002%">
            <stop offset="0%" stop-color="#002544"/>
            <stop offset="15.96%" stop-color="#00172A"/>
            <stop offset="34.63%" stop-color="#000A13"/>
            <stop offset="52.16%" stop-color="#000305"/>
            <stop offset="67.25%"/>
        </linearGradient>
        <linearGradient id="q" x1=".368%" x2="97.952%" y1="35.978%" y2="62.248%">
            <stop offset=".056%"/>
            <stop offset="81.06%"/>
        </linearGradient>
        <linearGradient id="r" x1="100.204%" x2="1.575%" y1="49.142%" y2="49.142%">
            <stop offset=".056%"/>
            <stop offset="81.06%"/>
        </linearGradient>
        <linearGradient id="s" x1="97.978%" x2="1.728%" y1="45.988%" y2="54.077%">
            <stop offset=".056%"/>
            <stop offset="81.06%"/>
        </linearGradient>
        <linearGradient id="t" x1="99.529%" x2=".379%" y1="51.346%" y2="48.583%">
            <stop offset=".056%"/>
            <stop offset="81.06%"/>
        </linearGradient>
        <linearGradient id="u" x1="-.043%" x2="99.976%" y1="49.873%" y2="49.873%">
            <stop offset=".056%"/>
            <stop offset="81.06%"/>
        </linearGradient>
        <linearGradient id="v" x1="-.204%" x2="100.029%" y1="50.226%" y2="50.226%">
            <stop offset=".238%" stop-color="#FF931E"/>
            <stop offset="100%" stop-color="#FFF"/>
        </linearGradient>
        <linearGradient id="w" x1="-.085%" x2="99.91%" y1="49.976%" y2="49.976%">
            <stop offset=".238%" stop-color="#FF931E"/>
            <stop offset="100%" stop-color="#FFF"/>
        </linearGradient>
        <linearGradient id="x" x1="-.177%" x2="99.679%" y1="50.103%" y2="50.103%">
            <stop offset="0%" stop-color="#FFF"/>
            <stop offset="100%" stop-color="#9375A1"/>
        </linearGradient>
        <linearGradient id="y" x1=".014%" x2="100.019%" y1="50.014%" y2="50.014%">
            <stop offset="0%" stop-color="#302E40"/>
            <stop offset="100%" stop-color="#9375A1" stop-opacity=".5"/>
        </linearGradient>
    </defs>
    <g fill="none" fillRule="evenodd">
        <path fill="#EBDEDE" fillRule="nonzero" d="M379.307 45.523c.3.896 4.58 15.163-2.92 28.137-15.798 27.34-65.215 16.922-117.088 22.828-100.195 11.447-146.791 76.712-157.212 65.298-13.807-15.13 55.49-143.935 160.398-156.112 41.618-4.811 106.269 6.735 116.822 39.85z"/>
        <path fill="#EBDEDE" fillRule="nonzero" d="M363.112 131.161c14.038 17.751 11.848 47.348-.233 64.701-5.675 8.163-17.921 19.842-91.134 25.848-80.05 6.57-112.641-3.517-137.897 21.07-13.806 13.404-16.76 28.733-22.535 27.44-9.326-2.091-16.196-45.391-1.128-80.164 26.982-62.246 114.665-74.987 158.274-81.291 9.99-1.46 39.394-5.077 70.956 7.266 15.897 6.205 21.34 12.177 23.697 15.13z"/>
        <path fill="#EBDEDE" fillRule="nonzero" d="M378.345 281.334c-.066 1.925-.266 5.11-.797 9.092-.132.83-.265 1.725-.398 2.654-1.892 11.613-6.704 28.502-19.05 42.67-1.029 1.194-2.124 2.323-3.252 3.484a58.114 58.114 0 0 1-2.92 2.754c-.233.199-1.893 1.792-3.817 3.152-5.012 3.55-13.11 7.2-29.438 9.19-.863.1-1.76.2-2.655.3-10.62 1.128-24.46 1.592-42.747.962-.863-.034-1.759-.067-2.655-.1a1148.05 1148.05 0 0 1-12.545-.597 844.035 844.035 0 0 0-20.178-.93l-2.689-.099c-17.257-.564-33.984-.663-49.184-.497-.896 0-1.793.033-2.655.033a1085.2 1085.2 0 0 0-38.499 1.194c-.896.033-1.792.1-2.655.133-11.151.597-19.415 1.26-23.63 1.792-4.878.597-10.023 1.294-15.266 1.957-.863.1-1.76.233-2.655.332-15.698 1.925-31.861 3.185-43.576-.299-.963-.298-1.925-.597-2.821-.962-4.083-1.592-7.5-3.849-9.99-7.034-1.162-1.46-5.045-6.37-3.65-10.916 1.128-3.716 5.077-4.878 10.288-5.906.83-.166 1.725-.332 2.621-.498 6.671-1.228 14.802-2.787 21.739-8.793 2.82-2.422 4.547-4.81 5.774-7.2.432-.862.83-1.725 1.162-2.588 2.29-5.806 2.954-11.812 10.72-18.747a32.315 32.315 0 0 1 3.385-2.687c2.157-1.493 4.215-2.489 6.24-3.318 4.58-1.825 9.259-2.787 15.897-6.769 13.872-8.328 18.585-19.278 24.094-27.506a48.201 48.201 0 0 1 2.025-2.854 28.792 28.792 0 0 1 1.593-1.924c8.794-9.987 21.107-12.244 39.029-12.708.863-.033 1.759-.033 2.655-.067 10.388-.166 22.601.133 37.038-.166.896-.033 1.759-.033 2.655-.066 12.446-.299 26.517-1.095 42.448-2.986.066 0 .166 0 .232-.033.83-.1 1.626-.2 2.423-.299 17.689-2.223 31.728-5.076 43.21-7.499.897-.199 1.793-.365 2.656-.564 21.638-4.545 33.752-7 44.34 1.128.464.365.928.73 1.393 1.129.365.331.763.663 1.095.995 9.027 8.594 12.047 21.468 12.944 33.08.066.896.132 1.792.166 2.655.298 6.105.066 11.68-.1 15.926z"/>
        <g fill="#FFF" fillRule="nonzero" opacity=".5">
            <path d="M57.084 358.511c-.963-.298-1.925-.597-2.821-.962l-3.352-23.89c.83-.165 1.725-.331 2.621-.497l3.552 25.35zM362.813 264.778l15.632.663c-.034-.896-.1-1.758-.166-2.654l-15.267-.63 2.323-32.45c-.365-.333-.73-.698-1.095-.996-.465-.398-.93-.797-1.394-1.128l-2.456 34.474-41.817-1.759-.033-33.843c-.863.199-1.76.364-2.655.564l.033 33.18-43.145-1.792-.132-23.89c-.797.1-1.593.2-2.423.299-.066 0-.166.033-.232.033l.132 23.458-40.887-1.725-1.66-18.747c-.896.033-1.792.033-2.655.067l1.66 18.58-38.997-1.658.266-16.756c-.896 0-1.792.033-2.655.066l-.266 16.59-38.896-1.626.033-2.256a49.161 49.161 0 0 0-1.593 1.924 48.2 48.2 0 0 0-2.024 2.854l.896.033-.399 34.308-40.49-.066c-2.057.83-4.081 1.792-6.239 3.318l1.527 22.629-15.598-1.195a22.166 22.166 0 0 1-1.162 2.588l16.926 1.294 2.721 40.314c.897-.1 1.76-.232 2.656-.332l-2.689-39.783 41.983 3.219-.398 32.815c.863-.033 1.759-.1 2.655-.133l.365-32.483 38.598 2.953-.465 28.336c.896 0 1.76-.033 2.655-.033l.432-28.104 46.563 3.517 2.223 25.018 2.689.1-2.224-24.885 34.814 2.654.133 23.79c.896.033 1.792.066 2.655.1l-.132-23.658 42.845 3.285.034 19.444c.896-.1 1.792-.2 2.655-.299l-.034-18.946 36.275 2.787-.066 1.062a64.156 64.156 0 0 0 3.252-3.484l-.332-.033 3.054-42.67 16.328.033c.133-.929.266-1.824.398-2.654l-16.527-.033 1.792-25.648zm-220.204 54.448l-42.182-3.218-1.593-23.492 44.074.1-.299 26.61zm41.253 3.185l-38.597-2.953.298-26.842 38.764.066-.465 29.73zm.498-32.383l-38.764-.067.399-34.208 38.863 1.625-.498 32.65zm85.758-29.1l.133 29.266-38.067-.067-2.754-30.89 40.688 1.692zm-82.572-3.45l39.229 1.626 2.754 31.023-42.514-.1.531-32.55zm-1.029 65.133l.465-29.929 42.78.1 2.953 33.379-46.198-3.55zm48.92 3.749l-2.987-33.578 37.834.066.166 36.166-35.013-2.654zm37.336-65.332l43.112 1.792.033 27.473-43.012-.1-.133-29.165zm.332 68.185l-.166-36.365 42.979.1.066 39.55-42.879-3.285zm81.975 6.271l-36.44-2.787-.067-39.75 39.56.067-3.053 42.47zm3.252-45.125l-39.759-.066-.033-27.34 41.618 1.725-1.826 25.681z"/>
        </g>
        <path d="M378.345 281.334c-.066 1.925-.266 5.11-.797 9.092-.132.83-.265 1.725-.398 2.654-1.892 11.613-6.704 28.502-19.05 42.67-1.029 1.194-2.124 2.323-3.252 3.484a58.114 58.114 0 0 1-2.92 2.754c-.233.199-1.893 1.792-3.817 3.152-5.012 3.55-13.11 7.2-29.438 9.19-.863.1-1.76.2-2.655.3-10.62 1.128-24.46 1.592-42.747.962-.863-.034-1.759-.067-2.655-.1a1148.05 1148.05 0 0 1-12.545-.597 844.035 844.035 0 0 0-20.178-.93l-2.689-.099c-17.257-.564-33.984-.663-49.184-.497-.896 0-1.793.033-2.655.033a1085.2 1085.2 0 0 0-38.499 1.194c-.896.033-1.792.1-2.655.133-11.151.597-19.415 1.26-23.63 1.792-4.878.597-10.023 1.294-15.266 1.957-.863.1-1.76.233-2.655.332-15.698 1.925-31.861 3.185-43.576-.299-.963-.298-1.925-.597-2.821-.962-4.083-1.592-7.5-3.849-9.99-7.034-1.162-1.46-5.045-6.37-3.65-10.916 1.128-3.716 5.077-4.878 10.288-5.906.83-.166 1.725-.332 2.621-.498 6.671-1.228 14.802-2.787 21.739-8.793 2.82-2.422 4.547-4.81 5.774-7.2.432-.862.83-1.725 1.162-2.588 2.29-5.806 2.954-11.812 10.72-18.747a32.315 32.315 0 0 1 3.385-2.687c2.157-1.493 4.215-2.489 6.24-3.318 4.58-1.825 9.259-2.787 15.897-6.769 13.872-8.328 18.585-19.278 24.094-27.506a48.201 48.201 0 0 1 2.025-2.854 28.792 28.792 0 0 1 1.593-1.924c8.794-9.987 21.107-12.244 39.029-12.708.863-.033 1.759-.033 2.655-.067 10.388-.166 22.601.133 37.038-.166.896-.033 1.759-.033 2.655-.066 12.446-.299 26.517-1.095 42.448-2.986.066 0 .166 0 .232-.033.83-.1 1.626-.2 2.423-.299 17.689-2.223 31.728-5.076 43.21-7.499.897-.199 1.793-.365 2.656-.564 21.638-4.545 33.752-7 44.34 1.128.464.365.928.73 1.393 1.129.365.331.763.663 1.095.995 9.027 8.594 12.047 21.468 12.944 33.08.066.896.132 1.792.166 2.655.298 6.105.066 11.68-.1 15.926z"/>
        <g fillRule="nonzero">
            <g opacity=".42">
                <path fill="#FFF" d="M332.545 119.614v76.348H175.167v-64.237c.597-.265 1.228-.53 1.825-.763 8.928-3.782 18.121-6.901 27.248-9.523 2.224-.63 4.414-1.26 6.638-1.825h121.667z"/>
                <path fill="#BDD3DE" d="M332.545 117.79H218.113c-2.39.564-4.813 1.194-7.269 1.824-2.19.564-4.414 1.195-6.637 1.825h126.48v72.698H176.992v-63.175c-.597.265-1.228.498-1.825.763-.597.266-1.228.531-1.825.797v63.44c0 .995.83 1.825 1.825 1.825h157.378c.996 0 1.826-.83 1.826-1.825v-76.348c0-.995-.83-1.824-1.826-1.824z"/>
            </g>
            <path fill="#EEEDEE" d="M189.568 127.74l17.274 1.325-1.325 17.27-17.274-1.325z"/>
            <path fill="#EBDEDE" d="M214.64 127.374l17.194 2.122-2.122 17.19-17.195-2.122zM237.163 128.374h17.324v17.32h-17.324z"/>
            <path fill="#EEEDEE" d="M188.62 155.226l17.252-1.558 1.559 17.25-17.253 1.558zM213.997 156.644h17.324v17.32h-17.324z"/>
            <path fill="#EBDEDE" d="M237.66 154.42h17.325v17.32H237.66z"/>
            <path fill="#EEEDEE" d="M260.203 131.77l16.99-3.39 3.39 16.986-16.99 3.39z"/>
        </g>
        <path d="M363.477 195.697c-5.676 8.162-17.955 19.841-91.135 25.847-80.05 6.57-112.64-3.517-137.897 21.07-13.806 13.404-16.76 28.733-22.535 27.44-9.325-2.091-16.195-45.391-1.128-80.164 11.948-27.606 35.843-45.457 62.56-57.368.597-.266 1.228-.531 1.825-.797.597-.265 1.228-.53 1.825-.763 8.928-3.782 18.121-6.901 27.248-9.523 2.224-.63 4.414-1.26 6.638-1.825 2.422-.63 4.845-1.26 7.268-1.824 19.15-4.58 37.204-7.2 50.91-9.191 9.99-1.46 39.395-5.077 70.957 7.266 15.897 6.238 21.34 12.21 23.696 15.197 14.005 17.685 11.848 47.314-.232 64.635z"/>
        <path fill="#EBDEDE" fillRule="nonzero" d="M120.606 2.323c3.319 1.095 21.107 7.366 27.081 23.226 11.384 30.194-41.95 48.41-59.008 107.238-11.616 40.115 6.803 52.524-4.514 127.113-5.11 33.744-7.666 50.633-14.337 51.662-23.431 3.65-111.18-172.305-46.032-261.161 18.884-25.682 61.83-59.559 96.81-48.078z"/>
        <g fillRule="nonzero" transform="translate(0 9.954)">
            <path fill="#BDD3DE" d="M51.74 73.195c-4.215 11.448 16.063-5.574 22.436 7.101 6.372 12.675-31.33 24.188-30.169 34.939 1.162 10.75 21.838-8.926 17.856 8.46-2.423 10.552-15.798 24.853-25.953 34.442h9.458l-3.053 10.518-.133.398-.697 2.422a362.164 362.164 0 0 1 2.556 5.442c1.825 4.014 3.95 8.825 6.14 14.333a.56.56 0 0 1 .066.166 201.865 201.865 0 0 0 1.792 4.413c.863 2.124 1.66 4.148 2.423 6.072 1.161 2.953 2.223 5.674 3.219 8.262 4.912 13.007 7.235 21.468 6.472 28.834-.033.365-.1.763-.133 1.128-.697 4.579-2.456 8.693-4.945 12.376a29.416 29.416 0 0 1-1.958 2.588c-2.854 3.418-6.372 6.37-10.289 8.826a55.945 55.945 0 0 1-7.235 3.882c-9.856-17.751-19.846-41.11-27.313-66.758a409.344 409.344 0 0 1-3.917-14.6C-3.883 136.105-4.978 79.765 23.83 40.447 33.951 26.61 51.077 10.419 70.193.199c2.058 1.029 2.755 3.152 1.626 6.47-5.609 16.325-22.7 34.342-12.346 34.474 10.355.133 22.27-15.926 24.26.067 1.959 15.993-27.778 20.505-31.993 31.985z" opacity=".42"/>
            <path fill="#FFF" d="M16.428 194.17a7.732 7.732 0 0 1-4.182 6.869 409.344 409.344 0 0 1-3.916-14.6h.332c4.281-.033 7.766 3.451 7.766 7.731zM45.335 158.17l-3.053 10.518-.133.398a7.71 7.71 0 0 1-3.584-6.536c0-1.626.497-3.153 1.36-4.38h5.41zM64.086 239.03c-.033.365-.1.763-.132 1.128-.697 4.579-2.456 8.693-4.945 12.376-1.56-1.427-2.556-3.484-2.556-5.74 0-4.247 3.418-7.698 7.633-7.764z" opacity=".5"/>
            <ellipse cx="34.648" cy="239.03" fill="#FFF" opacity=".5" rx="7.733" ry="7.731"/>
            <path fill="#FFF" d="M57.648 210.23c-1.062.563-2.29.862-3.584.862-4.282 0-7.733-3.484-7.733-7.73 0-3.551 2.39-6.57 5.675-7.466.863 2.123 1.66 4.147 2.423 6.072 1.161 2.953 2.256 5.673 3.219 8.261z" opacity=".5"/>
        </g>
        <path d="M88.679 132.787c-11.616 40.115 6.803 52.49-4.514 127.113-5.11 33.744-7.666 50.633-14.304 51.662-6.604 1.028-18.353-12.244-30.3-33.811-9.858-17.751-19.847-41.11-27.315-66.758a409.344 409.344 0 0 1-3.916-14.6C-3.883 146.06-4.978 89.72 23.83 50.401 33.95 36.565 51.076 20.373 70.192 10.153c16.395-8.76 34.25-13.14 50.413-7.83 3.319 1.095 21.107 7.366 27.081 23.226 11.384 30.194-41.95 48.41-59.008 107.238z"/>
        <g fill="#BDD3DE" fillRule="nonzero">
            <path d="M199.56 67.09c0 15.96-12.943 28.933-28.94 28.933-12.744 0-23.563-8.228-27.413-19.675 7.998-9.29 17.025-18.449 26.915-26.943.332-.298.664-.564.996-.862a209.096 209.096 0 0 1 10.355-8.262c10.62 4.28 18.087 14.665 18.087 26.81z" opacity=".42"/>
            <path d="M191.097 67.09a.51.51 0 0 1-.497.498h-19.947a.51.51 0 0 1-.497-.498V49.372c.332-.299.663-.564.995-.863v18.05H190.6a.539.539 0 0 1 .497.531z"/>
        </g>
        <path d="M376.387 73.959c-15.798 27.34-65.215 16.921-117.121 22.827-100.195 11.448-146.791 76.713-157.212 65.299-7.335-8.03 8.761-48.111 41.186-85.77 7.998-9.291 17.026-18.449 26.916-26.943.332-.299.663-.564.995-.863a209.096 209.096 0 0 1 10.355-8.261c23.232-17.486 50.612-30.758 80.98-34.276 41.65-4.844 106.3 6.67 116.855 39.817.232.929 4.546 15.163-2.954 28.17z"/>
        <g fillRule="nonzero" transform="translate(247.916 4.645)">
            <g transform="translate(96.246 10.618)">
                <path fill="#EEEDEE" d="M16.96 8.494V34.64H.032V0C6.24 2.389 11.981 5.21 16.96 8.494z"/>
                <ellipse cx="8.496" cy="27.573" fill="#BDD3DE" opacity=".42" rx="3.717" ry="3.716"/>
            </g>
            <g transform="translate(58.411 1.327)">
                <path fill="#EEEDEE" d="M17.125 3.152v40.779H.2V.232c5.708.73 11.384 1.692 16.926 2.92z"/>
                <ellipse cx="8.662" cy="36.863" fill="#BDD3DE" opacity=".42" rx="3.717" ry="3.716"/>
            </g>
            <path fill="#EEEDEE" d="M44.904.332v44.926H27.978V.1c5.476-.166 11.15-.1 16.926.232z"/>
            <ellipse cx="36.441" cy="38.19" fill="#BDD3DE" opacity=".42" rx="3.717" ry="3.716"/>
            <path fill="#EEEDEE" d="M25.986.166v45.092H9.06V1.825c1.826-.266 3.651-.531 5.476-.73 3.651-.465 7.468-.763 11.45-.93z"/>
            <ellipse cx="17.523" cy="38.19" fill="#BDD3DE" opacity=".42" rx="3.717" ry="3.716"/>
            <g transform="translate(77.328 4.645)">
                <path fill="#EEEDEE" d="M17.191 5.309v35.303H.266V.3c5.874 1.36 11.582 3.019 16.925 5.01z"/>
                <ellipse cx="8.728" cy="33.545" fill="#BDD3DE" opacity=".42" rx="3.717" ry="3.716"/>
            </g>
            <path fill="#DFDED9" d="M119.81 50.6H2.057a1.82 1.82 0 0 1-1.826-1.825v-3.716a1.82 1.82 0 0 1 1.826-1.825h117.751a1.82 1.82 0 0 1 1.826 1.825v3.716c0 .995-.83 1.825-1.826 1.825z"/>
        </g>
        <path d="M376.387 73.66C360.589 101 311.172 90.582 259.266 96.488 159.07 107.935 112.475 173.2 102.054 161.786c-13.574-14.864 53.1-139.423 154.889-155.35 1.825-.264 3.65-.53 5.476-.729 3.65-.431 7.467-.73 11.45-.896.663-.033 1.327-.066 2.024-.066 5.476-.166 11.151-.1 16.926.232 4.547.265 9.127.664 13.707 1.228a178.384 178.384 0 0 1 16.926 2.886c.697.166 1.394.299 2.057.465 5.875 1.36 11.583 3.02 16.926 5.01.598.232 1.162.431 1.76.664 6.206 2.389 11.947 5.242 16.925 8.494 8.862 5.806 15.4 13.04 18.187 21.766.266.962 4.58 15.196-2.92 28.17z"/>
        <g>
            <g fillRule="nonzero">
                <path fill="#BDD3DE" d="M328.123 233.485l-4.21 75.09H320.4l-3.48-60.504c-3.05 2.458-6.398 4.452-9.978 6.014-.099.033-.198.066-.298.132-.199.067-.364.167-.563.233-1.16.465-2.32.897-3.48 1.296l-2.42 43.293h-3.514l-2.387-41.4c-.265.034-.53.067-.762.1-.365.034-.73.067-1.06.133-.332.034-.664.067-.962.1-.563.033-1.06.066-1.492.1-.132 0-.265 0-.397.033h-.232l-4.044 72.166h-3.514l-4.243-73.13c-1.955-.398-3.878-.963-5.767-1.628l-.298-.1c-.663-.232-1.293-.498-1.923-.764-1.326-.564-2.95-1.229-4.607-2.06l-3.083 54.922h-3.513l-3.713-64.059a11.41 11.41 0 0 1-.563-1.893c-.299-1.529-.2-3.124.165-4.718l-.364-6.08h3.215c4.806-6.945 14.253-13.158 23.136-15.251 1.492-.332 2.984-.598 4.508-.731-1.524-20.135-3.845-54.523 4.873-62.53 10.441-9.603 46.372-6.38 57.178 3.09 1.823 1.594 2.95 3.389 3.083 5.349.861 11.496-16.938 59.872-21.778 72.797z"/>
                <path fill="#253041" d="M328.123 233.485l-4.21 75.09H320.4l-3.48-60.504c10.01-10.6 26.252-77.15 29.964-92.766 1.823 1.595 2.95 3.39 3.083 5.35.795 11.529-17.004 59.905-21.844 72.83z" opacity=".16"/>
                <path fill="#253041" d="M254.703 243.42l10.276 9.136-3.05 54.955h-3.513z" opacity=".34"/>
                <path fill="#253041" d="M289.342 258.072l-4.044 72.165h-3.514l-4.243-73.129c-1.922-.432 8.817 1.063 11.8.964z" opacity=".12"/>
                <path fill="#253041" d="M306.08 254.45c-1.16.465-2.32.897-3.48 1.296l-2.42 43.293h-3.513l-2.387-41.4c4.906-.697 8.917-1.993 11.8-3.189z" opacity=".47"/>
                <path fill="#253041" d="M259.112 238.302s21.479 10.467 32.318 10.3c10.839-.166 23.236-.498 25.49-9.402 2.254-8.872.696-20.966.696-20.966l-58.504 20.068z" opacity=".12"/>
            </g>
            <g fillRule="nonzero">
                <path fill="#E2C8C0" d="M260.968 167.2l-3.58 1.794c-.166-.93-.497-1.794-1.16-2.392l-.1-.1a3.079 3.079 0 0 0-1.292-.598c-1.69-.398-3.911.2-6.43.864-3.15.83-4.807 1.528-6.365 1.595h-.497c-3.911-.166-6.132-2.459-6.331-2.99-.033-.067-.066-.233 0-.3.166-.199.796.034 1.127.2-.663-.731-1.26-1.562-1.06-1.96.198-.432 1.126.432 1.988 1.362-.298-.432-.464-.83-.365-1.063.332-.731 2.818 2.325 3.381 3.023.431.067.895.1 1.393.067.331-.034.63-.1.928-.167 0 0 .033 0 .1-.033a.613.613 0 0 1 .231-.066c.033 0 .066-.033.066-.033 1.028-.4 2.022-1.163 3.315-2.16.796-.598 1.425-1.196 1.856-1.595l.067-.066c-1.492-.432-2.652-.499-3.448-.432-.497.033-1.359.133-2.022-.399-.165-.133-.464-.399-.43-.631.165-.731 3.778-.532 6.364-.366.265 0 2.784.133 5.237.764.331.067.597.167.895.266.563.2 1.558.598 2.718 1.396.166.1.298.232.464.332.232.2.497.399.762.631l1.26 1.628c.298.366.597.897.928 1.429z"/>
                <path fill="#5A142A" d="M298.357 142.414c-3.546 21.829-6.96 37.71-8.253 42.661-.464 1.794-1.923 7.144-5.966 10.333-.763.598-5.105 4.054-10.01 3.223-7.625-1.262-11.867-12.16-16.574-24.32a114.045 114.045 0 0 1-2.884-8.44c1.293-.665 2.619-1.329 3.911-1.994.63.599 1.393 1.396 2.221 2.326 1.194 1.396 2.022 2.559 2.387 3.057 1.359 1.994 2.287 3.788 3.646 6.512.066.166.133.266.166.332.165.333 5.668 11.264 8.684 10.932 4.044-.466 4.442-21.398 10.806-34.422 1.624-3.29 4.143-7.21 8.552-9.17a13.786 13.786 0 0 1 3.314-1.03z"/>
                <path fill="#19233D" d="M298.357 142.414c-3.546 21.829-6.96 37.71-8.253 42.661-.464 1.794-1.923 7.144-5.966 10.333-.763.598-5.105 4.054-10.01 3.223-2.222-.365-4.144-1.561-5.9-3.355-4.244-4.386-7.326-12.36-10.674-20.966a114.045 114.045 0 0 1-2.884-8.439c.53-.266 1.028-.532 1.558-.797.796-.4 1.558-.798 2.353-1.197.63.599 1.393 1.396 2.221 2.326 1.194 1.396 2.022 2.559 2.387 3.057 1.359 1.994 2.287 3.788 3.646 6.512.066.166.133.266.166.332.165.333 5.668 11.297 8.684 10.932 4.044-.466 4.442-21.398 10.806-34.422 1.624-3.29 4.143-7.21 8.552-9.17a13.786 13.786 0 0 1 3.314-1.03z" opacity=".08"/>
                <path fill="url(#a)" d="M36.296 51.998l-3.017.93c-4.242-4.386-7.325-12.36-10.673-20.965a114.045 114.045 0 0 1-2.884-8.44c.53-.265 1.028-.531 1.558-.797l15.016 29.272z" opacity=".32" transform="translate(234.981 142.347)"/>
                <path fill="#253041" d="M260.968 167.2l-3.58 1.794c-.166-.93-.497-1.794-1.16-2.392l-.1-.1a3.079 3.079 0 0 0-1.292-.598c-1.69-.398-3.911.2-6.43.864-3.15.83-4.807 1.528-6.365 1.595l15.546-5.25c.166.1.298.233.464.333.232.199.497.398.762.63l1.26 1.629c.265.432.564.963.895 1.495z" opacity=".06"/>
                <path fill="url(#b)" d="M14.353 20.733c-.133 1.03-4.84 2.724-6.298 3.223 1.027-.4 2.022-1.163 3.314-2.16.796-.598 1.426-1.196 1.857-1.595.662-.033 1.193.067 1.127.532z" opacity=".39" transform="translate(234.981 142.347)"/>
                <path fill="#E2C8C0" d="M312.445 127.695l-1.591 7.675-11.568 2.326-.63-4.884c1.027-1.196 4.773-5.316 10.375-5.516 1.26 0 2.42.166 3.414.399z"/>
                <path fill="#253041" d="M312.445 127.695l-1.591 7.675-11.568 2.326-.63-4.884c1.027-1.196 4.773-5.316 10.375-5.516 1.26 0 2.42.166 3.414.399z" opacity=".06"/>
                <g>
                    <path fill="#791D2C" d="M342.94 187.401c0-.166-.033-.332-.033-.498a48.273 48.273 0 0 0-.696-4.652l-.2-.997c-.33-1.694-.729-3.555-1.193-5.548-.033-.166-.066-.3-.1-.465-.828-3.589-1.855-7.642-3.015-12.227-.498-1.96-1.028-3.954-1.724-5.948-.066-.166-.133-.365-.199-.531a39.538 39.538 0 0 0-2.055-4.752 19.29 19.29 0 0 0-.895-1.594 26.818 26.818 0 0 0-4.176-5.283c-.266-.266-.53-.499-.796-.764a6.642 6.642 0 0 0-.53-.466c-1.525-1.329-2.95-2.226-3.945-2.824-.1-.033-.199-.066-.298-.133a20.875 20.875 0 0 0-5.768-1.329 13.015 13.015 0 0 0-1.955-.033v-.033c.066-.532 0-.997-.1-1.33-.265-.763-.464-1.195-.663-1.66-.596-1.33-.033-2.094-.232-3.29-.132-.83-.663-1.927-2.386-3.09-.73.432-1.856 1.03-3.282 1.495-.961.3-2.055.565-3.248.698a16.268 16.268 0 0 1-6.298-.631 5.714 5.714 0 0 0-.928 2.326c-.166 1.063.066 1.594.033 2.824-.033.963-.199 1.495-.398 2.126-.066.233-.132.465-.199.764 0 .067-.033.1-.033.167-.132.697-.199 1.594-.1 2.658 0 .066 0 .166.034.265-1.591 1.163-2.718 3.09-4.906 6.978-.033.066-.066.1-.1.166-.165.266-.298.531-.43.764-.928 1.695-1.591 3.156-2.52 5.216-.198.466-.43.93-.662 1.462-.1.266-.232.499-.332.731-.165.333-.298.698-.464 1.03-.862 1.927-1.558 3.423-2.088 4.652-.133.299-.265.565-.365.83-.331.698-.563 1.263-.795 1.761a9.498 9.498 0 0 0-.398.898c-.199.431-.364.764-.464 1.03-.298.697-.43 1.03-.563 1.594-.862 3.09-.995 5.914-.929 8.207v.133c.067 1.894.299 3.489.365 4.618.033.233.033.465.066.731.034.333.034.665.067.997.066 1.429.132 3.057.165 4.884v1.03c0 1.495-.033 3.09-.099 4.851 0 .532-.033 1.063-.066 1.595-.067 1.429-.133 2.957-.266 4.585 0 .2-.033.399-.033.565-.298 4.518-.795 9.768-1.491 15.882-.1.83-.2 1.694-.299 2.591-.066.598-.165 1.23-.232 1.86 3.547-.165 7.094-.298 10.64-.464.2 0 .398-.034.597-.034 1.326-.066 2.619-.1 3.945-.166l2.187-.1c1.293-.066 2.619-.132 3.912-.166.198 0 .397 0 .596-.033 3.978-.166 7.955-.365 11.933-.531.53-1.96 1.028-3.888 1.525-5.782.066-.299.166-.598.232-.897.199-.764.398-1.528.596-2.259.862-3.356 1.69-6.612 2.486-9.768.1-.399.2-.798.299-1.23.398-1.628.828-3.256 1.193-4.817.796.332 1.757.697 2.85 1.063.166.066.365.133.531.2.497.165 1.028.332 1.591.464 1.16.333 2.387.632 3.646.864a23.25 23.25 0 0 0 5.005.366c.166 0 .332-.033.498-.033 2.187-.2 4.242-.864 5.8-2.26.696-.598 1.193-1.362 1.558-2.26.696-1.827.829-4.086.597-7.043zm-19.524-1.96v-.067c.067-.232.1-.465.166-.697.066-.233.133-.499.166-.731 0-.034 0-.067.033-.067 0-.033 0-.066.033-.1.597-2.491 1.16-4.917 1.724-7.276 0-.033 0-.066.033-.1.132-.564.265-1.13.398-1.66 0 .032.033.066.033.066 2.917 5.648 4.906 9.103 3.447 10.731-.331.366-.73.565-1.492.599h-.165c-.895.066-2.254-.2-4.376-.698z"/>
                    <g fill="#E6E3F4" opacity=".2">
                        <path d="M301.241 135.403c.133-.2.398-.598.895-.864.332-.199.63-.265.829-.332a2.958 2.958 0 0 1-.796-.797c-.232-.366-.331-.698-.397-.897-.133.199-.365.531-.763.797-.364.266-.729.366-.961.399.199.166.497.432.73.797.231.332.364.665.463.897zM306.412 136.167c.133-.199.398-.598.895-.863.332-.2.63-.266.829-.333a2.958 2.958 0 0 1-.796-.797c-.232-.366-.331-.698-.398-.897-.132.2-.364.531-.762.797-.365.266-.73.366-.961.399.199.166.497.432.729.797.232.333.365.632.464.897zM311.55 136.832c.132-.2.398-.598.895-.864.331-.2.63-.266.828-.332a2.958 2.958 0 0 1-.795-.798c-.232-.365-.332-.697-.398-.897-.132.2-.364.532-.762.798-.365.266-.73.365-.961.398.198.167.497.432.729.798.265.332.398.664.464.897zM298.457 139.39a2.493 2.493 0 0 0-.829.333s-.033 0-.033.033c0-.067.033-.1.033-.166.067-.266.133-.532.2-.765.231.233.463.432.629.565zM302.8 138.626c-.133.2-.366.532-.763.798-.365.265-.73.365-.962.398.2.166.498.432.73.798.232.332.364.664.464.897.132-.2.398-.598.895-.864.331-.2.63-.266.828-.332a2.958 2.958 0 0 1-.795-.798 2.868 2.868 0 0 1-.398-.897zM307.97 139.39c-.133.2-.365.532-.762.798-.365.266-.73.365-.962.398.2.167.498.432.73.798.232.332.364.664.464.897.132-.2.397-.598.895-.864.331-.2.63-.266.828-.332a2.958 2.958 0 0 1-.795-.798c-.232-.365-.332-.697-.398-.897zM313.14 140.055c-.132.2-.364.531-.762.797-.364.266-.729.366-.96.399.198.166.496.432.728.797.232.333.365.665.465.897.132-.199.397-.598.894-.863.332-.2.63-.266.83-.333a2.958 2.958 0 0 1-.796-.797c-.232-.332-.365-.665-.398-.897zM318.312 140.819c-.133.2-.365.532-.763.797-.364.266-.729.366-.96.4.198.165.496.431.728.797.232.332.365.664.464.897.133-.2.398-.598.895-.864.332-.2.63-.266.829-.333a2.958 2.958 0 0 1-.795-.797c-.233-.365-.332-.698-.398-.897zM323.516 141.849c-.133.2-.365.532-.763.797-.364.266-.729.366-.96.4.198.165.496.431.728.797.232.332.365.664.464.897.133-.2.398-.598.895-.864.332-.2.63-.266.83-.333a2.958 2.958 0 0 1-.796-.797 2.868 2.868 0 0 1-.398-.897zM328.654 144.939c-.232.2-.398.432-.498.565-.1-.233-.232-.565-.464-.897a4.482 4.482 0 0 0-.729-.798c.1-.033.199-.033.332-.1.165.167.364.3.53.466.298.232.563.498.829.764zM298.225 144.673c-.232-.365-.332-.698-.398-.897-.132.2-.365.532-.762.797-.365.266-.73.366-.962.4.2.165.498.431.73.797.232.332.364.664.464.897.132-.2.398-.598.895-.864.331-.2.63-.266.828-.332a2.53 2.53 0 0 1-.795-.798zM302.5 147.398c.133-.2.399-.598.896-.864.331-.2.63-.266.828-.332a2.958 2.958 0 0 1-.795-.798c-.232-.365-.332-.698-.398-.897-.132.2-.364.532-.762.797-.365.266-.73.366-.961.4.198.165.497.431.729.797.232.365.364.664.464.897zM307.639 148.095c.132-.199.397-.598.894-.864.332-.199.63-.265.83-.332a2.958 2.958 0 0 1-.796-.797c-.232-.366-.332-.698-.398-.897-.133.2-.365.531-.763.797-.364.266-.729.366-.96.399.198.166.496.432.728.797.266.333.398.665.465.897zM312.81 148.826c.132-.199.397-.598.894-.864.332-.199.63-.265.829-.332a2.958 2.958 0 0 1-.795-.797c-.233-.366-.332-.698-.398-.897-.133.2-.365.531-.763.797-.364.266-.729.366-.96.399.198.166.496.432.728.797.266.332.398.665.464.897zM318.013 149.89c.133-.2.398-.599.895-.864.332-.2.63-.266.83-.333a2.958 2.958 0 0 1-.796-.797c-.232-.365-.332-.698-.398-.897-.133.2-.365.532-.763.797-.364.266-.729.366-.96.399.198.166.496.432.728.797.266.333.398.665.464.898zM323.217 150.654c.133-.2.398-.598.895-.864.332-.2.63-.266.83-.332a2.958 2.958 0 0 1-.796-.798c-.232-.365-.332-.698-.398-.897-.133.2-.365.532-.763.798-.364.265-.729.365-.96.398.198.166.496.432.728.798.232.332.365.63.464.897zM328.355 151.318c.133-.2.398-.598.895-.864.332-.199.63-.265.829-.332a2.958 2.958 0 0 1-.796-.797c-.232-.366-.331-.698-.397-.897-.133.199-.365.531-.763.797-.364.266-.729.366-.961.399.199.166.497.432.73.797.231.332.397.665.463.897zM333.725 151.817c-.066.1-.133.199-.199.265-.1-.232-.232-.564-.464-.897-.265-.365-.53-.631-.73-.83.133-.034.3-.067.465-.133a9.53 9.53 0 0 1 .928 1.595zM294.546 150.62a2.493 2.493 0 0 0-.83.333 3.174 3.174 0 0 0-.894.864c-.1-.233-.232-.565-.431-.897-.1-.133-.199-.266-.298-.366a8.89 8.89 0 0 1 .43-.764c.034 0 .067-.033.067-.067.398-.265.63-.598.762-.797.067.233.166.565.398.897.265.432.597.665.796.797zM298.888 149.89c-.133.199-.365.531-.763.797-.364.266-.729.365-.96.399.198.166.496.432.728.797.232.332.365.665.464.897.133-.2.398-.598.895-.864.332-.2.63-.266.83-.332a2.958 2.958 0 0 1-.796-.797 2.868 2.868 0 0 1-.398-.897zM304.059 150.62c-.133.2-.365.532-.763.798-.364.266-.729.365-.96.399.198.166.496.432.728.797.232.332.365.665.464.897.133-.2.398-.598.895-.864.332-.2.63-.266.829-.332a2.958 2.958 0 0 1-.796-.797 2.868 2.868 0 0 1-.397-.898zM309.23 151.318c-.133.2-.365.532-.763.798-.364.265-.729.365-.961.398.199.166.497.432.73.798.231.332.364.664.463.897.133-.2.398-.598.895-.864.332-.2.63-.266.829-.332a2.958 2.958 0 0 1-.796-.798c-.232-.332-.364-.664-.397-.897zM314.4 152.05c-.132.199-.364.53-.762.797-.365.265-.73.365-.961.398.199.166.497.432.729.798.232.332.365.664.464.897.133-.2.398-.598.895-.864.332-.2.63-.266.829-.332a2.958 2.958 0 0 1-.796-.798 2.868 2.868 0 0 1-.398-.897zM319.604 153.112c-.132.2-.364.532-.762.798-.365.266-.73.365-.961.399.199.166.497.431.73.797.231.332.364.664.463.897.133-.2.398-.598.895-.864.332-.2.63-.266.829-.332a2.958 2.958 0 0 1-.796-.798 2.868 2.868 0 0 1-.398-.897zM324.775 153.843c-.132.2-.364.532-.762.798-.365.266-.73.365-.961.398.199.167.497.432.729.798.232.332.365.664.464.897.133-.2.398-.598.895-.864.331-.2.63-.266.829-.332a2.958 2.958 0 0 1-.796-.798 2.868 2.868 0 0 1-.398-.897zM329.946 154.541c-.132.2-.364.532-.762.798-.365.265-.73.365-.961.398.199.166.497.432.729.798.232.332.364.664.464.897.132-.2.398-.598.895-.864.331-.2.63-.266.829-.332a2.958 2.958 0 0 1-.796-.798 1.865 1.865 0 0 1-.398-.897zM335.979 157.1c-.166.066-.332.132-.497.232-.464.266-.763.665-.895.864-.1-.233-.232-.565-.464-.897a4.482 4.482 0 0 0-.73-.798c.233-.033.597-.132.962-.398.398-.266.63-.598.762-.798.066.233.166.565.398.897.1.133.199.266.298.366.033.166.1.332.166.531zM289.607 155.77c-.033 0-.033 0 0 0-.033 0-.033 0 0 0-.033 0-.033 0 0 0zM293.054 157.698c.133-.2.398-.599.895-.864.331-.2.63-.266.829-.333a2.958 2.958 0 0 1-.796-.797c-.232-.365-.331-.698-.398-.897-.132.2-.364.532-.762.797-.365.266-.73.366-.961.399.199.166.497.432.729.797.265.333.398.665.464.898zM298.59 158.661c.132-.2.397-.598.894-.864.332-.2.63-.266.83-.332a2.958 2.958 0 0 1-.796-.797c-.232-.366-.332-.698-.398-.898-.133.2-.365.532-.763.798-.364.266-.729.365-.96.399.198.166.496.431.728.797.232.332.398.664.464.897zM303.76 159.425c.133-.2.398-.598.895-.864.332-.199.63-.265.829-.332a2.958 2.958 0 0 1-.796-.797c-.232-.366-.331-.698-.397-.897-.133.199-.365.531-.763.797-.364.266-.729.366-.96.399.198.166.496.432.728.797.265.332.398.631.464.897zM308.898 160.09c.133-.2.398-.598.895-.864.332-.2.63-.266.829-.332a2.958 2.958 0 0 1-.796-.798c-.232-.365-.331-.698-.398-.897-.132.2-.364.532-.762.798-.365.265-.73.365-.961.398.199.166.497.432.729.798.265.332.398.664.464.897zM314.102 160.854c.133-.2.398-.598.895-.864.332-.2.63-.266.829-.332a2.958 2.958 0 0 1-.796-.798c-.232-.365-.331-.697-.398-.897-.132.2-.364.532-.762.798-.365.266-.73.365-.961.398.199.167.497.432.73.798.231.332.364.631.463.897zM319.306 161.884c.133-.2.398-.598.895-.864.332-.2.63-.266.829-.332a2.958 2.958 0 0 1-.796-.798c-.232-.365-.331-.697-.397-.897-.133.2-.365.532-.763.798-.364.266-.73.365-.961.398.199.167.497.432.73.798.231.332.364.664.463.897zM324.477 162.648c.133-.2.398-.598.895-.864.331-.2.63-.266.829-.332a2.958 2.958 0 0 1-.796-.797c-.232-.366-.331-.698-.398-.898-.132.2-.364.532-.762.798-.365.266-.73.365-.961.399.199.166.497.432.729.797.232.332.365.631.464.897zM329.615 163.313c.132-.2.398-.598.895-.864.331-.2.63-.266.828-.332a2.958 2.958 0 0 1-.795-.798c-.232-.365-.332-.698-.398-.897-.132.2-.364.532-.762.797-.365.266-.73.366-.961.4.198.165.497.431.729.797.265.332.397.664.464.897zM334.786 164.077c.132-.2.397-.598.895-.864.331-.2.63-.266.828-.332a2.958 2.958 0 0 1-.795-.798c-.232-.365-.332-.697-.398-.897-.133.2-.365.532-.762.798-.365.265-.73.365-.962.398.2.166.498.432.73.798.265.332.397.631.464.897zM289.441 160.19c-.133.199-.365.531-.762.797-.365.266-.73.365-.962.399.2.166.498.431.73.797.232.332.364.664.464.897.132-.2.397-.598.895-.864.331-.2.63-.266.828-.332a2.958 2.958 0 0 1-.795-.797c-.232-.333-.332-.698-.398-.898zM294.579 161.12c-.1.2-.332.498-.73.764-.364.266-.729.365-.928.399.2.166.464.432.73.797.232.332.364.631.43.897.133-.2.398-.565.862-.864.299-.2.597-.266.829-.299a2.958 2.958 0 0 1-.796-.797 1.865 1.865 0 0 1-.397-.897zM300.18 161.884c-.132.2-.364.532-.762.797-.364.266-.73.366-.961.399.199.166.497.432.73.797.231.333.364.665.463.898.133-.2.398-.599.895-.864.332-.2.63-.266.829-.333a2.958 2.958 0 0 1-.796-.797 1.865 1.865 0 0 1-.397-.897zM305.351 162.648c-.132.2-.364.532-.762.798-.365.265-.73.365-.961.398.199.166.497.432.729.798.232.332.365.664.464.897.133-.2.398-.598.895-.864.331-.2.63-.266.829-.332a2.958 2.958 0 0 1-.796-.798 2.868 2.868 0 0 1-.398-.897zM310.49 163.313c-.133.199-.365.531-.763.797-.365.266-.73.366-.961.399.198.166.497.432.729.797.232.332.364.665.464.897.132-.2.398-.598.895-.864.331-.199.63-.265.828-.332a2.958 2.958 0 0 1-.795-.797 2.868 2.868 0 0 1-.398-.897zM315.66 164.077c-.133.2-.365.531-.762.797-.365.266-.73.366-.962.399.2.166.498.432.73.797.232.333.364.665.464.897.132-.199.397-.598.895-.863.331-.2.63-.266.828-.333a2.958 2.958 0 0 1-.795-.797c-.232-.366-.332-.698-.398-.897zM320.864 165.107c-.133.2-.365.531-.762.797-.365.266-.73.366-.962.399.2.166.498.432.73.797.232.333.364.665.464.897.132-.199.397-.598.895-.863.331-.2.63-.266.828-.333a2.958 2.958 0 0 1-.795-.797 2.868 2.868 0 0 1-.398-.897zM326.035 165.871c-.133.2-.365.532-.762.797-.365.266-.73.366-.962.4.2.165.498.431.73.797.232.332.364.664.464.897.132-.2.397-.598.895-.864.331-.2.63-.266.828-.333a2.958 2.958 0 0 1-.795-.797c-.232-.332-.332-.698-.398-.897zM331.206 166.535c-.133.2-.365.532-.763.798-.364.266-.729.365-.96.399.198.166.496.432.728.797.232.332.365.665.464.897.133-.2.398-.598.895-.864.332-.2.63-.266.83-.332a2.958 2.958 0 0 1-.796-.797c-.232-.333-.365-.665-.398-.898zM336.377 167.3c-.133.199-.365.531-.763.797-.364.266-.729.366-.96.399.198.166.496.432.728.797.232.332.365.665.464.897.133-.2.398-.598.895-.864.332-.199.63-.265.829-.332a2.958 2.958 0 0 1-.796-.797c-.232-.366-.364-.698-.397-.897zM285.729 167.134a3.182 3.182 0 0 0-.83.299c-.463.299-.728.664-.86.863-.034-.066-.034-.132-.067-.199.132-.266.265-.598.464-1.03.132-.266.265-.565.398-.897.033.066.066.1.099.166.298.432.597.665.796.798zM289.143 169.06c.132-.199.397-.564.861-.863.299-.2.597-.266.83-.3a2.958 2.958 0 0 1-.796-.797 2.868 2.868 0 0 1-.398-.897c-.1.2-.332.499-.73.764-.364.266-.729.366-.927.4.198.165.464.431.729.797.232.332.364.63.43.897zM295.507 168.03a2.868 2.868 0 0 1-.398-.896c-.1.199-.331.498-.73.764-.364.266-.728.365-.927.398.199.167.464.432.729.798.232.332.365.631.43.897.133-.2.399-.565.863-.864.298-.2.596-.266.828-.299a2.53 2.53 0 0 1-.795-.797zM300.38 167.798c-.133.2-.365.532-.763.797-.365.266-.73.366-.961.4.199.165.497.431.729.797.232.332.365.664.464.897.133-.2.398-.598.895-.864.331-.2.63-.266.829-.332a2.958 2.958 0 0 1-.796-.798c-.232-.365-.331-.698-.398-.897zM305.55 168.463c-.132.199-.364.531-.762.797-.365.266-.73.365-.961.399.199.166.497.432.729.797.232.332.364.665.464.897.133-.2.398-.598.895-.864.331-.199.63-.265.829-.332a2.958 2.958 0 0 1-.796-.797 1.865 1.865 0 0 1-.398-.897zM310.688 169.194c-.133.199-.365.531-.762.797-.365.266-.73.365-.962.399.2.166.498.432.73.797.232.332.364.665.464.897.132-.2.397-.598.895-.864.331-.2.63-.266.828-.332a2.958 2.958 0 0 1-.795-.797 2.868 2.868 0 0 1-.398-.897zM315.892 170.257c-.133.2-.365.531-.762.797-.365.266-.73.366-.962.399.2.166.498.432.73.797.232.333.364.665.464.897.132-.199.397-.598.895-.864.331-.199.63-.265.828-.332a2.958 2.958 0 0 1-.795-.797 2.868 2.868 0 0 1-.398-.897zM321.063 170.988c-.133.2-.365.531-.762.797-.365.266-.73.366-.962.399.2.166.498.432.73.797.232.332.364.665.464.897.132-.199.397-.598.895-.864.331-.199.63-.265.828-.332a2.958 2.958 0 0 1-.795-.797 2.868 2.868 0 0 1-.398-.897zM326.598 173.712c.332-.2.63-.266.83-.332a2.958 2.958 0 0 1-.796-.797c-.232-.366-.332-.698-.398-.898-.133.2-.365.532-.763.798-.364.266-.729.365-.96.399.198.166.496.431.728.797.232.332.365.664.464.897.133-.2.398-.565.895-.864zM330.874 175.34c.133-.2.398-.598.895-.864.332-.199.63-.265.829-.332a2.958 2.958 0 0 1-.796-.797c-.232-.366-.331-.698-.397-.897-.133.199-.365.531-.763.797-.364.266-.729.366-.96.399.198.166.496.432.728.797.265.332.398.631.464.897zM337.338 174.31c-.232-.365-.332-.697-.398-.897-.132.2-.364.532-.762.798-.365.265-.73.365-.961.398.198.166.497.432.729.798.232.332.364.664.464.897.132-.2.398-.598.895-.864.331-.2.63-.266.828-.332a2.958 2.958 0 0 1-.795-.798zM340.818 175.706c-.132-.166-.298-.3-.397-.399.066-.033.165-.033.298-.066.033.166.066.332.1.465zM285.596 171.486c-.1.2-.331.498-.73.764-.364.266-.728.366-.927.399.199.166.464.432.729.797.232.333.364.632.43.897.133-.199.399-.564.863-.863.298-.2.596-.266.828-.3a2.958 2.958 0 0 1-.795-.797 2.868 2.868 0 0 1-.398-.897zM291.065 174.21c.332-.199.63-.265.829-.332a2.958 2.958 0 0 1-.796-.797c-.232-.366-.331-.698-.397-.897-.133.2-.365.531-.763.797-.364.266-.729.366-.961.399.199.166.497.432.73.797.231.333.364.665.463.897.166-.199.431-.564.895-.863zM295.739 176.071c.132-.2.398-.598.895-.864.331-.199.63-.265.828-.332a2.958 2.958 0 0 1-.795-.797c-.232-.366-.332-.698-.398-.897-.132.199-.364.531-.762.797-.365.266-.73.365-.961.399.198.166.497.432.729.797.232.332.364.631.464.897zM300.91 176.802c.132-.2.398-.598.895-.864.331-.2.63-.266.828-.332a2.958 2.958 0 0 1-.795-.797c-.232-.366-.332-.698-.398-.897-.132.199-.365.531-.762.797-.365.266-.73.365-.962.399.2.166.498.432.73.797.232.332.364.665.464.897zM306.08 177.5c.133-.2.398-.598.896-.864.331-.2.63-.266.828-.332a2.958 2.958 0 0 1-.795-.798c-.232-.365-.332-.697-.398-.897-.133.2-.365.532-.762.798-.365.265-.73.365-.962.398.2.167.498.432.73.798.232.332.364.631.464.897zM311.252 178.23c.132-.199.397-.597.894-.863.332-.2.63-.266.83-.332a2.958 2.958 0 0 1-.796-.798c-.232-.365-.332-.697-.398-.897-.133.2-.365.532-.763.798-.364.265-.729.365-.96.398.198.166.496.432.728.798.232.332.365.664.465.897zM316.456 179.294c.132-.2.397-.598.895-.864.331-.2.63-.266.828-.332a2.958 2.958 0 0 1-.795-.797c-.232-.366-.332-.698-.398-.898-.133.2-.365.532-.762.798-.365.266-.73.365-.962.399.2.166.497.431.73.797.232.332.364.664.464.897zM321.593 180.025c.133-.2.398-.598.895-.864.332-.2.63-.266.829-.332a2.958 2.958 0 0 1-.796-.798c-.232-.365-.331-.697-.397-.897-.133.2-.365.532-.763.798-.364.266-.729.365-.961.399.199.166.497.431.73.797.264.332.397.631.463.897zM332.83 180.59c.331-.2.63-.266.829-.332a2.958 2.958 0 0 1-.796-.798c-.232-.365-.331-.698-.398-.897-.132.2-.364.532-.762.798-.365.265-.73.365-.961.398.199.166.497.432.729.798.232.332.365.664.464.897.133-.233.398-.598.895-.864zM337.47 182.417c.133-.2.398-.598.896-.864.331-.199.63-.265.828-.332a2.958 2.958 0 0 1-.795-.797c-.232-.366-.332-.698-.398-.897-.133.199-.365.531-.762.797-.365.266-.73.366-.962.399.2.166.497.432.73.797.232.332.364.665.464.897zM342.177 182.251a4.482 4.482 0 0 0-.729-.797c.133-.034.332-.067.564-.166.066.332.132.664.165.963zM282.646 178.065c-.033 0-.1.033-.133.033v-.133a.458.458 0 0 0 .133.1zM286.093 179.992c.133-.2.398-.598.895-.864.332-.2.63-.266.829-.332a2.958 2.958 0 0 1-.796-.798c-.232-.365-.331-.697-.397-.897-.133.2-.365.532-.763.798-.364.265-.73.365-.961.398.199.166.497.432.73.798.264.332.397.631.463.897zM291.629 180.955c.132-.199.397-.598.895-.864.331-.199.63-.265.828-.332a2.958 2.958 0 0 1-.795-.797c-.232-.366-.332-.698-.398-.897-.133.2-.365.531-.762.797-.365.266-.73.366-.962.399.2.166.498.432.73.797.265.333.397.665.464.897zM296.833 181.686c.132-.2.397-.598.895-.864.331-.199.63-.265.828-.332a2.958 2.958 0 0 1-.795-.797c-.232-.366-.332-.698-.398-.897-.133.199-.365.531-.762.797-.365.266-.73.366-.962.399.2.166.498.432.73.797.232.366.364.665.464.897zM301.97 182.384c.133-.2.398-.598.895-.864.332-.2.63-.266.83-.332a2.958 2.958 0 0 1-.796-.797c-.232-.366-.332-.698-.398-.898-.133.2-.365.532-.763.798-.364.266-.729.365-.96.399.198.166.496.431.728.797.232.332.398.664.464.897zM307.141 183.115c.133-.2.398-.598.895-.864.332-.2.63-.266.829-.332a2.958 2.958 0 0 1-.796-.798c-.232-.365-.331-.697-.397-.897-.133.2-.365.532-.763.798-.364.266-.729.365-.961.398.199.167.497.432.73.798.264.332.397.664.463.897zM312.378 184.178c.133-.2.398-.598.895-.864.332-.199.63-.265.83-.332a2.958 2.958 0 0 1-.796-.797c-.232-.366-.332-.698-.398-.897-.133.199-.365.531-.763.797-.364.266-.729.365-.96.399.198.166.496.432.728.797.232.332.365.665.464.897zM317.55 184.942c.132-.199.397-.598.894-.863.332-.2.63-.266.829-.333a2.958 2.958 0 0 1-.796-.797c-.232-.366-.331-.698-.397-.897-.133.2-.365.531-.763.797-.364.266-.729.366-.96.399.198.166.496.432.728.797.232.333.365.632.464.897zM323.98 184.079c-.033.166-.066.332-.133.498-.1.033-.199.1-.298.166a3.174 3.174 0 0 0-.895.864c-.1-.233-.232-.565-.464-.897a4.482 4.482 0 0 0-.73-.798c.233-.033.564-.132.962-.398s.63-.598.762-.798c.067.233.166.565.398.897.133.167.265.333.398.466zM327.99 186.105c-.066.067-.099.166-.132.233-.033-.067-.066-.133-.1-.233h.233zM333.394 187.301c.132-.199.397-.598.894-.863.332-.2.63-.266.83-.333a2.958 2.958 0 0 1-.796-.797c-.232-.366-.332-.698-.398-.897-.133.2-.365.531-.763.797-.364.266-.729.366-.96.399.198.166.496.432.728.797.232.333.365.665.465.897zM338.564 188.066c.133-.2.398-.598.895-.864.332-.2.63-.266.829-.333a2.958 2.958 0 0 1-.796-.797c-.232-.365-.331-.698-.397-.897-.133.2-.365.532-.763.797-.364.266-.729.366-.96.4.198.165.496.431.728.797.232.332.365.63.464.897zM342.94 187.401c-.133-.166-.299-.299-.398-.399.1-.033.232-.033.365-.1 0 .2 0 .333.033.5zM283.707 184.178c-.166.033-.431.1-.696.233-.034-.332-.034-.665-.067-.997.265.399.564.631.763.764zM287.154 186.105c.132-.2.398-.598.895-.864.331-.199.63-.265.828-.332a2.958 2.958 0 0 1-.795-.797c-.232-.366-.331-.698-.398-.897-.132.199-.364.531-.762.797-.365.266-.73.366-.961.399.198.166.497.432.729.797.265.332.398.665.464.897zM293.22 184.178c-.133.2-.365.532-.763.798-.364.265-.729.365-.96.398.198.166.496.432.728.798.232.332.365.664.464.897.133-.2.398-.598.895-.864.332-.2.63-.266.829-.332a2.958 2.958 0 0 1-.796-.798c-.232-.332-.364-.664-.397-.897zM298.788 185.84c-.232-.366-.331-.698-.397-.898-.133.2-.365.532-.763.798-.364.266-.729.365-.961.399.199.166.497.431.73.797.231.332.364.664.463.897.133-.2.398-.598.895-.864.332-.2.63-.266.829-.332a2.958 2.958 0 0 1-.796-.798zM303.561 185.607c-.132.2-.364.532-.762.797-.365.266-.73.366-.961.399.199.166.497.432.73.797.231.333.364.665.463.898.133-.2.398-.599.895-.864.332-.2.63-.266.829-.333a2.958 2.958 0 0 1-.796-.797c-.232-.332-.364-.665-.398-.897zM308.732 186.338c-.132.2-.364.531-.762.797-.365.266-.73.366-.961.399.199.166.497.432.729.797.232.333.365.665.464.897.133-.199.398-.598.895-.863.331-.2.63-.266.829-.333a2.958 2.958 0 0 1-.796-.797 2.868 2.868 0 0 1-.398-.897zM313.936 187.401c-.132.2-.364.532-.762.797-.365.266-.73.366-.961.4.199.165.497.431.729.797.232.332.365.664.464.897.133-.2.398-.598.895-.864.331-.2.63-.266.829-.332a2.958 2.958 0 0 1-.796-.798 2.868 2.868 0 0 1-.398-.897zM319.107 188.132c-.132.2-.364.532-.762.797-.365.266-.73.366-.961.4.199.165.497.431.729.797.232.332.364.664.464.897.133-.2.398-.598.895-.864.331-.2.63-.266.829-.332a2.958 2.958 0 0 1-.796-.798 1.865 1.865 0 0 1-.398-.897zM324.245 188.797c-.133.199-.365.531-.762.797-.365.266-.73.365-.962.399.2.166.498.432.73.797.232.332.364.665.464.897.132-.2.397-.598.895-.864.331-.2.63-.266.828-.332a2.958 2.958 0 0 1-.795-.797 2.868 2.868 0 0 1-.398-.897zM328.886 192.451c.132-.199.397-.598.895-.864.331-.199.63-.265.828-.332a2.958 2.958 0 0 1-.795-.797c-.232-.366-.332-.698-.398-.897-.133.2-.365.531-.762.797-.365.266-.73.366-.962.399.2.166.497.432.73.797.265.333.397.665.464.897zM334.951 190.524c-.132.2-.364.532-.762.798-.365.265-.73.365-.961.398.199.167.497.432.729.798.232.332.365.664.464.897.133-.2.398-.598.895-.864.331-.2.63-.266.829-.332a2.958 2.958 0 0 1-.796-.798 2.868 2.868 0 0 1-.398-.897zM340.52 192.186c-.232-.366-.331-.698-.398-.898-.132.2-.364.532-.762.798-.365.266-.73.365-.961.399.199.166.497.432.729.797.232.332.364.664.464.897.133-.2.398-.598.895-.864.331-.2.63-.266.829-.332a2.958 2.958 0 0 1-.796-.797zM283.905 190.06c-.198.032-.464.099-.762.265v-1.03c.265.399.564.631.762.764zM287.717 192.219c.133-.2.398-.598.895-.864.332-.2.63-.266.829-.332a2.958 2.958 0 0 1-.796-.798c-.232-.365-.331-.697-.397-.897-.133.2-.365.532-.763.798-.364.265-.729.365-.96.398.198.166.496.432.728.798.265.332.398.664.464.897zM292.888 192.983c.133-.2.398-.598.895-.864.332-.2.63-.266.829-.332a2.958 2.958 0 0 1-.796-.798c-.232-.365-.331-.697-.397-.897-.133.2-.365.532-.763.798-.364.266-.729.365-.961.398.199.167.497.432.73.798.264.332.397.631.463.897zM298.06 193.647c.132-.199.397-.598.894-.863.332-.2.63-.266.829-.333a2.958 2.958 0 0 1-.796-.797c-.232-.366-.331-.698-.398-.897-.132.2-.364.531-.762.797-.365.266-.73.366-.961.399.199.166.497.432.73.797.231.333.364.665.463.897zM303.23 194.378c.133-.199.398-.598.895-.863.331-.2.63-.266.829-.333a2.958 2.958 0 0 1-.796-.797c-.232-.366-.331-.698-.398-.897-.132.2-.364.531-.762.797-.365.266-.73.366-.961.399.199.166.497.432.729.797.232.333.365.632.464.897zM308.434 195.442c.133-.2.398-.598.895-.864.331-.2.63-.266.829-.332a2.958 2.958 0 0 1-.796-.798c-.232-.365-.331-.698-.398-.897-.132.2-.364.532-.762.797-.365.266-.73.366-.961.4.199.165.497.431.729.797.265.332.398.664.464.897zM313.638 196.206c.133-.2.398-.598.895-.864.332-.2.63-.266.829-.332a2.958 2.958 0 0 1-.796-.798c-.232-.365-.331-.697-.398-.897-.132.2-.364.532-.762.798-.365.265-.73.365-.961.398.199.166.497.432.729.798.232.332.365.631.464.897zM318.743 196.837c.132-.2.397-.598.895-.864.331-.2.63-.266.828-.332a2.958 2.958 0 0 1-.795-.797c-.232-.366-.332-.698-.398-.898-.133.2-.365.532-.762.798-.365.266-.73.365-.962.399.2.166.498.432.73.797.265.332.397.665.464.897zM325.637 196.405a2.493 2.493 0 0 0-.828.332 2.641 2.641 0 0 0-.63.532c-.166-.066-.299-.1-.464-.166-.067-.133-.133-.266-.232-.399a4.482 4.482 0 0 0-.73-.797c.232-.033.564-.133.962-.399.397-.266.63-.598.762-.797.066.232.166.565.398.897.232.398.563.664.762.797zM329.449 198.565c.133-.2.398-.598.895-.864.331-.2.63-.266.829-.332a2.958 2.958 0 0 1-.796-.798c-.232-.365-.331-.697-.398-.897-.132.2-.364.532-.762.798-.365.265-.73.365-.961.398.199.166.497.432.729.798.265.332.398.664.464.897zM336.344 198.133a2.493 2.493 0 0 0-.83.332 2.478 2.478 0 0 0-.53.432c-.165 0-.33.033-.497.033a1.984 1.984 0 0 0-.298-.498 4.482 4.482 0 0 0-.73-.797c.233-.034.597-.133.962-.4.398-.265.63-.597.762-.797.067.233.166.565.398.897.232.4.564.665.763.798zM284.966 196.173a2.493 2.493 0 0 0-.828.332c-.498.266-.763.664-.895.864a22.782 22.782 0 0 0-.232-.565c.033-.532.033-1.063.066-1.595.364-.266.596-.565.696-.764.066.232.166.565.398.897.265.432.563.698.795.83zM289.308 195.408c-.132.2-.364.532-.762.798-.365.266-.73.365-.961.399.199.166.497.431.729.797.232.332.365.664.464.897.133-.2.398-.598.895-.864.331-.2.63-.266.829-.332a2.958 2.958 0 0 1-.796-.797 1.865 1.865 0 0 1-.398-.898zM294.48 196.173c-.133.199-.365.531-.763.797-.365.266-.73.365-.961.399.199.166.497.432.729.797.232.332.364.665.464.897.133-.2.398-.598.895-.864.331-.199.63-.265.829-.332a2.958 2.958 0 0 1-.796-.797c-.232-.333-.365-.698-.398-.897zM299.617 196.837c-.133.2-.365.532-.762.798-.365.265-.73.365-.962.398.2.166.498.432.73.798.232.332.364.664.464.897.132-.2.397-.598.895-.864.331-.2.63-.266.828-.332a2.958 2.958 0 0 1-.795-.798 2.868 2.868 0 0 1-.398-.897zM304.788 197.601c-.133.2-.365.532-.762.798-.365.266-.73.365-.962.398.2.167.497.432.73.798.232.332.364.664.464.897.132-.2.397-.598.895-.864.331-.2.63-.266.828-.332a2.958 2.958 0 0 1-.795-.798c-.232-.365-.332-.697-.398-.897zM309.992 198.631c-.133.2-.365.532-.762.798-.365.265-.73.365-.962.398.2.167.498.432.73.798.232.332.364.664.464.897.132-.2.397-.598.895-.864.331-.2.63-.266.828-.332a2.958 2.958 0 0 1-.795-.798 2.868 2.868 0 0 1-.398-.897zM315.196 199.395c-.133.2-.365.532-.762.798-.365.266-.73.365-.962.399.2.166.498.432.73.797.232.332.364.665.464.897.132-.2.397-.598.895-.864.331-.2.63-.266.828-.332a2.958 2.958 0 0 1-.795-.797 1.865 1.865 0 0 1-.398-.898zM319.638 200.824c-.1.399-.2.798-.299 1.23a2.7 2.7 0 0 0-.729-.765c.232-.033.564-.133.961-.398l.067-.067zM285.165 202.054a2.493 2.493 0 0 0-.829.332 3.174 3.174 0 0 0-.895.864c-.066-.233-.232-.565-.43-.897-.1-.133-.2-.266-.299-.366 0-.2.033-.399.033-.565.133-.066.299-.133.464-.266.398-.265.63-.598.763-.797.066.233.166.565.398.897.265.399.596.665.795.798zM288.977 204.213c.133-.2.398-.598.895-.864.331-.2.63-.266.829-.332a2.958 2.958 0 0 1-.796-.797c-.232-.366-.331-.698-.398-.897-.132.199-.364.531-.762.797-.365.266-.73.365-.961.399.199.166.497.432.729.797.265.332.398.631.464.897zM294.148 204.944c.132-.2.398-.598.895-.864.331-.2.63-.266.828-.332a2.958 2.958 0 0 1-.795-.797c-.232-.366-.332-.698-.398-.897-.132.199-.364.531-.762.797-.365.266-.73.365-.961.399.198.166.497.432.729.797.265.332.398.665.464.897zM299.319 205.642c.132-.2.397-.598.895-.864.331-.2.63-.266.828-.332a2.958 2.958 0 0 1-.795-.798c-.232-.365-.332-.697-.398-.897-.133.2-.365.532-.762.798-.365.265-.73.365-.962.398.2.166.498.432.73.798.232.332.364.631.464.897zM304.49 206.373c.132-.2.397-.598.895-.864.331-.2.63-.266.828-.332a2.958 2.958 0 0 1-.795-.798c-.232-.365-.332-.697-.398-.897-.133.2-.365.532-.762.798-.365.265-.73.365-.962.398.2.166.498.432.73.798.232.332.364.664.464.897zM309.694 207.436c.132-.2.397-.598.895-.864.331-.2.63-.266.828-.332a2.958 2.958 0 0 1-.795-.797c-.232-.366-.332-.698-.398-.898-.133.2-.365.532-.762.798-.365.266-.73.365-.962.399.2.166.498.431.73.797.232.332.364.631.464.897zM314.865 208.167c.132-.2.397-.598.894-.864.332-.2.63-.266.83-.332a2.958 2.958 0 0 1-.796-.798c-.232-.365-.332-.697-.398-.897-.133.2-.365.532-.763.798-.364.266-.729.365-.96.398.198.167.496.432.728.798.266.332.398.664.465.897zM284.734 209.297c.133-.2.398-.598.895-.864.332-.2.63-.266.829-.332a2.958 2.958 0 0 1-.796-.798c-.232-.365-.331-.698-.397-.897-.133.2-.365.532-.763.797-.364.266-.73.366-.961.4.199.165.497.431.73.797.264.332.397.63.463.897zM290.8 207.37c-.133.199-.365.531-.762.797-.365.266-.73.365-.962.399.2.166.498.432.73.797.232.332.364.665.464.897.132-.2.397-.598.895-.864.331-.199.63-.265.828-.332a2.958 2.958 0 0 1-.795-.797c-.232-.366-.365-.698-.398-.897zM295.97 208.1c-.132.2-.364.532-.761.798-.365.266-.73.365-.962.399.2.166.497.432.73.797.232.332.364.665.464.897.132-.2.397-.598.894-.864.332-.2.63-.266.83-.332a2.958 2.958 0 0 1-.796-.797 2.868 2.868 0 0 1-.398-.897zM301.109 208.798c-.133.2-.365.532-.763.798-.364.265-.729.365-.961.398.199.167.497.432.73.798.231.332.364.664.463.897.133-.2.398-.598.895-.864.332-.2.63-.266.829-.332a2.958 2.958 0 0 1-.796-.798c-.232-.365-.331-.697-.397-.897zM306.313 209.53c-.133.199-.365.53-.763.797-.364.265-.729.365-.961.398.199.166.497.432.73.798.231.332.364.664.463.897.133-.2.398-.598.895-.864.332-.2.63-.266.829-.332a2.958 2.958 0 0 1-.796-.798 1.865 1.865 0 0 1-.397-.897zM311.517 210.592c-.133.2-.365.532-.763.798-.364.266-.729.365-.96.399.198.166.496.431.728.797.232.332.365.664.464.897.133-.2.398-.598.895-.864.332-.2.63-.266.829-.332a2.958 2.958 0 0 1-.796-.797 2.168 2.168 0 0 1-.397-.898zM316.853 211.822c-.199.764-.397 1.495-.596 2.26-.033.066-.067.099-.1.132-.066-.233-.232-.565-.464-.897a4.482 4.482 0 0 0-.73-.797c.2-.034.564-.133.962-.4.398-.265.63-.597.763-.797.033.133.066.3.165.499zM285.298 215.41c.132-.2.397-.598.895-.864.331-.2.63-.266.828-.332a2.958 2.958 0 0 1-.795-.797c-.232-.366-.332-.698-.398-.897-.133.199-.365.531-.762.797-.365.266-.73.365-.962.399.2.166.498.432.73.797.265.332.397.631.464.897zM290.469 216.141c.132-.2.397-.598.894-.864.332-.2.63-.266.83-.332a2.958 2.958 0 0 1-.796-.797c-.232-.366-.332-.698-.398-.898-.133.2-.365.532-.762.798-.365.266-.73.365-.962.399.2.166.497.432.73.797.265.332.397.665.464.897zM295.64 216.839c.132-.2.397-.598.894-.864.332-.2.63-.266.829-.332a2.958 2.958 0 0 1-.795-.798c-.233-.365-.332-.697-.398-.897-.133.2-.365.532-.763.798-.364.265-.729.365-.96.398.198.166.496.432.728.798.232.332.365.631.464.897zM300.81 217.57c.133-.2.398-.598.895-.864.332-.2.63-.266.829-.332a2.958 2.958 0 0 1-.796-.798c-.232-.365-.331-.697-.397-.897-.133.2-.365.532-.763.798-.364.265-.729.365-.961.398.199.166.497.432.73.798.231.332.364.664.463.897zM306.014 218.633c.133-.2.398-.598.895-.864.332-.2.63-.266.829-.332a2.958 2.958 0 0 1-.796-.798c-.232-.365-.331-.697-.397-.897-.133.2-.365.532-.763.798-.364.266-.729.365-.96.399.198.166.496.431.728.797.232.332.365.631.464.897zM311.185 219.364c.133-.2.398-.598.895-.864.332-.2.63-.266.829-.332a2.958 2.958 0 0 1-.796-.798c-.232-.365-.331-.697-.397-.897-.133.2-.365.532-.763.798-.364.266-.729.365-.961.398.199.167.497.432.73.798.264.332.397.664.463.897zM282.546 219.364a2.493 2.493 0 0 0-.828.332c-.398.233-.63.499-.796.731l.299-2.591c.066-.067.099-.133.132-.167.066.233.166.565.398.898.265.398.563.664.795.797zM287.253 219.53c-.232-.365-.331-.698-.397-.897-.133.2-.365.532-.763.797-.364.266-.73.366-.961.4.199.165.497.431.73.797.231.332.364.664.463.897.133-.2.398-.598.895-.864.332-.2.63-.266.829-.332-.2-.133-.497-.4-.796-.798zM293.253 221.092a3.182 3.182 0 0 0-.829.299c-.199.133-.364.232-.497.365-.199 0-.398.033-.597.033-.066-.132-.165-.265-.265-.432-.265-.365-.53-.63-.73-.83.233-.033.564-.133.962-.399s.63-.598.763-.797c.066.232.165.565.397.897.266.465.597.698.796.864zM298.06 221.49l-2.189.1-.364-.365c.199-.034.563-.133.961-.4.398-.265.63-.597.762-.797.067.233.166.565.398.898.1.265.265.431.431.564zM302.567 221.291c-.199 0-.398.033-.597.033.2-.2.332-.398.431-.531.033.133.067.299.166.498z"/>
                    </g>
                    <path fill="#19233D" d="M320.864 195.973a1658.43 1658.43 0 0 1-4.84 18.972l-4.143-1.13-8.85-27.41c-.033 0 19.093 10.1 17.833 9.568zM326.035 174.742v.1c0-.033-.033-.067-.033-.067-.133.565-.265 1.097-.398 1.662 0 .033 0 .066-.033.1-.564 2.358-1.127 4.784-1.724 7.276 0 .066-.033.1-.033.166-.1.465-.232.93-.331 1.429l-15.281-4.12 11.237-10.001 6.596 3.455zM342.343 194.345c-2.95-8.738-6.033-17.61-9.281-26.613-3.281-9.17-6.63-18.175-9.977-26.98.1.034.199.067.298.133a26.03 26.03 0 0 1 4.475 3.323c6.033 5.482 8.187 12.393 9.811 18.872 4.243 16.646 6.663 26.281 4.674 31.265zM315.362 139.324c-2.718.797-5.37 1.395-5.37 1.395l-1.326-9.27a15.666 15.666 0 0 0 3.282-1.495c1.723 1.163 2.22 2.26 2.386 3.09.232 1.196-.364 1.994.232 3.29.2.465.398.897.663 1.66.133.366.199.798.133 1.33z" opacity=".08"/>
                    <path fill="url(#c)" d="M22.805 22.36c0 4.719-11.568 11.23-19.06 14.985.299-.63.664-1.462 1.194-2.624.132-.266.232-.532.364-.831.564-1.23 1.26-2.725 2.089-4.652.132-.332.298-.664.464-1.03.1-.232.232-.498.331-.73 1.492-3.323 2.254-5.084 3.713-7.642 2.22-3.855 3.314-5.815 4.905-6.978 0-.1-.033-.166-.033-.266 3.15 3.024 6.033 6.612 6.033 9.769z" opacity=".32" transform="translate(280.723 129.722)"/>
                </g>
                <g>
                    <path fill="#BDD3DE" d="M320.897 102.942l-2.685 3.323-2.85-2.16-3.746-2.824 2.652-2.326 3.977 2.392z"/>
                    <path fill="#253041" d="M320.897 102.942l-2.685 3.323-2.85-2.16 2.883-2.758z" opacity=".06"/>
                    <path fill="#19233D" d="M327.195 101.912c-3.116 2.724-7.458 1.86-10.01.2-.265-.167-3.746-2.526-4.011-6.779 0-.199-.033-.398-.033-.598.033-4.385 3.513-8.373 6.364-8.605 1.657-.133 2.85.73 2.85.73.796.566.929 1.164 1.393 1.861.1.133.166.266.265.366 1.525 1.894 3.646 1.595 4.939 3.09 1.757 1.993 1.392 7.01-1.757 9.735zM316.025 122.844c-1.326 1.096-7.094 5.515-7.326 5.648-2.187-3.223-4.375-6.479-6.563-9.701l-.364-.565-4.144-6.546-.232-.365c-.43-.598-.862-1.23-1.326-1.96-.331-.565-.663-1.13-.928-1.662-.132-.299-.53-1.428-.232-2.758v-.066c.033-.166.1-.332.166-.498 0-.034.033-.1.033-.133.928-2.26 3.414-2.758 3.58-2.758.132-.332.365-.83.762-1.329 1.525-1.927 3.945-2.226 5.005-2.359 1.492-.2 3.68.133 5.934 1.063.862.332 1.723.764 2.585 1.263a17.324 17.324 0 0 1 3.613 2.857c.796.83 1.492 1.761 2.055 2.791.597 1.097 1.094 2.293 1.36 3.622 1.524 7.043-3.349 12.725-3.978 13.456z"/>
                    <path fill="url(#d)" d="M15.778 12.925c-.497 0-6.663-.067-9.712 4.684-1.227 1.894-1.459 3.821-1.492 4.984-.563-.133-1.127-.299-1.757-.398a20.33 20.33 0 0 0-2.287-.366C.398 21.53 0 20.4.298 19.071v-.066c.033-.166.1-.332.166-.498 0-.034.033-.1.033-.133.928-2.26 3.414-2.758 3.58-2.758.133-.332.365-.83.762-1.33 1.525-1.926 3.945-2.225 5.006-2.358 1.491-.233 3.679.1 5.933.997z" opacity=".05" transform="translate(294.645 85.864)"/>
                    <path fill="url(#e)" d="M29.368 3.19c-.895-.166-1.923-.333-3.149-.565-2.784-.499-5.9 3.422-7.723 6.18.033-4.386 3.513-8.373 6.364-8.606 1.657-.133 2.85.731 2.85.731.796.565.929 1.163 1.393 1.86.1.167.166.3.265.4z" opacity=".05" transform="translate(294.645 85.864)"/>
                    <path fill="#E2C8C0" d="M314.732 123.342a29.247 29.247 0 0 1-1.657 1.894c-.697.764-1.591 1.628-2.619 2.525-.53.466-1.094.964-1.69 1.43-4.542 3.687-10.574 7.143-14.718 4.95-2.519-1.363-3.513-4.42-3.91-5.615-.366-1.13-.83-3.124.032-7.709.497-2.658 1.094-5.914 2.884-9.569l.298-.598c.265-.498.53-.996.862-1.528.1-.2.431-.698.895-1.429l.033-.033c.1.033.232.033.332.066 1.69.266 3.48.665 5.336 1.163 4.508 1.196 8.32 2.824 11.436 4.42-.564.863-1.293 1.893-1.89 3.687-.33.997-.497 1.861-.265 2.824.034.133.133.599.464 1.13.1.2.266.432.431.631.498.599 1.061.964 1.625 1.23.96.465 1.856.531 2.12.531z"/>
                    <g fill="#000105" transform="translate(292.988 114.106)">
                        <ellipse cx="9.739" cy="3.917" rx="1" ry="1" transform="rotate(-71.259 9.74 3.917)"/>
                        <ellipse cx="1.234" cy="1.389" rx="1" ry="1" transform="rotate(-71.259 1.234 1.389)"/>
                    </g>
                    <path fill="#C0846F" d="M297.794 115.933c-.762.798-1.724 1.828-2.818 3.057-1.557 1.694-2.187 2.425-1.988 3.256.1.498.464.83.928 1.263.762.73 1.59 1.063 2.088 1.229.63-2.957 1.193-5.881 1.79-8.805z"/>
                    <path fill="#000105" d="M296.766 129.223c-1.392 0-2.32-.797-2.684-1.13a.202.202 0 0 1 0-.265.201.201 0 0 1 .265 0c.331.332 1.26 1.096 2.618 1.03 1.558-.1 2.652-1.263 2.95-1.628.067-.067.2-.1.266-.033.066.066.099.199.033.265-.332.4-1.492 1.662-3.216 1.761-.066-.033-.132 0-.232 0z"/>
                    <g fill="#000">
                        <path d="M301.871 112.843c.033-.2 1.591-.2 3.016.465 1.426.665 2.486 1.794 2.354 1.96-.067.1-.53-.166-3.017-1.262-1.955-.897-2.386-1.03-2.353-1.163zM292.391 111.115c-.033-.199 1.326-.664 2.751-.531 1.426.133 2.652.864 2.586 1.063-.033.133-.53.033-2.95-.233-1.99-.199-2.387-.199-2.387-.299z"/>
                    </g>
                    <g>
                        <path fill="#E2C8C0" d="M316.224 125.27c-.498 2.06-2.52 3.355-4.575 2.923-.033 0-.066 0-.132-.033a4.19 4.19 0 0 1-1.061-.432 3.937 3.937 0 0 1-1.823-2.525 3.529 3.529 0 0 1 .033-1.76c0-.067.033-.134.066-.2.299-.997.962-1.828 1.823-2.293a3.913 3.913 0 0 1 2.818-.399c.63.133 1.16.432 1.624.831.298.266.564.565.762.897.1.166.2.366.299.565.265.731.364 1.595.166 2.425z"/>
                        <path fill="url(#f)" d="M6.762.964L.43 4.784a3.529 3.529 0 0 1 .033-1.76c0-.067.033-.133.066-.2C1.127.831 3.15-.366 5.17.133a3.865 3.865 0 0 1 1.592.83z" opacity=".28" transform="translate(308.235 120.419)"/>
                    </g>
                </g>
                <g>
                    <path fill="#E2C8C0" d="M306.976 182.085a311.08 311.08 0 0 1-3.116 3.754c-.63-.199-1.492-.531-2.52-.93-.795-.332-1.425-.598-1.955-.897-1.757-.897-2.619-1.661-6.033-3.489-.729-.398-3.679-1.96-3.58-2.724.034-.266.166-.366.166-.366.265-.199.73.067.928.167.497.265 2.52 1.329 5.503 2.89l.033-.033a369.873 369.873 0 0 1-5.503-3.655c-.43-.299-1.325-.897-1.226-1.395.033-.1.1-.233.199-.3.365-.265 1.06.134 1.293.266.795.466 3.05 1.728 6.198 3.522.033-.033.066-.1.1-.133a304.965 304.965 0 0 1-5.801-4.286c-.431-.299-1.293-.963-1.16-1.462 0 0 .033-.166.232-.299.298-.199 1.59.2 7.822 4.851l.133-.133c-2.917-2.724-5.403-4.718-5.701-5.116-.232-.266-.365-.565-.299-.798 0 0 .067-.166.232-.265.498-.266 1.757.83 1.757.83.961.764 2.486 1.927 4.31 3.489 2.32 1.96 3.778 3.322 4.076 3.057.265-.233-.563-1.795-.63-1.894-.464-.83-.729-.897-.96-1.495-.399-.93-.365-2.193-.034-2.326.497-.2 1.624 1.76 2.652 3.522.762 1.262 1.558 2.79 2.353 4.552.2.332.365.73.53 1.096z"/>
                    <path fill="#253041" d="M306.976 182.085a311.08 311.08 0 0 1-3.116 3.754c-.63-.199-1.492-.531-2.52-.93-.795-.332-1.425-.598-1.955-.897a14.364 14.364 0 0 0 7.06-3.057c.2.366.365.765.53 1.13z" opacity=".06"/>
                </g>
                <g>
                    <path fill="#0D2A28" d="M309.263 242.422c-7.989 5.815-18.165 1.263-54.759-4.319a520.487 520.487 0 0 0-22.374-2.924c-.033.067-.132.2-.199.333-1.922 3.422-2.055 6.744-2.088 7.243-.53 7.542-14.187 21.53-14.187 21.53-5.767 5.947-13.424 15.848-21.412 33.258 0 .034-.033.067-.033.067-.266.565-.53 1.13-.763 1.728-2.254-2.094-4.508-4.187-6.762-6.313v-.033c.696-1.529 1.36-3.024 1.989-4.42 5.47-12.16 8.618-19.47 10.508-24.055.729-1.794 3.248-7.808 6.927-15.782a443.956 443.956 0 0 1 2.055-4.352c8.353-17.377 12.53-26.082 17.933-29.504 6.231-3.954 14.982-3.888 32.55-3.788 8.883.066 16.275.631 21.512 1.196.066-.133.132-.3.199-.432.398-.897.828-1.827 1.226-2.724.232-.499.464-1.03.696-1.529l34.937 2.691c.066.898.133 1.761.199 2.592.066 1.03.132 1.994.132 2.957.63 17.875-4.872 24.089-8.286 26.58z"/>
                    <path fill="#E2C8C0" d="M194.21 297.543c0 .034-.033.067-.033.067a44.955 44.955 0 0 0-.96 2.226c-.266.598-.531 1.163-.796 1.761l-6.862-5.98 1.094-2.592v-.033c.166-.4.365-.765.53-1.163.464-1.03.929-2.027 1.36-2.99l.729.697c1.624 2.691 3.281 5.35 4.939 8.007z"/>
                    <path fill="#0D2A28" d="M188.774 286.114l7.458 8.97-1.325 3.722-7.956-9.037z"/>
                    <path fill="#253041" d="M194.21 297.543c0 .034-.033.067-.033.067a44.955 44.955 0 0 0-.96 2.226l-6.034-7.974c.464-1.03.929-2.027 1.36-2.99l.729.697c1.624 2.658 3.281 5.316 4.939 7.974z" opacity=".06"/>
                </g>
                <g>
                    <path fill="#336859" d="M242.207 240.695c1.591 4.585 3.447 11.496 3.48 20.001.033 6.646-1.027 10.666-1.922 16.846-.862 6.18-1.591 14.984-.763 26.049l.2 2.192c-2.686.565-5.37 1.13-8.088 1.695-.067-.266-.133-.698-.266-1.33-.165-.797-.364-1.893-.63-3.222-2.22-11.23-7.888-40.037-11.866-63.793-.563-3.29-.73-8.539.994-12.393.663-1.462 1.592-2.758 2.884-3.622 3.017-2.093 8.353-2.16 12.265-1.229 2.055.498 3.546 1.23 3.91 1.429 3.978 1.993 10.144 4.784 10.144 4.784 4.64 2.093 17.402 7.875 34.539 15.583-14.95-.997-29.932-1.994-44.881-2.99z"/>
                    <path fill="#E2C8C0" d="M243.533 310.202c-2.586.2-5.138.4-7.723.632a494.68 494.68 0 0 1-1.36-6.812c-.165-.83-.33-1.694-.497-2.525 3.05.864 6.1 1.728 9.116 2.592.033.332.066.664.066.963.133 1.728.265 3.456.398 5.15z"/>
                    <path fill="#0D2A28" d="M232.959 298.806a21.689 21.689 0 0 0 5.602 1.695c1.823.299 3.48.365 4.773.299.033 1.162.066 2.325.066 3.521-3.215-.498-6.463-.963-9.679-1.461-.232-1.33-.497-2.692-.762-4.054z"/>
                    <path fill="#253041" d="M243.135 305.052c-1.724-.199-6.497-.764-8.684-1.03-.166-.83-.332-1.694-.498-2.525 3.05.864 6.1 1.728 9.116 2.592 0 .299.033.631.066.963z" opacity=".06"/>
                    <path fill="#2A303D" d="M242.207 240.695c1.591 4.585 3.447 11.496 3.48 20.001.033 6.646-1.027 10.666-1.922 16.846-.862 6.18-1.591 14.984-.763 26.049l-1.392.066s-6.563-57.613-7.69-64.026c-1.127-6.379 12.596-4.684 18.198-5.748 2.519-.465 1.89-3.09.43-5.814 4.906 2.293 9.878 4.552 14.884 6.811 6.596 2.99 13.192 5.914 19.689 8.739-14.95-.93-29.932-1.928-44.914-2.924z" opacity=".09"/>
                    <path fill="url(#g)" d="M14.286 82.133c-.596-.1-1.193-.166-1.79-.265C10.276 70.638 4.607 41.83.63 18.075c-.564-3.29-.73-8.54.994-12.393a142.238 142.238 0 0 1 4.64 11.562c8.52 24.188 9.48 46.948 8.022 64.89z" opacity=".11" transform="translate(221.722 221.092)"/>
                </g>
                <g>
                    <g fill="#19233D">
                        <path d="M192.951 300.7c-.033.166-.1.332-.133.498-.53 2.06-1.06 4.087-1.624 6.147-.63.2-1.326.432-2.121.698l-.365-1.86-2.652 2.823c-5.104 1.529-11.501 3.223-16.01 3.489-1.358.066-2.916.066-3.414-.797-.497-.831.034-2.36 1.094-3.589a5.9 5.9 0 0 1 1.558-1.296c1.823-1.03 2.917-.1 5.536-.963 1.524-.499 2.453-1.263 3.778-2.326 1.028-.83 2.453-2.126 3.978-3.954a33.504 33.504 0 0 0 2.585-3.522c.166-.232.332-.498.498-.764 2.453 1.794 4.872 3.622 7.292 5.416z"/>
                        <path d="M192.818 301.198l-7.623-5.216a1.019 1.019 0 0 1-.266-1.429 1.013 1.013 0 0 1 1.426-.266l7.623 5.217c.465.299.597.963.266 1.428-.332.466-.962.599-1.426.266z"/>
                    </g>
                    <g fill="#19233D">
                        <path d="M245.72 313.824l-2.287-.731 1.26 3.09c-.265.598-.597 1.196-.928 1.827-1.558 2.791-4.541 8.04-10.276 10.6-.663.298-5.336 2.325-6.596.763-.232-.265-.331-.63-.331-1.063-.033-1.063.53-2.425 1.359-3.322 1.16-1.33 2.618-1.529 3.38-1.794 1.757-.698 3.58-3.423 3.78-12.394 0-.697.033-1.428.033-2.192v-1.33l8.187-.398.961 1.23 2.387 3.09c-.266.763-.564 1.66-.929 2.624z"/>
                        <path d="M243.964 308.209l-9.248.432a1.006 1.006 0 0 1-1.06-.964 1.007 1.007 0 0 1 .96-1.063l9.248-.432a1.006 1.006 0 0 1 1.061.964c.033.531-.43 1.03-.961 1.063z"/>
                    </g>
                    <path fill="url(#h)" d="M16.275 5.682c-1.16 2.824-3.05 6.28-5.734 7.974-3.48 2.193-7.226 1.295-9.116.564a5.9 5.9 0 0 1 1.558-1.295c1.823-1.03 2.917-.1 5.536-.964 1.524-.498 2.453-1.262 3.778-2.326a33.264 33.264 0 0 0 3.978-3.953z" opacity=".05" transform="translate(166.367 293.855)"/>
                    <path fill="url(#i)" d="M62.084 34.322c-.696.1-1.326.166-1.89.133-.033-1.063.53-2.426 1.36-3.323 1.16-1.329 2.618-1.528 3.38-1.794 1.757-.698 3.58-3.422 3.78-12.393.828.532 1.524 16.148-6.63 17.377z" opacity=".05" transform="translate(166.367 293.855)"/>
                </g>
            </g>
            <g fillRule="nonzero">
                <path fill="#F2BE54" d="M311.948 194.279v4.718c0 .797-.53 1.428-1.194 1.428h-8.518v1.629c.033 3.787.033 9.336.033 16.48v49.838c-.033 27.078-.067 54.423-.1 66.284a4.295 4.295 0 0 1 3.05 4.12c0 2.36-1.923 4.286-4.276 4.286-2.354 0-4.276-1.927-4.276-4.286 0-2.06 1.458-3.787 3.38-4.186.1-43.193 0-115.226 0-134.131H135.343v3.621c0 3.655.033 8.506.033 14.487v49.838c-.033 27.078-.066 54.423-.1 66.285a4.295 4.295 0 0 1 3.05 4.12c0 2.359-1.922 4.286-4.276 4.286-2.353 0-4.276-1.927-4.276-4.287 0-2.06 1.459-3.787 3.381-4.186.067-40.701.033-107.052 0-130.377v-3.754h-6.463c-.663 0-1.194-.631-1.194-1.429v-4.718c0-.797.53-1.428 1.194-1.428h184.03c.663-.067 1.227.564 1.227 1.362z"/>
                <path fill="url(#j)" d="M186.682 1.429v4.718c0 .797-.53 1.428-1.193 1.428h-8.519v1.628c.033 3.788.033 9.337.033 16.48v49.838c-.033 27.08-.066 54.424-.1 66.285a4.295 4.295 0 0 1 3.05 4.12c0 2.36-1.922 4.286-4.276 4.286-2.353 0-4.275-1.927-4.275-4.286 0-2.06 1.458-3.787 3.38-4.186.1-43.193 0-115.226 0-134.131H80.978l2.32-7.577h102.159c.663-.032 1.226.6 1.226 1.397z" opacity=".3" transform="translate(125.265 192.85)"/>
                <path fill="#19233D" d="M135.375 202.054v1.993l-2.22.133v-3.755h-2.818l.331-7.575h9.779c.43 2.492.96 5.416 1.359 7.575h-6.398c-.033.499-.033 1.03-.033 1.629z" opacity=".08"/>
            </g>
            <g fillRule="nonzero">
                <path fill="#CD907F" d="M194.343 191.687c-.132.266-.464.465-.762.598-.299.133-.564.233-.564.233-.364.232-1.326.332-1.458.332-2.055.166-3.547-.698-5.967-1.96a366.494 366.494 0 0 0-4.64-2.293 18.93 18.93 0 0 0-2.32.731c-1.16.465-2.056.93-2.785 1.396 3.282 0 6.729.1 6.862.531l.1.399c.132.664-.067 1.163-.73 1.163s-8.453.232-11.038.299c-.265.033-.53.033-.796.033h-.033a8.044 8.044 0 0 1-2.287-.432 13.393 13.393 0 0 1-1.723-.698 7.47 7.47 0 0 1-.73-.365c-8.518-10.466-14.949-17.975-19.623-23.324-3.115-3.555-6.795-7.709-9.645-14.487a55.831 55.831 0 0 1-1.658-4.585 50.066 50.066 0 0 1-1.723-8.273c.199-.1.364-.2.563-.299 2.387-1.362 4.773-2.724 7.127-4.053 1.558-.898 3.083-1.761 4.64-2.625.133.864.266 1.76.431 2.625.2 1.295.398 2.591.597 3.887l1.492 9.37c8.22 12.492 16.407 24.952 24.594 37.445 1.658-.466 3.116-.831 4.276-1.064.365-.066.73-.132 1.028-.199 1.359-.266 2.188-.399 2.95-.299.199.033 4.806-.033 5.337.399.165.133.696.631 1.325 1.23.498.464 1.028.996 1.492 1.494 2.983 1.296 5.8 2.559 5.668 2.791z"/>
                <path fill="#19233D" d="M166.202 192.053a7.47 7.47 0 0 1-.73-.366c-8.518-10.466-14.949-17.975-19.623-23.324-3.115-3.555-6.795-7.708-9.645-14.486a55.831 55.831 0 0 1-1.658-4.586l-1.16-8.605c2.387-1.362 4.773-2.724 7.127-4.053h5.038c.2 1.295.398 2.591.597 3.887l-6.464 4.186s-1.624 9.07 2.652 15.782c3.878 6.047 20.584 27.378 23.866 31.565zM182.079 192.85c-.663 0-8.453.233-11.038.3-.265.032-.53.032-.796.032h-.033a8.044 8.044 0 0 1-2.287-.432l14.883-1.063c.133.665-.066 1.163-.73 1.163z" opacity=".08"/>
                <path fill="url(#k)" d="M54.659 53.726c-4.01.265-7.392-.499-9.613-1.33 1.36-.265 2.188-.398 2.95-.298.2.033 4.807-.034 5.337.398.166.133.696.632 1.326 1.23z" opacity=".13" transform="translate(132.558 133.709)"/>
            </g>
            <g fillRule="nonzero">
                <path fill="#19233D" d="M127.32 350.87c-11.137-.1-22.307-.199-33.445-.332.067-.631.166-1.296.233-1.927.331-2.691.662-5.383.994-8.107l.132-.731v-.1c.233-.797.465-1.561.697-2.359 4.474.333 8.916.665 13.39.997l.531 2.558.066.366.299 1.429v.066c.199.133.398.233.596.332a24.77 24.77 0 0 0 1.658.798c.265.1.53.232.795.299 2.022.73 3.646.797 4.873.73.762-.066 1.922-.232 3.68-.132 1.988.133 3.38.232 4.408 1.196.861.83 1.16 1.993 1.193 2.99.1.897-.066 1.695-.1 1.927z"/>
                <path fill="#BDD3DE" d="M127.453 348.91c.033.93-.1 1.728-.133 1.96-11.137-.1-22.307-.199-33.445-.332.067-.631.166-1.296.233-1.927 5.601.1 25.092.233 33.345.299zM110.88 343.03l-3.15 1.395c-.032 0-.065.033-.099.033-.132.033-.265-.067-.331-.166-.066-.166 0-.333.166-.399l2.784-1.23v.067c.199.1.43.2.63.3zM113.333 344.126l-2.685 1.196c-.033 0-.067.033-.1.033-.132.033-.265-.067-.331-.166-.066-.166 0-.332.166-.399l2.12-.963c.3.1.564.199.83.299z"/>
                <path fill="#19233D" d="M103.455 349.874c0 .132 0 .265-.033.398a4.058 4.058 0 0 1-.564 1.562c-11.104-1.362-22.208-2.691-33.312-4.054l.663-2.259 2.618-9.137 13.69 1.33.298 4.185.033.333c.133.066.266.133.431.2.597.265 1.36.53 2.221.796.365.1.73.2 1.127.3.663.166 1.392.299 2.188.398 3.281.432 4.276-.232 6.364.698 1.922.797 4.342 2.824 4.276 5.25z"/>
                <path fill="#BDD3DE" d="M103.422 350.272a4.058 4.058 0 0 1-.564 1.562c-11.104-1.362-22.208-2.691-33.312-4.054l.663-2.259c5.535.797 25.158 3.588 33.213 4.751zM87.246 342.331l-3.447.997h-.1a.319.319 0 0 1-.298-.232c-.033-.167.033-.333.199-.366l3.149-.93.033.332c.166.1.298.166.464.2zM90.594 343.461l-4.01 1.163h-.1a.319.319 0 0 1-.299-.233c-.033-.166.034-.332.2-.365l3.049-.897c.364.133.762.232 1.16.332z"/>
            </g>
            <g fillRule="nonzero">
                <path fill="#5A142A" d="M140.679 267.242c-1.26 6.08-2.553 9.17-12.994 33.026a15649.81 15649.81 0 0 1-9.016 20.533c-2.585 5.881-5.469 12.427-8.585 19.504-.066.166-.166.332-.232.531-.033.067-.033.1-.066.166-3.248-.265-6.464-.531-9.712-.797l-4.873-.399c0-.033.033-.066.033-.1.233-.797.465-1.561.697-2.358 7.325-24.72 14.684-49.44 22.009-74.16-5.8-23.058-11.635-46.117-17.435-69.175l-1.193-4.785 33.113-5.282c.398 1.561.796 3.289 1.227 5.116a389.778 389.778 0 0 1 2.42 11.363c.927 4.851 1.855 10.2 2.717 16.048 3.282 22.594 5.105 35.153 1.89 50.769z"/>
                <path fill="#19233D" d="M118.769 211.29c-2.32 5.781.895 11.164 3.58 19.437 4.342 13.39 4.01 24.42 3.646 35.75-.398 13.324-2.95 14.985-6.166 42.928-.563 4.784-.928 8.738-1.193 11.396-2.585 5.881-5.47 12.427-8.585 19.504-4.972-.166-9.91-.366-14.883-.532 0-.033.033-.066.033-.1.232-.797.464-1.561.696-2.359 7.326-24.72 14.684-49.44 22.01-74.159-5.8-23.058-11.635-46.117-17.435-69.175l33.146-4.918a389.778 389.778 0 0 1 2.42 11.363c-6.497 1.43-14.618 4.32-17.27 10.865z" opacity=".08"/>
                <g>
                    <path fill="#791D2C" d="M123.078 171.353c-.332 1.595-.63 3.19-.962 4.751a7302.708 7302.708 0 0 1-20.02 95.59 6979 6979 0 0 1-15.347 69.342c-.829 0-1.69.033-2.52.033-4.275.066-8.551.133-12.827.232a2520.244 2520.244 0 0 1 2.95-66.019c.398-6.81.796-12.99 1.16-18.506.696-10.367 1.823-26.381 2.619-47.513.166-4.75.331-9.801.464-15.05.066-2.958.132-5.981.199-9.071.033-1.296.033-2.592.066-3.821.1-6.978.133-12.892.133-17.377 8.883 1.495 17.8 2.99 26.683 4.519.895.166 1.79.299 2.718.465.895.166 1.79.299 2.718.465 3.944.631 7.955 1.296 11.966 1.96z"/>
                    <path fill="#19233D" d="M122.116 176.138a7302.706 7302.706 0 0 1-20.02 95.59 7186.87 7186.87 0 0 1-15.347 69.308c-.829 0-1.69.033-2.52.033.896-50.137 2.918-82.765 6.266-101.936.861-4.95 3.314-17.61-3.713-25.052-2.486-2.625-5.602-4.053-8.651-4.85.166-4.752.331-9.802.464-15.052 6.928-11.895 17.766-26.182 29.766-25.285.895.067 1.79.2 2.718.466l11.037 6.778z" opacity=".08"/>
                </g>
            </g>
            <g transform="translate(54 87.525)">
                <path fill="#BDD3DE" fillRule="nonzero" d="M95.396 46.881a506.087 506.087 0 0 1-2.121 4.22l-8.75 1.894a711.957 711.957 0 0 1-2.454 15.317c-.066 2.226-.1 4.485-.132 6.778-.034 3.19 0 6.445.066 9.768.166 8.207.63 15.981 1.293 23.29a100.117 100.117 0 0 1-11.867 3.29 97.962 97.962 0 0 1-14.352 1.96c.53-2.259 1.027-4.518 1.558-6.81-1.857 2.558-3.713 5.15-5.57 7.74a3016.11 3016.11 0 0 0-24.992-3.388c-3.911-.532-7.822-1.03-11.734-1.529 2.751-12.46 6.166-27.876 8.585-38.441.53-2.393 1.028-4.52 1.459-6.313.563-2.36.961-4.153 1.226-5.183.033-.2.133-.565.265-1.03.067-.266 2.155-11.297 2.586-12.759-.961.764-1.956 1.528-2.917 2.392a87.04 87.04 0 0 0-6.132 5.748c.364.033.729.033 1.094.067a11.658 11.658 0 0 1-1.26 1.894 10.914 10.914 0 0 1-1.922 1.86h-.1c-.961.133-1.922.266-2.85.399-5.006.698-10.044 1.395-15.05 2.093l-.032-.033a12.974 12.974 0 0 1-.962-3.721c-.099-1.23 0-2.26.133-3.057.497.033 1.226.1 2.121.133C5.403 47.546 13.26 31.797 22.44 18.772c0 0 8.552-12.227 18.065-15.748l.73-.266C41.896 2.525 46.736.864 52.57.465c4.74-.332 10.341-.73 16.772 1.927.365.166 1.094.465 2.022.93 1.392.698 3.248 1.828 5.27 3.423a32.934 32.934 0 0 1 4.508 4.419c3.945 4.751 5.304 9.303 7.06 14.951 1.492 4.785 3.182 11.995 3.282 21.098 1.326-.133 2.618-.232 3.911-.332z"/>
                <g fill="#19233D" fillRule="nonzero" opacity=".3">
                    <path d="M81.276 11.263c-16.872.731-41.93 1.828-54.792 2.46a35.723 35.723 0 0 1 2.221-2.36c13.424-.664 36.097-1.661 50.615-2.26.63.632 1.26 1.297 1.856 2.028.033.033.067.1.1.132zM88.402 26.647c-18.728-1.362-58.47-4.22-68.15-4.718.498-.731.962-1.429 1.46-2.16 12.43.698 51.608 3.522 65.961 4.585.166.565.365 1.163.53 1.728.1.2.133.365.2.565zM90.557 35.983c-23.203.432-72.89 1.362-79.817 1.695.397-.765.828-1.529 1.292-2.293 11.834-.432 62.846-1.362 78.16-1.661.1.73.232 1.495.365 2.26zM93.64 50.337c-.133.232-.233.498-.365.73l-5.105 1.097c-16.01-1.263-39.942-3.09-58.172-4.485.232-1.03.398-1.795.497-2.094-.796.632-1.591 1.263-2.42 1.96-10.043-.764-18.098-1.328-21.777-1.561.364-.698.73-1.429 1.127-2.193 14.584.964 71.497 5.416 86.214 6.546zM83.994 56.517c-.133.764-.232 1.528-.365 2.259-14.816.764-40.704 2.093-56.548 2.99.232-.963.398-1.728.563-2.292 17.17-.964 44.782-2.36 56.35-2.957zM82.071 69.242c-.033.73-.033 1.495-.066 2.26-15.844-.599-41.831-1.53-56.747-1.994.166-.765.331-1.529.497-2.226 15.844.498 42.925 1.461 56.316 1.96zM81.939 76.718v2.259c-17.469 1.096-46.174 2.924-59.664 3.92l.497-2.292c14.617-1.063 44.383-2.957 59.167-3.887zM82.336 93.696c-17.634-.033-48.924-.033-62.481.066.166-.73.331-1.495.497-2.26 14.684-.132 47.334-.099 61.885-.066l.1 2.26zM83.265 107.484c-18.065-1.694-52.505-4.917-65.167-5.98l.497-2.193c13.756 1.13 49.787 4.519 64.47 5.914.067.764.133 1.528.2 2.26z"/>
                </g>
                <path d="M95.396 46.881c-.596 1.163-1.16 2.326-1.757 3.489-.132.232-.232.498-.364.73l-5.105 1.064-3.646.797c-.199 1.23-.365 2.426-.563 3.556-.133.764-.232 1.528-.365 2.259-.597 3.688-1.094 6.91-1.525 9.47 0 .331-.033.664-.033.996-.033.73-.033 1.495-.066 2.26a266.889 266.889 0 0 0-.067 5.216v2.259c0 1.927.034 3.854.067 5.848.033 2.259.1 4.452.199 6.645l.1 2.259c.198 3.954.43 7.808.761 11.53.067.763.133 1.528.2 2.259 0 .199.033.398.066.598a100.118 100.118 0 0 1-11.867 3.289 97.766 97.766 0 0 1-14.386 1.96 503.63 503.63 0 0 1 1.558-6.811c-1.856 2.592-3.712 5.15-5.568 7.742a3016.11 3016.11 0 0 0-24.993-3.39c-3.911-.531-7.823-1.03-11.734-1.528.564-2.492 1.127-5.15 1.724-7.808l.497-2.193c.398-1.827.829-3.72 1.226-5.582.166-.73.332-1.495.498-2.259.663-2.924 1.292-5.848 1.922-8.638l.497-2.293c.796-3.489 1.525-6.778 2.188-9.669.1-.465.199-.93.331-1.395.166-.764.332-1.528.498-2.226.497-2.193.928-4.054 1.292-5.516.232-.963.398-1.727.564-2.292 0-.033 0-.067.033-.1.033-.2.133-.565.265-1.03.033-.2 1.326-7.01 2.088-10.665.232-1.03.398-1.794.498-2.093-.796.63-1.591 1.262-2.42 1.96-.166.133-.332.299-.497.432a87.04 87.04 0 0 0-6.132 5.748c.364.033.729.033 1.093.066a11.658 11.658 0 0 1-1.26 1.894 10.914 10.914 0 0 1-1.922 1.86h-.1c-5.965.831-11.965 1.662-17.931 2.493l-.034-.034a12.075 12.075 0 0 1-.928-3.72c-.1-1.23 0-2.26.133-3.058.497.034 1.226.1 2.121.167a359.311 359.311 0 0 1 3.68-7.41c.364-.697.729-1.428 1.127-2.193.994-1.927 2.121-3.987 3.314-6.146.398-.765.829-1.529 1.293-2.293 2.486-4.352 5.27-9.004 8.253-13.49.498-.73.962-1.428 1.459-2.16.232-.365.497-.73.73-1.062 0 0 1.524-2.193 4.01-4.984a35.724 35.724 0 0 1 2.22-2.36c3.25-3.288 7.426-6.777 11.867-8.405.365-.133.696-.266.696-.266.663-.233 5.503-1.894 11.337-2.293 4.74-.332 10.341-.73 16.772 1.928 1.16.498 5.602 2.392 9.944 6.744.63.632 1.26 1.296 1.856 2.027.033.033.066.1.1.133 3.447 4.186 4.905 8.273 6.397 13.09.165.566.364 1.164.53 1.729.066.199.133.365.166.564a74.268 74.268 0 0 1 1.757 7.11c.132.732.265 1.463.397 2.227.53 3.322.928 7.044.962 11.197 1.392-.034 2.684-.133 3.977-.233z"/>
                <ellipse cx="66.724" cy="32.627" fill="#19233D" fillRule="nonzero" opacity=".51" rx="1.061" ry="1.063"/>
                <ellipse cx="66.724" cy="43.392" fill="#19233D" fillRule="nonzero" opacity=".51" rx="1.061" ry="1.063"/>
                <ellipse cx="64.039" cy="75.322" fill="#19233D" fillRule="nonzero" opacity=".51" rx="1.061" ry="1.063"/>
                <ellipse cx="62.283" cy="88.114" fill="#19233D" fillRule="nonzero" opacity=".51" rx="1.061" ry="1.063"/>
                <ellipse cx="60.062" cy="100.773" fill="#19233D" fillRule="nonzero" opacity=".51" rx="1.061" ry="1.063"/>
                <path fill="url(#l)" fillRule="nonzero" d="M95.396 46.881a506.087 506.087 0 0 1-2.121 4.22l-8.75 1.894a89.55 89.55 0 0 0-2.023-29.438 88.782 88.782 0 0 0-5.834-16.812 32.934 32.934 0 0 1 4.508 4.419c3.945 4.751 5.304 9.303 7.06 14.951 1.492 4.785 3.183 11.995 3.282 21.098 1.293-.133 2.585-.232 3.878-.332z" opacity=".17"/>
                <path fill="url(#m)" fillRule="nonzero" d="M83.33 108.082a100.117 100.117 0 0 1-11.866 3.29 97.962 97.962 0 0 1-14.352 1.96c.53-2.26 1.027-4.519 1.558-6.811L81.972 74.99c-.033 3.19 0 6.446.066 9.768.166 8.24.63 16.015 1.293 23.324z" opacity=".07"/>
                <path fill="url(#n)" fillRule="nonzero" d="M26.418 64.557c.563-2.359.961-4.153 1.226-5.183.033-.2.133-.565.266-1.03.066-.266 2.154-11.297 2.585-12.759-.961.765-1.956 1.529-2.917 2.393a87.04 87.04 0 0 0-6.132 5.748c.365.033.73.033 1.094.066a11.658 11.658 0 0 1-1.26 1.894 10.914 10.914 0 0 1-1.922 1.86h-.1c-.961.133-1.922.266-2.85.4 3.778-7.643 13.623-26.548 17.567-23.99 4.906 3.157 2.917 21.73-7.557 30.601z" opacity=".17"/>
            </g>
            <path fill="#CD907F" fillRule="nonzero" d="M101.963 151.484l9.513-10.864.73 2.392-4.177 5.283z"/>
            <g fillRule="nonzero">
                <path fill="#0D2A28" d="M126.69 135.436c-.066.432-.165.864-.231 1.296a719.179 719.179 0 0 0-1.426 8.273c-.861 5.117-1.723 10.2-2.552 15.25-2.685-.265-5.37-.53-8.088-.763-1.16-.1-2.32-.233-3.513-.333-.166-6.744-.464-19.603-.564-23.723-.033-.797-.033-1.262-.033-1.329 4.01.333 8.055.665 12.099.964 1.458.166 2.883.266 4.309.365z"/>
                <path fill="#336859" d="M128.05 135.17l-.1 1.263c-.033.266-.265.465-.497.432l-.961-.066-4.475-.366-11.634-.963-1.26-.1c-.265-.033-.464-.266-.431-.498l.1-1.263c.033-.266.265-.465.497-.432l13.391 1.097 4.906.398c.298 0 .497.233.464.499z"/>
            </g>
            <path fill="#19233D" fillRule="nonzero" d="M128.05 135.17l-.1 1.263c-.033.266-.265.465-.497.432l-.961-.066a719.177 719.177 0 0 0-1.425 8.273c-.862 5.117-1.724 10.2-2.553 15.25a607.76 607.76 0 0 0-8.088-.764c1.69-5.083 5.503-16.58 7.591-23.125.133-.465.298-.897.398-1.296.1-.299.199-.598.265-.863l4.906.398c.298 0 .497.233.464.499z" opacity=".15"/>
            <g fillRule="nonzero">
                <path fill="#CD907F" d="M112.007 150.62a.515.515 0 0 0 .63.432c3.845-.299 6.662-1.162 8.585-1.927 1.325-.531 3.58-1.594 4.043-.996.2.265 0 .697-.066.863-.961 2.26-9.58 3.821-11.966 4.22-.199.166-.464.399-.398.565.133.432 2.32.266 4.077-.166 3.017-.731 4.508-1.396 4.508-1.396.398-.166 1.194-.565 1.426-.265.199.199-.1.73-.133.83-.497.964-1.59 1.33-1.989 1.462-2.718.897-5.635 1.362-6.463 1.495-.895.166-1.658.266-2.387.432-.398.067-.762.166-1.16.266-.829.233-13.922 1.13-14.982 1.163-8.386.365-7.293.664-15.314.83-.464 0-.961.034-1.392.034-9.116.2-15.181.232-18.927-.93-1.757-.532-3.016-1.33-3.812-2.493-.597-.83-.928-1.727-1.094-2.724-.265-1.462-.1-3.057.2-4.751l.032.033c5.967-.83 11.966-1.661 17.933-2.492-.033.033-.033.067-.067.067.299 0 .597 0 .895.033 1.69.033 3.216.166 4.541.299 1.26.133 2.354.266 3.216.398h.066s17.733 2.725 21.744 1.894a1.84 1.84 0 0 0 .564-.199c.033-.033.1-.066.1-.066.099-.067.165-.1.463-.3a40.703 40.703 0 0 1 9.182-4.053 42.947 42.947 0 0 1 2.585-.698s6.331-1.76 7.59-.498a.605.605 0 0 1 .167.266c.033.664-2.32 1.262-3.216 1.495a249.01 249.01 0 0 0-9.38 2.658c-.199.2-.663.664-.497.93.066.1.232.266.828.233 2.884-.033 8.917-2.093 8.917-2.093 2.386-.831 3.845-1.197 4.441-.532.034.033.266.299.266.631-.067 1.03-2.586 1.495-5.403 2.326-2.685.797-5.801 1.562-7.823 2.027-.331.133-.563.398-.53.697z"/>
                <path fill="#19233D" d="M74.12 145.271l-18.993 7.11c-.265-1.461-.1-3.056.199-4.75l.033.032c5.966-.83 11.966-1.66 17.932-2.491-.033.033-.033.066-.066.066.298.033.597.033.895.033zM111.841 156.17c-.398.066-.762.165-1.16.265-.829.233-13.922 1.13-14.982 1.163-8.387.365-7.293.664-15.314.83-.464 0-.961.034-1.392.034-9.116.2-15.182.232-18.927-.93 8.784-4.984 42.46-2.227 51.775-1.363z" opacity=".08"/>
                <path fill="url(#o)" d="M49.09 6.512c-9.645 7.077-20.816.665-25.059-2.292 1.26.133 2.354.265 3.216.398h.066c.033 0 17.733 2.758 21.777 1.894z" opacity=".13" transform="translate(54.663 141.35)"/>
            </g>
            <g fillRule="nonzero">
                <path fill="#CD907F" d="M125.299 78.82c0 3.123-.067 6.48-.332 10.034a130.376 130.376 0 0 1-.53 5.915c-.033.166-.033.365-.067.531a159.452 159.452 0 0 1-.895 6.446c-.762 4.751-1.756 9.104-2.784 12.991a455.923 455.923 0 0 1-4.972-6.678 196.508 196.508 0 0 1-4.574-6.48c-3.514-5.249-3.945-6.844-3.878-8.571.1-3.223 1.723-3.356 2.85-8.805.796-3.721.73-6.944.53-9.137 4.906 1.262 9.779 2.525 14.652 3.754z"/>
                <path fill="#19233D" d="M124.967 88.854a130.376 130.376 0 0 1-.53 5.915c-.033.166-.033.365-.067.531-3.977-.797-12.098-3.29-10.64-10.3l11.237 3.854z" opacity=".15"/>
                <path fill="#CD907F" d="M131.232 78.72c-.1 1.064-.166 2.027-.265 2.891-.365 3.987-.696 6.114-1.591 6.978-1.16 1.13-2.95 1.694-5.006 1.794-.994.066-2.088 0-3.182-.166a19.422 19.422 0 0 1-6.927-2.426c-1.492-.864-2.884-1.927-3.978-3.19-.43-.498-.829-1.03-1.193-1.561-.464-.731-.895-1.661-3.514-15.383-.464-2.426-.828-4.42-1.094-5.815.266-2.26.83-4.352 1.757-6.147 3.116-3.09 7.955-2.89 11.17-5.98 2.32.2 4.641 1.03 6.597 2.458 2.287 1.695 3.712 3.921 4.674 6.413.132.332.265.698.364 1.03.431 1.23.762 2.492 1.028 3.754.1.366.165.731.232 1.097l.364 1.76c1.194 5.317.564 12.494.564 12.494z"/>
                <path fill="url(#p)" d="M29.368 8.838c.365 2.824-1.757 5.648-3.944 6.745-.299.166-.597.266-1.194.465-6.33 2.26-8.22.166-10.209 2.06-3.68 3.455.033 12.991-2.055 13.656-.332.132-.994.033-1.36-.333-.463-.465-.132-1.196-.33-2.06-.299-1.196-1.558-2.325-2.089-2.126-1.326.465.464 9.502-1.624 13.357-.066.132-.199.332-.398.365-1.292.233-4.11-7.044-5.104-14.353-.995-7.376-1.492-11.031.696-13.988.265-.366.53-.665.828-.93 3.116-3.09 7.956-2.891 11.17-5.981.896-.864 1.194-1.429 1.294-1.595.96-1.894.099-3.455.795-3.887.696-.432 2.387.465 3.083 1.86.63 1.23.43 2.791-.464 4.087.795-.233 1.922-.665 2.917-1.628 1.558-1.462 1.657-3.057 2.452-3.09.83 0 1.625 1.694 1.857 3.09.43 2.824-1.558 5.117-2.122 5.715-.066.033-.165.1-.165.066-.067-.066 1.26-.864 2.287-2.093 1.26-1.462 1.26-2.426 1.856-2.459.73-.066 1.624 1.529 1.823 3.057z" transform="translate(103.72 44)"/>
                <path fill="#000" d="M126.724 84.967c-.365 0-.763-.033-1.16-.133-1.558-.332-2.52-1.196-2.85-1.562a.202.202 0 0 1 0-.265.201.201 0 0 1 .264 0 4.855 4.855 0 0 0 2.619 1.462c1.027.199 1.89.066 2.42-.067.099-.033.198.033.232.133.033.1-.034.2-.133.233a4.6 4.6 0 0 1-1.392.199z"/>
                <g transform="translate(120.625 70.913)">
                    <ellipse cx="1.16" cy="1.063" fill="url(#q)" rx="1" ry="1"/>
                    <ellipse cx="8.817" cy="1.063" fill="url(#r)" rx="1" ry="1"/>
                </g>
                <path fill="url(#s)" d="M0 1.395L5.734.3l.2.93L.198 2.326z" transform="translate(118.636 66.926)"/>
                <path fill="url(#t)" d="M8.95.432l4.673.698-.132.897-4.674-.698z" transform="translate(118.636 66.926)"/>
                <path fill="url(#u)" d="M27.412 39.605c-.033-.83-.1-1.495-.132-1.994a3.895 3.895 0 0 1-1.459-.1c-1.458-.332-1.856-1.295-3.016-1.727-.497-.2-.928-.2-3.215.266-4.077.83-4.541 1.329-5.237 1.03-.929-.366-1.923-1.861-1.691-7.244-.53.167-1.06.333-1.624.499-.199.698-.53 1.76-.796 3.023-1.027 4.552-1.558 6.812-.861 8.705 1.557 4.087 7.988 5.35 11.999 4.951 1.491-.133 4.242-.399 5.37-2.293.762-1.295.729-3.156.662-5.116zm-1.723.565c.53 1.229-2.619 4.02-3.315 3.588-.331-.233.1-1.13-.497-1.661-.265-.233-.696-.333-1.06-.266-.896.2-.896 1.462-1.691 1.694-.763.2-1.625-.73-1.757-.864-1.028-1.096-1.193-3.09-.398-3.754.63-.532 1.293.266 2.685-.033 1.856-.399 2.585-2.127 3.315-1.828.53.233.199 1.097.96 1.994.697.83 1.493.598 1.758 1.13z" transform="translate(103.72 44)"/>
                <path fill="#A2625E" d="M126.525 72.01c.464 2.425 1.193 4.152 1.79 5.315.365.665.829 1.462.497 2.06-.43.83-2.088.731-2.32.698-1.293-.067-2.221-.764-2.52-1.063.862-2.293 1.691-4.652 2.553-7.01z"/>
                <g>
                    <path fill="#CD907F" d="M114.526 75.83c-.166.465-.464.93-.829 1.296a3.755 3.755 0 0 1-5.303 0 3.776 3.776 0 0 1 0-5.316l.066-.067c1.458-1.395 3.779-1.362 5.237.067 1.06 1.096 1.326 2.691.829 4.02z"/>
                    <path fill="url(#v)" d="M7.491 5.25L1.425 1.163C2.884-.233 5.204-.2 6.662 1.229c1.061 1.097 1.326 2.692.83 4.02z" opacity=".13" transform="translate(107.035 70.58)"/>
                </g>
                <path fill="#E6E3F4" d="M123.475 101.746c-.762 4.751-1.756 9.104-2.784 12.991a455.923 455.923 0 0 1-4.972-6.678 196.508 196.508 0 0 1-4.574-6.48c1.458.134 3.182.3 5.138.599 3.513.565 5.767.2 7.192-.432z"/>
            </g>
            <g fillRule="nonzero">
                <path fill="#E6E3F4" d="M240.55 175.839c.596 0 1.06.498 1.06 1.096 0 .598-.464 1.096-1.06 1.096.596 0 1.06.499 1.06 1.097 0 .432-.265.83-.663.997.398.166.663.565.663.996 0 .599-.464 1.097-1.06 1.097.596 0 1.06.498 1.06 1.096 0 .532-.397.997-.895 1.097.498.1.895.531.895 1.096 0 .598-.464 1.097-1.06 1.097.596 0 1.06.498 1.06 1.096 0 .432-.265.83-.663.997.398.166.663.565.663.997 0 .598-.464 1.096-1.06 1.096.596 0 1.06.498 1.06 1.097 0 .598-.497 1.096-1.094 1.096h-41.93a1.105 1.105 0 0 1-1.094-1.096c0-.599.464-1.097 1.06-1.097-.596 0-1.06-.498-1.06-1.096 0-.432.265-.831.663-.997a1.088 1.088 0 0 1-.663-.997c0-.598.464-1.096 1.06-1.096-.596 0-1.06-.499-1.06-1.097 0-.531.398-.997.895-1.096a1.11 1.11 0 0 1-.895-1.097c0-.598.464-1.096 1.06-1.096-.596 0-1.06-.498-1.06-1.097 0-.431.265-.83.663-.996a1.088 1.088 0 0 1-.663-.997c0-.598.464-1.097 1.06-1.097-.596 0-1.06-.498-1.06-1.096 0-.598.464-1.096 1.06-1.096-.596 0-1.06-.499-1.06-1.097 0-.432.265-.83.663-.997a1.088 1.088 0 0 1-.663-.996c0-.598.497-1.097 1.094-1.097h41.93c.597 0 1.094.499 1.094 1.097 0 .432-.265.83-.663.996.398.167.663.565.663.997 0 .598-.464 1.063-1.06 1.097z"/>
                <path fill="#BDD3DE" d="M240.55 175.839c.596 0 1.06.498 1.06 1.096 0 .598-.464 1.096-1.06 1.096.596 0 1.06.499 1.06 1.097 0 .432-.265.83-.663.997.398.166.663.565.663.996 0 .599-.464 1.097-1.06 1.097.596 0 1.06.498 1.06 1.096 0 .532-.397.997-.895 1.097.498.1.895.531.895 1.096 0 .598-.464 1.097-1.06 1.097.596 0 1.06.498 1.06 1.096 0 .432-.265.83-.663.997.398.166.663.565.663.997 0 .598-.464 1.096-1.06 1.096.596 0 1.06.498 1.06 1.097 0 .598-.497 1.096-1.094 1.096h-25.688l12.43-21.397h13.258c.597 0 1.094.498 1.094 1.096 0 .432-.265.83-.663.997.398.166.663.565.663.997 0 .664-.464 1.13-1.06 1.163z" opacity=".16"/>
            </g>
            <g fillRule="nonzero">
                <path fill="#336859" d="M221.656 174.942c-.066 1.528.1 1.993-.166 2.658-.265.73-1.027 1.561-3.116 2.126-1.425 1.429-3.712 1.76-4.077 1.827 0-.465 0-1.096.067-1.794-.763.366-1.79.698-3.249.83v-.066a8.188 8.188 0 0 1-1.558.831c-.099-.266-.165-.565-.265-.83-.563.1-1.16.066-1.823-.133-.53.598-1.027 1.063-1.293 1.262-.198-.266-.53-.797-.894-1.495-1.061-.266-2.254-.797-3.15-1.994l-.066-.066c-1.392-1.894-1.094-4.186-.961-4.984.166-1.23.564-2.16.895-2.79.43.664 1.028 1.594 1.89 2.624.033-.233.033-.432.066-.665.331-2.16 1.193-3.754 1.823-4.784-.1 1.562.232 2.658.53 3.389.199.498.431.83.663 1.163.033-.133.033-.233.066-.366.166-.764.365-1.461.597-2.093.696 1.33 1.293 2.426 1.724 3.256a9.108 9.108 0 0 0 .43-1.76c.166-.93.233-1.728.233-2.26a18.144 18.144 0 0 1 2.618 4.552c.033.1.1.233.133.332.265-.598.563-1.196.895-1.827a21.682 21.682 0 0 1 2.983-4.187V173.38c.132-.133.232-.3.364-.432.398-.432.796-.83 1.227-1.163.232.465.464 1.063.696 1.794.398-.432.829-.864 1.326-1.262.63-.499 1.293-.897 1.89-1.196-.1.797-.399 2.16-.498 3.82z"/>
                <path fill="#2A303D" d="M221.656 174.942c-.066 1.528.1 1.993-.166 2.658-.265.73-1.027 1.561-3.116 2.126-1.425 1.429-3.712 1.76-4.077 1.827 0-.465 0-1.096.067-1.794-.763.366-1.79.698-3.249.83v-.066a8.188 8.188 0 0 1-1.558.831c-.099-.266-.165-.565-.265-.83-.563.1-1.16.066-1.823-.133-.53.598-1.027 1.063-1.293 1.262-.198-.266-.53-.797-.894-1.495-1.061-.266-2.254-.797-3.15-1.994l-.066-.066c3.05.399 10.143 1.03 10.442-2.26.066-.83.132-1.66.165-2.458.033.1.1.233.133.332.265-.598.563-1.196.895-1.827a21.682 21.682 0 0 1 2.983-4.187V173.38c.133-.133.232-.3.365-.432.397-.432.795-.83 1.226-1.163.232.465.464 1.063.696 1.794.398-.432.829-.864 1.326-1.262.63-.499 1.293-.897 1.89-1.196-.133.797-.432 2.16-.531 3.82z" opacity=".24"/>
                <path fill="#19233D" d="M220.529 179.56v1.063c0 .067-.066.133-.166.133h-.265l-2.685 12.26H206.21l-.663-3.09-.995-4.485-1.027-4.652h-.63c-.1 0-.166-.066-.166-.133v-1.096c0-.067.067-.133.166-.133h17.435c.133-.033.199.033.199.133z"/>
                <path fill="url(#w)" d="M12.496 25.717H5.403l-.663-3.09-.994-4.486c2.519 2.127 6.463 5.582 8.75 7.576z" opacity=".13" transform="translate(200.84 167.266)"/>
                <path fill="url(#x)" d="M4.74 22.627l-2.022-9.17h-.265c.73-.333 1.657-.4 2.751.099 2.121 1.03.497 6.413-.464 9.07z" opacity=".05" transform="translate(200.84 167.266)"/>
            </g>
            <g fillRule="nonzero">
                <path fill="#E6E3F4" d="M266.139 193.05h-41.997a2.031 2.031 0 0 1-1.923-1.396l-11.568-36.116a1.207 1.207 0 0 1 .796-1.529c.63-.199 1.326.133 1.525.798l11.468 35.817h41.699c.663 0 1.226.565 1.226 1.23 0 .664-.53 1.195-1.226 1.195z"/>
                <path fill="url(#y)" d="M56.913 38.176c0 .665-.564 1.23-1.227 1.23H13.69c-.365 0-.73-.1-1.028-.266-.43-.233-.73-.632-.895-1.13L.2 1.894A1.257 1.257 0 0 1 .994.332a1.23 1.23 0 0 1 1.525.798l11.469 35.817h41.698c.697 0 1.227.565 1.227 1.23z" opacity=".5" transform="translate(210.452 153.644)"/>
                <path fill="#19233D" d="M267.365 191.82c0 .665-.563 1.23-1.226 1.23h-41.997c-.365 0-.73-.1-1.028-.266l1.79-2.193h41.235c.696 0 1.226.565 1.226 1.23z" opacity=".08"/>
                <path fill="#000" d="M227.987 191.388h3.15v1h-3.15z"/>
            </g>
        </g>
    </g>
</svg>
